<?xml version="1.0" encoding="utf-8" standalone="no"?>
<!DOCTYPE svg PUBLIC "-//W3C//DTD SVG 1.1//EN"
  "http://www.w3.org/Graphics/SVG/1.1/DTD/svg11.dtd">
<svg xmlns:xlink="http://www.w3.org/1999/xlink" width="712.380312pt" height="352.474375pt" viewBox="0 0 712.380312 352.474375" xmlns="http://www.w3.org/2000/svg" version="1.1">
 <metadata>
  <rdf:RDF xmlns:dc="http://purl.org/dc/elements/1.1/" xmlns:cc="http://creativecommons.org/ns#" xmlns:rdf="http://www.w3.org/1999/02/22-rdf-syntax-ns#">
   <cc:Work>
    <dc:type rdf:resource="http://purl.org/dc/dcmitype/StillImage"/>
    <dc:date>2025-09-14T22:44:15.687235</dc:date>
    <dc:format>image/svg+xml</dc:format>
    <dc:creator>
     <cc:Agent>
      <dc:title>Matplotlib v3.10.5, https://matplotlib.org/</dc:title>
     </cc:Agent>
    </dc:creator>
   </cc:Work>
  </rdf:RDF>
 </metadata>
 <defs>
  <style type="text/css">*{stroke-linejoin: round; stroke-linecap: butt}</style>
 </defs>
 <g id="figure_1">
  <g id="patch_1">
   <path d="M 0 352.474375 
L 712.380312 352.474375 
L 712.380312 0 
L 0 0 
z
" style="fill: #ffffff"/>
  </g>
  <g id="axes_1">
   <g id="patch_2">
    <path d="M 42.620313 314.918125 
L 705.180313 314.918125 
L 705.180313 22.318125 
L 42.620313 22.318125 
z
" style="fill: #ffffff"/>
   </g>
   <g id="patch_3">
    <path d="M 373.900313 314.918125 
L 675.063949 314.918125 
L 675.063949 22.318125 
L 373.900313 22.318125 
z
" clip-path="url(#pdd22ba8ac7)" style="fill: #1f77b4; opacity: 0.05"/>
   </g>
   <g id="matplotlib.axis_1">
    <g id="xtick_1">
     <g id="line2d_1">
      <path d="M 72.736676 314.918125 
L 72.736676 22.318125 
" clip-path="url(#pdd22ba8ac7)" style="fill: none; stroke: #b0b0b0; stroke-width: 0.8; stroke-linecap: square"/>
     </g>
     <g id="line2d_2">
      <defs>
       <path id="m2fd0548a37" d="M 0 0 
L 0 3.5 
" style="stroke: #000000; stroke-width: 0.8"/>
      </defs>
      <g>
       <use xlink:href="#m2fd0548a37" x="72.736676" y="314.918125" style="stroke: #000000; stroke-width: 0.8"/>
      </g>
     </g>
     <g id="text_1">
      <!-- −30 -->
      <g transform="translate(62.184332 329.516563) scale(0.1 -0.1)">
       <defs>
        <path id="DejaVuSans-2212" d="M 678 2272 
L 4684 2272 
L 4684 1741 
L 678 1741 
L 678 2272 
z
" transform="scale(0.015625)"/>
        <path id="DejaVuSans-33" d="M 2597 2516 
Q 3050 2419 3304 2112 
Q 3559 1806 3559 1356 
Q 3559 666 3084 287 
Q 2609 -91 1734 -91 
Q 1441 -91 1130 -33 
Q 819 25 488 141 
L 488 750 
Q 750 597 1062 519 
Q 1375 441 1716 441 
Q 2309 441 2620 675 
Q 2931 909 2931 1356 
Q 2931 1769 2642 2001 
Q 2353 2234 1838 2234 
L 1294 2234 
L 1294 2753 
L 1863 2753 
Q 2328 2753 2575 2939 
Q 2822 3125 2822 3475 
Q 2822 3834 2567 4026 
Q 2313 4219 1838 4219 
Q 1578 4219 1281 4162 
Q 984 4106 628 3988 
L 628 4550 
Q 988 4650 1302 4700 
Q 1616 4750 1894 4750 
Q 2613 4750 3031 4423 
Q 3450 4097 3450 3541 
Q 3450 3153 3228 2886 
Q 3006 2619 2597 2516 
z
" transform="scale(0.015625)"/>
        <path id="DejaVuSans-30" d="M 2034 4250 
Q 1547 4250 1301 3770 
Q 1056 3291 1056 2328 
Q 1056 1369 1301 889 
Q 1547 409 2034 409 
Q 2525 409 2770 889 
Q 3016 1369 3016 2328 
Q 3016 3291 2770 3770 
Q 2525 4250 2034 4250 
z
M 2034 4750 
Q 2819 4750 3233 4129 
Q 3647 3509 3647 2328 
Q 3647 1150 3233 529 
Q 2819 -91 2034 -91 
Q 1250 -91 836 529 
Q 422 1150 422 2328 
Q 422 3509 836 4129 
Q 1250 4750 2034 4750 
z
" transform="scale(0.015625)"/>
       </defs>
       <use xlink:href="#DejaVuSans-2212"/>
       <use xlink:href="#DejaVuSans-33" transform="translate(83.789062 0)"/>
       <use xlink:href="#DejaVuSans-30" transform="translate(147.412109 0)"/>
      </g>
     </g>
    </g>
    <g id="xtick_2">
     <g id="line2d_3">
      <path d="M 173.124555 314.918125 
L 173.124555 22.318125 
" clip-path="url(#pdd22ba8ac7)" style="fill: none; stroke: #b0b0b0; stroke-width: 0.8; stroke-linecap: square"/>
     </g>
     <g id="line2d_4">
      <g>
       <use xlink:href="#m2fd0548a37" x="173.124555" y="314.918125" style="stroke: #000000; stroke-width: 0.8"/>
      </g>
     </g>
     <g id="text_2">
      <!-- −20 -->
      <g transform="translate(162.572211 329.516563) scale(0.1 -0.1)">
       <defs>
        <path id="DejaVuSans-32" d="M 1228 531 
L 3431 531 
L 3431 0 
L 469 0 
L 469 531 
Q 828 903 1448 1529 
Q 2069 2156 2228 2338 
Q 2531 2678 2651 2914 
Q 2772 3150 2772 3378 
Q 2772 3750 2511 3984 
Q 2250 4219 1831 4219 
Q 1534 4219 1204 4116 
Q 875 4013 500 3803 
L 500 4441 
Q 881 4594 1212 4672 
Q 1544 4750 1819 4750 
Q 2544 4750 2975 4387 
Q 3406 4025 3406 3419 
Q 3406 3131 3298 2873 
Q 3191 2616 2906 2266 
Q 2828 2175 2409 1742 
Q 1991 1309 1228 531 
z
" transform="scale(0.015625)"/>
       </defs>
       <use xlink:href="#DejaVuSans-2212"/>
       <use xlink:href="#DejaVuSans-32" transform="translate(83.789062 0)"/>
       <use xlink:href="#DejaVuSans-30" transform="translate(147.412109 0)"/>
      </g>
     </g>
    </g>
    <g id="xtick_3">
     <g id="line2d_5">
      <path d="M 273.512434 314.918125 
L 273.512434 22.318125 
" clip-path="url(#pdd22ba8ac7)" style="fill: none; stroke: #b0b0b0; stroke-width: 0.8; stroke-linecap: square"/>
     </g>
     <g id="line2d_6">
      <g>
       <use xlink:href="#m2fd0548a37" x="273.512434" y="314.918125" style="stroke: #000000; stroke-width: 0.8"/>
      </g>
     </g>
     <g id="text_3">
      <!-- −10 -->
      <g transform="translate(262.96009 329.516563) scale(0.1 -0.1)">
       <defs>
        <path id="DejaVuSans-31" d="M 794 531 
L 1825 531 
L 1825 4091 
L 703 3866 
L 703 4441 
L 1819 4666 
L 2450 4666 
L 2450 531 
L 3481 531 
L 3481 0 
L 794 0 
L 794 531 
z
" transform="scale(0.015625)"/>
       </defs>
       <use xlink:href="#DejaVuSans-2212"/>
       <use xlink:href="#DejaVuSans-31" transform="translate(83.789062 0)"/>
       <use xlink:href="#DejaVuSans-30" transform="translate(147.412109 0)"/>
      </g>
     </g>
    </g>
    <g id="xtick_4">
     <g id="line2d_7">
      <path d="M 373.900313 314.918125 
L 373.900313 22.318125 
" clip-path="url(#pdd22ba8ac7)" style="fill: none; stroke: #b0b0b0; stroke-width: 0.8; stroke-linecap: square"/>
     </g>
     <g id="line2d_8">
      <g>
       <use xlink:href="#m2fd0548a37" x="373.900313" y="314.918125" style="stroke: #000000; stroke-width: 0.8"/>
      </g>
     </g>
     <g id="text_4">
      <!-- 0 -->
      <g transform="translate(370.719063 329.516563) scale(0.1 -0.1)">
       <use xlink:href="#DejaVuSans-30"/>
      </g>
     </g>
    </g>
    <g id="xtick_5">
     <g id="line2d_9">
      <path d="M 474.288191 314.918125 
L 474.288191 22.318125 
" clip-path="url(#pdd22ba8ac7)" style="fill: none; stroke: #b0b0b0; stroke-width: 0.8; stroke-linecap: square"/>
     </g>
     <g id="line2d_10">
      <g>
       <use xlink:href="#m2fd0548a37" x="474.288191" y="314.918125" style="stroke: #000000; stroke-width: 0.8"/>
      </g>
     </g>
     <g id="text_5">
      <!-- 10 -->
      <g transform="translate(467.925691 329.516563) scale(0.1 -0.1)">
       <use xlink:href="#DejaVuSans-31"/>
       <use xlink:href="#DejaVuSans-30" transform="translate(63.623047 0)"/>
      </g>
     </g>
    </g>
    <g id="xtick_6">
     <g id="line2d_11">
      <path d="M 574.67607 314.918125 
L 574.67607 22.318125 
" clip-path="url(#pdd22ba8ac7)" style="fill: none; stroke: #b0b0b0; stroke-width: 0.8; stroke-linecap: square"/>
     </g>
     <g id="line2d_12">
      <g>
       <use xlink:href="#m2fd0548a37" x="574.67607" y="314.918125" style="stroke: #000000; stroke-width: 0.8"/>
      </g>
     </g>
     <g id="text_6">
      <!-- 20 -->
      <g transform="translate(568.31357 329.516563) scale(0.1 -0.1)">
       <use xlink:href="#DejaVuSans-32"/>
       <use xlink:href="#DejaVuSans-30" transform="translate(63.623047 0)"/>
      </g>
     </g>
    </g>
    <g id="xtick_7">
     <g id="line2d_13">
      <path d="M 675.063949 314.918125 
L 675.063949 22.318125 
" clip-path="url(#pdd22ba8ac7)" style="fill: none; stroke: #b0b0b0; stroke-width: 0.8; stroke-linecap: square"/>
     </g>
     <g id="line2d_14">
      <g>
       <use xlink:href="#m2fd0548a37" x="675.063949" y="314.918125" style="stroke: #000000; stroke-width: 0.8"/>
      </g>
     </g>
     <g id="text_7">
      <!-- 30 -->
      <g transform="translate(668.701449 329.516563) scale(0.1 -0.1)">
       <use xlink:href="#DejaVuSans-33"/>
       <use xlink:href="#DejaVuSans-30" transform="translate(63.623047 0)"/>
      </g>
     </g>
    </g>
    <g id="text_8">
     <!-- event time k (days) -->
     <g transform="translate(324.996406 343.194687) scale(0.1 -0.1)">
      <defs>
       <path id="DejaVuSans-65" d="M 3597 1894 
L 3597 1613 
L 953 1613 
Q 991 1019 1311 708 
Q 1631 397 2203 397 
Q 2534 397 2845 478 
Q 3156 559 3463 722 
L 3463 178 
Q 3153 47 2828 -22 
Q 2503 -91 2169 -91 
Q 1331 -91 842 396 
Q 353 884 353 1716 
Q 353 2575 817 3079 
Q 1281 3584 2069 3584 
Q 2775 3584 3186 3129 
Q 3597 2675 3597 1894 
z
M 3022 2063 
Q 3016 2534 2758 2815 
Q 2500 3097 2075 3097 
Q 1594 3097 1305 2825 
Q 1016 2553 972 2059 
L 3022 2063 
z
" transform="scale(0.015625)"/>
       <path id="DejaVuSans-76" d="M 191 3500 
L 800 3500 
L 1894 563 
L 2988 3500 
L 3597 3500 
L 2284 0 
L 1503 0 
L 191 3500 
z
" transform="scale(0.015625)"/>
       <path id="DejaVuSans-6e" d="M 3513 2113 
L 3513 0 
L 2938 0 
L 2938 2094 
Q 2938 2591 2744 2837 
Q 2550 3084 2163 3084 
Q 1697 3084 1428 2787 
Q 1159 2491 1159 1978 
L 1159 0 
L 581 0 
L 581 3500 
L 1159 3500 
L 1159 2956 
Q 1366 3272 1645 3428 
Q 1925 3584 2291 3584 
Q 2894 3584 3203 3211 
Q 3513 2838 3513 2113 
z
" transform="scale(0.015625)"/>
       <path id="DejaVuSans-74" d="M 1172 4494 
L 1172 3500 
L 2356 3500 
L 2356 3053 
L 1172 3053 
L 1172 1153 
Q 1172 725 1289 603 
Q 1406 481 1766 481 
L 2356 481 
L 2356 0 
L 1766 0 
Q 1100 0 847 248 
Q 594 497 594 1153 
L 594 3053 
L 172 3053 
L 172 3500 
L 594 3500 
L 594 4494 
L 1172 4494 
z
" transform="scale(0.015625)"/>
       <path id="DejaVuSans-20" transform="scale(0.015625)"/>
       <path id="DejaVuSans-69" d="M 603 3500 
L 1178 3500 
L 1178 0 
L 603 0 
L 603 3500 
z
M 603 4863 
L 1178 4863 
L 1178 4134 
L 603 4134 
L 603 4863 
z
" transform="scale(0.015625)"/>
       <path id="DejaVuSans-6d" d="M 3328 2828 
Q 3544 3216 3844 3400 
Q 4144 3584 4550 3584 
Q 5097 3584 5394 3201 
Q 5691 2819 5691 2113 
L 5691 0 
L 5113 0 
L 5113 2094 
Q 5113 2597 4934 2840 
Q 4756 3084 4391 3084 
Q 3944 3084 3684 2787 
Q 3425 2491 3425 1978 
L 3425 0 
L 2847 0 
L 2847 2094 
Q 2847 2600 2669 2842 
Q 2491 3084 2119 3084 
Q 1678 3084 1418 2786 
Q 1159 2488 1159 1978 
L 1159 0 
L 581 0 
L 581 3500 
L 1159 3500 
L 1159 2956 
Q 1356 3278 1631 3431 
Q 1906 3584 2284 3584 
Q 2666 3584 2933 3390 
Q 3200 3197 3328 2828 
z
" transform="scale(0.015625)"/>
       <path id="DejaVuSans-6b" d="M 581 4863 
L 1159 4863 
L 1159 1991 
L 2875 3500 
L 3609 3500 
L 1753 1863 
L 3688 0 
L 2938 0 
L 1159 1709 
L 1159 0 
L 581 0 
L 581 4863 
z
" transform="scale(0.015625)"/>
       <path id="DejaVuSans-28" d="M 1984 4856 
Q 1566 4138 1362 3434 
Q 1159 2731 1159 2009 
Q 1159 1288 1364 580 
Q 1569 -128 1984 -844 
L 1484 -844 
Q 1016 -109 783 600 
Q 550 1309 550 2009 
Q 550 2706 781 3412 
Q 1013 4119 1484 4856 
L 1984 4856 
z
" transform="scale(0.015625)"/>
       <path id="DejaVuSans-64" d="M 2906 2969 
L 2906 4863 
L 3481 4863 
L 3481 0 
L 2906 0 
L 2906 525 
Q 2725 213 2448 61 
Q 2172 -91 1784 -91 
Q 1150 -91 751 415 
Q 353 922 353 1747 
Q 353 2572 751 3078 
Q 1150 3584 1784 3584 
Q 2172 3584 2448 3432 
Q 2725 3281 2906 2969 
z
M 947 1747 
Q 947 1113 1208 752 
Q 1469 391 1925 391 
Q 2381 391 2643 752 
Q 2906 1113 2906 1747 
Q 2906 2381 2643 2742 
Q 2381 3103 1925 3103 
Q 1469 3103 1208 2742 
Q 947 2381 947 1747 
z
" transform="scale(0.015625)"/>
       <path id="DejaVuSans-61" d="M 2194 1759 
Q 1497 1759 1228 1600 
Q 959 1441 959 1056 
Q 959 750 1161 570 
Q 1363 391 1709 391 
Q 2188 391 2477 730 
Q 2766 1069 2766 1631 
L 2766 1759 
L 2194 1759 
z
M 3341 1997 
L 3341 0 
L 2766 0 
L 2766 531 
Q 2569 213 2275 61 
Q 1981 -91 1556 -91 
Q 1019 -91 701 211 
Q 384 513 384 1019 
Q 384 1609 779 1909 
Q 1175 2209 1959 2209 
L 2766 2209 
L 2766 2266 
Q 2766 2663 2505 2880 
Q 2244 3097 1772 3097 
Q 1472 3097 1187 3025 
Q 903 2953 641 2809 
L 641 3341 
Q 956 3463 1253 3523 
Q 1550 3584 1831 3584 
Q 2591 3584 2966 3190 
Q 3341 2797 3341 1997 
z
" transform="scale(0.015625)"/>
       <path id="DejaVuSans-79" d="M 2059 -325 
Q 1816 -950 1584 -1140 
Q 1353 -1331 966 -1331 
L 506 -1331 
L 506 -850 
L 844 -850 
Q 1081 -850 1212 -737 
Q 1344 -625 1503 -206 
L 1606 56 
L 191 3500 
L 800 3500 
L 1894 763 
L 2988 3500 
L 3597 3500 
L 2059 -325 
z
" transform="scale(0.015625)"/>
       <path id="DejaVuSans-73" d="M 2834 3397 
L 2834 2853 
Q 2591 2978 2328 3040 
Q 2066 3103 1784 3103 
Q 1356 3103 1142 2972 
Q 928 2841 928 2578 
Q 928 2378 1081 2264 
Q 1234 2150 1697 2047 
L 1894 2003 
Q 2506 1872 2764 1633 
Q 3022 1394 3022 966 
Q 3022 478 2636 193 
Q 2250 -91 1575 -91 
Q 1294 -91 989 -36 
Q 684 19 347 128 
L 347 722 
Q 666 556 975 473 
Q 1284 391 1588 391 
Q 1994 391 2212 530 
Q 2431 669 2431 922 
Q 2431 1156 2273 1281 
Q 2116 1406 1581 1522 
L 1381 1569 
Q 847 1681 609 1914 
Q 372 2147 372 2553 
Q 372 3047 722 3315 
Q 1072 3584 1716 3584 
Q 2034 3584 2315 3537 
Q 2597 3491 2834 3397 
z
" transform="scale(0.015625)"/>
       <path id="DejaVuSans-29" d="M 513 4856 
L 1013 4856 
Q 1481 4119 1714 3412 
Q 1947 2706 1947 2009 
Q 1947 1309 1714 600 
Q 1481 -109 1013 -844 
L 513 -844 
Q 928 -128 1133 580 
Q 1338 1288 1338 2009 
Q 1338 2731 1133 3434 
Q 928 4138 513 4856 
z
" transform="scale(0.015625)"/>
      </defs>
      <use xlink:href="#DejaVuSans-65"/>
      <use xlink:href="#DejaVuSans-76" transform="translate(61.523438 0)"/>
      <use xlink:href="#DejaVuSans-65" transform="translate(120.703125 0)"/>
      <use xlink:href="#DejaVuSans-6e" transform="translate(182.226562 0)"/>
      <use xlink:href="#DejaVuSans-74" transform="translate(245.605469 0)"/>
      <use xlink:href="#DejaVuSans-20" transform="translate(284.814453 0)"/>
      <use xlink:href="#DejaVuSans-74" transform="translate(316.601562 0)"/>
      <use xlink:href="#DejaVuSans-69" transform="translate(355.810547 0)"/>
      <use xlink:href="#DejaVuSans-6d" transform="translate(383.59375 0)"/>
      <use xlink:href="#DejaVuSans-65" transform="translate(481.005859 0)"/>
      <use xlink:href="#DejaVuSans-20" transform="translate(542.529297 0)"/>
      <use xlink:href="#DejaVuSans-6b" transform="translate(574.316406 0)"/>
      <use xlink:href="#DejaVuSans-20" transform="translate(632.226562 0)"/>
      <use xlink:href="#DejaVuSans-28" transform="translate(664.013672 0)"/>
      <use xlink:href="#DejaVuSans-64" transform="translate(703.027344 0)"/>
      <use xlink:href="#DejaVuSans-61" transform="translate(766.503906 0)"/>
      <use xlink:href="#DejaVuSans-79" transform="translate(827.783203 0)"/>
      <use xlink:href="#DejaVuSans-73" transform="translate(886.962891 0)"/>
      <use xlink:href="#DejaVuSans-29" transform="translate(939.0625 0)"/>
     </g>
    </g>
   </g>
   <g id="matplotlib.axis_2">
    <g id="ytick_1">
     <g id="line2d_15">
      <path d="M 42.620313 288.596602 
L 705.180313 288.596602 
" clip-path="url(#pdd22ba8ac7)" style="fill: none; stroke: #b0b0b0; stroke-width: 0.8; stroke-linecap: square"/>
     </g>
     <g id="line2d_16">
      <defs>
       <path id="m6efdac2b3f" d="M 0 0 
L -3.5 0 
" style="stroke: #000000; stroke-width: 0.8"/>
      </defs>
      <g>
       <use xlink:href="#m6efdac2b3f" x="42.620313" y="288.596602" style="stroke: #000000; stroke-width: 0.8"/>
      </g>
     </g>
     <g id="text_9">
      <!-- −3 -->
      <g transform="translate(20.878125 292.39582) scale(0.1 -0.1)">
       <use xlink:href="#DejaVuSans-2212"/>
       <use xlink:href="#DejaVuSans-33" transform="translate(83.789062 0)"/>
      </g>
     </g>
    </g>
    <g id="ytick_2">
     <g id="line2d_17">
      <path d="M 42.620313 252.393861 
L 705.180313 252.393861 
" clip-path="url(#pdd22ba8ac7)" style="fill: none; stroke: #b0b0b0; stroke-width: 0.8; stroke-linecap: square"/>
     </g>
     <g id="line2d_18">
      <g>
       <use xlink:href="#m6efdac2b3f" x="42.620313" y="252.393861" style="stroke: #000000; stroke-width: 0.8"/>
      </g>
     </g>
     <g id="text_10">
      <!-- −2 -->
      <g transform="translate(20.878125 256.19308) scale(0.1 -0.1)">
       <use xlink:href="#DejaVuSans-2212"/>
       <use xlink:href="#DejaVuSans-32" transform="translate(83.789062 0)"/>
      </g>
     </g>
    </g>
    <g id="ytick_3">
     <g id="line2d_19">
      <path d="M 42.620313 216.191121 
L 705.180313 216.191121 
" clip-path="url(#pdd22ba8ac7)" style="fill: none; stroke: #b0b0b0; stroke-width: 0.8; stroke-linecap: square"/>
     </g>
     <g id="line2d_20">
      <g>
       <use xlink:href="#m6efdac2b3f" x="42.620313" y="216.191121" style="stroke: #000000; stroke-width: 0.8"/>
      </g>
     </g>
     <g id="text_11">
      <!-- −1 -->
      <g transform="translate(20.878125 219.99034) scale(0.1 -0.1)">
       <use xlink:href="#DejaVuSans-2212"/>
       <use xlink:href="#DejaVuSans-31" transform="translate(83.789062 0)"/>
      </g>
     </g>
    </g>
    <g id="ytick_4">
     <g id="line2d_21">
      <path d="M 42.620313 179.988381 
L 705.180313 179.988381 
" clip-path="url(#pdd22ba8ac7)" style="fill: none; stroke: #b0b0b0; stroke-width: 0.8; stroke-linecap: square"/>
     </g>
     <g id="line2d_22">
      <g>
       <use xlink:href="#m6efdac2b3f" x="42.620313" y="179.988381" style="stroke: #000000; stroke-width: 0.8"/>
      </g>
     </g>
     <g id="text_12">
      <!-- 0 -->
      <g transform="translate(29.257813 183.787599) scale(0.1 -0.1)">
       <use xlink:href="#DejaVuSans-30"/>
      </g>
     </g>
    </g>
    <g id="ytick_5">
     <g id="line2d_23">
      <path d="M 42.620313 143.78564 
L 705.180313 143.78564 
" clip-path="url(#pdd22ba8ac7)" style="fill: none; stroke: #b0b0b0; stroke-width: 0.8; stroke-linecap: square"/>
     </g>
     <g id="line2d_24">
      <g>
       <use xlink:href="#m6efdac2b3f" x="42.620313" y="143.78564" style="stroke: #000000; stroke-width: 0.8"/>
      </g>
     </g>
     <g id="text_13">
      <!-- 1 -->
      <g transform="translate(29.257813 147.584859) scale(0.1 -0.1)">
       <use xlink:href="#DejaVuSans-31"/>
      </g>
     </g>
    </g>
    <g id="ytick_6">
     <g id="line2d_25">
      <path d="M 42.620313 107.5829 
L 705.180313 107.5829 
" clip-path="url(#pdd22ba8ac7)" style="fill: none; stroke: #b0b0b0; stroke-width: 0.8; stroke-linecap: square"/>
     </g>
     <g id="line2d_26">
      <g>
       <use xlink:href="#m6efdac2b3f" x="42.620313" y="107.5829" style="stroke: #000000; stroke-width: 0.8"/>
      </g>
     </g>
     <g id="text_14">
      <!-- 2 -->
      <g transform="translate(29.257813 111.382119) scale(0.1 -0.1)">
       <use xlink:href="#DejaVuSans-32"/>
      </g>
     </g>
    </g>
    <g id="ytick_7">
     <g id="line2d_27">
      <path d="M 42.620313 71.38016 
L 705.180313 71.38016 
" clip-path="url(#pdd22ba8ac7)" style="fill: none; stroke: #b0b0b0; stroke-width: 0.8; stroke-linecap: square"/>
     </g>
     <g id="line2d_28">
      <g>
       <use xlink:href="#m6efdac2b3f" x="42.620313" y="71.38016" style="stroke: #000000; stroke-width: 0.8"/>
      </g>
     </g>
     <g id="text_15">
      <!-- 3 -->
      <g transform="translate(29.257813 75.179378) scale(0.1 -0.1)">
       <use xlink:href="#DejaVuSans-33"/>
      </g>
     </g>
    </g>
    <g id="ytick_8">
     <g id="line2d_29">
      <path d="M 42.620313 35.177419 
L 705.180313 35.177419 
" clip-path="url(#pdd22ba8ac7)" style="fill: none; stroke: #b0b0b0; stroke-width: 0.8; stroke-linecap: square"/>
     </g>
     <g id="line2d_30">
      <g>
       <use xlink:href="#m6efdac2b3f" x="42.620313" y="35.177419" style="stroke: #000000; stroke-width: 0.8"/>
      </g>
     </g>
     <g id="text_16">
      <!-- 4 -->
      <g transform="translate(29.257813 38.976638) scale(0.1 -0.1)">
       <defs>
        <path id="DejaVuSans-34" d="M 2419 4116 
L 825 1625 
L 2419 1625 
L 2419 4116 
z
M 2253 4666 
L 3047 4666 
L 3047 1625 
L 3713 1625 
L 3713 1100 
L 3047 1100 
L 3047 0 
L 2419 0 
L 2419 1100 
L 313 1100 
L 313 1709 
L 2253 4666 
z
" transform="scale(0.015625)"/>
       </defs>
       <use xlink:href="#DejaVuSans-34"/>
      </g>
     </g>
    </g>
    <g id="text_17">
     <!-- coef on event-time dummies -->
     <g transform="translate(14.798438 240.754062) rotate(-90) scale(0.1 -0.1)">
      <defs>
       <path id="DejaVuSans-63" d="M 3122 3366 
L 3122 2828 
Q 2878 2963 2633 3030 
Q 2388 3097 2138 3097 
Q 1578 3097 1268 2742 
Q 959 2388 959 1747 
Q 959 1106 1268 751 
Q 1578 397 2138 397 
Q 2388 397 2633 464 
Q 2878 531 3122 666 
L 3122 134 
Q 2881 22 2623 -34 
Q 2366 -91 2075 -91 
Q 1284 -91 818 406 
Q 353 903 353 1747 
Q 353 2603 823 3093 
Q 1294 3584 2113 3584 
Q 2378 3584 2631 3529 
Q 2884 3475 3122 3366 
z
" transform="scale(0.015625)"/>
       <path id="DejaVuSans-6f" d="M 1959 3097 
Q 1497 3097 1228 2736 
Q 959 2375 959 1747 
Q 959 1119 1226 758 
Q 1494 397 1959 397 
Q 2419 397 2687 759 
Q 2956 1122 2956 1747 
Q 2956 2369 2687 2733 
Q 2419 3097 1959 3097 
z
M 1959 3584 
Q 2709 3584 3137 3096 
Q 3566 2609 3566 1747 
Q 3566 888 3137 398 
Q 2709 -91 1959 -91 
Q 1206 -91 779 398 
Q 353 888 353 1747 
Q 353 2609 779 3096 
Q 1206 3584 1959 3584 
z
" transform="scale(0.015625)"/>
       <path id="DejaVuSans-66" d="M 2375 4863 
L 2375 4384 
L 1825 4384 
Q 1516 4384 1395 4259 
Q 1275 4134 1275 3809 
L 1275 3500 
L 2222 3500 
L 2222 3053 
L 1275 3053 
L 1275 0 
L 697 0 
L 697 3053 
L 147 3053 
L 147 3500 
L 697 3500 
L 697 3744 
Q 697 4328 969 4595 
Q 1241 4863 1831 4863 
L 2375 4863 
z
" transform="scale(0.015625)"/>
       <path id="DejaVuSans-2d" d="M 313 2009 
L 1997 2009 
L 1997 1497 
L 313 1497 
L 313 2009 
z
" transform="scale(0.015625)"/>
       <path id="DejaVuSans-75" d="M 544 1381 
L 544 3500 
L 1119 3500 
L 1119 1403 
Q 1119 906 1312 657 
Q 1506 409 1894 409 
Q 2359 409 2629 706 
Q 2900 1003 2900 1516 
L 2900 3500 
L 3475 3500 
L 3475 0 
L 2900 0 
L 2900 538 
Q 2691 219 2414 64 
Q 2138 -91 1772 -91 
Q 1169 -91 856 284 
Q 544 659 544 1381 
z
M 1991 3584 
L 1991 3584 
z
" transform="scale(0.015625)"/>
      </defs>
      <use xlink:href="#DejaVuSans-63"/>
      <use xlink:href="#DejaVuSans-6f" transform="translate(54.980469 0)"/>
      <use xlink:href="#DejaVuSans-65" transform="translate(116.162109 0)"/>
      <use xlink:href="#DejaVuSans-66" transform="translate(177.685547 0)"/>
      <use xlink:href="#DejaVuSans-20" transform="translate(212.890625 0)"/>
      <use xlink:href="#DejaVuSans-6f" transform="translate(244.677734 0)"/>
      <use xlink:href="#DejaVuSans-6e" transform="translate(305.859375 0)"/>
      <use xlink:href="#DejaVuSans-20" transform="translate(369.238281 0)"/>
      <use xlink:href="#DejaVuSans-65" transform="translate(401.025391 0)"/>
      <use xlink:href="#DejaVuSans-76" transform="translate(462.548828 0)"/>
      <use xlink:href="#DejaVuSans-65" transform="translate(521.728516 0)"/>
      <use xlink:href="#DejaVuSans-6e" transform="translate(583.251953 0)"/>
      <use xlink:href="#DejaVuSans-74" transform="translate(646.630859 0)"/>
      <use xlink:href="#DejaVuSans-2d" transform="translate(685.839844 0)"/>
      <use xlink:href="#DejaVuSans-74" transform="translate(721.923828 0)"/>
      <use xlink:href="#DejaVuSans-69" transform="translate(761.132812 0)"/>
      <use xlink:href="#DejaVuSans-6d" transform="translate(788.916016 0)"/>
      <use xlink:href="#DejaVuSans-65" transform="translate(886.328125 0)"/>
      <use xlink:href="#DejaVuSans-20" transform="translate(947.851562 0)"/>
      <use xlink:href="#DejaVuSans-64" transform="translate(979.638672 0)"/>
      <use xlink:href="#DejaVuSans-75" transform="translate(1043.115234 0)"/>
      <use xlink:href="#DejaVuSans-6d" transform="translate(1106.494141 0)"/>
      <use xlink:href="#DejaVuSans-6d" transform="translate(1203.90625 0)"/>
      <use xlink:href="#DejaVuSans-69" transform="translate(1301.318359 0)"/>
      <use xlink:href="#DejaVuSans-65" transform="translate(1329.101562 0)"/>
      <use xlink:href="#DejaVuSans-73" transform="translate(1390.625 0)"/>
     </g>
    </g>
   </g>
   <g id="line2d_31">
    <path d="M 42.620313 179.988381 
L 705.180313 179.988381 
" clip-path="url(#pdd22ba8ac7)" style="fill: none; stroke: #1f77b4; stroke-linecap: square"/>
   </g>
   <g id="line2d_32">
    <path d="M 373.900313 314.918125 
L 373.900313 22.318125 
" clip-path="url(#pdd22ba8ac7)" style="fill: none; stroke-dasharray: 3.7,1.6; stroke-dashoffset: 0; stroke: #1f77b4"/>
   </g>
   <g id="line2d_33">
    <path d="M 72.736676 108.75081 
L 82.775464 105.844044 
L 92.814252 100.141628 
L 102.85304 100.513874 
L 112.891828 96.955378 
L 122.930616 80.480138 
L 132.969403 79.282276 
L 143.008191 81.704828 
L 153.046979 84.138987 
L 163.085767 92.32233 
L 173.124555 63.838558 
L 183.163343 112.26982 
L 193.202131 115.838022 
L 203.240919 82.590071 
L 213.279706 124.855538 
L 223.318494 166.88688 
L 233.357282 119.57757 
L 243.39607 87.373993 
L 253.434858 64.805838 
L 263.473646 74.041985 
L 273.512434 55.43258 
L 283.551222 51.125057 
L 293.590009 55.657454 
L 303.628797 58.508652 
L 313.667585 63.360279 
L 323.706373 56.572473 
L 333.745161 47.385987 
L 343.783949 44.19723 
L 353.822737 35.618125 
L 373.900313 221.588374 
L 383.9391 166.54235 
L 393.977888 136.811157 
L 404.016676 159.885506 
L 414.055464 177.150107 
L 424.094252 225.340024 
L 434.13304 301.618125 
L 444.171828 240.121782 
L 454.210616 186.655897 
L 464.249403 190.837349 
L 474.288191 178.120413 
L 484.326979 153.48589 
L 494.365767 158.64072 
L 504.404555 156.54909 
L 514.443343 178.235307 
L 524.482131 160.619058 
L 534.520919 151.71841 
L 544.559706 148.322525 
L 554.598494 137.254408 
L 564.637282 139.830255 
L 574.67607 140.623234 
L 584.714858 132.137318 
L 594.753646 122.516333 
L 604.792434 117.947072 
L 614.831222 125.410365 
L 624.870009 138.756266 
L 634.908797 124.526321 
L 644.947585 151.233696 
L 654.986373 142.883349 
L 665.025161 132.590478 
L 675.063949 120.38878 
" clip-path="url(#pdd22ba8ac7)" style="fill: none; stroke: #1f77b4; stroke-width: 1.5; stroke-linecap: square"/>
    <defs>
     <path id="m26813db7c8" d="M 0 3 
C 0.795609 3 1.55874 2.683901 2.12132 2.12132 
C 2.683901 1.55874 3 0.795609 3 0 
C 3 -0.795609 2.683901 -1.55874 2.12132 -2.12132 
C 1.55874 -2.683901 0.795609 -3 0 -3 
C -0.795609 -3 -1.55874 -2.683901 -2.12132 -2.12132 
C -2.683901 -1.55874 -3 -0.795609 -3 0 
C -3 0.795609 -2.683901 1.55874 -2.12132 2.12132 
C -1.55874 2.683901 -0.795609 3 0 3 
z
" style="stroke: #1f77b4"/>
    </defs>
    <g clip-path="url(#pdd22ba8ac7)">
     <use xlink:href="#m26813db7c8" x="72.736676" y="108.75081" style="fill: #1f77b4; stroke: #1f77b4"/>
     <use xlink:href="#m26813db7c8" x="82.775464" y="105.844044" style="fill: #1f77b4; stroke: #1f77b4"/>
     <use xlink:href="#m26813db7c8" x="92.814252" y="100.141628" style="fill: #1f77b4; stroke: #1f77b4"/>
     <use xlink:href="#m26813db7c8" x="102.85304" y="100.513874" style="fill: #1f77b4; stroke: #1f77b4"/>
     <use xlink:href="#m26813db7c8" x="112.891828" y="96.955378" style="fill: #1f77b4; stroke: #1f77b4"/>
     <use xlink:href="#m26813db7c8" x="122.930616" y="80.480138" style="fill: #1f77b4; stroke: #1f77b4"/>
     <use xlink:href="#m26813db7c8" x="132.969403" y="79.282276" style="fill: #1f77b4; stroke: #1f77b4"/>
     <use xlink:href="#m26813db7c8" x="143.008191" y="81.704828" style="fill: #1f77b4; stroke: #1f77b4"/>
     <use xlink:href="#m26813db7c8" x="153.046979" y="84.138987" style="fill: #1f77b4; stroke: #1f77b4"/>
     <use xlink:href="#m26813db7c8" x="163.085767" y="92.32233" style="fill: #1f77b4; stroke: #1f77b4"/>
     <use xlink:href="#m26813db7c8" x="173.124555" y="63.838558" style="fill: #1f77b4; stroke: #1f77b4"/>
     <use xlink:href="#m26813db7c8" x="183.163343" y="112.26982" style="fill: #1f77b4; stroke: #1f77b4"/>
     <use xlink:href="#m26813db7c8" x="193.202131" y="115.838022" style="fill: #1f77b4; stroke: #1f77b4"/>
     <use xlink:href="#m26813db7c8" x="203.240919" y="82.590071" style="fill: #1f77b4; stroke: #1f77b4"/>
     <use xlink:href="#m26813db7c8" x="213.279706" y="124.855538" style="fill: #1f77b4; stroke: #1f77b4"/>
     <use xlink:href="#m26813db7c8" x="223.318494" y="166.88688" style="fill: #1f77b4; stroke: #1f77b4"/>
     <use xlink:href="#m26813db7c8" x="233.357282" y="119.57757" style="fill: #1f77b4; stroke: #1f77b4"/>
     <use xlink:href="#m26813db7c8" x="243.39607" y="87.373993" style="fill: #1f77b4; stroke: #1f77b4"/>
     <use xlink:href="#m26813db7c8" x="253.434858" y="64.805838" style="fill: #1f77b4; stroke: #1f77b4"/>
     <use xlink:href="#m26813db7c8" x="263.473646" y="74.041985" style="fill: #1f77b4; stroke: #1f77b4"/>
     <use xlink:href="#m26813db7c8" x="273.512434" y="55.43258" style="fill: #1f77b4; stroke: #1f77b4"/>
     <use xlink:href="#m26813db7c8" x="283.551222" y="51.125057" style="fill: #1f77b4; stroke: #1f77b4"/>
     <use xlink:href="#m26813db7c8" x="293.590009" y="55.657454" style="fill: #1f77b4; stroke: #1f77b4"/>
     <use xlink:href="#m26813db7c8" x="303.628797" y="58.508652" style="fill: #1f77b4; stroke: #1f77b4"/>
     <use xlink:href="#m26813db7c8" x="313.667585" y="63.360279" style="fill: #1f77b4; stroke: #1f77b4"/>
     <use xlink:href="#m26813db7c8" x="323.706373" y="56.572473" style="fill: #1f77b4; stroke: #1f77b4"/>
     <use xlink:href="#m26813db7c8" x="333.745161" y="47.385987" style="fill: #1f77b4; stroke: #1f77b4"/>
     <use xlink:href="#m26813db7c8" x="343.783949" y="44.19723" style="fill: #1f77b4; stroke: #1f77b4"/>
     <use xlink:href="#m26813db7c8" x="353.822737" y="35.618125" style="fill: #1f77b4; stroke: #1f77b4"/>
     <use xlink:href="#m26813db7c8" x="373.900313" y="221.588374" style="fill: #1f77b4; stroke: #1f77b4"/>
     <use xlink:href="#m26813db7c8" x="383.9391" y="166.54235" style="fill: #1f77b4; stroke: #1f77b4"/>
     <use xlink:href="#m26813db7c8" x="393.977888" y="136.811157" style="fill: #1f77b4; stroke: #1f77b4"/>
     <use xlink:href="#m26813db7c8" x="404.016676" y="159.885506" style="fill: #1f77b4; stroke: #1f77b4"/>
     <use xlink:href="#m26813db7c8" x="414.055464" y="177.150107" style="fill: #1f77b4; stroke: #1f77b4"/>
     <use xlink:href="#m26813db7c8" x="424.094252" y="225.340024" style="fill: #1f77b4; stroke: #1f77b4"/>
     <use xlink:href="#m26813db7c8" x="434.13304" y="301.618125" style="fill: #1f77b4; stroke: #1f77b4"/>
     <use xlink:href="#m26813db7c8" x="444.171828" y="240.121782" style="fill: #1f77b4; stroke: #1f77b4"/>
     <use xlink:href="#m26813db7c8" x="454.210616" y="186.655897" style="fill: #1f77b4; stroke: #1f77b4"/>
     <use xlink:href="#m26813db7c8" x="464.249403" y="190.837349" style="fill: #1f77b4; stroke: #1f77b4"/>
     <use xlink:href="#m26813db7c8" x="474.288191" y="178.120413" style="fill: #1f77b4; stroke: #1f77b4"/>
     <use xlink:href="#m26813db7c8" x="484.326979" y="153.48589" style="fill: #1f77b4; stroke: #1f77b4"/>
     <use xlink:href="#m26813db7c8" x="494.365767" y="158.64072" style="fill: #1f77b4; stroke: #1f77b4"/>
     <use xlink:href="#m26813db7c8" x="504.404555" y="156.54909" style="fill: #1f77b4; stroke: #1f77b4"/>
     <use xlink:href="#m26813db7c8" x="514.443343" y="178.235307" style="fill: #1f77b4; stroke: #1f77b4"/>
     <use xlink:href="#m26813db7c8" x="524.482131" y="160.619058" style="fill: #1f77b4; stroke: #1f77b4"/>
     <use xlink:href="#m26813db7c8" x="534.520919" y="151.71841" style="fill: #1f77b4; stroke: #1f77b4"/>
     <use xlink:href="#m26813db7c8" x="544.559706" y="148.322525" style="fill: #1f77b4; stroke: #1f77b4"/>
     <use xlink:href="#m26813db7c8" x="554.598494" y="137.254408" style="fill: #1f77b4; stroke: #1f77b4"/>
     <use xlink:href="#m26813db7c8" x="564.637282" y="139.830255" style="fill: #1f77b4; stroke: #1f77b4"/>
     <use xlink:href="#m26813db7c8" x="574.67607" y="140.623234" style="fill: #1f77b4; stroke: #1f77b4"/>
     <use xlink:href="#m26813db7c8" x="584.714858" y="132.137318" style="fill: #1f77b4; stroke: #1f77b4"/>
     <use xlink:href="#m26813db7c8" x="594.753646" y="122.516333" style="fill: #1f77b4; stroke: #1f77b4"/>
     <use xlink:href="#m26813db7c8" x="604.792434" y="117.947072" style="fill: #1f77b4; stroke: #1f77b4"/>
     <use xlink:href="#m26813db7c8" x="614.831222" y="125.410365" style="fill: #1f77b4; stroke: #1f77b4"/>
     <use xlink:href="#m26813db7c8" x="624.870009" y="138.756266" style="fill: #1f77b4; stroke: #1f77b4"/>
     <use xlink:href="#m26813db7c8" x="634.908797" y="124.526321" style="fill: #1f77b4; stroke: #1f77b4"/>
     <use xlink:href="#m26813db7c8" x="644.947585" y="151.233696" style="fill: #1f77b4; stroke: #1f77b4"/>
     <use xlink:href="#m26813db7c8" x="654.986373" y="142.883349" style="fill: #1f77b4; stroke: #1f77b4"/>
     <use xlink:href="#m26813db7c8" x="665.025161" y="132.590478" style="fill: #1f77b4; stroke: #1f77b4"/>
     <use xlink:href="#m26813db7c8" x="675.063949" y="120.38878" style="fill: #1f77b4; stroke: #1f77b4"/>
    </g>
   </g>
   <g id="patch_4">
    <path d="M 42.620313 314.918125 
L 42.620313 22.318125 
" style="fill: none; stroke: #000000; stroke-width: 0.8; stroke-linejoin: miter; stroke-linecap: square"/>
   </g>
   <g id="patch_5">
    <path d="M 705.180313 314.918125 
L 705.180313 22.318125 
" style="fill: none; stroke: #000000; stroke-width: 0.8; stroke-linejoin: miter; stroke-linecap: square"/>
   </g>
   <g id="patch_6">
    <path d="M 42.620312 314.918125 
L 705.180313 314.918125 
" style="fill: none; stroke: #000000; stroke-width: 0.8; stroke-linejoin: miter; stroke-linecap: square"/>
   </g>
   <g id="patch_7">
    <path d="M 42.620312 22.318125 
L 705.180313 22.318125 
" style="fill: none; stroke: #000000; stroke-width: 0.8; stroke-linejoin: miter; stroke-linecap: square"/>
   </g>
   <g id="text_18">
    <!-- Event study: Uniswap v3 launch (DEX log volume) — event-time coefficients -->
    <g transform="translate(144.737813 16.318125) scale(0.12 -0.12)">
     <defs>
      <path id="DejaVuSans-45" d="M 628 4666 
L 3578 4666 
L 3578 4134 
L 1259 4134 
L 1259 2753 
L 3481 2753 
L 3481 2222 
L 1259 2222 
L 1259 531 
L 3634 531 
L 3634 0 
L 628 0 
L 628 4666 
z
" transform="scale(0.015625)"/>
      <path id="DejaVuSans-3a" d="M 750 794 
L 1409 794 
L 1409 0 
L 750 0 
L 750 794 
z
M 750 3309 
L 1409 3309 
L 1409 2516 
L 750 2516 
L 750 3309 
z
" transform="scale(0.015625)"/>
      <path id="DejaVuSans-55" d="M 556 4666 
L 1191 4666 
L 1191 1831 
Q 1191 1081 1462 751 
Q 1734 422 2344 422 
Q 2950 422 3222 751 
Q 3494 1081 3494 1831 
L 3494 4666 
L 4128 4666 
L 4128 1753 
Q 4128 841 3676 375 
Q 3225 -91 2344 -91 
Q 1459 -91 1007 375 
Q 556 841 556 1753 
L 556 4666 
z
" transform="scale(0.015625)"/>
      <path id="DejaVuSans-77" d="M 269 3500 
L 844 3500 
L 1563 769 
L 2278 3500 
L 2956 3500 
L 3675 769 
L 4391 3500 
L 4966 3500 
L 4050 0 
L 3372 0 
L 2619 2869 
L 1863 0 
L 1184 0 
L 269 3500 
z
" transform="scale(0.015625)"/>
      <path id="DejaVuSans-70" d="M 1159 525 
L 1159 -1331 
L 581 -1331 
L 581 3500 
L 1159 3500 
L 1159 2969 
Q 1341 3281 1617 3432 
Q 1894 3584 2278 3584 
Q 2916 3584 3314 3078 
Q 3713 2572 3713 1747 
Q 3713 922 3314 415 
Q 2916 -91 2278 -91 
Q 1894 -91 1617 61 
Q 1341 213 1159 525 
z
M 3116 1747 
Q 3116 2381 2855 2742 
Q 2594 3103 2138 3103 
Q 1681 3103 1420 2742 
Q 1159 2381 1159 1747 
Q 1159 1113 1420 752 
Q 1681 391 2138 391 
Q 2594 391 2855 752 
Q 3116 1113 3116 1747 
z
" transform="scale(0.015625)"/>
      <path id="DejaVuSans-6c" d="M 603 4863 
L 1178 4863 
L 1178 0 
L 603 0 
L 603 4863 
z
" transform="scale(0.015625)"/>
      <path id="DejaVuSans-68" d="M 3513 2113 
L 3513 0 
L 2938 0 
L 2938 2094 
Q 2938 2591 2744 2837 
Q 2550 3084 2163 3084 
Q 1697 3084 1428 2787 
Q 1159 2491 1159 1978 
L 1159 0 
L 581 0 
L 581 4863 
L 1159 4863 
L 1159 2956 
Q 1366 3272 1645 3428 
Q 1925 3584 2291 3584 
Q 2894 3584 3203 3211 
Q 3513 2838 3513 2113 
z
" transform="scale(0.015625)"/>
      <path id="DejaVuSans-44" d="M 1259 4147 
L 1259 519 
L 2022 519 
Q 2988 519 3436 956 
Q 3884 1394 3884 2338 
Q 3884 3275 3436 3711 
Q 2988 4147 2022 4147 
L 1259 4147 
z
M 628 4666 
L 1925 4666 
Q 3281 4666 3915 4102 
Q 4550 3538 4550 2338 
Q 4550 1131 3912 565 
Q 3275 0 1925 0 
L 628 0 
L 628 4666 
z
" transform="scale(0.015625)"/>
      <path id="DejaVuSans-58" d="M 403 4666 
L 1081 4666 
L 2241 2931 
L 3406 4666 
L 4084 4666 
L 2584 2425 
L 4184 0 
L 3506 0 
L 2194 1984 
L 872 0 
L 191 0 
L 1856 2491 
L 403 4666 
z
" transform="scale(0.015625)"/>
      <path id="DejaVuSans-67" d="M 2906 1791 
Q 2906 2416 2648 2759 
Q 2391 3103 1925 3103 
Q 1463 3103 1205 2759 
Q 947 2416 947 1791 
Q 947 1169 1205 825 
Q 1463 481 1925 481 
Q 2391 481 2648 825 
Q 2906 1169 2906 1791 
z
M 3481 434 
Q 3481 -459 3084 -895 
Q 2688 -1331 1869 -1331 
Q 1566 -1331 1297 -1286 
Q 1028 -1241 775 -1147 
L 775 -588 
Q 1028 -725 1275 -790 
Q 1522 -856 1778 -856 
Q 2344 -856 2625 -561 
Q 2906 -266 2906 331 
L 2906 616 
Q 2728 306 2450 153 
Q 2172 0 1784 0 
Q 1141 0 747 490 
Q 353 981 353 1791 
Q 353 2603 747 3093 
Q 1141 3584 1784 3584 
Q 2172 3584 2450 3431 
Q 2728 3278 2906 2969 
L 2906 3500 
L 3481 3500 
L 3481 434 
z
" transform="scale(0.015625)"/>
      <path id="DejaVuSans-2014" d="M 313 1978 
L 6088 1978 
L 6088 1528 
L 313 1528 
L 313 1978 
z
" transform="scale(0.015625)"/>
     </defs>
     <use xlink:href="#DejaVuSans-45"/>
     <use xlink:href="#DejaVuSans-76" transform="translate(63.183594 0)"/>
     <use xlink:href="#DejaVuSans-65" transform="translate(122.363281 0)"/>
     <use xlink:href="#DejaVuSans-6e" transform="translate(183.886719 0)"/>
     <use xlink:href="#DejaVuSans-74" transform="translate(247.265625 0)"/>
     <use xlink:href="#DejaVuSans-20" transform="translate(286.474609 0)"/>
     <use xlink:href="#DejaVuSans-73" transform="translate(318.261719 0)"/>
     <use xlink:href="#DejaVuSans-74" transform="translate(370.361328 0)"/>
     <use xlink:href="#DejaVuSans-75" transform="translate(409.570312 0)"/>
     <use xlink:href="#DejaVuSans-64" transform="translate(472.949219 0)"/>
     <use xlink:href="#DejaVuSans-79" transform="translate(536.425781 0)"/>
     <use xlink:href="#DejaVuSans-3a" transform="translate(588.355469 0)"/>
     <use xlink:href="#DejaVuSans-20" transform="translate(622.046875 0)"/>
     <use xlink:href="#DejaVuSans-55" transform="translate(653.833984 0)"/>
     <use xlink:href="#DejaVuSans-6e" transform="translate(727.027344 0)"/>
     <use xlink:href="#DejaVuSans-69" transform="translate(790.40625 0)"/>
     <use xlink:href="#DejaVuSans-73" transform="translate(818.189453 0)"/>
     <use xlink:href="#DejaVuSans-77" transform="translate(870.289062 0)"/>
     <use xlink:href="#DejaVuSans-61" transform="translate(952.076172 0)"/>
     <use xlink:href="#DejaVuSans-70" transform="translate(1013.355469 0)"/>
     <use xlink:href="#DejaVuSans-20" transform="translate(1076.832031 0)"/>
     <use xlink:href="#DejaVuSans-76" transform="translate(1108.619141 0)"/>
     <use xlink:href="#DejaVuSans-33" transform="translate(1167.798828 0)"/>
     <use xlink:href="#DejaVuSans-20" transform="translate(1231.421875 0)"/>
     <use xlink:href="#DejaVuSans-6c" transform="translate(1263.208984 0)"/>
     <use xlink:href="#DejaVuSans-61" transform="translate(1290.992188 0)"/>
     <use xlink:href="#DejaVuSans-75" transform="translate(1352.271484 0)"/>
     <use xlink:href="#DejaVuSans-6e" transform="translate(1415.650391 0)"/>
     <use xlink:href="#DejaVuSans-63" transform="translate(1479.029297 0)"/>
     <use xlink:href="#DejaVuSans-68" transform="translate(1534.009766 0)"/>
     <use xlink:href="#DejaVuSans-20" transform="translate(1597.388672 0)"/>
     <use xlink:href="#DejaVuSans-28" transform="translate(1629.175781 0)"/>
     <use xlink:href="#DejaVuSans-44" transform="translate(1668.189453 0)"/>
     <use xlink:href="#DejaVuSans-45" transform="translate(1745.191406 0)"/>
     <use xlink:href="#DejaVuSans-58" transform="translate(1808.375 0)"/>
     <use xlink:href="#DejaVuSans-20" transform="translate(1876.880859 0)"/>
     <use xlink:href="#DejaVuSans-6c" transform="translate(1908.667969 0)"/>
     <use xlink:href="#DejaVuSans-6f" transform="translate(1936.451172 0)"/>
     <use xlink:href="#DejaVuSans-67" transform="translate(1997.632812 0)"/>
     <use xlink:href="#DejaVuSans-20" transform="translate(2061.109375 0)"/>
     <use xlink:href="#DejaVuSans-76" transform="translate(2092.896484 0)"/>
     <use xlink:href="#DejaVuSans-6f" transform="translate(2152.076172 0)"/>
     <use xlink:href="#DejaVuSans-6c" transform="translate(2213.257812 0)"/>
     <use xlink:href="#DejaVuSans-75" transform="translate(2241.041016 0)"/>
     <use xlink:href="#DejaVuSans-6d" transform="translate(2304.419922 0)"/>
     <use xlink:href="#DejaVuSans-65" transform="translate(2401.832031 0)"/>
     <use xlink:href="#DejaVuSans-29" transform="translate(2463.355469 0)"/>
     <use xlink:href="#DejaVuSans-20" transform="translate(2502.369141 0)"/>
     <use xlink:href="#DejaVuSans-2014" transform="translate(2534.15625 0)"/>
     <use xlink:href="#DejaVuSans-20" transform="translate(2634.15625 0)"/>
     <use xlink:href="#DejaVuSans-65" transform="translate(2665.943359 0)"/>
     <use xlink:href="#DejaVuSans-76" transform="translate(2727.466797 0)"/>
     <use xlink:href="#DejaVuSans-65" transform="translate(2786.646484 0)"/>
     <use xlink:href="#DejaVuSans-6e" transform="translate(2848.169922 0)"/>
     <use xlink:href="#DejaVuSans-74" transform="translate(2911.548828 0)"/>
     <use xlink:href="#DejaVuSans-2d" transform="translate(2950.757812 0)"/>
     <use xlink:href="#DejaVuSans-74" transform="translate(2986.841797 0)"/>
     <use xlink:href="#DejaVuSans-69" transform="translate(3026.050781 0)"/>
     <use xlink:href="#DejaVuSans-6d" transform="translate(3053.833984 0)"/>
     <use xlink:href="#DejaVuSans-65" transform="translate(3151.246094 0)"/>
     <use xlink:href="#DejaVuSans-20" transform="translate(3212.769531 0)"/>
     <use xlink:href="#DejaVuSans-63" transform="translate(3244.556641 0)"/>
     <use xlink:href="#DejaVuSans-6f" transform="translate(3299.537109 0)"/>
     <use xlink:href="#DejaVuSans-65" transform="translate(3360.71875 0)"/>
     <use xlink:href="#DejaVuSans-66" transform="translate(3422.242188 0)"/>
     <use xlink:href="#DejaVuSans-66" transform="translate(3457.447266 0)"/>
     <use xlink:href="#DejaVuSans-69" transform="translate(3492.652344 0)"/>
     <use xlink:href="#DejaVuSans-63" transform="translate(3520.435547 0)"/>
     <use xlink:href="#DejaVuSans-69" transform="translate(3575.416016 0)"/>
     <use xlink:href="#DejaVuSans-65" transform="translate(3603.199219 0)"/>
     <use xlink:href="#DejaVuSans-6e" transform="translate(3664.722656 0)"/>
     <use xlink:href="#DejaVuSans-74" transform="translate(3728.101562 0)"/>
     <use xlink:href="#DejaVuSans-73" transform="translate(3767.310547 0)"/>
    </g>
   </g>
   <g id="legend_1">
    <g id="line2d_34">
     <path d="M 51.620313 35.416563 
L 61.620313 35.416563 
L 71.620313 35.416563 
" style="fill: none; stroke: #1f77b4; stroke-width: 1.5; stroke-linecap: square"/>
     <g>
      <use xlink:href="#m26813db7c8" x="61.620313" y="35.416563" style="fill: #1f77b4; stroke: #1f77b4"/>
     </g>
    </g>
    <g id="text_19">
     <!-- coef -->
     <g transform="translate(79.620313 38.916563) scale(0.1 -0.1)">
      <use xlink:href="#DejaVuSans-63"/>
      <use xlink:href="#DejaVuSans-6f" transform="translate(54.980469 0)"/>
      <use xlink:href="#DejaVuSans-65" transform="translate(116.162109 0)"/>
      <use xlink:href="#DejaVuSans-66" transform="translate(177.685547 0)"/>
     </g>
    </g>
   </g>
  </g>
 </g>
 <defs>
  <clipPath id="pdd22ba8ac7">
   <rect x="42.620313" y="22.318125" width="662.56" height="292.6"/>
  </clipPath>
 </defs>
</svg>
