<?xml version="1.0" encoding="utf-8" standalone="no"?>
<!DOCTYPE svg PUBLIC "-//W3C//DTD SVG 1.1//EN"
  "http://www.w3.org/Graphics/SVG/1.1/DTD/svg11.dtd">
<svg xmlns:xlink="http://www.w3.org/1999/xlink" width="712.354229pt" height="352.488004pt" viewBox="0 0 712.354229 352.488004" xmlns="http://www.w3.org/2000/svg" version="1.1">
 <title>02_v3_share_by_label_bar</title>
 <metadata>
  <rdf:RDF xmlns:dc="http://purl.org/dc/elements/1.1/" xmlns:cc="http://creativecommons.org/ns#" xmlns:rdf="http://www.w3.org/1999/02/22-rdf-syntax-ns#">
   <cc:Work>
    <dc:type rdf:resource="http://purl.org/dc/dcmitype/StillImage"/>
    <dc:title>02_v3_share_by_label_bar</dc:title>
    <dc:date>2025-09-14T12:22:11.905479</dc:date>
    <dc:format>image/svg+xml</dc:format>
    <dc:creator>
     <cc:Agent>
      <dc:title>Matplotlib v3.10.5, https://matplotlib.org/</dc:title>
     </cc:Agent>
    </dc:creator>
   </cc:Work>
  </rdf:RDF>
 </metadata>
 <defs>
  <style type="text/css">*{stroke-linejoin: round; stroke-linecap: butt}</style>
 </defs>
 <g id="figure_1">
  <g id="patch_1">
   <path d="M -0 352.488004 
L 712.354229 352.488004 
L 712.354229 0 
L -0 0 
z
" style="fill: #ffffff"/>
  </g>
  <g id="axes_1">
   <g id="patch_2">
    <path d="M 44.059375 275.741067 
L 702.431606 275.741067 
L 702.431606 22.318125 
L 44.059375 22.318125 
z
" style="fill: #ffffff"/>
   </g>
   <g id="patch_3">
    <path d="M 52.289028 275.741067 
L 68.748334 275.741067 
L 68.748334 34.385884 
L 52.289028 34.385884 
z
" clip-path="url(#p062a678a84)" style="fill: #1f77b4"/>
   </g>
   <g id="patch_4">
    <path d="M 85.207639 275.741067 
L 101.666945 275.741067 
L 101.666945 37.775353 
L 85.207639 37.775353 
z
" clip-path="url(#p062a678a84)" style="fill: #1f77b4"/>
   </g>
   <g id="patch_5">
    <path d="M 118.126251 275.741067 
L 134.585557 275.741067 
L 134.585557 38.336562 
L 118.126251 38.336562 
z
" clip-path="url(#p062a678a84)" style="fill: #1f77b4"/>
   </g>
   <g id="patch_6">
    <path d="M 151.044863 275.741067 
L 167.504168 275.741067 
L 167.504168 39.019603 
L 151.044863 39.019603 
z
" clip-path="url(#p062a678a84)" style="fill: #1f77b4"/>
   </g>
   <g id="patch_7">
    <path d="M 183.963474 275.741067 
L 200.42278 275.741067 
L 200.42278 40.446552 
L 183.963474 40.446552 
z
" clip-path="url(#p062a678a84)" style="fill: #1f77b4"/>
   </g>
   <g id="patch_8">
    <path d="M 216.882086 275.741067 
L 233.341392 275.741067 
L 233.341392 49.109673 
L 216.882086 49.109673 
z
" clip-path="url(#p062a678a84)" style="fill: #1f77b4"/>
   </g>
   <g id="patch_9">
    <path d="M 249.800697 275.741067 
L 266.260003 275.741067 
L 266.260003 52.94407 
L 249.800697 52.94407 
z
" clip-path="url(#p062a678a84)" style="fill: #1f77b4"/>
   </g>
   <g id="patch_10">
    <path d="M 282.719309 275.741067 
L 299.178615 275.741067 
L 299.178615 56.674955 
L 282.719309 56.674955 
z
" clip-path="url(#p062a678a84)" style="fill: #1f77b4"/>
   </g>
   <g id="patch_11">
    <path d="M 315.63792 275.741067 
L 332.097226 275.741067 
L 332.097226 72.160034 
L 315.63792 72.160034 
z
" clip-path="url(#p062a678a84)" style="fill: #1f77b4"/>
   </g>
   <g id="patch_12">
    <path d="M 348.556532 275.741067 
L 365.015838 275.741067 
L 365.015838 81.496299 
L 348.556532 81.496299 
z
" clip-path="url(#p062a678a84)" style="fill: #1f77b4"/>
   </g>
   <g id="patch_13">
    <path d="M 381.475144 275.741067 
L 397.934449 275.741067 
L 397.934449 84.818907 
L 381.475144 84.818907 
z
" clip-path="url(#p062a678a84)" style="fill: #1f77b4"/>
   </g>
   <g id="patch_14">
    <path d="M 414.393755 275.741067 
L 430.853061 275.741067 
L 430.853061 86.855065 
L 414.393755 86.855065 
z
" clip-path="url(#p062a678a84)" style="fill: #1f77b4"/>
   </g>
   <g id="patch_15">
    <path d="M 447.312367 275.741067 
L 463.771673 275.741067 
L 463.771673 88.26182 
L 447.312367 88.26182 
z
" clip-path="url(#p062a678a84)" style="fill: #1f77b4"/>
   </g>
   <g id="patch_16">
    <path d="M 480.230978 275.741067 
L 496.690284 275.741067 
L 496.690284 138.498266 
L 480.230978 138.498266 
z
" clip-path="url(#p062a678a84)" style="fill: #1f77b4"/>
   </g>
   <g id="patch_17">
    <path d="M 513.14959 275.741067 
L 529.608896 275.741067 
L 529.608896 140.873468 
L 513.14959 140.873468 
z
" clip-path="url(#p062a678a84)" style="fill: #1f77b4"/>
   </g>
   <g id="patch_18">
    <path d="M 546.068202 275.741067 
L 562.527507 275.741067 
L 562.527507 145.157274 
L 546.068202 145.157274 
z
" clip-path="url(#p062a678a84)" style="fill: #1f77b4"/>
   </g>
   <g id="patch_19">
    <path d="M 578.986813 275.741067 
L 595.446119 275.741067 
L 595.446119 148.341094 
L 578.986813 148.341094 
z
" clip-path="url(#p062a678a84)" style="fill: #1f77b4"/>
   </g>
   <g id="patch_20">
    <path d="M 611.905425 275.741067 
L 628.36473 275.741067 
L 628.36473 200.58008 
L 611.905425 200.58008 
z
" clip-path="url(#p062a678a84)" style="fill: #1f77b4"/>
   </g>
   <g id="patch_21">
    <path d="M 644.824036 275.741067 
L 661.283342 275.741067 
L 661.283342 238.930722 
L 644.824036 238.930722 
z
" clip-path="url(#p062a678a84)" style="fill: #1f77b4"/>
   </g>
   <g id="patch_22">
    <path d="M 677.742648 275.741067 
L 694.201954 275.741067 
L 694.201954 275.221492 
L 677.742648 275.221492 
z
" clip-path="url(#p062a678a84)" style="fill: #1f77b4"/>
   </g>
   <g id="matplotlib.axis_1">
    <g id="xtick_1">
     <g id="line2d_1">
      <path d="M 60.518681 275.741067 
L 60.518681 22.318125 
" clip-path="url(#p062a678a84)" style="fill: none; stroke: #b0b0b0; stroke-width: 0.8; stroke-linecap: square"/>
     </g>
     <g id="line2d_2">
      <defs>
       <path id="m863ec8e489" d="M 0 0 
L 0 3.5 
" style="stroke: #000000; stroke-width: 0.8"/>
      </defs>
      <g>
       <use xlink:href="#m863ec8e489" x="60.518681" y="275.741067" style="stroke: #000000; stroke-width: 0.8"/>
      </g>
     </g>
     <g id="text_1">
      <!-- BTC-USDC -->
      <g transform="translate(44.324831 324.404019) rotate(-45) scale(0.1 -0.1)">
       <defs>
        <path id="DejaVuSans-42" d="M 1259 2228 
L 1259 519 
L 2272 519 
Q 2781 519 3026 730 
Q 3272 941 3272 1375 
Q 3272 1813 3026 2020 
Q 2781 2228 2272 2228 
L 1259 2228 
z
M 1259 4147 
L 1259 2741 
L 2194 2741 
Q 2656 2741 2882 2914 
Q 3109 3088 3109 3444 
Q 3109 3797 2882 3972 
Q 2656 4147 2194 4147 
L 1259 4147 
z
M 628 4666 
L 2241 4666 
Q 2963 4666 3353 4366 
Q 3744 4066 3744 3513 
Q 3744 3084 3544 2831 
Q 3344 2578 2956 2516 
Q 3422 2416 3680 2098 
Q 3938 1781 3938 1306 
Q 3938 681 3513 340 
Q 3088 0 2303 0 
L 628 0 
L 628 4666 
z
" transform="scale(0.015625)"/>
        <path id="DejaVuSans-54" d="M -19 4666 
L 3928 4666 
L 3928 4134 
L 2272 4134 
L 2272 0 
L 1638 0 
L 1638 4134 
L -19 4134 
L -19 4666 
z
" transform="scale(0.015625)"/>
        <path id="DejaVuSans-43" d="M 4122 4306 
L 4122 3641 
Q 3803 3938 3442 4084 
Q 3081 4231 2675 4231 
Q 1875 4231 1450 3742 
Q 1025 3253 1025 2328 
Q 1025 1406 1450 917 
Q 1875 428 2675 428 
Q 3081 428 3442 575 
Q 3803 722 4122 1019 
L 4122 359 
Q 3791 134 3420 21 
Q 3050 -91 2638 -91 
Q 1578 -91 968 557 
Q 359 1206 359 2328 
Q 359 3453 968 4101 
Q 1578 4750 2638 4750 
Q 3056 4750 3426 4639 
Q 3797 4528 4122 4306 
z
" transform="scale(0.015625)"/>
        <path id="DejaVuSans-2d" d="M 313 2009 
L 1997 2009 
L 1997 1497 
L 313 1497 
L 313 2009 
z
" transform="scale(0.015625)"/>
        <path id="DejaVuSans-55" d="M 556 4666 
L 1191 4666 
L 1191 1831 
Q 1191 1081 1462 751 
Q 1734 422 2344 422 
Q 2950 422 3222 751 
Q 3494 1081 3494 1831 
L 3494 4666 
L 4128 4666 
L 4128 1753 
Q 4128 841 3676 375 
Q 3225 -91 2344 -91 
Q 1459 -91 1007 375 
Q 556 841 556 1753 
L 556 4666 
z
" transform="scale(0.015625)"/>
        <path id="DejaVuSans-53" d="M 3425 4513 
L 3425 3897 
Q 3066 4069 2747 4153 
Q 2428 4238 2131 4238 
Q 1616 4238 1336 4038 
Q 1056 3838 1056 3469 
Q 1056 3159 1242 3001 
Q 1428 2844 1947 2747 
L 2328 2669 
Q 3034 2534 3370 2195 
Q 3706 1856 3706 1288 
Q 3706 609 3251 259 
Q 2797 -91 1919 -91 
Q 1588 -91 1214 -16 
Q 841 59 441 206 
L 441 856 
Q 825 641 1194 531 
Q 1563 422 1919 422 
Q 2459 422 2753 634 
Q 3047 847 3047 1241 
Q 3047 1584 2836 1778 
Q 2625 1972 2144 2069 
L 1759 2144 
Q 1053 2284 737 2584 
Q 422 2884 422 3419 
Q 422 4038 858 4394 
Q 1294 4750 2059 4750 
Q 2388 4750 2728 4690 
Q 3069 4631 3425 4513 
z
" transform="scale(0.015625)"/>
        <path id="DejaVuSans-44" d="M 1259 4147 
L 1259 519 
L 2022 519 
Q 2988 519 3436 956 
Q 3884 1394 3884 2338 
Q 3884 3275 3436 3711 
Q 2988 4147 2022 4147 
L 1259 4147 
z
M 628 4666 
L 1925 4666 
Q 3281 4666 3915 4102 
Q 4550 3538 4550 2338 
Q 4550 1131 3912 565 
Q 3275 0 1925 0 
L 628 0 
L 628 4666 
z
" transform="scale(0.015625)"/>
       </defs>
       <use xlink:href="#DejaVuSans-42"/>
       <use xlink:href="#DejaVuSans-54" transform="translate(68.603516 0)"/>
       <use xlink:href="#DejaVuSans-43" transform="translate(123.8125 0)"/>
       <use xlink:href="#DejaVuSans-2d" transform="translate(193.636719 0)"/>
       <use xlink:href="#DejaVuSans-55" transform="translate(229.720703 0)"/>
       <use xlink:href="#DejaVuSans-53" transform="translate(302.914062 0)"/>
       <use xlink:href="#DejaVuSans-44" transform="translate(366.390625 0)"/>
       <use xlink:href="#DejaVuSans-43" transform="translate(443.392578 0)"/>
      </g>
     </g>
    </g>
    <g id="xtick_2">
     <g id="line2d_3">
      <path d="M 93.437292 275.741067 
L 93.437292 22.318125 
" clip-path="url(#p062a678a84)" style="fill: none; stroke: #b0b0b0; stroke-width: 0.8; stroke-linecap: square"/>
     </g>
     <g id="line2d_4">
      <g>
       <use xlink:href="#m863ec8e489" x="93.437292" y="275.741067" style="stroke: #000000; stroke-width: 0.8"/>
      </g>
     </g>
     <g id="text_2">
      <!-- USDC-USDT -->
      <g transform="translate(74.375793 330.139318) rotate(-45) scale(0.1 -0.1)">
       <use xlink:href="#DejaVuSans-55"/>
       <use xlink:href="#DejaVuSans-53" transform="translate(73.193359 0)"/>
       <use xlink:href="#DejaVuSans-44" transform="translate(136.669922 0)"/>
       <use xlink:href="#DejaVuSans-43" transform="translate(213.671875 0)"/>
       <use xlink:href="#DejaVuSans-2d" transform="translate(283.496094 0)"/>
       <use xlink:href="#DejaVuSans-55" transform="translate(319.580078 0)"/>
       <use xlink:href="#DejaVuSans-53" transform="translate(392.773438 0)"/>
       <use xlink:href="#DejaVuSans-44" transform="translate(456.25 0)"/>
       <use xlink:href="#DejaVuSans-54" transform="translate(533.251953 0)"/>
      </g>
     </g>
    </g>
    <g id="xtick_3">
     <g id="line2d_5">
      <path d="M 126.355904 275.741067 
L 126.355904 22.318125 
" clip-path="url(#p062a678a84)" style="fill: none; stroke: #b0b0b0; stroke-width: 0.8; stroke-linecap: square"/>
     </g>
     <g id="line2d_6">
      <g>
       <use xlink:href="#m863ec8e489" x="126.355904" y="275.741067" style="stroke: #000000; stroke-width: 0.8"/>
      </g>
     </g>
     <g id="text_3">
      <!-- ETH-BTC -->
      <g transform="translate(113.26117 318.205786) rotate(-45) scale(0.1 -0.1)">
       <defs>
        <path id="DejaVuSans-45" d="M 628 4666 
L 3578 4666 
L 3578 4134 
L 1259 4134 
L 1259 2753 
L 3481 2753 
L 3481 2222 
L 1259 2222 
L 1259 531 
L 3634 531 
L 3634 0 
L 628 0 
L 628 4666 
z
" transform="scale(0.015625)"/>
        <path id="DejaVuSans-48" d="M 628 4666 
L 1259 4666 
L 1259 2753 
L 3553 2753 
L 3553 4666 
L 4184 4666 
L 4184 0 
L 3553 0 
L 3553 2222 
L 1259 2222 
L 1259 0 
L 628 0 
L 628 4666 
z
" transform="scale(0.015625)"/>
       </defs>
       <use xlink:href="#DejaVuSans-45"/>
       <use xlink:href="#DejaVuSans-54" transform="translate(63.183594 0)"/>
       <use xlink:href="#DejaVuSans-48" transform="translate(124.267578 0)"/>
       <use xlink:href="#DejaVuSans-2d" transform="translate(199.462891 0)"/>
       <use xlink:href="#DejaVuSans-42" transform="translate(231.921875 0)"/>
       <use xlink:href="#DejaVuSans-54" transform="translate(300.525391 0)"/>
       <use xlink:href="#DejaVuSans-43" transform="translate(355.734375 0)"/>
      </g>
     </g>
    </g>
    <g id="xtick_4">
     <g id="line2d_7">
      <path d="M 159.274516 275.741067 
L 159.274516 22.318125 
" clip-path="url(#p062a678a84)" style="fill: none; stroke: #b0b0b0; stroke-width: 0.8; stroke-linecap: square"/>
     </g>
     <g id="line2d_8">
      <g>
       <use xlink:href="#m863ec8e489" x="159.274516" y="275.741067" style="stroke: #000000; stroke-width: 0.8"/>
      </g>
     </g>
     <g id="text_4">
      <!-- DAI-USDT -->
      <g transform="translate(144.114257 322.336837) rotate(-45) scale(0.1 -0.1)">
       <defs>
        <path id="DejaVuSans-41" d="M 2188 4044 
L 1331 1722 
L 3047 1722 
L 2188 4044 
z
M 1831 4666 
L 2547 4666 
L 4325 0 
L 3669 0 
L 3244 1197 
L 1141 1197 
L 716 0 
L 50 0 
L 1831 4666 
z
" transform="scale(0.015625)"/>
        <path id="DejaVuSans-49" d="M 628 4666 
L 1259 4666 
L 1259 0 
L 628 0 
L 628 4666 
z
" transform="scale(0.015625)"/>
       </defs>
       <use xlink:href="#DejaVuSans-44"/>
       <use xlink:href="#DejaVuSans-41" transform="translate(75.251953 0)"/>
       <use xlink:href="#DejaVuSans-49" transform="translate(143.660156 0)"/>
       <use xlink:href="#DejaVuSans-2d" transform="translate(173.152344 0)"/>
       <use xlink:href="#DejaVuSans-55" transform="translate(209.236328 0)"/>
       <use xlink:href="#DejaVuSans-53" transform="translate(282.429688 0)"/>
       <use xlink:href="#DejaVuSans-44" transform="translate(345.90625 0)"/>
       <use xlink:href="#DejaVuSans-54" transform="translate(422.908203 0)"/>
      </g>
     </g>
    </g>
    <g id="xtick_5">
     <g id="line2d_9">
      <path d="M 192.193127 275.741067 
L 192.193127 22.318125 
" clip-path="url(#p062a678a84)" style="fill: none; stroke: #b0b0b0; stroke-width: 0.8; stroke-linecap: square"/>
     </g>
     <g id="line2d_10">
      <g>
       <use xlink:href="#m863ec8e489" x="192.193127" y="275.741067" style="stroke: #000000; stroke-width: 0.8"/>
      </g>
     </g>
     <g id="text_5">
      <!-- ETH-USDC -->
      <g transform="translate(175.793222 324.81613) rotate(-45) scale(0.1 -0.1)">
       <use xlink:href="#DejaVuSans-45"/>
       <use xlink:href="#DejaVuSans-54" transform="translate(63.183594 0)"/>
       <use xlink:href="#DejaVuSans-48" transform="translate(124.267578 0)"/>
       <use xlink:href="#DejaVuSans-2d" transform="translate(199.462891 0)"/>
       <use xlink:href="#DejaVuSans-55" transform="translate(235.546875 0)"/>
       <use xlink:href="#DejaVuSans-53" transform="translate(308.740234 0)"/>
       <use xlink:href="#DejaVuSans-44" transform="translate(372.216797 0)"/>
       <use xlink:href="#DejaVuSans-43" transform="translate(449.21875 0)"/>
      </g>
     </g>
    </g>
    <g id="xtick_6">
     <g id="line2d_11">
      <path d="M 225.111739 275.741067 
L 225.111739 22.318125 
" clip-path="url(#p062a678a84)" style="fill: none; stroke: #b0b0b0; stroke-width: 0.8; stroke-linecap: square"/>
     </g>
     <g id="line2d_12">
      <g>
       <use xlink:href="#m863ec8e489" x="225.111739" y="275.741067" style="stroke: #000000; stroke-width: 0.8"/>
      </g>
     </g>
     <g id="text_6">
      <!-- DAI-ETH -->
      <g transform="translate(212.613074 317.013648) rotate(-45) scale(0.1 -0.1)">
       <use xlink:href="#DejaVuSans-44"/>
       <use xlink:href="#DejaVuSans-41" transform="translate(75.251953 0)"/>
       <use xlink:href="#DejaVuSans-49" transform="translate(143.660156 0)"/>
       <use xlink:href="#DejaVuSans-2d" transform="translate(173.152344 0)"/>
       <use xlink:href="#DejaVuSans-45" transform="translate(209.236328 0)"/>
       <use xlink:href="#DejaVuSans-54" transform="translate(272.419922 0)"/>
       <use xlink:href="#DejaVuSans-48" transform="translate(333.503906 0)"/>
      </g>
     </g>
    </g>
    <g id="xtick_7">
     <g id="line2d_13">
      <path d="M 258.03035 275.741067 
L 258.03035 22.318125 
" clip-path="url(#p062a678a84)" style="fill: none; stroke: #b0b0b0; stroke-width: 0.8; stroke-linecap: square"/>
     </g>
     <g id="line2d_14">
      <g>
       <use xlink:href="#m863ec8e489" x="258.03035" y="275.741067" style="stroke: #000000; stroke-width: 0.8"/>
      </g>
     </g>
     <g id="text_7">
      <!-- ETH-USDT -->
      <g transform="translate(241.939804 324.197411) rotate(-45) scale(0.1 -0.1)">
       <use xlink:href="#DejaVuSans-45"/>
       <use xlink:href="#DejaVuSans-54" transform="translate(63.183594 0)"/>
       <use xlink:href="#DejaVuSans-48" transform="translate(124.267578 0)"/>
       <use xlink:href="#DejaVuSans-2d" transform="translate(199.462891 0)"/>
       <use xlink:href="#DejaVuSans-55" transform="translate(235.546875 0)"/>
       <use xlink:href="#DejaVuSans-53" transform="translate(308.740234 0)"/>
       <use xlink:href="#DejaVuSans-44" transform="translate(372.216797 0)"/>
       <use xlink:href="#DejaVuSans-54" transform="translate(449.21875 0)"/>
      </g>
     </g>
    </g>
    <g id="xtick_8">
     <g id="line2d_15">
      <path d="M 290.948962 275.741067 
L 290.948962 22.318125 
" clip-path="url(#p062a678a84)" style="fill: none; stroke: #b0b0b0; stroke-width: 0.8; stroke-linecap: square"/>
     </g>
     <g id="line2d_16">
      <g>
       <use xlink:href="#m863ec8e489" x="290.948962" y="275.741067" style="stroke: #000000; stroke-width: 0.8"/>
      </g>
     </g>
     <g id="text_8">
      <!-- LINK-ETH -->
      <g transform="translate(276.96703 319.980182) rotate(-45) scale(0.1 -0.1)">
       <defs>
        <path id="DejaVuSans-4c" d="M 628 4666 
L 1259 4666 
L 1259 531 
L 3531 531 
L 3531 0 
L 628 0 
L 628 4666 
z
" transform="scale(0.015625)"/>
        <path id="DejaVuSans-4e" d="M 628 4666 
L 1478 4666 
L 3547 763 
L 3547 4666 
L 4159 4666 
L 4159 0 
L 3309 0 
L 1241 3903 
L 1241 0 
L 628 0 
L 628 4666 
z
" transform="scale(0.015625)"/>
        <path id="DejaVuSans-4b" d="M 628 4666 
L 1259 4666 
L 1259 2694 
L 3353 4666 
L 4166 4666 
L 1850 2491 
L 4331 0 
L 3500 0 
L 1259 2247 
L 1259 0 
L 628 0 
L 628 4666 
z
" transform="scale(0.015625)"/>
       </defs>
       <use xlink:href="#DejaVuSans-4c"/>
       <use xlink:href="#DejaVuSans-49" transform="translate(55.712891 0)"/>
       <use xlink:href="#DejaVuSans-4e" transform="translate(85.205078 0)"/>
       <use xlink:href="#DejaVuSans-4b" transform="translate(160.009766 0)"/>
       <use xlink:href="#DejaVuSans-2d" transform="translate(215.085938 0)"/>
       <use xlink:href="#DejaVuSans-45" transform="translate(251.169922 0)"/>
       <use xlink:href="#DejaVuSans-54" transform="translate(314.353516 0)"/>
       <use xlink:href="#DejaVuSans-48" transform="translate(375.4375 0)"/>
      </g>
     </g>
    </g>
    <g id="xtick_9">
     <g id="line2d_17">
      <path d="M 323.867573 275.741067 
L 323.867573 22.318125 
" clip-path="url(#p062a678a84)" style="fill: none; stroke: #b0b0b0; stroke-width: 0.8; stroke-linecap: square"/>
     </g>
     <g id="line2d_18">
      <g>
       <use xlink:href="#m863ec8e489" x="323.867573" y="275.741067" style="stroke: #000000; stroke-width: 0.8"/>
      </g>
     </g>
     <g id="text_9">
      <!-- BAT-ETH -->
      <g transform="translate(311.083856 317.583753) rotate(-45) scale(0.1 -0.1)">
       <use xlink:href="#DejaVuSans-42"/>
       <use xlink:href="#DejaVuSans-41" transform="translate(68.603516 0)"/>
       <use xlink:href="#DejaVuSans-54" transform="translate(129.261719 0)"/>
       <use xlink:href="#DejaVuSans-2d" transform="translate(181.220703 0)"/>
       <use xlink:href="#DejaVuSans-45" transform="translate(217.304688 0)"/>
       <use xlink:href="#DejaVuSans-54" transform="translate(280.488281 0)"/>
       <use xlink:href="#DejaVuSans-48" transform="translate(341.572266 0)"/>
      </g>
     </g>
    </g>
    <g id="xtick_10">
     <g id="line2d_19">
      <path d="M 356.786185 275.741067 
L 356.786185 22.318125 
" clip-path="url(#p062a678a84)" style="fill: none; stroke: #b0b0b0; stroke-width: 0.8; stroke-linecap: square"/>
     </g>
     <g id="line2d_20">
      <g>
       <use xlink:href="#m863ec8e489" x="356.786185" y="275.741067" style="stroke: #000000; stroke-width: 0.8"/>
      </g>
     </g>
     <g id="text_10">
      <!-- CRV-ETH -->
      <g transform="translate(343.467718 318.653252) rotate(-45) scale(0.1 -0.1)">
       <defs>
        <path id="DejaVuSans-52" d="M 2841 2188 
Q 3044 2119 3236 1894 
Q 3428 1669 3622 1275 
L 4263 0 
L 3584 0 
L 2988 1197 
Q 2756 1666 2539 1819 
Q 2322 1972 1947 1972 
L 1259 1972 
L 1259 0 
L 628 0 
L 628 4666 
L 2053 4666 
Q 2853 4666 3247 4331 
Q 3641 3997 3641 3322 
Q 3641 2881 3436 2590 
Q 3231 2300 2841 2188 
z
M 1259 4147 
L 1259 2491 
L 2053 2491 
Q 2509 2491 2742 2702 
Q 2975 2913 2975 3322 
Q 2975 3731 2742 3939 
Q 2509 4147 2053 4147 
L 1259 4147 
z
" transform="scale(0.015625)"/>
        <path id="DejaVuSans-56" d="M 1831 0 
L 50 4666 
L 709 4666 
L 2188 738 
L 3669 4666 
L 4325 4666 
L 2547 0 
L 1831 0 
z
" transform="scale(0.015625)"/>
       </defs>
       <use xlink:href="#DejaVuSans-43"/>
       <use xlink:href="#DejaVuSans-52" transform="translate(69.824219 0)"/>
       <use xlink:href="#DejaVuSans-56" transform="translate(133.806641 0)"/>
       <use xlink:href="#DejaVuSans-2d" transform="translate(196.339844 0)"/>
       <use xlink:href="#DejaVuSans-45" transform="translate(232.423828 0)"/>
       <use xlink:href="#DejaVuSans-54" transform="translate(295.607422 0)"/>
       <use xlink:href="#DejaVuSans-48" transform="translate(356.691406 0)"/>
      </g>
     </g>
    </g>
    <g id="xtick_11">
     <g id="line2d_21">
      <path d="M 389.704797 275.741067 
L 389.704797 22.318125 
" clip-path="url(#p062a678a84)" style="fill: none; stroke: #b0b0b0; stroke-width: 0.8; stroke-linecap: square"/>
     </g>
     <g id="line2d_22">
      <g>
       <use xlink:href="#m863ec8e489" x="389.704797" y="275.741067" style="stroke: #000000; stroke-width: 0.8"/>
      </g>
     </g>
     <g id="text_11">
      <!-- UNI-ETH -->
      <g transform="translate(377.052557 317.320798) rotate(-45) scale(0.1 -0.1)">
       <use xlink:href="#DejaVuSans-55"/>
       <use xlink:href="#DejaVuSans-4e" transform="translate(73.193359 0)"/>
       <use xlink:href="#DejaVuSans-49" transform="translate(147.998047 0)"/>
       <use xlink:href="#DejaVuSans-2d" transform="translate(177.490234 0)"/>
       <use xlink:href="#DejaVuSans-45" transform="translate(213.574219 0)"/>
       <use xlink:href="#DejaVuSans-54" transform="translate(276.757812 0)"/>
       <use xlink:href="#DejaVuSans-48" transform="translate(337.841797 0)"/>
      </g>
     </g>
    </g>
    <g id="xtick_12">
     <g id="line2d_23">
      <path d="M 422.623408 275.741067 
L 422.623408 22.318125 
" clip-path="url(#p062a678a84)" style="fill: none; stroke: #b0b0b0; stroke-width: 0.8; stroke-linecap: square"/>
     </g>
     <g id="line2d_24">
      <g>
       <use xlink:href="#m863ec8e489" x="422.623408" y="275.741067" style="stroke: #000000; stroke-width: 0.8"/>
      </g>
     </g>
     <g id="text_12">
      <!-- AAVE-ETH -->
      <g transform="translate(406.88531 323.492514) rotate(-45) scale(0.1 -0.1)">
       <use xlink:href="#DejaVuSans-41"/>
       <use xlink:href="#DejaVuSans-41" transform="translate(71.158203 0)"/>
       <use xlink:href="#DejaVuSans-56" transform="translate(133.191406 0)"/>
       <use xlink:href="#DejaVuSans-45" transform="translate(201.599609 0)"/>
       <use xlink:href="#DejaVuSans-2d" transform="translate(264.783203 0)"/>
       <use xlink:href="#DejaVuSans-45" transform="translate(300.867188 0)"/>
       <use xlink:href="#DejaVuSans-54" transform="translate(364.050781 0)"/>
       <use xlink:href="#DejaVuSans-48" transform="translate(425.134766 0)"/>
      </g>
     </g>
    </g>
    <g id="xtick_13">
     <g id="line2d_25">
      <path d="M 455.54202 275.741067 
L 455.54202 22.318125 
" clip-path="url(#p062a678a84)" style="fill: none; stroke: #b0b0b0; stroke-width: 0.8; stroke-linecap: square"/>
     </g>
     <g id="line2d_26">
      <g>
       <use xlink:href="#m863ec8e489" x="455.54202" y="275.741067" style="stroke: #000000; stroke-width: 0.8"/>
      </g>
     </g>
     <g id="text_13">
      <!-- MANA-ETH -->
      <g transform="translate(438.712326 325.675706) rotate(-45) scale(0.1 -0.1)">
       <defs>
        <path id="DejaVuSans-4d" d="M 628 4666 
L 1569 4666 
L 2759 1491 
L 3956 4666 
L 4897 4666 
L 4897 0 
L 4281 0 
L 4281 4097 
L 3078 897 
L 2444 897 
L 1241 4097 
L 1241 0 
L 628 0 
L 628 4666 
z
" transform="scale(0.015625)"/>
       </defs>
       <use xlink:href="#DejaVuSans-4d"/>
       <use xlink:href="#DejaVuSans-41" transform="translate(86.279297 0)"/>
       <use xlink:href="#DejaVuSans-4e" transform="translate(154.6875 0)"/>
       <use xlink:href="#DejaVuSans-41" transform="translate(229.492188 0)"/>
       <use xlink:href="#DejaVuSans-2d" transform="translate(295.650391 0)"/>
       <use xlink:href="#DejaVuSans-45" transform="translate(331.734375 0)"/>
       <use xlink:href="#DejaVuSans-54" transform="translate(394.917969 0)"/>
       <use xlink:href="#DejaVuSans-48" transform="translate(456.001953 0)"/>
      </g>
     </g>
    </g>
    <g id="xtick_14">
     <g id="line2d_27">
      <path d="M 488.460631 275.741067 
L 488.460631 22.318125 
" clip-path="url(#p062a678a84)" style="fill: none; stroke: #b0b0b0; stroke-width: 0.8; stroke-linecap: square"/>
     </g>
     <g id="line2d_28">
      <g>
       <use xlink:href="#m863ec8e489" x="488.460631" y="275.741067" style="stroke: #000000; stroke-width: 0.8"/>
      </g>
     </g>
     <g id="text_14">
      <!-- SNX-ETH -->
      <g transform="translate(474.949367 319.038846) rotate(-45) scale(0.1 -0.1)">
       <defs>
        <path id="DejaVuSans-58" d="M 403 4666 
L 1081 4666 
L 2241 2931 
L 3406 4666 
L 4084 4666 
L 2584 2425 
L 4184 0 
L 3506 0 
L 2194 1984 
L 872 0 
L 191 0 
L 1856 2491 
L 403 4666 
z
" transform="scale(0.015625)"/>
       </defs>
       <use xlink:href="#DejaVuSans-53"/>
       <use xlink:href="#DejaVuSans-4e" transform="translate(63.476562 0)"/>
       <use xlink:href="#DejaVuSans-58" transform="translate(138.28125 0)"/>
       <use xlink:href="#DejaVuSans-2d" transform="translate(201.787109 0)"/>
       <use xlink:href="#DejaVuSans-45" transform="translate(237.871094 0)"/>
       <use xlink:href="#DejaVuSans-54" transform="translate(301.054688 0)"/>
       <use xlink:href="#DejaVuSans-48" transform="translate(362.138672 0)"/>
      </g>
     </g>
    </g>
    <g id="xtick_15">
     <g id="line2d_29">
      <path d="M 521.379243 275.741067 
L 521.379243 22.318125 
" clip-path="url(#p062a678a84)" style="fill: none; stroke: #b0b0b0; stroke-width: 0.8; stroke-linecap: square"/>
     </g>
     <g id="line2d_30">
      <g>
       <use xlink:href="#m863ec8e489" x="521.379243" y="275.741067" style="stroke: #000000; stroke-width: 0.8"/>
      </g>
     </g>
     <g id="text_15">
      <!-- BTC-DAI -->
      <g transform="translate(509.086633 316.601538) rotate(-45) scale(0.1 -0.1)">
       <use xlink:href="#DejaVuSans-42"/>
       <use xlink:href="#DejaVuSans-54" transform="translate(68.603516 0)"/>
       <use xlink:href="#DejaVuSans-43" transform="translate(123.8125 0)"/>
       <use xlink:href="#DejaVuSans-2d" transform="translate(193.636719 0)"/>
       <use xlink:href="#DejaVuSans-44" transform="translate(229.720703 0)"/>
       <use xlink:href="#DejaVuSans-41" transform="translate(304.972656 0)"/>
       <use xlink:href="#DejaVuSans-49" transform="translate(373.380859 0)"/>
      </g>
     </g>
    </g>
    <g id="xtick_16">
     <g id="line2d_31">
      <path d="M 554.297854 275.741067 
L 554.297854 22.318125 
" clip-path="url(#p062a678a84)" style="fill: none; stroke: #b0b0b0; stroke-width: 0.8; stroke-linecap: square"/>
     </g>
     <g id="line2d_32">
      <g>
       <use xlink:href="#m863ec8e489" x="554.297854" y="275.741067" style="stroke: #000000; stroke-width: 0.8"/>
      </g>
     </g>
     <g id="text_16">
      <!-- GRT-ETH -->
      <g transform="translate(541.144563 318.322901) rotate(-45) scale(0.1 -0.1)">
       <defs>
        <path id="DejaVuSans-47" d="M 3809 666 
L 3809 1919 
L 2778 1919 
L 2778 2438 
L 4434 2438 
L 4434 434 
Q 4069 175 3628 42 
Q 3188 -91 2688 -91 
Q 1594 -91 976 548 
Q 359 1188 359 2328 
Q 359 3472 976 4111 
Q 1594 4750 2688 4750 
Q 3144 4750 3555 4637 
Q 3966 4525 4313 4306 
L 4313 3634 
Q 3963 3931 3569 4081 
Q 3175 4231 2741 4231 
Q 1884 4231 1454 3753 
Q 1025 3275 1025 2328 
Q 1025 1384 1454 906 
Q 1884 428 2741 428 
Q 3075 428 3337 486 
Q 3600 544 3809 666 
z
" transform="scale(0.015625)"/>
       </defs>
       <use xlink:href="#DejaVuSans-47"/>
       <use xlink:href="#DejaVuSans-52" transform="translate(77.490234 0)"/>
       <use xlink:href="#DejaVuSans-54" transform="translate(139.722656 0)"/>
       <use xlink:href="#DejaVuSans-2d" transform="translate(191.681641 0)"/>
       <use xlink:href="#DejaVuSans-45" transform="translate(227.765625 0)"/>
       <use xlink:href="#DejaVuSans-54" transform="translate(290.949219 0)"/>
       <use xlink:href="#DejaVuSans-48" transform="translate(352.033203 0)"/>
      </g>
     </g>
    </g>
    <g id="xtick_17">
     <g id="line2d_33">
      <path d="M 587.216466 275.741067 
L 587.216466 22.318125 
" clip-path="url(#p062a678a84)" style="fill: none; stroke: #b0b0b0; stroke-width: 0.8; stroke-linecap: square"/>
     </g>
     <g id="line2d_34">
      <g>
       <use xlink:href="#m863ec8e489" x="587.216466" y="275.741067" style="stroke: #000000; stroke-width: 0.8"/>
      </g>
     </g>
     <g id="text_17">
      <!-- OMG-ETH -->
      <g transform="translate(572.266682 321.915887) rotate(-45) scale(0.1 -0.1)">
       <defs>
        <path id="DejaVuSans-4f" d="M 2522 4238 
Q 1834 4238 1429 3725 
Q 1025 3213 1025 2328 
Q 1025 1447 1429 934 
Q 1834 422 2522 422 
Q 3209 422 3611 934 
Q 4013 1447 4013 2328 
Q 4013 3213 3611 3725 
Q 3209 4238 2522 4238 
z
M 2522 4750 
Q 3503 4750 4090 4092 
Q 4678 3434 4678 2328 
Q 4678 1225 4090 567 
Q 3503 -91 2522 -91 
Q 1538 -91 948 565 
Q 359 1222 359 2328 
Q 359 3434 948 4092 
Q 1538 4750 2522 4750 
z
" transform="scale(0.015625)"/>
       </defs>
       <use xlink:href="#DejaVuSans-4f"/>
       <use xlink:href="#DejaVuSans-4d" transform="translate(78.710938 0)"/>
       <use xlink:href="#DejaVuSans-47" transform="translate(164.990234 0)"/>
       <use xlink:href="#DejaVuSans-2d" transform="translate(242.480469 0)"/>
       <use xlink:href="#DejaVuSans-45" transform="translate(278.564453 0)"/>
       <use xlink:href="#DejaVuSans-54" transform="translate(341.748047 0)"/>
       <use xlink:href="#DejaVuSans-48" transform="translate(402.832031 0)"/>
      </g>
     </g>
    </g>
    <g id="xtick_18">
     <g id="line2d_35">
      <path d="M 620.135078 275.741067 
L 620.135078 22.318125 
" clip-path="url(#p062a678a84)" style="fill: none; stroke: #b0b0b0; stroke-width: 0.8; stroke-linecap: square"/>
     </g>
     <g id="line2d_36">
      <g>
       <use xlink:href="#m863ec8e489" x="620.135078" y="275.741067" style="stroke: #000000; stroke-width: 0.8"/>
      </g>
     </g>
     <g id="text_18">
      <!-- STORJ-ETH -->
      <g transform="translate(603.19987 325.886734) rotate(-45) scale(0.1 -0.1)">
       <defs>
        <path id="DejaVuSans-4a" d="M 628 4666 
L 1259 4666 
L 1259 325 
Q 1259 -519 939 -900 
Q 619 -1281 -91 -1281 
L -331 -1281 
L -331 -750 
L -134 -750 
Q 284 -750 456 -515 
Q 628 -281 628 325 
L 628 4666 
z
" transform="scale(0.015625)"/>
       </defs>
       <use xlink:href="#DejaVuSans-53"/>
       <use xlink:href="#DejaVuSans-54" transform="translate(63.476562 0)"/>
       <use xlink:href="#DejaVuSans-4f" transform="translate(124.560547 0)"/>
       <use xlink:href="#DejaVuSans-52" transform="translate(203.271484 0)"/>
       <use xlink:href="#DejaVuSans-4a" transform="translate(272.753906 0)"/>
       <use xlink:href="#DejaVuSans-2d" transform="translate(298.621094 0)"/>
       <use xlink:href="#DejaVuSans-45" transform="translate(334.705078 0)"/>
       <use xlink:href="#DejaVuSans-54" transform="translate(397.888672 0)"/>
       <use xlink:href="#DejaVuSans-48" transform="translate(458.972656 0)"/>
      </g>
     </g>
    </g>
    <g id="xtick_19">
     <g id="line2d_37">
      <path d="M 653.053689 275.741067 
L 653.053689 22.318125 
" clip-path="url(#p062a678a84)" style="fill: none; stroke: #b0b0b0; stroke-width: 0.8; stroke-linecap: square"/>
     </g>
     <g id="line2d_38">
      <g>
       <use xlink:href="#m863ec8e489" x="653.053689" y="275.741067" style="stroke: #000000; stroke-width: 0.8"/>
      </g>
     </g>
     <g id="text_19">
      <!-- REP-ETH -->
      <g transform="translate(639.934096 318.255505) rotate(-45) scale(0.1 -0.1)">
       <defs>
        <path id="DejaVuSans-50" d="M 1259 4147 
L 1259 2394 
L 2053 2394 
Q 2494 2394 2734 2622 
Q 2975 2850 2975 3272 
Q 2975 3691 2734 3919 
Q 2494 4147 2053 4147 
L 1259 4147 
z
M 628 4666 
L 2053 4666 
Q 2838 4666 3239 4311 
Q 3641 3956 3641 3272 
Q 3641 2581 3239 2228 
Q 2838 1875 2053 1875 
L 1259 1875 
L 1259 0 
L 628 0 
L 628 4666 
z
" transform="scale(0.015625)"/>
       </defs>
       <use xlink:href="#DejaVuSans-52"/>
       <use xlink:href="#DejaVuSans-45" transform="translate(69.482422 0)"/>
       <use xlink:href="#DejaVuSans-50" transform="translate(132.666016 0)"/>
       <use xlink:href="#DejaVuSans-2d" transform="translate(190.71875 0)"/>
       <use xlink:href="#DejaVuSans-45" transform="translate(226.802734 0)"/>
       <use xlink:href="#DejaVuSans-54" transform="translate(289.986328 0)"/>
       <use xlink:href="#DejaVuSans-48" transform="translate(351.070312 0)"/>
      </g>
     </g>
    </g>
    <g id="xtick_20">
     <g id="line2d_39">
      <path d="M 685.972301 275.741067 
L 685.972301 22.318125 
" clip-path="url(#p062a678a84)" style="fill: none; stroke: #b0b0b0; stroke-width: 0.8; stroke-linecap: square"/>
     </g>
     <g id="line2d_40">
      <g>
       <use xlink:href="#m863ec8e489" x="685.972301" y="275.741067" style="stroke: #000000; stroke-width: 0.8"/>
      </g>
     </g>
     <g id="text_20">
      <!-- KNC-ETH -->
      <g transform="translate(672.163279 319.634363) rotate(-45) scale(0.1 -0.1)">
       <use xlink:href="#DejaVuSans-4b"/>
       <use xlink:href="#DejaVuSans-4e" transform="translate(65.576172 0)"/>
       <use xlink:href="#DejaVuSans-43" transform="translate(140.380859 0)"/>
       <use xlink:href="#DejaVuSans-2d" transform="translate(210.205078 0)"/>
       <use xlink:href="#DejaVuSans-45" transform="translate(246.289062 0)"/>
       <use xlink:href="#DejaVuSans-54" transform="translate(309.472656 0)"/>
       <use xlink:href="#DejaVuSans-48" transform="translate(370.556641 0)"/>
      </g>
     </g>
    </g>
    <g id="text_21">
     <!-- label -->
     <g transform="translate(361.152522 343.208317) scale(0.1 -0.1)">
      <defs>
       <path id="DejaVuSans-6c" d="M 603 4863 
L 1178 4863 
L 1178 0 
L 603 0 
L 603 4863 
z
" transform="scale(0.015625)"/>
       <path id="DejaVuSans-61" d="M 2194 1759 
Q 1497 1759 1228 1600 
Q 959 1441 959 1056 
Q 959 750 1161 570 
Q 1363 391 1709 391 
Q 2188 391 2477 730 
Q 2766 1069 2766 1631 
L 2766 1759 
L 2194 1759 
z
M 3341 1997 
L 3341 0 
L 2766 0 
L 2766 531 
Q 2569 213 2275 61 
Q 1981 -91 1556 -91 
Q 1019 -91 701 211 
Q 384 513 384 1019 
Q 384 1609 779 1909 
Q 1175 2209 1959 2209 
L 2766 2209 
L 2766 2266 
Q 2766 2663 2505 2880 
Q 2244 3097 1772 3097 
Q 1472 3097 1187 3025 
Q 903 2953 641 2809 
L 641 3341 
Q 956 3463 1253 3523 
Q 1550 3584 1831 3584 
Q 2591 3584 2966 3190 
Q 3341 2797 3341 1997 
z
" transform="scale(0.015625)"/>
       <path id="DejaVuSans-62" d="M 3116 1747 
Q 3116 2381 2855 2742 
Q 2594 3103 2138 3103 
Q 1681 3103 1420 2742 
Q 1159 2381 1159 1747 
Q 1159 1113 1420 752 
Q 1681 391 2138 391 
Q 2594 391 2855 752 
Q 3116 1113 3116 1747 
z
M 1159 2969 
Q 1341 3281 1617 3432 
Q 1894 3584 2278 3584 
Q 2916 3584 3314 3078 
Q 3713 2572 3713 1747 
Q 3713 922 3314 415 
Q 2916 -91 2278 -91 
Q 1894 -91 1617 61 
Q 1341 213 1159 525 
L 1159 0 
L 581 0 
L 581 4863 
L 1159 4863 
L 1159 2969 
z
" transform="scale(0.015625)"/>
       <path id="DejaVuSans-65" d="M 3597 1894 
L 3597 1613 
L 953 1613 
Q 991 1019 1311 708 
Q 1631 397 2203 397 
Q 2534 397 2845 478 
Q 3156 559 3463 722 
L 3463 178 
Q 3153 47 2828 -22 
Q 2503 -91 2169 -91 
Q 1331 -91 842 396 
Q 353 884 353 1716 
Q 353 2575 817 3079 
Q 1281 3584 2069 3584 
Q 2775 3584 3186 3129 
Q 3597 2675 3597 1894 
z
M 3022 2063 
Q 3016 2534 2758 2815 
Q 2500 3097 2075 3097 
Q 1594 3097 1305 2825 
Q 1016 2553 972 2059 
L 3022 2063 
z
" transform="scale(0.015625)"/>
      </defs>
      <use xlink:href="#DejaVuSans-6c"/>
      <use xlink:href="#DejaVuSans-61" transform="translate(27.783203 0)"/>
      <use xlink:href="#DejaVuSans-62" transform="translate(89.0625 0)"/>
      <use xlink:href="#DejaVuSans-65" transform="translate(152.539062 0)"/>
      <use xlink:href="#DejaVuSans-6c" transform="translate(214.0625 0)"/>
     </g>
    </g>
   </g>
   <g id="matplotlib.axis_2">
    <g id="ytick_1">
     <g id="line2d_41">
      <path d="M 44.059375 275.741067 
L 702.431606 275.741067 
" clip-path="url(#p062a678a84)" style="fill: none; stroke: #b0b0b0; stroke-width: 0.8; stroke-linecap: square"/>
     </g>
     <g id="line2d_42">
      <defs>
       <path id="me61b32ab50" d="M 0 0 
L -3.5 0 
" style="stroke: #000000; stroke-width: 0.8"/>
      </defs>
      <g>
       <use xlink:href="#me61b32ab50" x="44.059375" y="275.741067" style="stroke: #000000; stroke-width: 0.8"/>
      </g>
     </g>
     <g id="text_22">
      <!-- 0.0 -->
      <g transform="translate(21.15625 279.540285) scale(0.1 -0.1)">
       <defs>
        <path id="DejaVuSans-30" d="M 2034 4250 
Q 1547 4250 1301 3770 
Q 1056 3291 1056 2328 
Q 1056 1369 1301 889 
Q 1547 409 2034 409 
Q 2525 409 2770 889 
Q 3016 1369 3016 2328 
Q 3016 3291 2770 3770 
Q 2525 4250 2034 4250 
z
M 2034 4750 
Q 2819 4750 3233 4129 
Q 3647 3509 3647 2328 
Q 3647 1150 3233 529 
Q 2819 -91 2034 -91 
Q 1250 -91 836 529 
Q 422 1150 422 2328 
Q 422 3509 836 4129 
Q 1250 4750 2034 4750 
z
" transform="scale(0.015625)"/>
        <path id="DejaVuSans-2e" d="M 684 794 
L 1344 794 
L 1344 0 
L 684 0 
L 684 794 
z
" transform="scale(0.015625)"/>
       </defs>
       <use xlink:href="#DejaVuSans-30"/>
       <use xlink:href="#DejaVuSans-2e" transform="translate(63.623047 0)"/>
       <use xlink:href="#DejaVuSans-30" transform="translate(95.410156 0)"/>
      </g>
     </g>
    </g>
    <g id="ytick_2">
     <g id="line2d_43">
      <path d="M 44.059375 227.255075 
L 702.431606 227.255075 
" clip-path="url(#p062a678a84)" style="fill: none; stroke: #b0b0b0; stroke-width: 0.8; stroke-linecap: square"/>
     </g>
     <g id="line2d_44">
      <g>
       <use xlink:href="#me61b32ab50" x="44.059375" y="227.255075" style="stroke: #000000; stroke-width: 0.8"/>
      </g>
     </g>
     <g id="text_23">
      <!-- 0.2 -->
      <g transform="translate(21.15625 231.054293) scale(0.1 -0.1)">
       <defs>
        <path id="DejaVuSans-32" d="M 1228 531 
L 3431 531 
L 3431 0 
L 469 0 
L 469 531 
Q 828 903 1448 1529 
Q 2069 2156 2228 2338 
Q 2531 2678 2651 2914 
Q 2772 3150 2772 3378 
Q 2772 3750 2511 3984 
Q 2250 4219 1831 4219 
Q 1534 4219 1204 4116 
Q 875 4013 500 3803 
L 500 4441 
Q 881 4594 1212 4672 
Q 1544 4750 1819 4750 
Q 2544 4750 2975 4387 
Q 3406 4025 3406 3419 
Q 3406 3131 3298 2873 
Q 3191 2616 2906 2266 
Q 2828 2175 2409 1742 
Q 1991 1309 1228 531 
z
" transform="scale(0.015625)"/>
       </defs>
       <use xlink:href="#DejaVuSans-30"/>
       <use xlink:href="#DejaVuSans-2e" transform="translate(63.623047 0)"/>
       <use xlink:href="#DejaVuSans-32" transform="translate(95.410156 0)"/>
      </g>
     </g>
    </g>
    <g id="ytick_3">
     <g id="line2d_45">
      <path d="M 44.059375 178.769083 
L 702.431606 178.769083 
" clip-path="url(#p062a678a84)" style="fill: none; stroke: #b0b0b0; stroke-width: 0.8; stroke-linecap: square"/>
     </g>
     <g id="line2d_46">
      <g>
       <use xlink:href="#me61b32ab50" x="44.059375" y="178.769083" style="stroke: #000000; stroke-width: 0.8"/>
      </g>
     </g>
     <g id="text_24">
      <!-- 0.4 -->
      <g transform="translate(21.15625 182.568301) scale(0.1 -0.1)">
       <defs>
        <path id="DejaVuSans-34" d="M 2419 4116 
L 825 1625 
L 2419 1625 
L 2419 4116 
z
M 2253 4666 
L 3047 4666 
L 3047 1625 
L 3713 1625 
L 3713 1100 
L 3047 1100 
L 3047 0 
L 2419 0 
L 2419 1100 
L 313 1100 
L 313 1709 
L 2253 4666 
z
" transform="scale(0.015625)"/>
       </defs>
       <use xlink:href="#DejaVuSans-30"/>
       <use xlink:href="#DejaVuSans-2e" transform="translate(63.623047 0)"/>
       <use xlink:href="#DejaVuSans-34" transform="translate(95.410156 0)"/>
      </g>
     </g>
    </g>
    <g id="ytick_4">
     <g id="line2d_47">
      <path d="M 44.059375 130.283091 
L 702.431606 130.283091 
" clip-path="url(#p062a678a84)" style="fill: none; stroke: #b0b0b0; stroke-width: 0.8; stroke-linecap: square"/>
     </g>
     <g id="line2d_48">
      <g>
       <use xlink:href="#me61b32ab50" x="44.059375" y="130.283091" style="stroke: #000000; stroke-width: 0.8"/>
      </g>
     </g>
     <g id="text_25">
      <!-- 0.6 -->
      <g transform="translate(21.15625 134.082309) scale(0.1 -0.1)">
       <defs>
        <path id="DejaVuSans-36" d="M 2113 2584 
Q 1688 2584 1439 2293 
Q 1191 2003 1191 1497 
Q 1191 994 1439 701 
Q 1688 409 2113 409 
Q 2538 409 2786 701 
Q 3034 994 3034 1497 
Q 3034 2003 2786 2293 
Q 2538 2584 2113 2584 
z
M 3366 4563 
L 3366 3988 
Q 3128 4100 2886 4159 
Q 2644 4219 2406 4219 
Q 1781 4219 1451 3797 
Q 1122 3375 1075 2522 
Q 1259 2794 1537 2939 
Q 1816 3084 2150 3084 
Q 2853 3084 3261 2657 
Q 3669 2231 3669 1497 
Q 3669 778 3244 343 
Q 2819 -91 2113 -91 
Q 1303 -91 875 529 
Q 447 1150 447 2328 
Q 447 3434 972 4092 
Q 1497 4750 2381 4750 
Q 2619 4750 2861 4703 
Q 3103 4656 3366 4563 
z
" transform="scale(0.015625)"/>
       </defs>
       <use xlink:href="#DejaVuSans-30"/>
       <use xlink:href="#DejaVuSans-2e" transform="translate(63.623047 0)"/>
       <use xlink:href="#DejaVuSans-36" transform="translate(95.410156 0)"/>
      </g>
     </g>
    </g>
    <g id="ytick_5">
     <g id="line2d_49">
      <path d="M 44.059375 81.797099 
L 702.431606 81.797099 
" clip-path="url(#p062a678a84)" style="fill: none; stroke: #b0b0b0; stroke-width: 0.8; stroke-linecap: square"/>
     </g>
     <g id="line2d_50">
      <g>
       <use xlink:href="#me61b32ab50" x="44.059375" y="81.797099" style="stroke: #000000; stroke-width: 0.8"/>
      </g>
     </g>
     <g id="text_26">
      <!-- 0.8 -->
      <g transform="translate(21.15625 85.596317) scale(0.1 -0.1)">
       <defs>
        <path id="DejaVuSans-38" d="M 2034 2216 
Q 1584 2216 1326 1975 
Q 1069 1734 1069 1313 
Q 1069 891 1326 650 
Q 1584 409 2034 409 
Q 2484 409 2743 651 
Q 3003 894 3003 1313 
Q 3003 1734 2745 1975 
Q 2488 2216 2034 2216 
z
M 1403 2484 
Q 997 2584 770 2862 
Q 544 3141 544 3541 
Q 544 4100 942 4425 
Q 1341 4750 2034 4750 
Q 2731 4750 3128 4425 
Q 3525 4100 3525 3541 
Q 3525 3141 3298 2862 
Q 3072 2584 2669 2484 
Q 3125 2378 3379 2068 
Q 3634 1759 3634 1313 
Q 3634 634 3220 271 
Q 2806 -91 2034 -91 
Q 1263 -91 848 271 
Q 434 634 434 1313 
Q 434 1759 690 2068 
Q 947 2378 1403 2484 
z
M 1172 3481 
Q 1172 3119 1398 2916 
Q 1625 2713 2034 2713 
Q 2441 2713 2670 2916 
Q 2900 3119 2900 3481 
Q 2900 3844 2670 4047 
Q 2441 4250 2034 4250 
Q 1625 4250 1398 4047 
Q 1172 3844 1172 3481 
z
" transform="scale(0.015625)"/>
       </defs>
       <use xlink:href="#DejaVuSans-30"/>
       <use xlink:href="#DejaVuSans-2e" transform="translate(63.623047 0)"/>
       <use xlink:href="#DejaVuSans-38" transform="translate(95.410156 0)"/>
      </g>
     </g>
    </g>
    <g id="ytick_6">
     <g id="line2d_51">
      <path d="M 44.059375 33.311107 
L 702.431606 33.311107 
" clip-path="url(#p062a678a84)" style="fill: none; stroke: #b0b0b0; stroke-width: 0.8; stroke-linecap: square"/>
     </g>
     <g id="line2d_52">
      <g>
       <use xlink:href="#me61b32ab50" x="44.059375" y="33.311107" style="stroke: #000000; stroke-width: 0.8"/>
      </g>
     </g>
     <g id="text_27">
      <!-- 1.0 -->
      <g transform="translate(21.15625 37.110325) scale(0.1 -0.1)">
       <defs>
        <path id="DejaVuSans-31" d="M 794 531 
L 1825 531 
L 1825 4091 
L 703 3866 
L 703 4441 
L 1819 4666 
L 2450 4666 
L 2450 531 
L 3481 531 
L 3481 0 
L 794 0 
L 794 531 
z
" transform="scale(0.015625)"/>
       </defs>
       <use xlink:href="#DejaVuSans-31"/>
       <use xlink:href="#DejaVuSans-2e" transform="translate(63.623047 0)"/>
       <use xlink:href="#DejaVuSans-30" transform="translate(95.410156 0)"/>
      </g>
     </g>
    </g>
    <g id="text_28">
     <!-- v3_share (mean) -->
     <g transform="translate(14.798438 191.197565) rotate(-90) scale(0.1 -0.1)">
      <defs>
       <path id="DejaVuSans-76" d="M 191 3500 
L 800 3500 
L 1894 563 
L 2988 3500 
L 3597 3500 
L 2284 0 
L 1503 0 
L 191 3500 
z
" transform="scale(0.015625)"/>
       <path id="DejaVuSans-33" d="M 2597 2516 
Q 3050 2419 3304 2112 
Q 3559 1806 3559 1356 
Q 3559 666 3084 287 
Q 2609 -91 1734 -91 
Q 1441 -91 1130 -33 
Q 819 25 488 141 
L 488 750 
Q 750 597 1062 519 
Q 1375 441 1716 441 
Q 2309 441 2620 675 
Q 2931 909 2931 1356 
Q 2931 1769 2642 2001 
Q 2353 2234 1838 2234 
L 1294 2234 
L 1294 2753 
L 1863 2753 
Q 2328 2753 2575 2939 
Q 2822 3125 2822 3475 
Q 2822 3834 2567 4026 
Q 2313 4219 1838 4219 
Q 1578 4219 1281 4162 
Q 984 4106 628 3988 
L 628 4550 
Q 988 4650 1302 4700 
Q 1616 4750 1894 4750 
Q 2613 4750 3031 4423 
Q 3450 4097 3450 3541 
Q 3450 3153 3228 2886 
Q 3006 2619 2597 2516 
z
" transform="scale(0.015625)"/>
       <path id="DejaVuSans-5f" d="M 3263 -1063 
L 3263 -1509 
L -63 -1509 
L -63 -1063 
L 3263 -1063 
z
" transform="scale(0.015625)"/>
       <path id="DejaVuSans-73" d="M 2834 3397 
L 2834 2853 
Q 2591 2978 2328 3040 
Q 2066 3103 1784 3103 
Q 1356 3103 1142 2972 
Q 928 2841 928 2578 
Q 928 2378 1081 2264 
Q 1234 2150 1697 2047 
L 1894 2003 
Q 2506 1872 2764 1633 
Q 3022 1394 3022 966 
Q 3022 478 2636 193 
Q 2250 -91 1575 -91 
Q 1294 -91 989 -36 
Q 684 19 347 128 
L 347 722 
Q 666 556 975 473 
Q 1284 391 1588 391 
Q 1994 391 2212 530 
Q 2431 669 2431 922 
Q 2431 1156 2273 1281 
Q 2116 1406 1581 1522 
L 1381 1569 
Q 847 1681 609 1914 
Q 372 2147 372 2553 
Q 372 3047 722 3315 
Q 1072 3584 1716 3584 
Q 2034 3584 2315 3537 
Q 2597 3491 2834 3397 
z
" transform="scale(0.015625)"/>
       <path id="DejaVuSans-68" d="M 3513 2113 
L 3513 0 
L 2938 0 
L 2938 2094 
Q 2938 2591 2744 2837 
Q 2550 3084 2163 3084 
Q 1697 3084 1428 2787 
Q 1159 2491 1159 1978 
L 1159 0 
L 581 0 
L 581 4863 
L 1159 4863 
L 1159 2956 
Q 1366 3272 1645 3428 
Q 1925 3584 2291 3584 
Q 2894 3584 3203 3211 
Q 3513 2838 3513 2113 
z
" transform="scale(0.015625)"/>
       <path id="DejaVuSans-72" d="M 2631 2963 
Q 2534 3019 2420 3045 
Q 2306 3072 2169 3072 
Q 1681 3072 1420 2755 
Q 1159 2438 1159 1844 
L 1159 0 
L 581 0 
L 581 3500 
L 1159 3500 
L 1159 2956 
Q 1341 3275 1631 3429 
Q 1922 3584 2338 3584 
Q 2397 3584 2469 3576 
Q 2541 3569 2628 3553 
L 2631 2963 
z
" transform="scale(0.015625)"/>
       <path id="DejaVuSans-20" transform="scale(0.015625)"/>
       <path id="DejaVuSans-28" d="M 1984 4856 
Q 1566 4138 1362 3434 
Q 1159 2731 1159 2009 
Q 1159 1288 1364 580 
Q 1569 -128 1984 -844 
L 1484 -844 
Q 1016 -109 783 600 
Q 550 1309 550 2009 
Q 550 2706 781 3412 
Q 1013 4119 1484 4856 
L 1984 4856 
z
" transform="scale(0.015625)"/>
       <path id="DejaVuSans-6d" d="M 3328 2828 
Q 3544 3216 3844 3400 
Q 4144 3584 4550 3584 
Q 5097 3584 5394 3201 
Q 5691 2819 5691 2113 
L 5691 0 
L 5113 0 
L 5113 2094 
Q 5113 2597 4934 2840 
Q 4756 3084 4391 3084 
Q 3944 3084 3684 2787 
Q 3425 2491 3425 1978 
L 3425 0 
L 2847 0 
L 2847 2094 
Q 2847 2600 2669 2842 
Q 2491 3084 2119 3084 
Q 1678 3084 1418 2786 
Q 1159 2488 1159 1978 
L 1159 0 
L 581 0 
L 581 3500 
L 1159 3500 
L 1159 2956 
Q 1356 3278 1631 3431 
Q 1906 3584 2284 3584 
Q 2666 3584 2933 3390 
Q 3200 3197 3328 2828 
z
" transform="scale(0.015625)"/>
       <path id="DejaVuSans-6e" d="M 3513 2113 
L 3513 0 
L 2938 0 
L 2938 2094 
Q 2938 2591 2744 2837 
Q 2550 3084 2163 3084 
Q 1697 3084 1428 2787 
Q 1159 2491 1159 1978 
L 1159 0 
L 581 0 
L 581 3500 
L 1159 3500 
L 1159 2956 
Q 1366 3272 1645 3428 
Q 1925 3584 2291 3584 
Q 2894 3584 3203 3211 
Q 3513 2838 3513 2113 
z
" transform="scale(0.015625)"/>
       <path id="DejaVuSans-29" d="M 513 4856 
L 1013 4856 
Q 1481 4119 1714 3412 
Q 1947 2706 1947 2009 
Q 1947 1309 1714 600 
Q 1481 -109 1013 -844 
L 513 -844 
Q 928 -128 1133 580 
Q 1338 1288 1338 2009 
Q 1338 2731 1133 3434 
Q 928 4138 513 4856 
z
" transform="scale(0.015625)"/>
      </defs>
      <use xlink:href="#DejaVuSans-76"/>
      <use xlink:href="#DejaVuSans-33" transform="translate(59.179688 0)"/>
      <use xlink:href="#DejaVuSans-5f" transform="translate(122.802734 0)"/>
      <use xlink:href="#DejaVuSans-73" transform="translate(172.802734 0)"/>
      <use xlink:href="#DejaVuSans-68" transform="translate(224.902344 0)"/>
      <use xlink:href="#DejaVuSans-61" transform="translate(288.28125 0)"/>
      <use xlink:href="#DejaVuSans-72" transform="translate(349.560547 0)"/>
      <use xlink:href="#DejaVuSans-65" transform="translate(388.423828 0)"/>
      <use xlink:href="#DejaVuSans-20" transform="translate(449.947266 0)"/>
      <use xlink:href="#DejaVuSans-28" transform="translate(481.734375 0)"/>
      <use xlink:href="#DejaVuSans-6d" transform="translate(520.748047 0)"/>
      <use xlink:href="#DejaVuSans-65" transform="translate(618.160156 0)"/>
      <use xlink:href="#DejaVuSans-61" transform="translate(679.683594 0)"/>
      <use xlink:href="#DejaVuSans-6e" transform="translate(740.962891 0)"/>
      <use xlink:href="#DejaVuSans-29" transform="translate(804.341797 0)"/>
     </g>
    </g>
   </g>
   <g id="patch_23">
    <path d="M 44.059375 275.741067 
L 44.059375 22.318125 
" style="fill: none; stroke: #000000; stroke-width: 0.8; stroke-linejoin: miter; stroke-linecap: square"/>
   </g>
   <g id="patch_24">
    <path d="M 702.431606 275.741067 
L 702.431606 22.318125 
" style="fill: none; stroke: #000000; stroke-width: 0.8; stroke-linejoin: miter; stroke-linecap: square"/>
   </g>
   <g id="patch_25">
    <path d="M 44.059375 275.741067 
L 702.431606 275.741067 
" style="fill: none; stroke: #000000; stroke-width: 0.8; stroke-linejoin: miter; stroke-linecap: square"/>
   </g>
   <g id="patch_26">
    <path d="M 44.059375 22.318125 
L 702.431606 22.318125 
" style="fill: none; stroke: #000000; stroke-width: 0.8; stroke-linejoin: miter; stroke-linecap: square"/>
   </g>
   <g id="text_29">
    <!-- Mean v3 share by label -->
    <g transform="translate(303.400803 16.318125) scale(0.12 -0.12)">
     <defs>
      <path id="DejaVuSans-79" d="M 2059 -325 
Q 1816 -950 1584 -1140 
Q 1353 -1331 966 -1331 
L 506 -1331 
L 506 -850 
L 844 -850 
Q 1081 -850 1212 -737 
Q 1344 -625 1503 -206 
L 1606 56 
L 191 3500 
L 800 3500 
L 1894 763 
L 2988 3500 
L 3597 3500 
L 2059 -325 
z
" transform="scale(0.015625)"/>
     </defs>
     <use xlink:href="#DejaVuSans-4d"/>
     <use xlink:href="#DejaVuSans-65" transform="translate(86.279297 0)"/>
     <use xlink:href="#DejaVuSans-61" transform="translate(147.802734 0)"/>
     <use xlink:href="#DejaVuSans-6e" transform="translate(209.082031 0)"/>
     <use xlink:href="#DejaVuSans-20" transform="translate(272.460938 0)"/>
     <use xlink:href="#DejaVuSans-76" transform="translate(304.248047 0)"/>
     <use xlink:href="#DejaVuSans-33" transform="translate(363.427734 0)"/>
     <use xlink:href="#DejaVuSans-20" transform="translate(427.050781 0)"/>
     <use xlink:href="#DejaVuSans-73" transform="translate(458.837891 0)"/>
     <use xlink:href="#DejaVuSans-68" transform="translate(510.9375 0)"/>
     <use xlink:href="#DejaVuSans-61" transform="translate(574.316406 0)"/>
     <use xlink:href="#DejaVuSans-72" transform="translate(635.595703 0)"/>
     <use xlink:href="#DejaVuSans-65" transform="translate(674.458984 0)"/>
     <use xlink:href="#DejaVuSans-20" transform="translate(735.982422 0)"/>
     <use xlink:href="#DejaVuSans-62" transform="translate(767.769531 0)"/>
     <use xlink:href="#DejaVuSans-79" transform="translate(831.246094 0)"/>
     <use xlink:href="#DejaVuSans-20" transform="translate(890.425781 0)"/>
     <use xlink:href="#DejaVuSans-6c" transform="translate(922.212891 0)"/>
     <use xlink:href="#DejaVuSans-61" transform="translate(949.996094 0)"/>
     <use xlink:href="#DejaVuSans-62" transform="translate(1011.275391 0)"/>
     <use xlink:href="#DejaVuSans-65" transform="translate(1074.751953 0)"/>
     <use xlink:href="#DejaVuSans-6c" transform="translate(1136.275391 0)"/>
    </g>
   </g>
  </g>
 </g>
 <defs>
  <clipPath id="p062a678a84">
   <rect x="44.059375" y="22.318125" width="658.372231" height="253.422942"/>
  </clipPath>
 </defs>
</svg>
