<?xml version="1.0" encoding="utf-8" standalone="no"?>
<!DOCTYPE svg PUBLIC "-//W3C//DTD SVG 1.1//EN"
  "http://www.w3.org/Graphics/SVG/1.1/DTD/svg11.dtd">
<svg xmlns:xlink="http://www.w3.org/1999/xlink" width="711.865418pt" height="352.474375pt" viewBox="0 0 711.865418 352.474375" xmlns="http://www.w3.org/2000/svg" version="1.1">
 <title>07_dex_proxies_timeseries_z</title>
 <metadata>
  <rdf:RDF xmlns:dc="http://purl.org/dc/elements/1.1/" xmlns:cc="http://creativecommons.org/ns#" xmlns:rdf="http://www.w3.org/1999/02/22-rdf-syntax-ns#">
   <cc:Work>
    <dc:type rdf:resource="http://purl.org/dc/dcmitype/StillImage"/>
    <dc:title>07_dex_proxies_timeseries_z</dc:title>
    <dc:date>2025-09-14T12:22:10.551177</dc:date>
    <dc:format>image/svg+xml</dc:format>
    <dc:creator>
     <cc:Agent>
      <dc:title>Matplotlib v3.10.5, https://matplotlib.org/</dc:title>
     </cc:Agent>
    </dc:creator>
   </cc:Work>
  </rdf:RDF>
 </metadata>
 <defs>
  <style type="text/css">*{stroke-linejoin: round; stroke-linecap: butt}</style>
 </defs>
 <g id="figure_1">
  <g id="patch_1">
   <path d="M 0 352.474375 
L 711.865418 352.474375 
L 711.865418 0 
L 0 0 
z
" style="fill: #ffffff"/>
  </g>
  <g id="axes_1">
   <g id="patch_2">
    <path d="M 42.620313 314.918125 
L 687.351833 314.918125 
L 687.351833 22.318125 
L 42.620313 22.318125 
z
" style="fill: #ffffff"/>
   </g>
   <g id="matplotlib.axis_1">
    <g id="xtick_1">
     <g id="line2d_1">
      <path d="M 96.850442 314.918125 
L 96.850442 22.318125 
" clip-path="url(#p8f3294130d)" style="fill: none; stroke: #b0b0b0; stroke-width: 0.8; stroke-linecap: square"/>
     </g>
     <g id="line2d_2">
      <defs>
       <path id="md69befd09f" d="M 0 0 
L 0 3.5 
" style="stroke: #000000; stroke-width: 0.8"/>
      </defs>
      <g>
       <use xlink:href="#md69befd09f" x="96.850442" y="314.918125" style="stroke: #000000; stroke-width: 0.8"/>
      </g>
     </g>
     <g id="text_1">
      <!-- 2021-04 -->
      <g transform="translate(75.959036 329.516563) scale(0.1 -0.1)">
       <defs>
        <path id="DejaVuSans-32" d="M 1228 531 
L 3431 531 
L 3431 0 
L 469 0 
L 469 531 
Q 828 903 1448 1529 
Q 2069 2156 2228 2338 
Q 2531 2678 2651 2914 
Q 2772 3150 2772 3378 
Q 2772 3750 2511 3984 
Q 2250 4219 1831 4219 
Q 1534 4219 1204 4116 
Q 875 4013 500 3803 
L 500 4441 
Q 881 4594 1212 4672 
Q 1544 4750 1819 4750 
Q 2544 4750 2975 4387 
Q 3406 4025 3406 3419 
Q 3406 3131 3298 2873 
Q 3191 2616 2906 2266 
Q 2828 2175 2409 1742 
Q 1991 1309 1228 531 
z
" transform="scale(0.015625)"/>
        <path id="DejaVuSans-30" d="M 2034 4250 
Q 1547 4250 1301 3770 
Q 1056 3291 1056 2328 
Q 1056 1369 1301 889 
Q 1547 409 2034 409 
Q 2525 409 2770 889 
Q 3016 1369 3016 2328 
Q 3016 3291 2770 3770 
Q 2525 4250 2034 4250 
z
M 2034 4750 
Q 2819 4750 3233 4129 
Q 3647 3509 3647 2328 
Q 3647 1150 3233 529 
Q 2819 -91 2034 -91 
Q 1250 -91 836 529 
Q 422 1150 422 2328 
Q 422 3509 836 4129 
Q 1250 4750 2034 4750 
z
" transform="scale(0.015625)"/>
        <path id="DejaVuSans-31" d="M 794 531 
L 1825 531 
L 1825 4091 
L 703 3866 
L 703 4441 
L 1819 4666 
L 2450 4666 
L 2450 531 
L 3481 531 
L 3481 0 
L 794 0 
L 794 531 
z
" transform="scale(0.015625)"/>
        <path id="DejaVuSans-2d" d="M 313 2009 
L 1997 2009 
L 1997 1497 
L 313 1497 
L 313 2009 
z
" transform="scale(0.015625)"/>
        <path id="DejaVuSans-34" d="M 2419 4116 
L 825 1625 
L 2419 1625 
L 2419 4116 
z
M 2253 4666 
L 3047 4666 
L 3047 1625 
L 3713 1625 
L 3713 1100 
L 3047 1100 
L 3047 0 
L 2419 0 
L 2419 1100 
L 313 1100 
L 313 1709 
L 2253 4666 
z
" transform="scale(0.015625)"/>
       </defs>
       <use xlink:href="#DejaVuSans-32"/>
       <use xlink:href="#DejaVuSans-30" transform="translate(63.623047 0)"/>
       <use xlink:href="#DejaVuSans-32" transform="translate(127.246094 0)"/>
       <use xlink:href="#DejaVuSans-31" transform="translate(190.869141 0)"/>
       <use xlink:href="#DejaVuSans-2d" transform="translate(254.492188 0)"/>
       <use xlink:href="#DejaVuSans-30" transform="translate(290.576172 0)"/>
       <use xlink:href="#DejaVuSans-34" transform="translate(354.199219 0)"/>
      </g>
     </g>
    </g>
    <g id="xtick_2">
     <g id="line2d_3">
      <path d="M 170.014887 314.918125 
L 170.014887 22.318125 
" clip-path="url(#p8f3294130d)" style="fill: none; stroke: #b0b0b0; stroke-width: 0.8; stroke-linecap: square"/>
     </g>
     <g id="line2d_4">
      <g>
       <use xlink:href="#md69befd09f" x="170.014887" y="314.918125" style="stroke: #000000; stroke-width: 0.8"/>
      </g>
     </g>
     <g id="text_2">
      <!-- 2021-07 -->
      <g transform="translate(149.123481 329.516563) scale(0.1 -0.1)">
       <defs>
        <path id="DejaVuSans-37" d="M 525 4666 
L 3525 4666 
L 3525 4397 
L 1831 0 
L 1172 0 
L 2766 4134 
L 525 4134 
L 525 4666 
z
" transform="scale(0.015625)"/>
       </defs>
       <use xlink:href="#DejaVuSans-32"/>
       <use xlink:href="#DejaVuSans-30" transform="translate(63.623047 0)"/>
       <use xlink:href="#DejaVuSans-32" transform="translate(127.246094 0)"/>
       <use xlink:href="#DejaVuSans-31" transform="translate(190.869141 0)"/>
       <use xlink:href="#DejaVuSans-2d" transform="translate(254.492188 0)"/>
       <use xlink:href="#DejaVuSans-30" transform="translate(290.576172 0)"/>
       <use xlink:href="#DejaVuSans-37" transform="translate(354.199219 0)"/>
      </g>
     </g>
    </g>
    <g id="xtick_3">
     <g id="line2d_5">
      <path d="M 243.983337 314.918125 
L 243.983337 22.318125 
" clip-path="url(#p8f3294130d)" style="fill: none; stroke: #b0b0b0; stroke-width: 0.8; stroke-linecap: square"/>
     </g>
     <g id="line2d_6">
      <g>
       <use xlink:href="#md69befd09f" x="243.983337" y="314.918125" style="stroke: #000000; stroke-width: 0.8"/>
      </g>
     </g>
     <g id="text_3">
      <!-- 2021-10 -->
      <g transform="translate(223.091931 329.516563) scale(0.1 -0.1)">
       <use xlink:href="#DejaVuSans-32"/>
       <use xlink:href="#DejaVuSans-30" transform="translate(63.623047 0)"/>
       <use xlink:href="#DejaVuSans-32" transform="translate(127.246094 0)"/>
       <use xlink:href="#DejaVuSans-31" transform="translate(190.869141 0)"/>
       <use xlink:href="#DejaVuSans-2d" transform="translate(254.492188 0)"/>
       <use xlink:href="#DejaVuSans-31" transform="translate(290.576172 0)"/>
       <use xlink:href="#DejaVuSans-30" transform="translate(354.199219 0)"/>
      </g>
     </g>
    </g>
    <g id="xtick_4">
     <g id="line2d_7">
      <path d="M 317.951787 314.918125 
L 317.951787 22.318125 
" clip-path="url(#p8f3294130d)" style="fill: none; stroke: #b0b0b0; stroke-width: 0.8; stroke-linecap: square"/>
     </g>
     <g id="line2d_8">
      <g>
       <use xlink:href="#md69befd09f" x="317.951787" y="314.918125" style="stroke: #000000; stroke-width: 0.8"/>
      </g>
     </g>
     <g id="text_4">
      <!-- 2022-01 -->
      <g transform="translate(297.060381 329.516563) scale(0.1 -0.1)">
       <use xlink:href="#DejaVuSans-32"/>
       <use xlink:href="#DejaVuSans-30" transform="translate(63.623047 0)"/>
       <use xlink:href="#DejaVuSans-32" transform="translate(127.246094 0)"/>
       <use xlink:href="#DejaVuSans-32" transform="translate(190.869141 0)"/>
       <use xlink:href="#DejaVuSans-2d" transform="translate(254.492188 0)"/>
       <use xlink:href="#DejaVuSans-30" transform="translate(290.576172 0)"/>
       <use xlink:href="#DejaVuSans-31" transform="translate(354.199219 0)"/>
      </g>
     </g>
    </g>
    <g id="xtick_5">
     <g id="line2d_9">
      <path d="M 390.312227 314.918125 
L 390.312227 22.318125 
" clip-path="url(#p8f3294130d)" style="fill: none; stroke: #b0b0b0; stroke-width: 0.8; stroke-linecap: square"/>
     </g>
     <g id="line2d_10">
      <g>
       <use xlink:href="#md69befd09f" x="390.312227" y="314.918125" style="stroke: #000000; stroke-width: 0.8"/>
      </g>
     </g>
     <g id="text_5">
      <!-- 2022-04 -->
      <g transform="translate(369.420821 329.516563) scale(0.1 -0.1)">
       <use xlink:href="#DejaVuSans-32"/>
       <use xlink:href="#DejaVuSans-30" transform="translate(63.623047 0)"/>
       <use xlink:href="#DejaVuSans-32" transform="translate(127.246094 0)"/>
       <use xlink:href="#DejaVuSans-32" transform="translate(190.869141 0)"/>
       <use xlink:href="#DejaVuSans-2d" transform="translate(254.492188 0)"/>
       <use xlink:href="#DejaVuSans-30" transform="translate(290.576172 0)"/>
       <use xlink:href="#DejaVuSans-34" transform="translate(354.199219 0)"/>
      </g>
     </g>
    </g>
    <g id="xtick_6">
     <g id="line2d_11">
      <path d="M 463.476672 314.918125 
L 463.476672 22.318125 
" clip-path="url(#p8f3294130d)" style="fill: none; stroke: #b0b0b0; stroke-width: 0.8; stroke-linecap: square"/>
     </g>
     <g id="line2d_12">
      <g>
       <use xlink:href="#md69befd09f" x="463.476672" y="314.918125" style="stroke: #000000; stroke-width: 0.8"/>
      </g>
     </g>
     <g id="text_6">
      <!-- 2022-07 -->
      <g transform="translate(442.585266 329.516563) scale(0.1 -0.1)">
       <use xlink:href="#DejaVuSans-32"/>
       <use xlink:href="#DejaVuSans-30" transform="translate(63.623047 0)"/>
       <use xlink:href="#DejaVuSans-32" transform="translate(127.246094 0)"/>
       <use xlink:href="#DejaVuSans-32" transform="translate(190.869141 0)"/>
       <use xlink:href="#DejaVuSans-2d" transform="translate(254.492188 0)"/>
       <use xlink:href="#DejaVuSans-30" transform="translate(290.576172 0)"/>
       <use xlink:href="#DejaVuSans-37" transform="translate(354.199219 0)"/>
      </g>
     </g>
    </g>
    <g id="xtick_7">
     <g id="line2d_13">
      <path d="M 537.445122 314.918125 
L 537.445122 22.318125 
" clip-path="url(#p8f3294130d)" style="fill: none; stroke: #b0b0b0; stroke-width: 0.8; stroke-linecap: square"/>
     </g>
     <g id="line2d_14">
      <g>
       <use xlink:href="#md69befd09f" x="537.445122" y="314.918125" style="stroke: #000000; stroke-width: 0.8"/>
      </g>
     </g>
     <g id="text_7">
      <!-- 2022-10 -->
      <g transform="translate(516.553715 329.516563) scale(0.1 -0.1)">
       <use xlink:href="#DejaVuSans-32"/>
       <use xlink:href="#DejaVuSans-30" transform="translate(63.623047 0)"/>
       <use xlink:href="#DejaVuSans-32" transform="translate(127.246094 0)"/>
       <use xlink:href="#DejaVuSans-32" transform="translate(190.869141 0)"/>
       <use xlink:href="#DejaVuSans-2d" transform="translate(254.492188 0)"/>
       <use xlink:href="#DejaVuSans-31" transform="translate(290.576172 0)"/>
       <use xlink:href="#DejaVuSans-30" transform="translate(354.199219 0)"/>
      </g>
     </g>
    </g>
    <g id="xtick_8">
     <g id="line2d_15">
      <path d="M 611.413571 314.918125 
L 611.413571 22.318125 
" clip-path="url(#p8f3294130d)" style="fill: none; stroke: #b0b0b0; stroke-width: 0.8; stroke-linecap: square"/>
     </g>
     <g id="line2d_16">
      <g>
       <use xlink:href="#md69befd09f" x="611.413571" y="314.918125" style="stroke: #000000; stroke-width: 0.8"/>
      </g>
     </g>
     <g id="text_8">
      <!-- 2023-01 -->
      <g transform="translate(590.522165 329.516563) scale(0.1 -0.1)">
       <defs>
        <path id="DejaVuSans-33" d="M 2597 2516 
Q 3050 2419 3304 2112 
Q 3559 1806 3559 1356 
Q 3559 666 3084 287 
Q 2609 -91 1734 -91 
Q 1441 -91 1130 -33 
Q 819 25 488 141 
L 488 750 
Q 750 597 1062 519 
Q 1375 441 1716 441 
Q 2309 441 2620 675 
Q 2931 909 2931 1356 
Q 2931 1769 2642 2001 
Q 2353 2234 1838 2234 
L 1294 2234 
L 1294 2753 
L 1863 2753 
Q 2328 2753 2575 2939 
Q 2822 3125 2822 3475 
Q 2822 3834 2567 4026 
Q 2313 4219 1838 4219 
Q 1578 4219 1281 4162 
Q 984 4106 628 3988 
L 628 4550 
Q 988 4650 1302 4700 
Q 1616 4750 1894 4750 
Q 2613 4750 3031 4423 
Q 3450 4097 3450 3541 
Q 3450 3153 3228 2886 
Q 3006 2619 2597 2516 
z
" transform="scale(0.015625)"/>
       </defs>
       <use xlink:href="#DejaVuSans-32"/>
       <use xlink:href="#DejaVuSans-30" transform="translate(63.623047 0)"/>
       <use xlink:href="#DejaVuSans-32" transform="translate(127.246094 0)"/>
       <use xlink:href="#DejaVuSans-33" transform="translate(190.869141 0)"/>
       <use xlink:href="#DejaVuSans-2d" transform="translate(254.492188 0)"/>
       <use xlink:href="#DejaVuSans-30" transform="translate(290.576172 0)"/>
       <use xlink:href="#DejaVuSans-31" transform="translate(354.199219 0)"/>
      </g>
     </g>
    </g>
    <g id="xtick_9">
     <g id="line2d_17">
      <path d="M 683.774012 314.918125 
L 683.774012 22.318125 
" clip-path="url(#p8f3294130d)" style="fill: none; stroke: #b0b0b0; stroke-width: 0.8; stroke-linecap: square"/>
     </g>
     <g id="line2d_18">
      <g>
       <use xlink:href="#md69befd09f" x="683.774012" y="314.918125" style="stroke: #000000; stroke-width: 0.8"/>
      </g>
     </g>
     <g id="text_9">
      <!-- 2023-04 -->
      <g transform="translate(662.882605 329.516563) scale(0.1 -0.1)">
       <use xlink:href="#DejaVuSans-32"/>
       <use xlink:href="#DejaVuSans-30" transform="translate(63.623047 0)"/>
       <use xlink:href="#DejaVuSans-32" transform="translate(127.246094 0)"/>
       <use xlink:href="#DejaVuSans-33" transform="translate(190.869141 0)"/>
       <use xlink:href="#DejaVuSans-2d" transform="translate(254.492188 0)"/>
       <use xlink:href="#DejaVuSans-30" transform="translate(290.576172 0)"/>
       <use xlink:href="#DejaVuSans-34" transform="translate(354.199219 0)"/>
      </g>
     </g>
    </g>
    <g id="text_10">
     <!-- date -->
     <g transform="translate(353.711073 343.194687) scale(0.1 -0.1)">
      <defs>
       <path id="DejaVuSans-64" d="M 2906 2969 
L 2906 4863 
L 3481 4863 
L 3481 0 
L 2906 0 
L 2906 525 
Q 2725 213 2448 61 
Q 2172 -91 1784 -91 
Q 1150 -91 751 415 
Q 353 922 353 1747 
Q 353 2572 751 3078 
Q 1150 3584 1784 3584 
Q 2172 3584 2448 3432 
Q 2725 3281 2906 2969 
z
M 947 1747 
Q 947 1113 1208 752 
Q 1469 391 1925 391 
Q 2381 391 2643 752 
Q 2906 1113 2906 1747 
Q 2906 2381 2643 2742 
Q 2381 3103 1925 3103 
Q 1469 3103 1208 2742 
Q 947 2381 947 1747 
z
" transform="scale(0.015625)"/>
       <path id="DejaVuSans-61" d="M 2194 1759 
Q 1497 1759 1228 1600 
Q 959 1441 959 1056 
Q 959 750 1161 570 
Q 1363 391 1709 391 
Q 2188 391 2477 730 
Q 2766 1069 2766 1631 
L 2766 1759 
L 2194 1759 
z
M 3341 1997 
L 3341 0 
L 2766 0 
L 2766 531 
Q 2569 213 2275 61 
Q 1981 -91 1556 -91 
Q 1019 -91 701 211 
Q 384 513 384 1019 
Q 384 1609 779 1909 
Q 1175 2209 1959 2209 
L 2766 2209 
L 2766 2266 
Q 2766 2663 2505 2880 
Q 2244 3097 1772 3097 
Q 1472 3097 1187 3025 
Q 903 2953 641 2809 
L 641 3341 
Q 956 3463 1253 3523 
Q 1550 3584 1831 3584 
Q 2591 3584 2966 3190 
Q 3341 2797 3341 1997 
z
" transform="scale(0.015625)"/>
       <path id="DejaVuSans-74" d="M 1172 4494 
L 1172 3500 
L 2356 3500 
L 2356 3053 
L 1172 3053 
L 1172 1153 
Q 1172 725 1289 603 
Q 1406 481 1766 481 
L 2356 481 
L 2356 0 
L 1766 0 
Q 1100 0 847 248 
Q 594 497 594 1153 
L 594 3053 
L 172 3053 
L 172 3500 
L 594 3500 
L 594 4494 
L 1172 4494 
z
" transform="scale(0.015625)"/>
       <path id="DejaVuSans-65" d="M 3597 1894 
L 3597 1613 
L 953 1613 
Q 991 1019 1311 708 
Q 1631 397 2203 397 
Q 2534 397 2845 478 
Q 3156 559 3463 722 
L 3463 178 
Q 3153 47 2828 -22 
Q 2503 -91 2169 -91 
Q 1331 -91 842 396 
Q 353 884 353 1716 
Q 353 2575 817 3079 
Q 1281 3584 2069 3584 
Q 2775 3584 3186 3129 
Q 3597 2675 3597 1894 
z
M 3022 2063 
Q 3016 2534 2758 2815 
Q 2500 3097 2075 3097 
Q 1594 3097 1305 2825 
Q 1016 2553 972 2059 
L 3022 2063 
z
" transform="scale(0.015625)"/>
      </defs>
      <use xlink:href="#DejaVuSans-64"/>
      <use xlink:href="#DejaVuSans-61" transform="translate(63.476562 0)"/>
      <use xlink:href="#DejaVuSans-74" transform="translate(124.755859 0)"/>
      <use xlink:href="#DejaVuSans-65" transform="translate(163.964844 0)"/>
     </g>
    </g>
   </g>
   <g id="matplotlib.axis_2">
    <g id="ytick_1">
     <g id="line2d_19">
      <path d="M 42.620313 278.186553 
L 687.351833 278.186553 
" clip-path="url(#p8f3294130d)" style="fill: none; stroke: #b0b0b0; stroke-width: 0.8; stroke-linecap: square"/>
     </g>
     <g id="line2d_20">
      <defs>
       <path id="m5c40e1596f" d="M 0 0 
L -3.5 0 
" style="stroke: #000000; stroke-width: 0.8"/>
      </defs>
      <g>
       <use xlink:href="#m5c40e1596f" x="42.620313" y="278.186553" style="stroke: #000000; stroke-width: 0.8"/>
      </g>
     </g>
     <g id="text_11">
      <!-- −1 -->
      <g transform="translate(20.878125 281.985772) scale(0.1 -0.1)">
       <defs>
        <path id="DejaVuSans-2212" d="M 678 2272 
L 4684 2272 
L 4684 1741 
L 678 1741 
L 678 2272 
z
" transform="scale(0.015625)"/>
       </defs>
       <use xlink:href="#DejaVuSans-2212"/>
       <use xlink:href="#DejaVuSans-31" transform="translate(83.789062 0)"/>
      </g>
     </g>
    </g>
    <g id="ytick_2">
     <g id="line2d_21">
      <path d="M 42.620313 233.773052 
L 687.351833 233.773052 
" clip-path="url(#p8f3294130d)" style="fill: none; stroke: #b0b0b0; stroke-width: 0.8; stroke-linecap: square"/>
     </g>
     <g id="line2d_22">
      <g>
       <use xlink:href="#m5c40e1596f" x="42.620313" y="233.773052" style="stroke: #000000; stroke-width: 0.8"/>
      </g>
     </g>
     <g id="text_12">
      <!-- 0 -->
      <g transform="translate(29.257813 237.572271) scale(0.1 -0.1)">
       <use xlink:href="#DejaVuSans-30"/>
      </g>
     </g>
    </g>
    <g id="ytick_3">
     <g id="line2d_23">
      <path d="M 42.620313 189.359551 
L 687.351833 189.359551 
" clip-path="url(#p8f3294130d)" style="fill: none; stroke: #b0b0b0; stroke-width: 0.8; stroke-linecap: square"/>
     </g>
     <g id="line2d_24">
      <g>
       <use xlink:href="#m5c40e1596f" x="42.620313" y="189.359551" style="stroke: #000000; stroke-width: 0.8"/>
      </g>
     </g>
     <g id="text_13">
      <!-- 1 -->
      <g transform="translate(29.257813 193.15877) scale(0.1 -0.1)">
       <use xlink:href="#DejaVuSans-31"/>
      </g>
     </g>
    </g>
    <g id="ytick_4">
     <g id="line2d_25">
      <path d="M 42.620313 144.946051 
L 687.351833 144.946051 
" clip-path="url(#p8f3294130d)" style="fill: none; stroke: #b0b0b0; stroke-width: 0.8; stroke-linecap: square"/>
     </g>
     <g id="line2d_26">
      <g>
       <use xlink:href="#m5c40e1596f" x="42.620313" y="144.946051" style="stroke: #000000; stroke-width: 0.8"/>
      </g>
     </g>
     <g id="text_14">
      <!-- 2 -->
      <g transform="translate(29.257813 148.745269) scale(0.1 -0.1)">
       <use xlink:href="#DejaVuSans-32"/>
      </g>
     </g>
    </g>
    <g id="ytick_5">
     <g id="line2d_27">
      <path d="M 42.620313 100.53255 
L 687.351833 100.53255 
" clip-path="url(#p8f3294130d)" style="fill: none; stroke: #b0b0b0; stroke-width: 0.8; stroke-linecap: square"/>
     </g>
     <g id="line2d_28">
      <g>
       <use xlink:href="#m5c40e1596f" x="42.620313" y="100.53255" style="stroke: #000000; stroke-width: 0.8"/>
      </g>
     </g>
     <g id="text_15">
      <!-- 3 -->
      <g transform="translate(29.257813 104.331769) scale(0.1 -0.1)">
       <use xlink:href="#DejaVuSans-33"/>
      </g>
     </g>
    </g>
    <g id="ytick_6">
     <g id="line2d_29">
      <path d="M 42.620313 56.119049 
L 687.351833 56.119049 
" clip-path="url(#p8f3294130d)" style="fill: none; stroke: #b0b0b0; stroke-width: 0.8; stroke-linecap: square"/>
     </g>
     <g id="line2d_30">
      <g>
       <use xlink:href="#m5c40e1596f" x="42.620313" y="56.119049" style="stroke: #000000; stroke-width: 0.8"/>
      </g>
     </g>
     <g id="text_16">
      <!-- 4 -->
      <g transform="translate(29.257813 59.918268) scale(0.1 -0.1)">
       <use xlink:href="#DejaVuSans-34"/>
      </g>
     </g>
    </g>
    <g id="text_17">
     <!-- z-score -->
     <g transform="translate(14.798438 186.479062) rotate(-90) scale(0.1 -0.1)">
      <defs>
       <path id="DejaVuSans-7a" d="M 353 3500 
L 3084 3500 
L 3084 2975 
L 922 459 
L 3084 459 
L 3084 0 
L 275 0 
L 275 525 
L 2438 3041 
L 353 3041 
L 353 3500 
z
" transform="scale(0.015625)"/>
       <path id="DejaVuSans-73" d="M 2834 3397 
L 2834 2853 
Q 2591 2978 2328 3040 
Q 2066 3103 1784 3103 
Q 1356 3103 1142 2972 
Q 928 2841 928 2578 
Q 928 2378 1081 2264 
Q 1234 2150 1697 2047 
L 1894 2003 
Q 2506 1872 2764 1633 
Q 3022 1394 3022 966 
Q 3022 478 2636 193 
Q 2250 -91 1575 -91 
Q 1294 -91 989 -36 
Q 684 19 347 128 
L 347 722 
Q 666 556 975 473 
Q 1284 391 1588 391 
Q 1994 391 2212 530 
Q 2431 669 2431 922 
Q 2431 1156 2273 1281 
Q 2116 1406 1581 1522 
L 1381 1569 
Q 847 1681 609 1914 
Q 372 2147 372 2553 
Q 372 3047 722 3315 
Q 1072 3584 1716 3584 
Q 2034 3584 2315 3537 
Q 2597 3491 2834 3397 
z
" transform="scale(0.015625)"/>
       <path id="DejaVuSans-63" d="M 3122 3366 
L 3122 2828 
Q 2878 2963 2633 3030 
Q 2388 3097 2138 3097 
Q 1578 3097 1268 2742 
Q 959 2388 959 1747 
Q 959 1106 1268 751 
Q 1578 397 2138 397 
Q 2388 397 2633 464 
Q 2878 531 3122 666 
L 3122 134 
Q 2881 22 2623 -34 
Q 2366 -91 2075 -91 
Q 1284 -91 818 406 
Q 353 903 353 1747 
Q 353 2603 823 3093 
Q 1294 3584 2113 3584 
Q 2378 3584 2631 3529 
Q 2884 3475 3122 3366 
z
" transform="scale(0.015625)"/>
       <path id="DejaVuSans-6f" d="M 1959 3097 
Q 1497 3097 1228 2736 
Q 959 2375 959 1747 
Q 959 1119 1226 758 
Q 1494 397 1959 397 
Q 2419 397 2687 759 
Q 2956 1122 2956 1747 
Q 2956 2369 2687 2733 
Q 2419 3097 1959 3097 
z
M 1959 3584 
Q 2709 3584 3137 3096 
Q 3566 2609 3566 1747 
Q 3566 888 3137 398 
Q 2709 -91 1959 -91 
Q 1206 -91 779 398 
Q 353 888 353 1747 
Q 353 2609 779 3096 
Q 1206 3584 1959 3584 
z
" transform="scale(0.015625)"/>
       <path id="DejaVuSans-72" d="M 2631 2963 
Q 2534 3019 2420 3045 
Q 2306 3072 2169 3072 
Q 1681 3072 1420 2755 
Q 1159 2438 1159 1844 
L 1159 0 
L 581 0 
L 581 3500 
L 1159 3500 
L 1159 2956 
Q 1341 3275 1631 3429 
Q 1922 3584 2338 3584 
Q 2397 3584 2469 3576 
Q 2541 3569 2628 3553 
L 2631 2963 
z
" transform="scale(0.015625)"/>
      </defs>
      <use xlink:href="#DejaVuSans-7a"/>
      <use xlink:href="#DejaVuSans-2d" transform="translate(52.490234 0)"/>
      <use xlink:href="#DejaVuSans-73" transform="translate(88.574219 0)"/>
      <use xlink:href="#DejaVuSans-63" transform="translate(140.673828 0)"/>
      <use xlink:href="#DejaVuSans-6f" transform="translate(195.654297 0)"/>
      <use xlink:href="#DejaVuSans-72" transform="translate(256.835938 0)"/>
      <use xlink:href="#DejaVuSans-65" transform="translate(295.699219 0)"/>
     </g>
    </g>
   </g>
   <g id="line2d_31">
    <path d="M 71.926291 290.678969 
L 73.5343 287.510268 
L 74.338305 286.553733 
L 75.14231 287.510268 
L 75.946315 286.553733 
L 76.75032 287.510268 
L 77.554325 287.510268 
L 78.35833 289.475856 
L 79.96634 289.475856 
L 80.770344 288.969494 
L 83.182359 288.969494 
L 83.986364 288.57949 
L 84.790369 288.57949 
L 85.594374 289.428789 
L 87.202384 290.459123 
L 88.006389 290.459123 
L 88.810393 289.952367 
L 91.222408 289.952367 
L 92.026413 287.810983 
L 92.830418 287.469176 
L 93.634423 287.469176 
L 94.438428 286.607988 
L 95.242433 287.469176 
L 96.046437 287.469176 
L 96.850442 286.697262 
L 99.262457 286.697262 
L 100.066462 287.781862 
L 100.870467 286.697262 
L 101.674472 287.781862 
L 103.282481 288.386153 
L 108.106511 288.480809 
L 108.910516 289.937187 
L 109.714521 289.937187 
L 110.518525 288.568363 
L 111.32253 288.568363 
L 112.126535 290.516612 
L 112.93054 288.568363 
L 113.734545 286.9939 
L 117.754569 286.963603 
L 118.558574 287.651751 
L 119.362579 290.074989 
L 120.166584 287.651751 
L 122.578599 287.651751 
L 123.382604 285.837279 
L 124.186609 285.837279 
L 124.990613 285.399106 
L 125.794618 285.399106 
L 126.598623 284.846743 
L 127.402628 284.846743 
L 128.206633 284.439833 
L 129.010638 276.701943 
L 129.814643 242.521725 
L 131.422653 242.521725 
L 132.226657 273.266381 
L 133.834667 273.370744 
L 134.638672 274.04338 
L 135.442677 274.04338 
L 136.246682 273.370744 
L 137.050687 273.370744 
L 137.854692 269.562366 
L 138.658697 255.420909 
L 139.462701 252.471184 
L 140.266706 252.471184 
L 141.070711 255.420909 
L 141.874716 255.420909 
L 142.678721 258.375534 
L 143.482726 259.703283 
L 144.286731 259.703283 
L 145.090736 261.562091 
L 145.894741 261.562091 
L 146.698745 262.175141 
L 147.50275 264.71652 
L 148.306755 262.175141 
L 149.914765 262.175141 
L 150.71877 258.837902 
L 152.32678 258.837902 
L 153.130785 255.134657 
L 153.934789 255.134657 
L 154.738794 273.565856 
L 155.542799 273.565856 
L 156.346804 274.845013 
L 157.150809 275.862039 
L 157.954814 273.565856 
L 158.758819 275.862039 
L 159.562824 273.76927 
L 160.366829 276.806148 
L 161.170833 277.994793 
L 161.974838 277.994793 
L 162.778843 275.053928 
L 163.582848 275.350008 
L 164.386853 275.053928 
L 165.994863 275.053928 
L 166.798868 263.590001 
L 167.602873 263.590001 
L 168.406877 247.467041 
L 170.818892 247.467041 
L 171.622897 246.289333 
L 172.426902 243.973728 
L 173.230907 243.973728 
L 174.034912 246.289333 
L 174.838917 246.289333 
L 175.642921 251.420085 
L 176.446926 244.662401 
L 178.054936 257.817043 
L 178.858941 260.531526 
L 179.662946 260.531526 
L 180.466951 257.817043 
L 181.270956 247.902536 
L 184.486975 247.902536 
L 185.29098 232.317974 
L 186.094985 248.531353 
L 186.89899 250.466564 
L 187.702995 250.466564 
L 188.507 248.531353 
L 189.311005 245.985315 
L 190.115009 245.985315 
L 190.919014 261.955155 
L 191.723019 260.837032 
L 192.527024 248.39949 
L 193.331029 253.111281 
L 194.135034 254.344471 
L 194.939039 254.344471 
L 195.743044 253.111281 
L 196.547049 248.39949 
L 197.351053 248.299805 
L 198.155058 238.949398 
L 198.959063 238.949398 
L 199.763068 232.719839 
L 200.567073 228.66251 
L 201.371078 238.949398 
L 202.175083 231.595548 
L 202.979088 238.949398 
L 203.783093 240.13352 
L 204.587097 257.532588 
L 205.391102 258.541703 
L 206.195107 264.59657 
L 206.999112 269.5796 
L 207.803117 269.5796 
L 208.607122 274.293388 
L 209.411127 266.183093 
L 210.215132 274.293388 
L 211.019137 274.293388 
L 211.823141 266.183093 
L 214.235156 266.183093 
L 215.039161 264.689131 
L 215.843166 260.233265 
L 216.647171 260.233265 
L 217.451176 267.810703 
L 218.255181 267.673113 
L 219.059185 267.673113 
L 219.86319 264.092704 
L 220.667195 267.673113 
L 221.4712 267.673113 
L 222.275205 264.092704 
L 223.07921 258.761087 
L 223.883215 258.761087 
L 224.68722 252.19198 
L 225.491225 258.761087 
L 226.295229 252.19198 
L 227.099234 258.761087 
L 227.903239 258.761087 
L 228.707244 254.904669 
L 229.511249 243.444744 
L 230.315254 246.389617 
L 231.119259 246.389617 
L 231.923264 254.904669 
L 232.727269 254.904669 
L 233.531273 258.01437 
L 235.139283 258.01437 
L 235.943288 270.315287 
L 236.747293 270.315287 
L 237.551298 267.813626 
L 238.355303 255.748907 
L 239.159308 253.208237 
L 239.963313 255.748907 
L 240.767317 253.208237 
L 243.179332 253.208237 
L 243.983337 264.121451 
L 244.787342 265.339333 
L 245.591347 264.121451 
L 246.395352 264.121451 
L 247.199357 261.286871 
L 248.003361 259.494225 
L 251.219381 259.494225 
L 252.023386 255.789256 
L 252.827391 239.640512 
L 253.631396 255.789256 
L 254.435401 245.582368 
L 255.239405 239.640512 
L 256.04341 239.640512 
L 256.847415 245.582368 
L 257.65142 273.400486 
L 259.25943 273.476909 
L 261.671445 273.400486 
L 262.475449 260.089251 
L 263.279454 257.479047 
L 264.083459 252.778998 
L 264.887464 250.356414 
L 265.691469 238.529494 
L 266.495474 250.356414 
L 267.299479 250.356414 
L 268.103484 252.778998 
L 268.907489 260.033109 
L 269.711493 274.686134 
L 270.515498 279.127442 
L 271.319503 280.53908 
L 272.927513 280.53908 
L 273.731518 278.75035 
L 274.535523 277.455176 
L 275.339528 278.75035 
L 276.143533 277.455176 
L 276.947537 276.532829 
L 277.751542 274.220031 
L 278.555547 274.220031 
L 279.359552 277.455176 
L 280.163557 274.220031 
L 280.967562 274.220031 
L 281.771567 274.419878 
L 282.575572 277.051243 
L 285.791591 277.051243 
L 286.595596 274.419878 
L 287.399601 273.234894 
L 288.203606 272.986898 
L 289.007611 273.234894 
L 291.419626 273.234894 
L 292.22363 272.986898 
L 293.027635 276.101103 
L 293.83164 276.101103 
L 294.635645 259.85806 
L 295.43965 237.329359 
L 296.243655 232.936454 
L 297.04766 232.936454 
L 297.851665 237.329359 
L 298.65567 237.329359 
L 299.459674 243.249811 
L 300.263679 256.974286 
L 301.067684 258.872981 
L 301.871689 265.439203 
L 302.675694 258.872981 
L 303.479699 256.974286 
L 304.283704 258.872981 
L 305.087709 258.872981 
L 305.891714 256.417845 
L 306.695718 256.417845 
L 307.499723 252.005282 
L 308.303728 256.417845 
L 309.107733 263.716773 
L 309.911738 256.417845 
L 311.519748 247.587806 
L 312.323753 247.587806 
L 313.127758 263.716773 
L 313.931762 250.161402 
L 314.735767 250.161402 
L 315.539772 267.106691 
L 317.147782 267.106691 
L 317.951787 270.592471 
L 318.755792 265.442235 
L 320.363802 276.593361 
L 322.775816 276.593361 
L 323.579821 272.521832 
L 325.187831 272.521832 
L 325.991836 268.263312 
L 327.599846 268.263312 
L 328.40385 272.159989 
L 329.207855 268.263312 
L 330.01186 272.159989 
L 330.815865 267.464908 
L 331.61987 268.202279 
L 332.423875 267.464908 
L 333.22788 268.202279 
L 335.639894 268.202279 
L 336.443899 273.50608 
L 337.247904 273.50608 
L 338.051909 274.045729 
L 338.855914 274.045729 
L 339.659919 273.50608 
L 340.463924 274.045729 
L 341.267929 274.045729 
L 342.071934 271.981586 
L 342.875938 267.582686 
L 343.679943 262.54036 
L 344.483948 262.54036 
L 345.287953 258.077812 
L 346.091958 254.471809 
L 347.699968 254.471809 
L 348.503973 267.211561 
L 349.307978 267.211561 
L 350.111982 262.253537 
L 350.915987 262.253537 
L 351.719992 270.340607 
L 352.523997 262.253537 
L 353.328002 262.253537 
L 354.132007 251.499768 
L 354.936012 262.253537 
L 355.740017 253.306914 
L 356.544022 263.93566 
L 357.348026 258.76531 
L 358.152031 263.93566 
L 358.956036 258.76531 
L 359.760041 263.93566 
L 361.368051 263.93566 
L 362.172056 264.158249 
L 362.976061 264.158249 
L 363.780066 249.772779 
L 366.19208 249.772779 
L 366.996085 246.70874 
L 367.80009 237.834018 
L 370.212105 237.834018 
L 371.01611 220.263187 
L 371.820114 220.263187 
L 372.624119 237.834018 
L 373.428124 237.984522 
L 374.232129 238.270364 
L 375.036134 238.270364 
L 375.840139 237.984522 
L 377.448149 237.984522 
L 378.252154 238.270364 
L 379.056158 238.270364 
L 379.860163 247.098523 
L 380.664168 252.808385 
L 383.880188 252.808385 
L 384.684193 244.616593 
L 385.488198 239.573311 
L 386.292202 239.573311 
L 387.096207 244.616593 
L 387.900212 247.892544 
L 389.508222 247.892544 
L 390.312227 250.076772 
L 393.528246 250.076772 
L 394.332251 245.098546 
L 395.136256 250.076772 
L 395.940261 245.064733 
L 396.744266 238.356057 
L 397.548271 236.407488 
L 401.568295 236.407488 
L 402.3723 228.563563 
L 403.176305 228.563563 
L 403.98031 234.001194 
L 404.784315 234.001194 
L 405.58832 244.967936 
L 406.392325 234.001194 
L 407.19633 240.002583 
L 408.804339 240.002583 
L 409.608344 244.967936 
L 410.412349 240.002583 
L 412.020359 240.002583 
L 412.824364 233.948143 
L 414.432374 233.948143 
L 415.236378 222.320044 
L 416.040383 222.320044 
L 416.844388 204.542468 
L 417.648393 200.269671 
L 418.452398 222.320044 
L 419.256403 225.215974 
L 420.060408 222.320044 
L 420.864413 143.568229 
L 422.472422 143.568229 
L 423.276427 208.1601 
L 424.080432 183.40113 
L 428.904462 183.40113 
L 430.512471 213.326322 
L 432.120481 213.326322 
L 432.924486 208.176408 
L 433.728491 213.326322 
L 434.532496 216.913045 
L 435.336501 219.923597 
L 436.140506 208.176408 
L 436.94451 219.923597 
L 437.748515 219.923597 
L 438.55252 225.153183 
L 439.356525 231.579867 
L 440.16053 231.579867 
L 440.964535 206.437998 
L 442.572545 206.437998 
L 443.37655 211.17949 
L 444.180554 211.17949 
L 444.984559 206.437998 
L 445.788564 211.17949 
L 446.592569 211.17949 
L 447.396574 213.721134 
L 448.200579 215.403902 
L 449.004584 215.403902 
L 449.808589 242.052526 
L 450.612594 245.869798 
L 453.828613 245.869798 
L 454.632618 229.651723 
L 455.436623 229.651723 
L 456.240628 213.884298 
L 457.044633 213.884298 
L 457.848638 212.282701 
L 458.652642 209.769206 
L 459.456647 209.769206 
L 460.260652 204.338533 
L 461.064657 204.338533 
L 461.868662 204.572839 
L 462.672667 204.338533 
L 465.084682 204.338533 
L 465.888686 169.320816 
L 466.692691 169.320816 
L 467.496696 168.358125 
L 468.300701 169.320816 
L 469.104706 168.358125 
L 469.908711 167.006686 
L 470.712716 169.320816 
L 471.516721 167.006686 
L 472.320726 162.380243 
L 473.928735 162.380243 
L 474.73274 153.565577 
L 475.536745 162.380243 
L 476.34075 153.565577 
L 477.144755 146.652613 
L 477.94876 153.565577 
L 478.752765 184.980966 
L 479.55677 146.652613 
L 480.360775 196.405545 
L 481.164779 198.12763 
L 481.968784 198.12763 
L 482.772789 208.73356 
L 483.576794 215.285494 
L 484.380799 225.97664 
L 485.184804 229.25874 
L 485.988809 235.46683 
L 486.792814 242.877531 
L 487.596819 245.319004 
L 489.204828 245.319004 
L 490.008833 245.911697 
L 490.812838 245.911697 
L 491.616843 246.321882 
L 492.420848 246.321882 
L 493.224853 240.530525 
L 494.832863 240.530525 
L 496.440872 227.245852 
L 497.244877 185.580156 
L 498.048882 177.931874 
L 502.068907 177.931874 
L 502.872911 161.878661 
L 506.088931 161.878661 
L 506.892936 204.078439 
L 507.696941 204.078439 
L 508.500946 234.869835 
L 509.304951 234.869835 
L 510.91296 204.078439 
L 511.716965 218.869136 
L 512.52097 202.354832 
L 513.324975 218.869136 
L 514.12898 208.372979 
L 516.540995 208.372979 
L 517.344999 160.132163 
L 518.149004 204.186963 
L 522.169029 204.186963 
L 522.973034 209.290963 
L 523.777039 209.290963 
L 524.581043 185.985843 
L 526.189053 116.935165 
L 526.993058 116.935165 
L 527.797063 118.356882 
L 528.601068 106.387526 
L 529.405073 76.11231 
L 530.209078 79.637182 
L 531.013083 100.17427 
L 531.817087 106.387526 
L 532.621092 106.387526 
L 533.425097 100.17427 
L 534.229102 100.17427 
L 535.033107 118.949735 
L 535.837112 132.658099 
L 536.641117 221.785891 
L 540.661141 221.785891 
L 542.269151 206.136126 
L 543.073156 214.182271 
L 543.877161 214.182271 
L 544.681166 206.107564 
L 545.485171 205.930977 
L 546.289175 148.541777 
L 547.09318 148.541777 
L 547.897185 154.25648 
L 548.70119 145.424968 
L 549.505195 127.370554 
L 550.3092 127.370554 
L 551.113205 154.25648 
L 552.721215 154.25648 
L 553.525219 163.280791 
L 555.133229 163.280791 
L 555.937234 153.910635 
L 556.741239 130.97828 
L 557.545244 74.856012 
L 559.153254 74.856012 
L 559.957259 117.214424 
L 560.761263 135.947629 
L 561.565268 135.947629 
L 562.369273 147.69519 
L 563.173278 153.913562 
L 563.977283 147.69519 
L 564.781288 153.913562 
L 566.389298 153.913562 
L 567.193303 135.336628 
L 567.997307 129.613989 
L 568.801312 129.613989 
L 569.605317 135.336628 
L 570.409322 129.613989 
L 571.213327 135.336628 
L 572.017332 155.01899 
L 572.821337 191.1048 
L 573.625342 191.1048 
L 574.429347 187.792898 
L 575.233351 183.782795 
L 576.037356 183.782795 
L 576.841361 187.792898 
L 577.645366 187.792898 
L 578.449371 183.782795 
L 579.253376 187.792898 
L 580.057381 189.524153 
L 581.665391 189.554405 
L 582.469395 195.362531 
L 583.2734 195.362531 
L 584.077405 200.270381 
L 584.88141 195.362531 
L 586.48942 195.362531 
L 587.293425 186.391011 
L 588.901435 186.391011 
L 589.705439 176.467859 
L 590.509444 186.391011 
L 591.313449 176.467859 
L 592.117454 176.467859 
L 592.921459 186.530825 
L 593.725464 186.530825 
L 594.529469 176.467859 
L 595.333474 145.486818 
L 596.137479 145.486818 
L 596.941483 172.914818 
L 597.745488 172.914818 
L 598.549493 165.406057 
L 599.353498 165.406057 
L 600.157503 172.914818 
L 601.765513 172.914818 
L 602.569518 208.342929 
L 604.177527 208.342929 
L 604.981532 198.948602 
L 605.785537 198.948602 
L 606.589542 208.342929 
L 607.393547 198.948602 
L 608.197552 192.570709 
L 609.001557 187.982358 
L 609.805562 192.570709 
L 610.609567 211.356103 
L 611.413571 192.570709 
L 612.217576 187.982358 
L 613.021581 187.982358 
L 613.825586 194.398745 
L 614.629591 221.263352 
L 615.433596 221.263352 
L 616.237601 194.398745 
L 617.041606 194.398745 
L 617.845611 221.263352 
L 619.45362 221.263352 
L 620.257625 243.952364 
L 621.06163 200.255979 
L 621.865635 243.952364 
L 622.66964 248.616406 
L 624.27765 250.960066 
L 625.081655 250.960066 
L 625.885659 249.720314 
L 628.297674 249.720314 
L 629.905684 215.486627 
L 631.513694 251.710766 
L 632.317699 251.710766 
L 633.121703 185.48906 
L 633.925708 185.48906 
L 634.729713 184.45854 
L 635.533718 235.891702 
L 636.337723 198.695137 
L 637.141728 198.695137 
L 637.945733 212.927187 
L 638.749738 235.891702 
L 639.553743 212.927187 
L 640.357747 214.635295 
L 641.161752 212.927187 
L 641.965757 214.635295 
L 645.181777 214.635295 
L 645.985782 216.666118 
L 648.397796 216.666118 
L 649.201801 216.127574 
L 650.005806 216.127574 
L 650.809811 221.991642 
L 651.613816 221.991642 
L 652.417821 222.276631 
L 653.221826 222.276631 
L 654.025831 224.576492 
L 655.63384 224.576492 
L 656.437845 222.276631 
L 657.24185 209.257081 
L 658.045855 209.257081 
L 658.045855 209.257081 
" clip-path="url(#p8f3294130d)" style="fill: none; stroke: #1f77b4; stroke-width: 1.5; stroke-linecap: square"/>
   </g>
   <g id="line2d_32">
    <path d="M 71.926291 226.471224 
L 72.730296 227.442051 
L 73.5343 226.471224 
L 75.14231 213.039757 
L 75.946315 205.146479 
L 76.75032 206.022166 
L 77.554325 197.2532 
L 78.35833 196.680634 
L 79.162335 196.680634 
L 79.96634 197.2532 
L 80.770344 206.022166 
L 81.574349 212.602047 
L 83.986364 212.602047 
L 84.790369 201.633761 
L 85.594374 197.089503 
L 86.398379 190.774369 
L 87.202384 190.639903 
L 88.006389 190.774369 
L 88.810393 197.089503 
L 89.614398 197.922199 
L 90.418403 197.922199 
L 91.222408 236.966679 
L 92.026413 238.986644 
L 92.830418 241.405896 
L 94.438428 241.405896 
L 95.242433 239.46534 
L 96.046437 241.405896 
L 96.850442 241.405896 
L 97.654447 239.46534 
L 98.458452 239.46534 
L 99.262457 242.388151 
L 100.066462 247.930569 
L 100.870467 249.978437 
L 101.674472 252.625116 
L 102.478477 249.978437 
L 103.282481 249.978437 
L 104.086486 247.930569 
L 104.890491 219.975445 
L 105.694496 219.975445 
L 106.498501 212.788016 
L 107.302506 202.832111 
L 108.106511 189.043662 
L 108.910516 187.682687 
L 109.714521 187.682687 
L 110.518525 189.043662 
L 111.32253 189.043662 
L 112.126535 197.796333 
L 113.734545 234.588784 
L 114.53855 247.692903 
L 115.342555 255.64668 
L 116.950565 255.64668 
L 117.754569 266.606179 
L 118.558574 272.104348 
L 119.362579 272.104348 
L 120.166584 267.539184 
L 120.970589 267.539184 
L 121.774594 263.945766 
L 122.578599 263.945766 
L 123.382604 251.777457 
L 124.186609 211.459385 
L 124.990613 210.401642 
L 125.794618 196.274018 
L 126.598623 191.909109 
L 128.206633 166.340653 
L 129.010638 142.343512 
L 129.814643 140.118405 
L 130.618648 117.487818 
L 131.422653 111.71902 
L 132.226657 110.942235 
L 133.030662 111.71902 
L 135.442677 111.71902 
L 136.246682 110.942235 
L 137.854692 104.194856 
L 138.658697 68.444103 
L 139.462701 66.385527 
L 140.266706 66.385527 
L 141.070711 65.20225 
L 141.874716 65.20225 
L 142.678721 61.527081 
L 143.482726 35.618125 
L 145.894741 35.618125 
L 146.698745 63.733458 
L 147.50275 77.468696 
L 148.306755 77.468696 
L 149.11076 78.012797 
L 149.914765 77.468696 
L 150.71877 80.204554 
L 153.130785 80.204554 
L 153.934789 95.691227 
L 154.738794 148.595852 
L 155.542799 152.876297 
L 156.346804 182.888787 
L 157.150809 203.291309 
L 157.954814 213.424625 
L 159.562824 213.424625 
L 160.366829 225.675757 
L 161.170833 231.595877 
L 161.974838 231.595877 
L 162.778843 222.689187 
L 163.582848 222.689187 
L 164.386853 239.930437 
L 165.190858 222.689187 
L 165.994863 219.39737 
L 166.798868 216.84976 
L 168.406877 216.84976 
L 169.210882 223.346026 
L 170.014887 222.477816 
L 170.818892 223.346026 
L 171.622897 224.749313 
L 172.426902 234.669157 
L 175.642921 234.669157 
L 176.446926 234.294112 
L 178.054936 234.294112 
L 178.858941 232.653657 
L 179.662946 234.294112 
L 180.466951 241.393217 
L 181.270956 242.523182 
L 182.074961 247.531438 
L 182.878965 254.892909 
L 183.68297 247.531438 
L 185.29098 247.531438 
L 186.094985 242.523182 
L 186.89899 231.590573 
L 187.702995 230.568544 
L 188.507 223.479667 
L 190.919014 223.479667 
L 191.723019 256.127942 
L 192.527024 281.088667 
L 193.331029 281.505219 
L 194.939039 281.505219 
L 195.743044 281.088667 
L 196.547049 281.088667 
L 197.351053 276.281183 
L 198.155058 274.184176 
L 198.959063 267.416305 
L 200.567073 252.603224 
L 201.371078 252.432041 
L 202.175083 240.986387 
L 202.979088 213.686801 
L 203.783093 213.686801 
L 204.587097 200.750922 
L 205.391102 200.750922 
L 206.195107 213.686801 
L 206.999112 220.711719 
L 207.803117 246.650924 
L 208.607122 246.98549 
L 209.411127 255.889661 
L 210.215132 256.020324 
L 211.019137 262.127247 
L 213.431151 262.127247 
L 214.235156 245.457316 
L 215.039161 242.809808 
L 215.843166 241.830264 
L 216.647171 234.825254 
L 217.451176 225.738492 
L 218.255181 224.207949 
L 219.059185 218.976336 
L 220.667195 218.976336 
L 221.4712 225.738492 
L 222.275205 260.480042 
L 223.07921 260.480042 
L 223.883215 263.71089 
L 224.68722 268.580137 
L 225.491225 269.253604 
L 226.295229 268.580137 
L 227.099234 268.294326 
L 227.903239 263.71089 
L 228.707244 263.71089 
L 229.511249 259.267941 
L 230.315254 253.987089 
L 231.923264 253.987089 
L 232.727269 253.167755 
L 233.531273 253.167755 
L 234.335278 245.482694 
L 235.139283 244.920494 
L 235.943288 239.5321 
L 236.747293 235.311027 
L 238.355303 235.311027 
L 239.159308 234.662816 
L 239.963313 234.662816 
L 240.767317 235.311027 
L 241.571322 235.311027 
L 242.375327 236.413425 
L 243.179332 236.413425 
L 243.983337 234.662816 
L 244.787342 232.203079 
L 245.591347 214.918815 
L 246.395352 214.918815 
L 247.199357 216.66253 
L 248.003361 216.66253 
L 249.611371 247.518795 
L 250.415376 249.627652 
L 251.219381 256.299361 
L 253.631396 256.299361 
L 254.435401 255.227619 
L 255.239405 249.035446 
L 256.04341 240.975401 
L 257.65142 240.975401 
L 258.455425 243.311152 
L 260.063435 246.126174 
L 260.86744 246.126174 
L 261.671445 247.278647 
L 264.887464 247.204247 
L 265.691469 245.42032 
L 266.495474 245.102629 
L 267.299479 236.198392 
L 268.103484 234.931414 
L 268.907489 233.330708 
L 269.711493 233.330708 
L 270.515498 232.385063 
L 271.319503 231.098978 
L 272.123508 222.442798 
L 272.927513 223.49881 
L 273.731518 222.442798 
L 274.535523 222.442798 
L 275.339528 218.616984 
L 276.143533 222.442798 
L 276.947537 222.442798 
L 277.751542 223.49881 
L 278.555547 228.899195 
L 279.359552 232.893586 
L 280.163557 238.274743 
L 280.967562 246.134374 
L 281.771567 246.134374 
L 282.575572 249.447985 
L 284.183582 249.447985 
L 284.987586 238.120556 
L 285.791591 238.120556 
L 286.595596 228.097749 
L 287.399601 228.097749 
L 288.203606 212.883833 
L 289.007611 204.920269 
L 289.811616 191.256301 
L 291.419626 191.172315 
L 293.027635 191.256301 
L 293.83164 199.098506 
L 294.635645 203.04768 
L 297.04766 203.04768 
L 297.851665 197.527791 
L 298.65567 184.130833 
L 300.263679 184.130833 
L 301.067684 197.527791 
L 301.871689 197.527791 
L 302.675694 197.912489 
L 303.479699 197.912489 
L 304.283704 199.4581 
L 305.087709 197.912489 
L 305.891714 192.630702 
L 306.695718 190.904637 
L 308.303728 190.904637 
L 309.107733 213.372879 
L 309.911738 254.194444 
L 312.323753 254.194444 
L 313.127758 252.677979 
L 313.931762 225.759544 
L 314.735767 225.448238 
L 316.343777 225.448238 
L 317.147782 225.759544 
L 317.951787 239.498549 
L 318.755792 246.134047 
L 320.363802 281.362995 
L 323.579821 281.362995 
L 324.383826 251.088525 
L 325.187831 240.148426 
L 325.991836 240.148426 
L 326.795841 232.60234 
L 327.599846 232.60234 
L 328.40385 240.148426 
L 329.207855 252.748342 
L 330.01186 252.748342 
L 330.815865 253.32979 
L 331.61987 253.32979 
L 332.423875 255.786641 
L 333.22788 255.816761 
L 334.031885 253.32979 
L 334.83589 252.167439 
L 335.639894 252.167439 
L 336.443899 251.597149 
L 337.247904 251.597149 
L 338.051909 250.241569 
L 338.855914 250.241569 
L 339.659919 251.597149 
L 340.463924 258.600189 
L 342.071934 258.600189 
L 342.875938 244.888891 
L 344.483948 244.881021 
L 346.091958 231.834885 
L 346.895963 231.587389 
L 347.699968 215.417383 
L 348.503973 213.680376 
L 349.307978 213.033225 
L 350.111982 212.93596 
L 350.915987 209.985969 
L 351.719992 212.93596 
L 353.328002 212.93596 
L 354.132007 219.631068 
L 354.936012 245.057701 
L 358.956036 245.057701 
L 359.760041 245.927418 
L 360.564046 245.927418 
L 361.368051 266.393185 
L 362.172056 268.618973 
L 363.780066 268.618973 
L 364.58407 266.731728 
L 365.388075 266.731728 
L 366.19208 261.543476 
L 366.996085 251.636249 
L 367.80009 251.636249 
L 368.604095 261.543476 
L 370.212105 261.543476 
L 371.01611 272.342263 
L 371.820114 275.713542 
L 372.624119 275.713542 
L 373.428124 272.342263 
L 374.232129 259.418242 
L 375.036134 256.957689 
L 375.840139 253.423816 
L 376.644144 248.562447 
L 379.056158 248.562447 
L 379.860163 256.749661 
L 380.664168 260.256892 
L 381.468173 260.256892 
L 382.272178 264.21399 
L 383.076183 274.016882 
L 383.880188 274.016882 
L 384.684193 273.766424 
L 385.488198 274.016882 
L 386.292202 276.653871 
L 387.096207 276.653871 
L 387.900212 278.364753 
L 388.704217 277.248406 
L 389.508222 277.248406 
L 390.312227 281.977879 
L 391.920237 272.240749 
L 393.528246 272.240749 
L 394.332251 269.977738 
L 395.136256 272.240749 
L 395.940261 269.22132 
L 396.744266 269.22132 
L 397.548271 257.387958 
L 398.352276 254.275377 
L 400.76429 254.275377 
L 401.568295 259.204685 
L 402.3723 261.28353 
L 403.98031 261.28353 
L 404.784315 259.204685 
L 405.58832 250.848286 
L 408.000334 250.848286 
L 408.804339 258.276138 
L 409.608344 262.194657 
L 411.216354 262.194657 
L 412.020359 258.276138 
L 412.824364 243.217501 
L 413.628369 238.935192 
L 414.432374 233.770053 
L 416.040383 233.770053 
L 416.844388 236.743056 
L 417.648393 233.752201 
L 418.452398 233.752201 
L 419.256403 230.512022 
L 420.060408 224.538658 
L 420.864413 224.538658 
L 421.668418 221.886957 
L 422.472422 213.233112 
L 423.276427 206.048364 
L 424.080432 196.059572 
L 424.884437 187.62482 
L 425.688442 185.441553 
L 426.492447 182.774515 
L 427.296452 182.774515 
L 428.100457 168.393853 
L 429.708466 168.393853 
L 430.512471 160.997738 
L 431.316476 152.548638 
L 432.120481 151.243554 
L 432.924486 149.483488 
L 435.336501 149.483488 
L 436.140506 160.213443 
L 436.94451 160.213443 
L 437.748515 166.063521 
L 438.55252 170.922496 
L 440.16053 170.922496 
L 440.964535 168.541033 
L 441.76854 164.699209 
L 442.572545 168.541033 
L 444.180554 168.541033 
L 446.592569 231.011677 
L 447.396574 242.367463 
L 448.200579 245.057676 
L 449.808589 245.057676 
L 450.612594 242.367463 
L 452.220603 242.367463 
L 453.024608 243.908275 
L 453.828613 237.272568 
L 454.632618 237.272568 
L 455.436623 243.908275 
L 456.240628 243.908275 
L 457.044633 224.700253 
L 458.652642 224.700253 
L 459.456647 229.284403 
L 460.260652 229.284403 
L 461.064657 227.191482 
L 461.868662 227.191482 
L 462.672667 229.284403 
L 463.476672 227.191482 
L 465.084682 222.309352 
L 465.888686 206.29373 
L 466.692691 177.321575 
L 469.104706 177.321575 
L 469.908711 188.804603 
L 470.712716 197.932985 
L 471.516721 198.410095 
L 472.320726 229.582616 
L 473.12473 236.180177 
L 473.928735 238.24526 
L 475.536745 238.24526 
L 476.34075 229.582616 
L 477.144755 229.582616 
L 477.94876 238.24526 
L 478.752765 238.24526 
L 479.55677 224.440457 
L 480.360775 225.64372 
L 481.164779 228.899238 
L 481.968784 236.807259 
L 482.772789 236.236892 
L 483.576794 236.236892 
L 484.380799 234.413832 
L 486.792814 234.413832 
L 487.596819 226.473687 
L 488.400823 195.654363 
L 490.008833 195.654363 
L 490.812838 210.332015 
L 493.224853 210.332015 
L 494.028858 212.233398 
L 495.636867 212.233398 
L 497.244877 228.06189 
L 498.048882 231.625796 
L 498.852887 233.833708 
L 500.460897 233.833708 
L 501.264902 238.974691 
L 502.068907 251.753077 
L 502.872911 251.753077 
L 503.676916 255.171465 
L 504.480921 254.573904 
L 506.088931 254.573904 
L 506.892936 255.171465 
L 507.696941 256.176594 
L 508.500946 256.946014 
L 509.304951 257.35835 
L 510.108955 258.171505 
L 510.91296 260.360961 
L 512.52097 260.360961 
L 513.324975 260.555248 
L 514.12898 260.555248 
L 514.932985 257.942981 
L 517.344999 251.598358 
L 519.757014 251.598358 
L 520.561019 253.907156 
L 521.365024 258.427046 
L 522.169029 258.595248 
L 522.973034 258.595248 
L 523.777039 261.680907 
L 525.385048 261.680907 
L 526.189053 248.400611 
L 526.993058 238.64193 
L 527.797063 232.58756 
L 528.601068 231.719031 
L 529.405073 231.719031 
L 530.209078 229.026981 
L 531.013083 228.143943 
L 531.817087 228.143943 
L 533.425097 222.148379 
L 534.229102 220.403941 
L 535.033107 219.977252 
L 537.445122 219.977252 
L 538.249127 223.624088 
L 539.053131 224.443384 
L 539.857136 224.979897 
L 540.661141 225.985164 
L 541.465146 242.434006 
L 542.269151 249.370564 
L 543.073156 261.740788 
L 543.877161 269.824941 
L 544.681166 272.732804 
L 545.485171 277.910273 
L 546.289175 279.431334 
L 547.09318 279.984973 
L 547.897185 293.016663 
L 548.70119 294.873323 
L 549.505195 298.664703 
L 551.91721 298.664703 
L 552.721215 294.873323 
L 553.525219 293.262377 
L 554.329224 292.662567 
L 555.133229 292.662567 
L 555.937234 293.191063 
L 556.741239 292.662567 
L 558.349249 292.662567 
L 559.153254 291.738367 
L 559.957259 291.738367 
L 560.761263 291.012854 
L 561.565268 291.012854 
L 562.369273 291.738367 
L 563.173278 291.738367 
L 563.977283 295.146105 
L 564.781288 295.306808 
L 565.585293 295.306808 
L 566.389298 296.230277 
L 567.193303 298.86858 
L 567.997307 298.86858 
L 568.801312 296.230277 
L 569.605317 281.624935 
L 570.409322 281.032826 
L 571.213327 274.685136 
L 572.017332 274.685136 
L 572.821337 271.621751 
L 573.625342 271.621751 
L 574.429347 268.687933 
L 575.233351 235.86021 
L 576.037356 233.022075 
L 576.841361 224.363823 
L 577.645366 221.938628 
L 578.449371 218.993249 
L 580.861386 218.993249 
L 581.665391 221.938628 
L 582.469395 239.512798 
L 583.2734 242.317605 
L 585.685415 242.317605 
L 586.48942 243.771442 
L 587.293425 249.358575 
L 588.09743 272.920783 
L 588.901435 273.898748 
L 589.705439 278.164293 
L 590.509444 290.302948 
L 591.313449 292.613155 
L 592.117454 294.354241 
L 592.921459 294.354241 
L 593.725464 292.613155 
L 594.529469 290.302948 
L 595.333474 290.197842 
L 596.137479 277.262551 
L 596.941483 271.614651 
L 597.745488 268.717204 
L 598.549493 268.717204 
L 599.353498 268.578792 
L 600.157503 261.697109 
L 601.765513 261.697109 
L 602.569518 276.007013 
L 603.373523 276.896248 
L 604.177527 276.896248 
L 604.981532 278.564656 
L 605.785537 286.1729 
L 606.589542 287.879374 
L 608.197552 290.58471 
L 609.001557 291.286426 
L 609.805562 291.286426 
L 611.413571 294.457264 
L 612.217576 292.843342 
L 615.433596 292.843342 
L 616.237601 282.615661 
L 617.041606 282.479065 
L 619.45362 282.479065 
L 620.257625 301.618125 
L 622.66964 301.618125 
L 623.473645 293.975304 
L 624.27765 292.644189 
L 625.081655 283.253892 
L 625.885659 275.867004 
L 626.689664 266.000891 
L 627.493669 266.000891 
L 628.297674 269.052805 
L 629.101679 275.867004 
L 629.905684 269.052805 
L 630.709689 275.867004 
L 631.513694 269.052805 
L 632.317699 270.206808 
L 633.121703 276.372866 
L 633.925708 270.206808 
L 634.729713 268.178464 
L 635.533718 268.178464 
L 636.337723 264.935771 
L 637.141728 234.565371 
L 637.945733 230.817729 
L 640.357747 230.817729 
L 641.161752 235.520624 
L 641.965757 235.520624 
L 642.769762 238.945291 
L 644.377772 238.945291 
L 645.181777 233.617648 
L 645.985782 230.290781 
L 646.789787 230.290781 
L 647.593791 233.617648 
L 648.397796 233.617648 
L 649.201801 248.651217 
L 650.005806 252.826438 
L 652.417821 252.826438 
L 653.221826 238.562075 
L 654.025831 235.774707 
L 654.829835 230.303167 
L 655.63384 230.303167 
L 656.437845 228.86134 
L 657.24185 228.551705 
L 658.045855 226.534047 
L 658.045855 226.534047 
" clip-path="url(#p8f3294130d)" style="fill: none; stroke: #ff7f0e; stroke-width: 1.5; stroke-linecap: square"/>
   </g>
   <g id="line2d_33">
    <path d="M 124.186609 314.918125 
L 124.186609 22.318125 
" clip-path="url(#p8f3294130d)" style="fill: none; stroke-dasharray: 3.7,1.6; stroke-dashoffset: 0; stroke: #1f77b4"/>
   </g>
   <g id="line2d_34">
    <path d="M 569.605317 314.918125 
L 569.605317 22.318125 
" clip-path="url(#p8f3294130d)" style="fill: none; stroke-dasharray: 3.7,1.6; stroke-dashoffset: 0; stroke: #d62728"/>
   </g>
   <g id="patch_3">
    <path d="M 42.620313 314.918125 
L 42.620313 22.318125 
" style="fill: none; stroke: #000000; stroke-width: 0.8; stroke-linejoin: miter; stroke-linecap: square"/>
   </g>
   <g id="patch_4">
    <path d="M 687.351833 314.918125 
L 687.351833 22.318125 
" style="fill: none; stroke: #000000; stroke-width: 0.8; stroke-linejoin: miter; stroke-linecap: square"/>
   </g>
   <g id="patch_5">
    <path d="M 42.620312 314.918125 
L 687.351833 314.918125 
" style="fill: none; stroke: #000000; stroke-width: 0.8; stroke-linejoin: miter; stroke-linecap: square"/>
   </g>
   <g id="patch_6">
    <path d="M 42.620312 22.318125 
L 687.351833 22.318125 
" style="fill: none; stroke: #000000; stroke-width: 0.8; stroke-linejoin: miter; stroke-linecap: square"/>
   </g>
   <g id="text_18">
    <!-- DEX liquidity proxies (daily median, z-score, 7D MA) -->
    <g transform="translate(208.955135 16.318125) scale(0.12 -0.12)">
     <defs>
      <path id="DejaVuSans-44" d="M 1259 4147 
L 1259 519 
L 2022 519 
Q 2988 519 3436 956 
Q 3884 1394 3884 2338 
Q 3884 3275 3436 3711 
Q 2988 4147 2022 4147 
L 1259 4147 
z
M 628 4666 
L 1925 4666 
Q 3281 4666 3915 4102 
Q 4550 3538 4550 2338 
Q 4550 1131 3912 565 
Q 3275 0 1925 0 
L 628 0 
L 628 4666 
z
" transform="scale(0.015625)"/>
      <path id="DejaVuSans-45" d="M 628 4666 
L 3578 4666 
L 3578 4134 
L 1259 4134 
L 1259 2753 
L 3481 2753 
L 3481 2222 
L 1259 2222 
L 1259 531 
L 3634 531 
L 3634 0 
L 628 0 
L 628 4666 
z
" transform="scale(0.015625)"/>
      <path id="DejaVuSans-58" d="M 403 4666 
L 1081 4666 
L 2241 2931 
L 3406 4666 
L 4084 4666 
L 2584 2425 
L 4184 0 
L 3506 0 
L 2194 1984 
L 872 0 
L 191 0 
L 1856 2491 
L 403 4666 
z
" transform="scale(0.015625)"/>
      <path id="DejaVuSans-20" transform="scale(0.015625)"/>
      <path id="DejaVuSans-6c" d="M 603 4863 
L 1178 4863 
L 1178 0 
L 603 0 
L 603 4863 
z
" transform="scale(0.015625)"/>
      <path id="DejaVuSans-69" d="M 603 3500 
L 1178 3500 
L 1178 0 
L 603 0 
L 603 3500 
z
M 603 4863 
L 1178 4863 
L 1178 4134 
L 603 4134 
L 603 4863 
z
" transform="scale(0.015625)"/>
      <path id="DejaVuSans-71" d="M 947 1747 
Q 947 1113 1208 752 
Q 1469 391 1925 391 
Q 2381 391 2643 752 
Q 2906 1113 2906 1747 
Q 2906 2381 2643 2742 
Q 2381 3103 1925 3103 
Q 1469 3103 1208 2742 
Q 947 2381 947 1747 
z
M 2906 525 
Q 2725 213 2448 61 
Q 2172 -91 1784 -91 
Q 1150 -91 751 415 
Q 353 922 353 1747 
Q 353 2572 751 3078 
Q 1150 3584 1784 3584 
Q 2172 3584 2448 3432 
Q 2725 3281 2906 2969 
L 2906 3500 
L 3481 3500 
L 3481 -1331 
L 2906 -1331 
L 2906 525 
z
" transform="scale(0.015625)"/>
      <path id="DejaVuSans-75" d="M 544 1381 
L 544 3500 
L 1119 3500 
L 1119 1403 
Q 1119 906 1312 657 
Q 1506 409 1894 409 
Q 2359 409 2629 706 
Q 2900 1003 2900 1516 
L 2900 3500 
L 3475 3500 
L 3475 0 
L 2900 0 
L 2900 538 
Q 2691 219 2414 64 
Q 2138 -91 1772 -91 
Q 1169 -91 856 284 
Q 544 659 544 1381 
z
M 1991 3584 
L 1991 3584 
z
" transform="scale(0.015625)"/>
      <path id="DejaVuSans-79" d="M 2059 -325 
Q 1816 -950 1584 -1140 
Q 1353 -1331 966 -1331 
L 506 -1331 
L 506 -850 
L 844 -850 
Q 1081 -850 1212 -737 
Q 1344 -625 1503 -206 
L 1606 56 
L 191 3500 
L 800 3500 
L 1894 763 
L 2988 3500 
L 3597 3500 
L 2059 -325 
z
" transform="scale(0.015625)"/>
      <path id="DejaVuSans-70" d="M 1159 525 
L 1159 -1331 
L 581 -1331 
L 581 3500 
L 1159 3500 
L 1159 2969 
Q 1341 3281 1617 3432 
Q 1894 3584 2278 3584 
Q 2916 3584 3314 3078 
Q 3713 2572 3713 1747 
Q 3713 922 3314 415 
Q 2916 -91 2278 -91 
Q 1894 -91 1617 61 
Q 1341 213 1159 525 
z
M 3116 1747 
Q 3116 2381 2855 2742 
Q 2594 3103 2138 3103 
Q 1681 3103 1420 2742 
Q 1159 2381 1159 1747 
Q 1159 1113 1420 752 
Q 1681 391 2138 391 
Q 2594 391 2855 752 
Q 3116 1113 3116 1747 
z
" transform="scale(0.015625)"/>
      <path id="DejaVuSans-78" d="M 3513 3500 
L 2247 1797 
L 3578 0 
L 2900 0 
L 1881 1375 
L 863 0 
L 184 0 
L 1544 1831 
L 300 3500 
L 978 3500 
L 1906 2253 
L 2834 3500 
L 3513 3500 
z
" transform="scale(0.015625)"/>
      <path id="DejaVuSans-28" d="M 1984 4856 
Q 1566 4138 1362 3434 
Q 1159 2731 1159 2009 
Q 1159 1288 1364 580 
Q 1569 -128 1984 -844 
L 1484 -844 
Q 1016 -109 783 600 
Q 550 1309 550 2009 
Q 550 2706 781 3412 
Q 1013 4119 1484 4856 
L 1984 4856 
z
" transform="scale(0.015625)"/>
      <path id="DejaVuSans-6d" d="M 3328 2828 
Q 3544 3216 3844 3400 
Q 4144 3584 4550 3584 
Q 5097 3584 5394 3201 
Q 5691 2819 5691 2113 
L 5691 0 
L 5113 0 
L 5113 2094 
Q 5113 2597 4934 2840 
Q 4756 3084 4391 3084 
Q 3944 3084 3684 2787 
Q 3425 2491 3425 1978 
L 3425 0 
L 2847 0 
L 2847 2094 
Q 2847 2600 2669 2842 
Q 2491 3084 2119 3084 
Q 1678 3084 1418 2786 
Q 1159 2488 1159 1978 
L 1159 0 
L 581 0 
L 581 3500 
L 1159 3500 
L 1159 2956 
Q 1356 3278 1631 3431 
Q 1906 3584 2284 3584 
Q 2666 3584 2933 3390 
Q 3200 3197 3328 2828 
z
" transform="scale(0.015625)"/>
      <path id="DejaVuSans-6e" d="M 3513 2113 
L 3513 0 
L 2938 0 
L 2938 2094 
Q 2938 2591 2744 2837 
Q 2550 3084 2163 3084 
Q 1697 3084 1428 2787 
Q 1159 2491 1159 1978 
L 1159 0 
L 581 0 
L 581 3500 
L 1159 3500 
L 1159 2956 
Q 1366 3272 1645 3428 
Q 1925 3584 2291 3584 
Q 2894 3584 3203 3211 
Q 3513 2838 3513 2113 
z
" transform="scale(0.015625)"/>
      <path id="DejaVuSans-2c" d="M 750 794 
L 1409 794 
L 1409 256 
L 897 -744 
L 494 -744 
L 750 256 
L 750 794 
z
" transform="scale(0.015625)"/>
      <path id="DejaVuSans-4d" d="M 628 4666 
L 1569 4666 
L 2759 1491 
L 3956 4666 
L 4897 4666 
L 4897 0 
L 4281 0 
L 4281 4097 
L 3078 897 
L 2444 897 
L 1241 4097 
L 1241 0 
L 628 0 
L 628 4666 
z
" transform="scale(0.015625)"/>
      <path id="DejaVuSans-41" d="M 2188 4044 
L 1331 1722 
L 3047 1722 
L 2188 4044 
z
M 1831 4666 
L 2547 4666 
L 4325 0 
L 3669 0 
L 3244 1197 
L 1141 1197 
L 716 0 
L 50 0 
L 1831 4666 
z
" transform="scale(0.015625)"/>
      <path id="DejaVuSans-29" d="M 513 4856 
L 1013 4856 
Q 1481 4119 1714 3412 
Q 1947 2706 1947 2009 
Q 1947 1309 1714 600 
Q 1481 -109 1013 -844 
L 513 -844 
Q 928 -128 1133 580 
Q 1338 1288 1338 2009 
Q 1338 2731 1133 3434 
Q 928 4138 513 4856 
z
" transform="scale(0.015625)"/>
     </defs>
     <use xlink:href="#DejaVuSans-44"/>
     <use xlink:href="#DejaVuSans-45" transform="translate(77.001953 0)"/>
     <use xlink:href="#DejaVuSans-58" transform="translate(140.185547 0)"/>
     <use xlink:href="#DejaVuSans-20" transform="translate(208.691406 0)"/>
     <use xlink:href="#DejaVuSans-6c" transform="translate(240.478516 0)"/>
     <use xlink:href="#DejaVuSans-69" transform="translate(268.261719 0)"/>
     <use xlink:href="#DejaVuSans-71" transform="translate(296.044922 0)"/>
     <use xlink:href="#DejaVuSans-75" transform="translate(359.521484 0)"/>
     <use xlink:href="#DejaVuSans-69" transform="translate(422.900391 0)"/>
     <use xlink:href="#DejaVuSans-64" transform="translate(450.683594 0)"/>
     <use xlink:href="#DejaVuSans-69" transform="translate(514.160156 0)"/>
     <use xlink:href="#DejaVuSans-74" transform="translate(541.943359 0)"/>
     <use xlink:href="#DejaVuSans-79" transform="translate(581.152344 0)"/>
     <use xlink:href="#DejaVuSans-20" transform="translate(640.332031 0)"/>
     <use xlink:href="#DejaVuSans-70" transform="translate(672.119141 0)"/>
     <use xlink:href="#DejaVuSans-72" transform="translate(735.595703 0)"/>
     <use xlink:href="#DejaVuSans-6f" transform="translate(774.458984 0)"/>
     <use xlink:href="#DejaVuSans-78" transform="translate(832.515625 0)"/>
     <use xlink:href="#DejaVuSans-69" transform="translate(891.695312 0)"/>
     <use xlink:href="#DejaVuSans-65" transform="translate(919.478516 0)"/>
     <use xlink:href="#DejaVuSans-73" transform="translate(981.001953 0)"/>
     <use xlink:href="#DejaVuSans-20" transform="translate(1033.101562 0)"/>
     <use xlink:href="#DejaVuSans-28" transform="translate(1064.888672 0)"/>
     <use xlink:href="#DejaVuSans-64" transform="translate(1103.902344 0)"/>
     <use xlink:href="#DejaVuSans-61" transform="translate(1167.378906 0)"/>
     <use xlink:href="#DejaVuSans-69" transform="translate(1228.658203 0)"/>
     <use xlink:href="#DejaVuSans-6c" transform="translate(1256.441406 0)"/>
     <use xlink:href="#DejaVuSans-79" transform="translate(1284.224609 0)"/>
     <use xlink:href="#DejaVuSans-20" transform="translate(1343.404297 0)"/>
     <use xlink:href="#DejaVuSans-6d" transform="translate(1375.191406 0)"/>
     <use xlink:href="#DejaVuSans-65" transform="translate(1472.603516 0)"/>
     <use xlink:href="#DejaVuSans-64" transform="translate(1534.126953 0)"/>
     <use xlink:href="#DejaVuSans-69" transform="translate(1597.603516 0)"/>
     <use xlink:href="#DejaVuSans-61" transform="translate(1625.386719 0)"/>
     <use xlink:href="#DejaVuSans-6e" transform="translate(1686.666016 0)"/>
     <use xlink:href="#DejaVuSans-2c" transform="translate(1750.044922 0)"/>
     <use xlink:href="#DejaVuSans-20" transform="translate(1781.832031 0)"/>
     <use xlink:href="#DejaVuSans-7a" transform="translate(1813.619141 0)"/>
     <use xlink:href="#DejaVuSans-2d" transform="translate(1866.109375 0)"/>
     <use xlink:href="#DejaVuSans-73" transform="translate(1902.193359 0)"/>
     <use xlink:href="#DejaVuSans-63" transform="translate(1954.292969 0)"/>
     <use xlink:href="#DejaVuSans-6f" transform="translate(2009.273438 0)"/>
     <use xlink:href="#DejaVuSans-72" transform="translate(2070.455078 0)"/>
     <use xlink:href="#DejaVuSans-65" transform="translate(2109.318359 0)"/>
     <use xlink:href="#DejaVuSans-2c" transform="translate(2170.841797 0)"/>
     <use xlink:href="#DejaVuSans-20" transform="translate(2202.628906 0)"/>
     <use xlink:href="#DejaVuSans-37" transform="translate(2234.416016 0)"/>
     <use xlink:href="#DejaVuSans-44" transform="translate(2298.039062 0)"/>
     <use xlink:href="#DejaVuSans-20" transform="translate(2375.041016 0)"/>
     <use xlink:href="#DejaVuSans-4d" transform="translate(2406.828125 0)"/>
     <use xlink:href="#DejaVuSans-41" transform="translate(2493.107422 0)"/>
     <use xlink:href="#DejaVuSans-29" transform="translate(2561.515625 0)"/>
    </g>
   </g>
   <g id="legend_1">
    <g id="line2d_35">
     <path d="M 51.620313 35.416562 
L 61.620313 35.416562 
L 71.620313 35.416562 
" style="fill: none; stroke: #1f77b4; stroke-width: 1.5; stroke-linecap: square"/>
    </g>
    <g id="text_19">
     <!-- AMIHUD -->
     <g transform="translate(79.620313 38.916562) scale(0.1 -0.1)">
      <defs>
       <path id="DejaVuSans-49" d="M 628 4666 
L 1259 4666 
L 1259 0 
L 628 0 
L 628 4666 
z
" transform="scale(0.015625)"/>
       <path id="DejaVuSans-48" d="M 628 4666 
L 1259 4666 
L 1259 2753 
L 3553 2753 
L 3553 4666 
L 4184 4666 
L 4184 0 
L 3553 0 
L 3553 2222 
L 1259 2222 
L 1259 0 
L 628 0 
L 628 4666 
z
" transform="scale(0.015625)"/>
       <path id="DejaVuSans-55" d="M 556 4666 
L 1191 4666 
L 1191 1831 
Q 1191 1081 1462 751 
Q 1734 422 2344 422 
Q 2950 422 3222 751 
Q 3494 1081 3494 1831 
L 3494 4666 
L 4128 4666 
L 4128 1753 
Q 4128 841 3676 375 
Q 3225 -91 2344 -91 
Q 1459 -91 1007 375 
Q 556 841 556 1753 
L 556 4666 
z
" transform="scale(0.015625)"/>
      </defs>
      <use xlink:href="#DejaVuSans-41"/>
      <use xlink:href="#DejaVuSans-4d" transform="translate(68.408203 0)"/>
      <use xlink:href="#DejaVuSans-49" transform="translate(154.6875 0)"/>
      <use xlink:href="#DejaVuSans-48" transform="translate(184.179688 0)"/>
      <use xlink:href="#DejaVuSans-55" transform="translate(259.375 0)"/>
      <use xlink:href="#DejaVuSans-44" transform="translate(332.568359 0)"/>
     </g>
    </g>
    <g id="line2d_36">
     <path d="M 51.620313 50.094688 
L 61.620313 50.094688 
L 71.620313 50.094688 
" style="fill: none; stroke: #ff7f0e; stroke-width: 1.5; stroke-linecap: square"/>
    </g>
    <g id="text_20">
     <!-- ROLL -->
     <g transform="translate(79.620313 53.594688) scale(0.1 -0.1)">
      <defs>
       <path id="DejaVuSans-52" d="M 2841 2188 
Q 3044 2119 3236 1894 
Q 3428 1669 3622 1275 
L 4263 0 
L 3584 0 
L 2988 1197 
Q 2756 1666 2539 1819 
Q 2322 1972 1947 1972 
L 1259 1972 
L 1259 0 
L 628 0 
L 628 4666 
L 2053 4666 
Q 2853 4666 3247 4331 
Q 3641 3997 3641 3322 
Q 3641 2881 3436 2590 
Q 3231 2300 2841 2188 
z
M 1259 4147 
L 1259 2491 
L 2053 2491 
Q 2509 2491 2742 2702 
Q 2975 2913 2975 3322 
Q 2975 3731 2742 3939 
Q 2509 4147 2053 4147 
L 1259 4147 
z
" transform="scale(0.015625)"/>
       <path id="DejaVuSans-4f" d="M 2522 4238 
Q 1834 4238 1429 3725 
Q 1025 3213 1025 2328 
Q 1025 1447 1429 934 
Q 1834 422 2522 422 
Q 3209 422 3611 934 
Q 4013 1447 4013 2328 
Q 4013 3213 3611 3725 
Q 3209 4238 2522 4238 
z
M 2522 4750 
Q 3503 4750 4090 4092 
Q 4678 3434 4678 2328 
Q 4678 1225 4090 567 
Q 3503 -91 2522 -91 
Q 1538 -91 948 565 
Q 359 1222 359 2328 
Q 359 3434 948 4092 
Q 1538 4750 2522 4750 
z
" transform="scale(0.015625)"/>
       <path id="DejaVuSans-4c" d="M 628 4666 
L 1259 4666 
L 1259 531 
L 3531 531 
L 3531 0 
L 628 0 
L 628 4666 
z
" transform="scale(0.015625)"/>
      </defs>
      <use xlink:href="#DejaVuSans-52"/>
      <use xlink:href="#DejaVuSans-4f" transform="translate(69.482422 0)"/>
      <use xlink:href="#DejaVuSans-4c" transform="translate(148.193359 0)"/>
      <use xlink:href="#DejaVuSans-4c" transform="translate(203.90625 0)"/>
     </g>
    </g>
    <g id="line2d_37">
     <path d="M 51.620313 64.772812 
L 61.620313 64.772812 
L 71.620313 64.772812 
" style="fill: none; stroke-dasharray: 3.7,1.6; stroke-dashoffset: 0; stroke: #1f77b4"/>
    </g>
    <g id="text_21">
     <!-- Uniswap v3 launch (2021-05-05) -->
     <g transform="translate(79.620313 68.272812) scale(0.1 -0.1)">
      <defs>
       <path id="DejaVuSans-77" d="M 269 3500 
L 844 3500 
L 1563 769 
L 2278 3500 
L 2956 3500 
L 3675 769 
L 4391 3500 
L 4966 3500 
L 4050 0 
L 3372 0 
L 2619 2869 
L 1863 0 
L 1184 0 
L 269 3500 
z
" transform="scale(0.015625)"/>
       <path id="DejaVuSans-76" d="M 191 3500 
L 800 3500 
L 1894 563 
L 2988 3500 
L 3597 3500 
L 2284 0 
L 1503 0 
L 191 3500 
z
" transform="scale(0.015625)"/>
       <path id="DejaVuSans-68" d="M 3513 2113 
L 3513 0 
L 2938 0 
L 2938 2094 
Q 2938 2591 2744 2837 
Q 2550 3084 2163 3084 
Q 1697 3084 1428 2787 
Q 1159 2491 1159 1978 
L 1159 0 
L 581 0 
L 581 4863 
L 1159 4863 
L 1159 2956 
Q 1366 3272 1645 3428 
Q 1925 3584 2291 3584 
Q 2894 3584 3203 3211 
Q 3513 2838 3513 2113 
z
" transform="scale(0.015625)"/>
       <path id="DejaVuSans-35" d="M 691 4666 
L 3169 4666 
L 3169 4134 
L 1269 4134 
L 1269 2991 
Q 1406 3038 1543 3061 
Q 1681 3084 1819 3084 
Q 2600 3084 3056 2656 
Q 3513 2228 3513 1497 
Q 3513 744 3044 326 
Q 2575 -91 1722 -91 
Q 1428 -91 1123 -41 
Q 819 9 494 109 
L 494 744 
Q 775 591 1075 516 
Q 1375 441 1709 441 
Q 2250 441 2565 725 
Q 2881 1009 2881 1497 
Q 2881 1984 2565 2268 
Q 2250 2553 1709 2553 
Q 1456 2553 1204 2497 
Q 953 2441 691 2322 
L 691 4666 
z
" transform="scale(0.015625)"/>
      </defs>
      <use xlink:href="#DejaVuSans-55"/>
      <use xlink:href="#DejaVuSans-6e" transform="translate(73.193359 0)"/>
      <use xlink:href="#DejaVuSans-69" transform="translate(136.572266 0)"/>
      <use xlink:href="#DejaVuSans-73" transform="translate(164.355469 0)"/>
      <use xlink:href="#DejaVuSans-77" transform="translate(216.455078 0)"/>
      <use xlink:href="#DejaVuSans-61" transform="translate(298.242188 0)"/>
      <use xlink:href="#DejaVuSans-70" transform="translate(359.521484 0)"/>
      <use xlink:href="#DejaVuSans-20" transform="translate(422.998047 0)"/>
      <use xlink:href="#DejaVuSans-76" transform="translate(454.785156 0)"/>
      <use xlink:href="#DejaVuSans-33" transform="translate(513.964844 0)"/>
      <use xlink:href="#DejaVuSans-20" transform="translate(577.587891 0)"/>
      <use xlink:href="#DejaVuSans-6c" transform="translate(609.375 0)"/>
      <use xlink:href="#DejaVuSans-61" transform="translate(637.158203 0)"/>
      <use xlink:href="#DejaVuSans-75" transform="translate(698.4375 0)"/>
      <use xlink:href="#DejaVuSans-6e" transform="translate(761.816406 0)"/>
      <use xlink:href="#DejaVuSans-63" transform="translate(825.195312 0)"/>
      <use xlink:href="#DejaVuSans-68" transform="translate(880.175781 0)"/>
      <use xlink:href="#DejaVuSans-20" transform="translate(943.554688 0)"/>
      <use xlink:href="#DejaVuSans-28" transform="translate(975.341797 0)"/>
      <use xlink:href="#DejaVuSans-32" transform="translate(1014.355469 0)"/>
      <use xlink:href="#DejaVuSans-30" transform="translate(1077.978516 0)"/>
      <use xlink:href="#DejaVuSans-32" transform="translate(1141.601562 0)"/>
      <use xlink:href="#DejaVuSans-31" transform="translate(1205.224609 0)"/>
      <use xlink:href="#DejaVuSans-2d" transform="translate(1268.847656 0)"/>
      <use xlink:href="#DejaVuSans-30" transform="translate(1304.931641 0)"/>
      <use xlink:href="#DejaVuSans-35" transform="translate(1368.554688 0)"/>
      <use xlink:href="#DejaVuSans-2d" transform="translate(1432.177734 0)"/>
      <use xlink:href="#DejaVuSans-30" transform="translate(1468.261719 0)"/>
      <use xlink:href="#DejaVuSans-35" transform="translate(1531.884766 0)"/>
      <use xlink:href="#DejaVuSans-29" transform="translate(1595.507812 0)"/>
     </g>
    </g>
    <g id="line2d_38">
     <path d="M 51.620313 79.450938 
L 61.620313 79.450938 
L 71.620313 79.450938 
" style="fill: none; stroke-dasharray: 3.7,1.6; stroke-dashoffset: 0; stroke: #d62728"/>
    </g>
    <g id="text_22">
     <!-- FTX collapse (2022-11-10) -->
     <g transform="translate(79.620313 82.950938) scale(0.1 -0.1)">
      <defs>
       <path id="DejaVuSans-46" d="M 628 4666 
L 3309 4666 
L 3309 4134 
L 1259 4134 
L 1259 2759 
L 3109 2759 
L 3109 2228 
L 1259 2228 
L 1259 0 
L 628 0 
L 628 4666 
z
" transform="scale(0.015625)"/>
       <path id="DejaVuSans-54" d="M -19 4666 
L 3928 4666 
L 3928 4134 
L 2272 4134 
L 2272 0 
L 1638 0 
L 1638 4134 
L -19 4134 
L -19 4666 
z
" transform="scale(0.015625)"/>
      </defs>
      <use xlink:href="#DejaVuSans-46"/>
      <use xlink:href="#DejaVuSans-54" transform="translate(55.769531 0)"/>
      <use xlink:href="#DejaVuSans-58" transform="translate(116.853516 0)"/>
      <use xlink:href="#DejaVuSans-20" transform="translate(185.359375 0)"/>
      <use xlink:href="#DejaVuSans-63" transform="translate(217.146484 0)"/>
      <use xlink:href="#DejaVuSans-6f" transform="translate(272.126953 0)"/>
      <use xlink:href="#DejaVuSans-6c" transform="translate(333.308594 0)"/>
      <use xlink:href="#DejaVuSans-6c" transform="translate(361.091797 0)"/>
      <use xlink:href="#DejaVuSans-61" transform="translate(388.875 0)"/>
      <use xlink:href="#DejaVuSans-70" transform="translate(450.154297 0)"/>
      <use xlink:href="#DejaVuSans-73" transform="translate(513.630859 0)"/>
      <use xlink:href="#DejaVuSans-65" transform="translate(565.730469 0)"/>
      <use xlink:href="#DejaVuSans-20" transform="translate(627.253906 0)"/>
      <use xlink:href="#DejaVuSans-28" transform="translate(659.041016 0)"/>
      <use xlink:href="#DejaVuSans-32" transform="translate(698.054688 0)"/>
      <use xlink:href="#DejaVuSans-30" transform="translate(761.677734 0)"/>
      <use xlink:href="#DejaVuSans-32" transform="translate(825.300781 0)"/>
      <use xlink:href="#DejaVuSans-32" transform="translate(888.923828 0)"/>
      <use xlink:href="#DejaVuSans-2d" transform="translate(952.546875 0)"/>
      <use xlink:href="#DejaVuSans-31" transform="translate(988.630859 0)"/>
      <use xlink:href="#DejaVuSans-31" transform="translate(1052.253906 0)"/>
      <use xlink:href="#DejaVuSans-2d" transform="translate(1115.876953 0)"/>
      <use xlink:href="#DejaVuSans-31" transform="translate(1151.960938 0)"/>
      <use xlink:href="#DejaVuSans-30" transform="translate(1215.583984 0)"/>
      <use xlink:href="#DejaVuSans-29" transform="translate(1279.207031 0)"/>
     </g>
    </g>
   </g>
  </g>
 </g>
 <defs>
  <clipPath id="p8f3294130d">
   <rect x="42.620313" y="22.318125" width="644.731521" height="292.6"/>
  </clipPath>
 </defs>
</svg>
