<?xml version="1.0" encoding="utf-8" standalone="no"?>
<!DOCTYPE svg PUBLIC "-//W3C//DTD SVG 1.1//EN"
  "http://www.w3.org/Graphics/SVG/1.1/DTD/svg11.dtd">
<svg xmlns:xlink="http://www.w3.org/1999/xlink" width="712.372157pt" height="352.474375pt" viewBox="0 0 712.372157 352.474375" xmlns="http://www.w3.org/2000/svg" version="1.1">
 <title>01_v3_share_daily_mean</title>
 <metadata>
  <rdf:RDF xmlns:dc="http://purl.org/dc/elements/1.1/" xmlns:cc="http://creativecommons.org/ns#" xmlns:rdf="http://www.w3.org/1999/02/22-rdf-syntax-ns#">
   <cc:Work>
    <dc:type rdf:resource="http://purl.org/dc/dcmitype/StillImage"/>
    <dc:title>01_v3_share_daily_mean</dc:title>
    <dc:date>2025-09-14T12:22:11.279016</dc:date>
    <dc:format>image/svg+xml</dc:format>
    <dc:creator>
     <cc:Agent>
      <dc:title>Matplotlib v3.10.5, https://matplotlib.org/</dc:title>
     </cc:Agent>
    </dc:creator>
   </cc:Work>
  </rdf:RDF>
 </metadata>
 <defs>
  <style type="text/css">*{stroke-linejoin: round; stroke-linecap: butt}</style>
 </defs>
 <g id="figure_1">
  <g id="patch_1">
   <path d="M -0 352.474375 
L 712.372157 352.474375 
L 712.372157 0 
L -0 0 
z
" style="fill: #ffffff"/>
  </g>
  <g id="axes_1">
   <g id="patch_2">
    <path d="M 44.059375 314.918125 
L 685.376645 314.918125 
L 685.376645 22.318125 
L 44.059375 22.318125 
z
" style="fill: #ffffff"/>
   </g>
   <g id="matplotlib.axis_1">
    <g id="xtick_1">
     <g id="line2d_1">
      <path d="M 44.278554 314.918125 
L 44.278554 22.318125 
" clip-path="url(#p94d2142db0)" style="fill: none; stroke: #b0b0b0; stroke-width: 0.8; stroke-linecap: square"/>
     </g>
     <g id="line2d_2">
      <defs>
       <path id="mfdf75d52d5" d="M 0 0 
L 0 3.5 
" style="stroke: #000000; stroke-width: 0.8"/>
      </defs>
      <g>
       <use xlink:href="#mfdf75d52d5" x="44.278554" y="314.918125" style="stroke: #000000; stroke-width: 0.8"/>
      </g>
     </g>
     <g id="text_1">
      <!-- 2021-04 -->
      <g transform="translate(23.387148 329.516563) scale(0.1 -0.1)">
       <defs>
        <path id="DejaVuSans-32" d="M 1228 531 
L 3431 531 
L 3431 0 
L 469 0 
L 469 531 
Q 828 903 1448 1529 
Q 2069 2156 2228 2338 
Q 2531 2678 2651 2914 
Q 2772 3150 2772 3378 
Q 2772 3750 2511 3984 
Q 2250 4219 1831 4219 
Q 1534 4219 1204 4116 
Q 875 4013 500 3803 
L 500 4441 
Q 881 4594 1212 4672 
Q 1544 4750 1819 4750 
Q 2544 4750 2975 4387 
Q 3406 4025 3406 3419 
Q 3406 3131 3298 2873 
Q 3191 2616 2906 2266 
Q 2828 2175 2409 1742 
Q 1991 1309 1228 531 
z
" transform="scale(0.015625)"/>
        <path id="DejaVuSans-30" d="M 2034 4250 
Q 1547 4250 1301 3770 
Q 1056 3291 1056 2328 
Q 1056 1369 1301 889 
Q 1547 409 2034 409 
Q 2525 409 2770 889 
Q 3016 1369 3016 2328 
Q 3016 3291 2770 3770 
Q 2525 4250 2034 4250 
z
M 2034 4750 
Q 2819 4750 3233 4129 
Q 3647 3509 3647 2328 
Q 3647 1150 3233 529 
Q 2819 -91 2034 -91 
Q 1250 -91 836 529 
Q 422 1150 422 2328 
Q 422 3509 836 4129 
Q 1250 4750 2034 4750 
z
" transform="scale(0.015625)"/>
        <path id="DejaVuSans-31" d="M 794 531 
L 1825 531 
L 1825 4091 
L 703 3866 
L 703 4441 
L 1819 4666 
L 2450 4666 
L 2450 531 
L 3481 531 
L 3481 0 
L 794 0 
L 794 531 
z
" transform="scale(0.015625)"/>
        <path id="DejaVuSans-2d" d="M 313 2009 
L 1997 2009 
L 1997 1497 
L 313 1497 
L 313 2009 
z
" transform="scale(0.015625)"/>
        <path id="DejaVuSans-34" d="M 2419 4116 
L 825 1625 
L 2419 1625 
L 2419 4116 
z
M 2253 4666 
L 3047 4666 
L 3047 1625 
L 3713 1625 
L 3713 1100 
L 3047 1100 
L 3047 0 
L 2419 0 
L 2419 1100 
L 313 1100 
L 313 1709 
L 2253 4666 
z
" transform="scale(0.015625)"/>
       </defs>
       <use xlink:href="#DejaVuSans-32"/>
       <use xlink:href="#DejaVuSans-30" transform="translate(63.623047 0)"/>
       <use xlink:href="#DejaVuSans-32" transform="translate(127.246094 0)"/>
       <use xlink:href="#DejaVuSans-31" transform="translate(190.869141 0)"/>
       <use xlink:href="#DejaVuSans-2d" transform="translate(254.492188 0)"/>
       <use xlink:href="#DejaVuSans-30" transform="translate(290.576172 0)"/>
       <use xlink:href="#DejaVuSans-34" transform="translate(354.199219 0)"/>
      </g>
     </g>
    </g>
    <g id="xtick_2">
     <g id="line2d_3">
      <path d="M 124.05965 314.918125 
L 124.05965 22.318125 
" clip-path="url(#p94d2142db0)" style="fill: none; stroke: #b0b0b0; stroke-width: 0.8; stroke-linecap: square"/>
     </g>
     <g id="line2d_4">
      <g>
       <use xlink:href="#mfdf75d52d5" x="124.05965" y="314.918125" style="stroke: #000000; stroke-width: 0.8"/>
      </g>
     </g>
     <g id="text_2">
      <!-- 2021-07 -->
      <g transform="translate(103.168243 329.516563) scale(0.1 -0.1)">
       <defs>
        <path id="DejaVuSans-37" d="M 525 4666 
L 3525 4666 
L 3525 4397 
L 1831 0 
L 1172 0 
L 2766 4134 
L 525 4134 
L 525 4666 
z
" transform="scale(0.015625)"/>
       </defs>
       <use xlink:href="#DejaVuSans-32"/>
       <use xlink:href="#DejaVuSans-30" transform="translate(63.623047 0)"/>
       <use xlink:href="#DejaVuSans-32" transform="translate(127.246094 0)"/>
       <use xlink:href="#DejaVuSans-31" transform="translate(190.869141 0)"/>
       <use xlink:href="#DejaVuSans-2d" transform="translate(254.492188 0)"/>
       <use xlink:href="#DejaVuSans-30" transform="translate(290.576172 0)"/>
       <use xlink:href="#DejaVuSans-37" transform="translate(354.199219 0)"/>
      </g>
     </g>
    </g>
    <g id="xtick_3">
     <g id="line2d_5">
      <path d="M 204.717461 314.918125 
L 204.717461 22.318125 
" clip-path="url(#p94d2142db0)" style="fill: none; stroke: #b0b0b0; stroke-width: 0.8; stroke-linecap: square"/>
     </g>
     <g id="line2d_6">
      <g>
       <use xlink:href="#mfdf75d52d5" x="204.717461" y="314.918125" style="stroke: #000000; stroke-width: 0.8"/>
      </g>
     </g>
     <g id="text_3">
      <!-- 2021-10 -->
      <g transform="translate(183.826055 329.516563) scale(0.1 -0.1)">
       <use xlink:href="#DejaVuSans-32"/>
       <use xlink:href="#DejaVuSans-30" transform="translate(63.623047 0)"/>
       <use xlink:href="#DejaVuSans-32" transform="translate(127.246094 0)"/>
       <use xlink:href="#DejaVuSans-31" transform="translate(190.869141 0)"/>
       <use xlink:href="#DejaVuSans-2d" transform="translate(254.492188 0)"/>
       <use xlink:href="#DejaVuSans-31" transform="translate(290.576172 0)"/>
       <use xlink:href="#DejaVuSans-30" transform="translate(354.199219 0)"/>
      </g>
     </g>
    </g>
    <g id="xtick_4">
     <g id="line2d_7">
      <path d="M 285.375272 314.918125 
L 285.375272 22.318125 
" clip-path="url(#p94d2142db0)" style="fill: none; stroke: #b0b0b0; stroke-width: 0.8; stroke-linecap: square"/>
     </g>
     <g id="line2d_8">
      <g>
       <use xlink:href="#mfdf75d52d5" x="285.375272" y="314.918125" style="stroke: #000000; stroke-width: 0.8"/>
      </g>
     </g>
     <g id="text_4">
      <!-- 2022-01 -->
      <g transform="translate(264.483866 329.516563) scale(0.1 -0.1)">
       <use xlink:href="#DejaVuSans-32"/>
       <use xlink:href="#DejaVuSans-30" transform="translate(63.623047 0)"/>
       <use xlink:href="#DejaVuSans-32" transform="translate(127.246094 0)"/>
       <use xlink:href="#DejaVuSans-32" transform="translate(190.869141 0)"/>
       <use xlink:href="#DejaVuSans-2d" transform="translate(254.492188 0)"/>
       <use xlink:href="#DejaVuSans-30" transform="translate(290.576172 0)"/>
       <use xlink:href="#DejaVuSans-31" transform="translate(354.199219 0)"/>
      </g>
     </g>
    </g>
    <g id="xtick_5">
     <g id="line2d_9">
      <path d="M 364.279652 314.918125 
L 364.279652 22.318125 
" clip-path="url(#p94d2142db0)" style="fill: none; stroke: #b0b0b0; stroke-width: 0.8; stroke-linecap: square"/>
     </g>
     <g id="line2d_10">
      <g>
       <use xlink:href="#mfdf75d52d5" x="364.279652" y="314.918125" style="stroke: #000000; stroke-width: 0.8"/>
      </g>
     </g>
     <g id="text_5">
      <!-- 2022-04 -->
      <g transform="translate(343.388246 329.516563) scale(0.1 -0.1)">
       <use xlink:href="#DejaVuSans-32"/>
       <use xlink:href="#DejaVuSans-30" transform="translate(63.623047 0)"/>
       <use xlink:href="#DejaVuSans-32" transform="translate(127.246094 0)"/>
       <use xlink:href="#DejaVuSans-32" transform="translate(190.869141 0)"/>
       <use xlink:href="#DejaVuSans-2d" transform="translate(254.492188 0)"/>
       <use xlink:href="#DejaVuSans-30" transform="translate(290.576172 0)"/>
       <use xlink:href="#DejaVuSans-34" transform="translate(354.199219 0)"/>
      </g>
     </g>
    </g>
    <g id="xtick_6">
     <g id="line2d_11">
      <path d="M 444.060748 314.918125 
L 444.060748 22.318125 
" clip-path="url(#p94d2142db0)" style="fill: none; stroke: #b0b0b0; stroke-width: 0.8; stroke-linecap: square"/>
     </g>
     <g id="line2d_12">
      <g>
       <use xlink:href="#mfdf75d52d5" x="444.060748" y="314.918125" style="stroke: #000000; stroke-width: 0.8"/>
      </g>
     </g>
     <g id="text_6">
      <!-- 2022-07 -->
      <g transform="translate(423.169342 329.516563) scale(0.1 -0.1)">
       <use xlink:href="#DejaVuSans-32"/>
       <use xlink:href="#DejaVuSans-30" transform="translate(63.623047 0)"/>
       <use xlink:href="#DejaVuSans-32" transform="translate(127.246094 0)"/>
       <use xlink:href="#DejaVuSans-32" transform="translate(190.869141 0)"/>
       <use xlink:href="#DejaVuSans-2d" transform="translate(254.492188 0)"/>
       <use xlink:href="#DejaVuSans-30" transform="translate(290.576172 0)"/>
       <use xlink:href="#DejaVuSans-37" transform="translate(354.199219 0)"/>
      </g>
     </g>
    </g>
    <g id="xtick_7">
     <g id="line2d_13">
      <path d="M 524.718559 314.918125 
L 524.718559 22.318125 
" clip-path="url(#p94d2142db0)" style="fill: none; stroke: #b0b0b0; stroke-width: 0.8; stroke-linecap: square"/>
     </g>
     <g id="line2d_14">
      <g>
       <use xlink:href="#mfdf75d52d5" x="524.718559" y="314.918125" style="stroke: #000000; stroke-width: 0.8"/>
      </g>
     </g>
     <g id="text_7">
      <!-- 2022-10 -->
      <g transform="translate(503.827153 329.516563) scale(0.1 -0.1)">
       <use xlink:href="#DejaVuSans-32"/>
       <use xlink:href="#DejaVuSans-30" transform="translate(63.623047 0)"/>
       <use xlink:href="#DejaVuSans-32" transform="translate(127.246094 0)"/>
       <use xlink:href="#DejaVuSans-32" transform="translate(190.869141 0)"/>
       <use xlink:href="#DejaVuSans-2d" transform="translate(254.492188 0)"/>
       <use xlink:href="#DejaVuSans-31" transform="translate(290.576172 0)"/>
       <use xlink:href="#DejaVuSans-30" transform="translate(354.199219 0)"/>
      </g>
     </g>
    </g>
    <g id="xtick_8">
     <g id="line2d_15">
      <path d="M 605.376371 314.918125 
L 605.376371 22.318125 
" clip-path="url(#p94d2142db0)" style="fill: none; stroke: #b0b0b0; stroke-width: 0.8; stroke-linecap: square"/>
     </g>
     <g id="line2d_16">
      <g>
       <use xlink:href="#mfdf75d52d5" x="605.376371" y="314.918125" style="stroke: #000000; stroke-width: 0.8"/>
      </g>
     </g>
     <g id="text_8">
      <!-- 2023-01 -->
      <g transform="translate(584.484964 329.516563) scale(0.1 -0.1)">
       <defs>
        <path id="DejaVuSans-33" d="M 2597 2516 
Q 3050 2419 3304 2112 
Q 3559 1806 3559 1356 
Q 3559 666 3084 287 
Q 2609 -91 1734 -91 
Q 1441 -91 1130 -33 
Q 819 25 488 141 
L 488 750 
Q 750 597 1062 519 
Q 1375 441 1716 441 
Q 2309 441 2620 675 
Q 2931 909 2931 1356 
Q 2931 1769 2642 2001 
Q 2353 2234 1838 2234 
L 1294 2234 
L 1294 2753 
L 1863 2753 
Q 2328 2753 2575 2939 
Q 2822 3125 2822 3475 
Q 2822 3834 2567 4026 
Q 2313 4219 1838 4219 
Q 1578 4219 1281 4162 
Q 984 4106 628 3988 
L 628 4550 
Q 988 4650 1302 4700 
Q 1616 4750 1894 4750 
Q 2613 4750 3031 4423 
Q 3450 4097 3450 3541 
Q 3450 3153 3228 2886 
Q 3006 2619 2597 2516 
z
" transform="scale(0.015625)"/>
       </defs>
       <use xlink:href="#DejaVuSans-32"/>
       <use xlink:href="#DejaVuSans-30" transform="translate(63.623047 0)"/>
       <use xlink:href="#DejaVuSans-32" transform="translate(127.246094 0)"/>
       <use xlink:href="#DejaVuSans-33" transform="translate(190.869141 0)"/>
       <use xlink:href="#DejaVuSans-2d" transform="translate(254.492188 0)"/>
       <use xlink:href="#DejaVuSans-30" transform="translate(290.576172 0)"/>
       <use xlink:href="#DejaVuSans-31" transform="translate(354.199219 0)"/>
      </g>
     </g>
    </g>
    <g id="xtick_9">
     <g id="line2d_17">
      <path d="M 684.280751 314.918125 
L 684.280751 22.318125 
" clip-path="url(#p94d2142db0)" style="fill: none; stroke: #b0b0b0; stroke-width: 0.8; stroke-linecap: square"/>
     </g>
     <g id="line2d_18">
      <g>
       <use xlink:href="#mfdf75d52d5" x="684.280751" y="314.918125" style="stroke: #000000; stroke-width: 0.8"/>
      </g>
     </g>
     <g id="text_9">
      <!-- 2023-04 -->
      <g transform="translate(663.389345 329.516563) scale(0.1 -0.1)">
       <use xlink:href="#DejaVuSans-32"/>
       <use xlink:href="#DejaVuSans-30" transform="translate(63.623047 0)"/>
       <use xlink:href="#DejaVuSans-32" transform="translate(127.246094 0)"/>
       <use xlink:href="#DejaVuSans-33" transform="translate(190.869141 0)"/>
       <use xlink:href="#DejaVuSans-2d" transform="translate(254.492188 0)"/>
       <use xlink:href="#DejaVuSans-30" transform="translate(290.576172 0)"/>
       <use xlink:href="#DejaVuSans-34" transform="translate(354.199219 0)"/>
      </g>
     </g>
    </g>
    <g id="text_10">
     <!-- date -->
     <g transform="translate(353.44301 343.194687) scale(0.1 -0.1)">
      <defs>
       <path id="DejaVuSans-64" d="M 2906 2969 
L 2906 4863 
L 3481 4863 
L 3481 0 
L 2906 0 
L 2906 525 
Q 2725 213 2448 61 
Q 2172 -91 1784 -91 
Q 1150 -91 751 415 
Q 353 922 353 1747 
Q 353 2572 751 3078 
Q 1150 3584 1784 3584 
Q 2172 3584 2448 3432 
Q 2725 3281 2906 2969 
z
M 947 1747 
Q 947 1113 1208 752 
Q 1469 391 1925 391 
Q 2381 391 2643 752 
Q 2906 1113 2906 1747 
Q 2906 2381 2643 2742 
Q 2381 3103 1925 3103 
Q 1469 3103 1208 2742 
Q 947 2381 947 1747 
z
" transform="scale(0.015625)"/>
       <path id="DejaVuSans-61" d="M 2194 1759 
Q 1497 1759 1228 1600 
Q 959 1441 959 1056 
Q 959 750 1161 570 
Q 1363 391 1709 391 
Q 2188 391 2477 730 
Q 2766 1069 2766 1631 
L 2766 1759 
L 2194 1759 
z
M 3341 1997 
L 3341 0 
L 2766 0 
L 2766 531 
Q 2569 213 2275 61 
Q 1981 -91 1556 -91 
Q 1019 -91 701 211 
Q 384 513 384 1019 
Q 384 1609 779 1909 
Q 1175 2209 1959 2209 
L 2766 2209 
L 2766 2266 
Q 2766 2663 2505 2880 
Q 2244 3097 1772 3097 
Q 1472 3097 1187 3025 
Q 903 2953 641 2809 
L 641 3341 
Q 956 3463 1253 3523 
Q 1550 3584 1831 3584 
Q 2591 3584 2966 3190 
Q 3341 2797 3341 1997 
z
" transform="scale(0.015625)"/>
       <path id="DejaVuSans-74" d="M 1172 4494 
L 1172 3500 
L 2356 3500 
L 2356 3053 
L 1172 3053 
L 1172 1153 
Q 1172 725 1289 603 
Q 1406 481 1766 481 
L 2356 481 
L 2356 0 
L 1766 0 
Q 1100 0 847 248 
Q 594 497 594 1153 
L 594 3053 
L 172 3053 
L 172 3500 
L 594 3500 
L 594 4494 
L 1172 4494 
z
" transform="scale(0.015625)"/>
       <path id="DejaVuSans-65" d="M 3597 1894 
L 3597 1613 
L 953 1613 
Q 991 1019 1311 708 
Q 1631 397 2203 397 
Q 2534 397 2845 478 
Q 3156 559 3463 722 
L 3463 178 
Q 3153 47 2828 -22 
Q 2503 -91 2169 -91 
Q 1331 -91 842 396 
Q 353 884 353 1716 
Q 353 2575 817 3079 
Q 1281 3584 2069 3584 
Q 2775 3584 3186 3129 
Q 3597 2675 3597 1894 
z
M 3022 2063 
Q 3016 2534 2758 2815 
Q 2500 3097 2075 3097 
Q 1594 3097 1305 2825 
Q 1016 2553 972 2059 
L 3022 2063 
z
" transform="scale(0.015625)"/>
      </defs>
      <use xlink:href="#DejaVuSans-64"/>
      <use xlink:href="#DejaVuSans-61" transform="translate(63.476562 0)"/>
      <use xlink:href="#DejaVuSans-74" transform="translate(124.755859 0)"/>
      <use xlink:href="#DejaVuSans-65" transform="translate(163.964844 0)"/>
     </g>
    </g>
   </g>
   <g id="matplotlib.axis_2">
    <g id="ytick_1">
     <g id="line2d_19">
      <path d="M 44.059375 301.618125 
L 685.376645 301.618125 
" clip-path="url(#p94d2142db0)" style="fill: none; stroke: #b0b0b0; stroke-width: 0.8; stroke-linecap: square"/>
     </g>
     <g id="line2d_20">
      <defs>
       <path id="mcbf54b763a" d="M 0 0 
L -3.5 0 
" style="stroke: #000000; stroke-width: 0.8"/>
      </defs>
      <g>
       <use xlink:href="#mcbf54b763a" x="44.059375" y="301.618125" style="stroke: #000000; stroke-width: 0.8"/>
      </g>
     </g>
     <g id="text_11">
      <!-- 0.0 -->
      <g transform="translate(21.15625 305.417344) scale(0.1 -0.1)">
       <defs>
        <path id="DejaVuSans-2e" d="M 684 794 
L 1344 794 
L 1344 0 
L 684 0 
L 684 794 
z
" transform="scale(0.015625)"/>
       </defs>
       <use xlink:href="#DejaVuSans-30"/>
       <use xlink:href="#DejaVuSans-2e" transform="translate(63.623047 0)"/>
       <use xlink:href="#DejaVuSans-30" transform="translate(95.410156 0)"/>
      </g>
     </g>
    </g>
    <g id="ytick_2">
     <g id="line2d_21">
      <path d="M 44.059375 246.764387 
L 685.376645 246.764387 
" clip-path="url(#p94d2142db0)" style="fill: none; stroke: #b0b0b0; stroke-width: 0.8; stroke-linecap: square"/>
     </g>
     <g id="line2d_22">
      <g>
       <use xlink:href="#mcbf54b763a" x="44.059375" y="246.764387" style="stroke: #000000; stroke-width: 0.8"/>
      </g>
     </g>
     <g id="text_12">
      <!-- 0.2 -->
      <g transform="translate(21.15625 250.563606) scale(0.1 -0.1)">
       <use xlink:href="#DejaVuSans-30"/>
       <use xlink:href="#DejaVuSans-2e" transform="translate(63.623047 0)"/>
       <use xlink:href="#DejaVuSans-32" transform="translate(95.410156 0)"/>
      </g>
     </g>
    </g>
    <g id="ytick_3">
     <g id="line2d_23">
      <path d="M 44.059375 191.91065 
L 685.376645 191.91065 
" clip-path="url(#p94d2142db0)" style="fill: none; stroke: #b0b0b0; stroke-width: 0.8; stroke-linecap: square"/>
     </g>
     <g id="line2d_24">
      <g>
       <use xlink:href="#mcbf54b763a" x="44.059375" y="191.91065" style="stroke: #000000; stroke-width: 0.8"/>
      </g>
     </g>
     <g id="text_13">
      <!-- 0.4 -->
      <g transform="translate(21.15625 195.709869) scale(0.1 -0.1)">
       <use xlink:href="#DejaVuSans-30"/>
       <use xlink:href="#DejaVuSans-2e" transform="translate(63.623047 0)"/>
       <use xlink:href="#DejaVuSans-34" transform="translate(95.410156 0)"/>
      </g>
     </g>
    </g>
    <g id="ytick_4">
     <g id="line2d_25">
      <path d="M 44.059375 137.056912 
L 685.376645 137.056912 
" clip-path="url(#p94d2142db0)" style="fill: none; stroke: #b0b0b0; stroke-width: 0.8; stroke-linecap: square"/>
     </g>
     <g id="line2d_26">
      <g>
       <use xlink:href="#mcbf54b763a" x="44.059375" y="137.056912" style="stroke: #000000; stroke-width: 0.8"/>
      </g>
     </g>
     <g id="text_14">
      <!-- 0.6 -->
      <g transform="translate(21.15625 140.856131) scale(0.1 -0.1)">
       <defs>
        <path id="DejaVuSans-36" d="M 2113 2584 
Q 1688 2584 1439 2293 
Q 1191 2003 1191 1497 
Q 1191 994 1439 701 
Q 1688 409 2113 409 
Q 2538 409 2786 701 
Q 3034 994 3034 1497 
Q 3034 2003 2786 2293 
Q 2538 2584 2113 2584 
z
M 3366 4563 
L 3366 3988 
Q 3128 4100 2886 4159 
Q 2644 4219 2406 4219 
Q 1781 4219 1451 3797 
Q 1122 3375 1075 2522 
Q 1259 2794 1537 2939 
Q 1816 3084 2150 3084 
Q 2853 3084 3261 2657 
Q 3669 2231 3669 1497 
Q 3669 778 3244 343 
Q 2819 -91 2113 -91 
Q 1303 -91 875 529 
Q 447 1150 447 2328 
Q 447 3434 972 4092 
Q 1497 4750 2381 4750 
Q 2619 4750 2861 4703 
Q 3103 4656 3366 4563 
z
" transform="scale(0.015625)"/>
       </defs>
       <use xlink:href="#DejaVuSans-30"/>
       <use xlink:href="#DejaVuSans-2e" transform="translate(63.623047 0)"/>
       <use xlink:href="#DejaVuSans-36" transform="translate(95.410156 0)"/>
      </g>
     </g>
    </g>
    <g id="ytick_5">
     <g id="line2d_27">
      <path d="M 44.059375 82.203175 
L 685.376645 82.203175 
" clip-path="url(#p94d2142db0)" style="fill: none; stroke: #b0b0b0; stroke-width: 0.8; stroke-linecap: square"/>
     </g>
     <g id="line2d_28">
      <g>
       <use xlink:href="#mcbf54b763a" x="44.059375" y="82.203175" style="stroke: #000000; stroke-width: 0.8"/>
      </g>
     </g>
     <g id="text_15">
      <!-- 0.8 -->
      <g transform="translate(21.15625 86.002394) scale(0.1 -0.1)">
       <defs>
        <path id="DejaVuSans-38" d="M 2034 2216 
Q 1584 2216 1326 1975 
Q 1069 1734 1069 1313 
Q 1069 891 1326 650 
Q 1584 409 2034 409 
Q 2484 409 2743 651 
Q 3003 894 3003 1313 
Q 3003 1734 2745 1975 
Q 2488 2216 2034 2216 
z
M 1403 2484 
Q 997 2584 770 2862 
Q 544 3141 544 3541 
Q 544 4100 942 4425 
Q 1341 4750 2034 4750 
Q 2731 4750 3128 4425 
Q 3525 4100 3525 3541 
Q 3525 3141 3298 2862 
Q 3072 2584 2669 2484 
Q 3125 2378 3379 2068 
Q 3634 1759 3634 1313 
Q 3634 634 3220 271 
Q 2806 -91 2034 -91 
Q 1263 -91 848 271 
Q 434 634 434 1313 
Q 434 1759 690 2068 
Q 947 2378 1403 2484 
z
M 1172 3481 
Q 1172 3119 1398 2916 
Q 1625 2713 2034 2713 
Q 2441 2713 2670 2916 
Q 2900 3119 2900 3481 
Q 2900 3844 2670 4047 
Q 2441 4250 2034 4250 
Q 1625 4250 1398 4047 
Q 1172 3844 1172 3481 
z
" transform="scale(0.015625)"/>
       </defs>
       <use xlink:href="#DejaVuSans-30"/>
       <use xlink:href="#DejaVuSans-2e" transform="translate(63.623047 0)"/>
       <use xlink:href="#DejaVuSans-38" transform="translate(95.410156 0)"/>
      </g>
     </g>
    </g>
    <g id="ytick_6">
     <g id="line2d_29">
      <path d="M 44.059375 27.349437 
L 685.376645 27.349437 
" clip-path="url(#p94d2142db0)" style="fill: none; stroke: #b0b0b0; stroke-width: 0.8; stroke-linecap: square"/>
     </g>
     <g id="line2d_30">
      <g>
       <use xlink:href="#mcbf54b763a" x="44.059375" y="27.349437" style="stroke: #000000; stroke-width: 0.8"/>
      </g>
     </g>
     <g id="text_16">
      <!-- 1.0 -->
      <g transform="translate(21.15625 31.148656) scale(0.1 -0.1)">
       <use xlink:href="#DejaVuSans-31"/>
       <use xlink:href="#DejaVuSans-2e" transform="translate(63.623047 0)"/>
       <use xlink:href="#DejaVuSans-30" transform="translate(95.410156 0)"/>
      </g>
     </g>
    </g>
    <g id="text_17">
     <!-- v3_share (mean) -->
     <g transform="translate(14.798438 210.786094) rotate(-90) scale(0.1 -0.1)">
      <defs>
       <path id="DejaVuSans-76" d="M 191 3500 
L 800 3500 
L 1894 563 
L 2988 3500 
L 3597 3500 
L 2284 0 
L 1503 0 
L 191 3500 
z
" transform="scale(0.015625)"/>
       <path id="DejaVuSans-5f" d="M 3263 -1063 
L 3263 -1509 
L -63 -1509 
L -63 -1063 
L 3263 -1063 
z
" transform="scale(0.015625)"/>
       <path id="DejaVuSans-73" d="M 2834 3397 
L 2834 2853 
Q 2591 2978 2328 3040 
Q 2066 3103 1784 3103 
Q 1356 3103 1142 2972 
Q 928 2841 928 2578 
Q 928 2378 1081 2264 
Q 1234 2150 1697 2047 
L 1894 2003 
Q 2506 1872 2764 1633 
Q 3022 1394 3022 966 
Q 3022 478 2636 193 
Q 2250 -91 1575 -91 
Q 1294 -91 989 -36 
Q 684 19 347 128 
L 347 722 
Q 666 556 975 473 
Q 1284 391 1588 391 
Q 1994 391 2212 530 
Q 2431 669 2431 922 
Q 2431 1156 2273 1281 
Q 2116 1406 1581 1522 
L 1381 1569 
Q 847 1681 609 1914 
Q 372 2147 372 2553 
Q 372 3047 722 3315 
Q 1072 3584 1716 3584 
Q 2034 3584 2315 3537 
Q 2597 3491 2834 3397 
z
" transform="scale(0.015625)"/>
       <path id="DejaVuSans-68" d="M 3513 2113 
L 3513 0 
L 2938 0 
L 2938 2094 
Q 2938 2591 2744 2837 
Q 2550 3084 2163 3084 
Q 1697 3084 1428 2787 
Q 1159 2491 1159 1978 
L 1159 0 
L 581 0 
L 581 4863 
L 1159 4863 
L 1159 2956 
Q 1366 3272 1645 3428 
Q 1925 3584 2291 3584 
Q 2894 3584 3203 3211 
Q 3513 2838 3513 2113 
z
" transform="scale(0.015625)"/>
       <path id="DejaVuSans-72" d="M 2631 2963 
Q 2534 3019 2420 3045 
Q 2306 3072 2169 3072 
Q 1681 3072 1420 2755 
Q 1159 2438 1159 1844 
L 1159 0 
L 581 0 
L 581 3500 
L 1159 3500 
L 1159 2956 
Q 1341 3275 1631 3429 
Q 1922 3584 2338 3584 
Q 2397 3584 2469 3576 
Q 2541 3569 2628 3553 
L 2631 2963 
z
" transform="scale(0.015625)"/>
       <path id="DejaVuSans-20" transform="scale(0.015625)"/>
       <path id="DejaVuSans-28" d="M 1984 4856 
Q 1566 4138 1362 3434 
Q 1159 2731 1159 2009 
Q 1159 1288 1364 580 
Q 1569 -128 1984 -844 
L 1484 -844 
Q 1016 -109 783 600 
Q 550 1309 550 2009 
Q 550 2706 781 3412 
Q 1013 4119 1484 4856 
L 1984 4856 
z
" transform="scale(0.015625)"/>
       <path id="DejaVuSans-6d" d="M 3328 2828 
Q 3544 3216 3844 3400 
Q 4144 3584 4550 3584 
Q 5097 3584 5394 3201 
Q 5691 2819 5691 2113 
L 5691 0 
L 5113 0 
L 5113 2094 
Q 5113 2597 4934 2840 
Q 4756 3084 4391 3084 
Q 3944 3084 3684 2787 
Q 3425 2491 3425 1978 
L 3425 0 
L 2847 0 
L 2847 2094 
Q 2847 2600 2669 2842 
Q 2491 3084 2119 3084 
Q 1678 3084 1418 2786 
Q 1159 2488 1159 1978 
L 1159 0 
L 581 0 
L 581 3500 
L 1159 3500 
L 1159 2956 
Q 1356 3278 1631 3431 
Q 1906 3584 2284 3584 
Q 2666 3584 2933 3390 
Q 3200 3197 3328 2828 
z
" transform="scale(0.015625)"/>
       <path id="DejaVuSans-6e" d="M 3513 2113 
L 3513 0 
L 2938 0 
L 2938 2094 
Q 2938 2591 2744 2837 
Q 2550 3084 2163 3084 
Q 1697 3084 1428 2787 
Q 1159 2491 1159 1978 
L 1159 0 
L 581 0 
L 581 3500 
L 1159 3500 
L 1159 2956 
Q 1366 3272 1645 3428 
Q 1925 3584 2291 3584 
Q 2894 3584 3203 3211 
Q 3513 2838 3513 2113 
z
" transform="scale(0.015625)"/>
       <path id="DejaVuSans-29" d="M 513 4856 
L 1013 4856 
Q 1481 4119 1714 3412 
Q 1947 2706 1947 2009 
Q 1947 1309 1714 600 
Q 1481 -109 1013 -844 
L 513 -844 
Q 928 -128 1133 580 
Q 1338 1288 1338 2009 
Q 1338 2731 1133 3434 
Q 928 4138 513 4856 
z
" transform="scale(0.015625)"/>
      </defs>
      <use xlink:href="#DejaVuSans-76"/>
      <use xlink:href="#DejaVuSans-33" transform="translate(59.179688 0)"/>
      <use xlink:href="#DejaVuSans-5f" transform="translate(122.802734 0)"/>
      <use xlink:href="#DejaVuSans-73" transform="translate(172.802734 0)"/>
      <use xlink:href="#DejaVuSans-68" transform="translate(224.902344 0)"/>
      <use xlink:href="#DejaVuSans-61" transform="translate(288.28125 0)"/>
      <use xlink:href="#DejaVuSans-72" transform="translate(349.560547 0)"/>
      <use xlink:href="#DejaVuSans-65" transform="translate(388.423828 0)"/>
      <use xlink:href="#DejaVuSans-20" transform="translate(449.947266 0)"/>
      <use xlink:href="#DejaVuSans-28" transform="translate(481.734375 0)"/>
      <use xlink:href="#DejaVuSans-6d" transform="translate(520.748047 0)"/>
      <use xlink:href="#DejaVuSans-65" transform="translate(618.160156 0)"/>
      <use xlink:href="#DejaVuSans-61" transform="translate(679.683594 0)"/>
      <use xlink:href="#DejaVuSans-6e" transform="translate(740.962891 0)"/>
      <use xlink:href="#DejaVuSans-29" transform="translate(804.341797 0)"/>
     </g>
    </g>
   </g>
   <g id="line2d_31">
    <path d="M 73.21016 301.618125 
L 74.086875 280.512348 
L 74.963591 197.949837 
L 75.840306 171.109777 
L 76.717021 167.970718 
L 78.470452 174.343896 
L 79.347167 179.319096 
L 80.223883 169.136692 
L 81.100598 160.460706 
L 81.977313 159.878223 
L 82.854029 163.359113 
L 83.730744 163.092276 
L 84.607459 131.66512 
L 85.484175 150.815674 
L 86.36089 166.586036 
L 87.237605 164.197617 
L 88.114321 158.428188 
L 88.991036 156.141108 
L 89.867751 175.604618 
L 90.744467 152.200694 
L 91.621182 151.378481 
L 92.497897 141.697568 
L 93.374613 135.462349 
L 94.251328 139.964965 
L 95.128043 131.516089 
L 96.004759 133.970237 
L 96.881474 137.863176 
L 97.758189 138.173898 
L 98.634905 120.003044 
L 99.51162 126.292362 
L 100.388336 124.719404 
L 101.265051 124.127003 
L 102.141766 120.033643 
L 103.018482 121.337748 
L 103.895197 133.244537 
L 104.771912 118.09709 
L 105.648628 136.930076 
L 106.525343 99.024 
L 107.402058 105.524456 
L 108.278774 120.639005 
L 109.155489 128.323322 
L 110.032204 109.579198 
L 110.90892 104.916812 
L 111.785635 111.598636 
L 112.66235 103.264445 
L 113.539066 93.218044 
L 114.415781 105.403211 
L 115.292496 108.140089 
L 116.169212 134.232259 
L 117.045927 107.796211 
L 117.922642 113.976189 
L 119.676073 120.070288 
L 120.552788 110.901312 
L 121.429504 119.912441 
L 122.306219 109.517438 
L 123.182934 111.282418 
L 124.05965 120.095604 
L 124.936365 123.239359 
L 125.81308 101.399979 
L 126.689796 100.217041 
L 127.566511 113.144872 
L 128.443226 105.684464 
L 129.319942 105.870345 
L 130.196657 105.106705 
L 131.073372 119.379359 
L 131.950088 87.27609 
L 132.826803 101.236128 
L 133.703518 107.328508 
L 134.580234 95.618945 
L 135.456949 106.380091 
L 136.333664 103.075471 
L 137.21038 105.890273 
L 138.087095 109.451679 
L 138.96381 117.225587 
L 139.840526 96.878325 
L 140.717241 103.35285 
L 141.593956 106.165618 
L 142.470672 96.511282 
L 143.347387 88.182939 
L 144.224102 91.260686 
L 145.100818 107.324767 
L 145.977533 100.069307 
L 146.854248 97.168514 
L 147.730964 100.371119 
L 148.607679 103.025035 
L 149.484394 98.493903 
L 150.36111 83.50807 
L 151.237825 92.845157 
L 152.11454 95.329305 
L 152.991256 108.180709 
L 153.867971 108.793459 
L 154.744686 91.679661 
L 155.621402 98.379303 
L 156.498117 96.411136 
L 157.374833 98.94372 
L 158.251548 100.291676 
L 159.128263 106.53369 
L 160.004979 93.659142 
L 160.881694 89.688928 
L 162.635125 102.184025 
L 163.51184 91.426436 
L 164.388555 94.273686 
L 165.265271 98.339753 
L 166.141986 96.614852 
L 167.018701 102.644171 
L 167.895417 90.522702 
L 168.772132 87.520651 
L 169.648847 89.904093 
L 170.525563 83.652894 
L 171.402278 84.45824 
L 172.278993 79.244762 
L 173.155709 90.619886 
L 174.032424 81.19296 
L 174.909139 89.005366 
L 175.785855 83.842099 
L 176.66257 86.155508 
L 177.539285 85.507227 
L 178.416001 93.371245 
L 179.292716 84.298524 
L 180.169431 92.320108 
L 181.046147 90.506815 
L 181.922862 92.877568 
L 182.799577 97.449628 
L 183.676293 107.302326 
L 184.553008 103.647569 
L 185.429723 104.82371 
L 186.306439 99.038773 
L 187.183154 83.659171 
L 188.059869 96.952641 
L 188.936585 96.583502 
L 189.8133 98.306258 
L 190.690015 105.338784 
L 191.566731 93.421021 
L 192.443446 95.03236 
L 193.320161 106.25717 
L 194.196877 83.080574 
L 195.073592 78.079756 
L 195.950307 93.324554 
L 196.827023 97.417906 
L 197.703738 98.914979 
L 198.580453 99.262268 
L 199.457169 85.749899 
L 200.333884 96.842436 
L 201.210599 102.726662 
L 202.087315 81.849623 
L 202.96403 82.264722 
L 203.840745 95.799821 
L 204.717461 84.591244 
L 205.594176 89.289263 
L 206.470891 86.814772 
L 207.347607 89.559079 
L 208.224322 87.539493 
L 209.101037 87.841501 
L 209.977753 93.100697 
L 210.854468 93.381213 
L 211.731184 90.709654 
L 212.607899 80.800264 
L 213.484614 96.809558 
L 214.36133 92.55796 
L 215.238045 101.972332 
L 216.11476 100.121974 
L 216.991476 104.349681 
L 217.868191 101.683606 
L 218.744906 91.402423 
L 219.621622 103.145844 
L 220.498337 96.17545 
L 221.375052 100.188672 
L 222.251768 106.293901 
L 223.128483 101.527036 
L 224.005198 93.687908 
L 224.881914 102.001391 
L 225.758629 86.538513 
L 226.635344 98.355848 
L 227.51206 99.79218 
L 228.388775 103.285392 
L 229.26549 82.810788 
L 230.142206 98.700819 
L 231.018921 97.312937 
L 231.895636 107.466845 
L 232.772352 102.379719 
L 233.649067 108.994951 
L 234.525782 111.728235 
L 235.402498 99.996534 
L 236.279213 77.180195 
L 237.155928 104.682732 
L 238.032644 100.441841 
L 238.909359 103.791464 
L 239.786074 93.362403 
L 240.66279 99.625633 
L 241.539505 109.431164 
L 242.41622 99.556257 
L 243.292936 91.884986 
L 244.169651 110.497987 
L 245.046366 98.673515 
L 245.923082 109.001811 
L 247.676512 70.286095 
L 248.553228 90.967301 
L 249.429943 101.133029 
L 250.306658 103.229826 
L 251.183374 86.619098 
L 252.060089 95.273847 
L 252.936804 97.082664 
L 253.81352 99.476012 
L 254.690235 89.544958 
L 255.56695 84.159266 
L 256.443666 97.204426 
L 257.320381 103.282205 
L 258.197096 94.648331 
L 259.073812 100.24484 
L 259.950527 96.166121 
L 260.827242 110.090995 
L 261.703958 101.081738 
L 262.580673 105.045576 
L 263.457388 96.74378 
L 264.334104 111.271846 
L 265.210819 101.69479 
L 266.087534 96.259579 
L 266.96425 80.773439 
L 267.840965 86.332209 
L 268.717681 89.323546 
L 270.471111 100.368715 
L 271.347827 94.121701 
L 272.224542 100.392043 
L 273.101257 94.437421 
L 273.977973 106.153878 
L 274.854688 92.626483 
L 275.731403 92.564231 
L 276.608119 96.248908 
L 277.484834 93.307046 
L 278.361549 91.247086 
L 279.238265 93.652386 
L 280.11498 94.440809 
L 280.991695 93.364724 
L 281.868411 86.765832 
L 282.745126 97.467057 
L 283.621841 86.790483 
L 284.498557 111.378256 
L 285.375272 115.583133 
L 286.251987 94.462948 
L 287.128703 78.281749 
L 288.005418 117.306558 
L 288.882133 95.550281 
L 289.758849 91.031097 
L 290.635564 114.788078 
L 291.512279 92.421237 
L 292.388995 86.062194 
L 293.26571 87.334651 
L 294.142425 106.285236 
L 295.019141 77.828669 
L 295.895856 87.807983 
L 296.772571 77.82846 
L 297.649287 82.215532 
L 298.526002 69.875342 
L 299.402717 87.379422 
L 300.279433 90.55602 
L 301.156148 67.428022 
L 302.032863 82.765626 
L 302.909579 69.734011 
L 303.786294 91.367145 
L 304.663009 74.995222 
L 305.539725 90.360124 
L 306.41644 82.006079 
L 307.293155 94.753409 
L 308.169871 81.25267 
L 309.046586 64.585022 
L 309.923301 84.298961 
L 310.800017 63.561486 
L 311.676732 72.753833 
L 312.553447 56.194269 
L 313.430163 100.118454 
L 314.306878 84.870125 
L 315.183593 77.996467 
L 316.060309 90.670024 
L 316.937024 75.014691 
L 317.813739 75.915617 
L 318.690455 73.627394 
L 319.56717 86.561868 
L 320.443885 65.035513 
L 321.320601 85.569938 
L 322.197316 101.551292 
L 323.074031 86.655773 
L 323.950747 90.608923 
L 324.827462 87.3961 
L 325.704178 76.8915 
L 326.580893 98.32765 
L 327.457608 96.196444 
L 328.334324 79.789082 
L 329.211039 79.254383 
L 330.087754 99.636274 
L 330.96447 87.176663 
L 331.841185 88.179151 
L 332.7179 105.186122 
L 333.594616 84.258831 
L 334.471331 85.834555 
L 335.348046 80.780472 
L 336.224762 83.84909 
L 337.101477 81.559245 
L 337.978192 83.017822 
L 338.854908 93.509862 
L 339.731623 86.588052 
L 340.608338 85.854984 
L 341.485054 95.997893 
L 342.361769 84.693885 
L 343.238484 76.181524 
L 344.1152 70.979385 
L 344.991915 75.236718 
L 345.86863 91.466449 
L 346.745346 93.870724 
L 347.622061 81.509346 
L 348.498776 98.104978 
L 349.375492 86.813387 
L 350.252207 83.755985 
L 351.128922 83.504551 
L 352.005638 78.54497 
L 352.882353 94.371047 
L 353.759068 88.463543 
L 354.635784 105.265872 
L 355.512499 90.179682 
L 356.389214 77.930284 
L 357.26593 77.924192 
L 358.142645 66.854817 
L 359.01936 81.341451 
L 359.896076 90.991897 
L 361.649506 69.761228 
L 362.526222 75.171451 
L 363.402937 73.18109 
L 365.156368 85.769506 
L 366.033083 84.591474 
L 366.909798 87.563057 
L 367.786514 84.306697 
L 368.663229 76.560839 
L 369.539944 71.334159 
L 370.41666 78.370921 
L 371.293375 76.610651 
L 372.17009 81.600711 
L 373.046806 81.273469 
L 373.923521 70.124158 
L 374.800236 67.617994 
L 375.676952 75.779631 
L 376.553667 81.650555 
L 377.430382 68.663729 
L 378.307098 66.294212 
L 379.183813 69.930135 
L 380.060529 95.478231 
L 380.937244 83.233155 
L 381.813959 73.568622 
L 382.690675 72.378763 
L 383.56739 65.72702 
L 384.444105 77.425356 
L 385.320821 68.56082 
L 386.197536 83.123209 
L 387.074251 87.012646 
L 387.950967 81.989528 
L 388.827682 69.651861 
L 389.704397 74.979352 
L 390.581113 91.07706 
L 391.457828 86.292318 
L 392.334543 84.562502 
L 393.211259 76.720212 
L 394.087974 76.154138 
L 394.964689 85.31193 
L 395.841405 76.655112 
L 396.71812 79.834718 
L 397.594835 83.835186 
L 398.471551 91.377743 
L 399.348266 96.847226 
L 400.224981 99.015754 
L 401.101697 95.345746 
L 401.978412 82.54659 
L 402.855127 86.203774 
L 403.731843 88.867078 
L 404.608558 88.787675 
L 405.485273 93.531872 
L 406.361989 82.98686 
L 407.238704 84.232106 
L 408.115419 82.192244 
L 408.992135 91.415918 
L 409.86885 81.625044 
L 410.745565 90.486238 
L 411.622281 86.917418 
L 412.498996 76.303235 
L 413.375711 86.66804 
L 414.252427 85.4155 
L 415.129142 88.573425 
L 416.005857 69.351256 
L 416.882573 79.146532 
L 417.759288 78.427982 
L 418.636003 80.18117 
L 419.512719 75.610405 
L 420.389434 66.873771 
L 421.266149 69.945429 
L 422.142865 76.576484 
L 423.01958 71.235747 
L 423.896295 71.263861 
L 424.773011 60.09729 
L 425.649726 85.705533 
L 426.526441 76.05026 
L 427.403157 78.768038 
L 430.033303 88.657475 
L 430.910018 84.353996 
L 431.786733 92.056942 
L 432.663449 83.248327 
L 433.540164 87.001916 
L 434.416879 87.292247 
L 435.293595 93.391098 
L 436.17031 86.223326 
L 437.047026 75.432482 
L 437.923741 82.516804 
L 438.800456 83.294105 
L 439.677172 68.381241 
L 440.553887 65.542227 
L 441.430602 85.176257 
L 442.307318 65.25829 
L 443.184033 77.272635 
L 444.060748 65.290451 
L 444.937464 71.615622 
L 445.814179 73.147457 
L 446.690894 66.189747 
L 447.56761 75.80862 
L 448.444325 69.094954 
L 449.32104 67.619732 
L 450.197756 84.190692 
L 451.074471 77.422216 
L 451.951186 67.615906 
L 452.827902 71.745684 
L 453.704617 70.652648 
L 454.581332 71.90154 
L 455.458048 73.932953 
L 456.334763 81.527102 
L 457.211478 79.770968 
L 458.088194 61.757237 
L 458.964909 62.699386 
L 459.841624 71.393548 
L 460.71834 66.566618 
L 461.595055 69.655643 
L 462.47177 55.261393 
L 463.348486 78.374947 
L 464.225201 70.37849 
L 465.101916 57.484508 
L 465.978632 74.939266 
L 466.855347 64.255533 
L 467.732062 67.795029 
L 468.608778 72.974454 
L 469.485493 67.782697 
L 470.362208 73.33047 
L 471.238924 69.177876 
L 472.115639 77.344425 
L 472.992354 56.67809 
L 473.86907 58.089484 
L 474.745785 64.636596 
L 475.6225 65.171118 
L 476.499216 75.57621 
L 477.375931 61.020689 
L 478.252646 53.76878 
L 479.129362 58.73655 
L 480.006077 65.460892 
L 480.882792 74.36867 
L 481.759508 73.021228 
L 482.636223 59.675898 
L 483.512938 54.763008 
L 484.389654 62.566423 
L 485.266369 58.387278 
L 486.143084 60.140339 
L 487.0198 68.55468 
L 487.896515 70.984829 
L 488.77323 60.969498 
L 489.649946 55.267798 
L 490.526661 68.440899 
L 491.403377 53.942258 
L 492.280092 50.543929 
L 493.156807 54.992912 
L 494.910238 67.568878 
L 495.786953 58.404866 
L 496.663669 58.127123 
L 497.540384 57.681877 
L 498.417099 67.108572 
L 499.293815 58.947322 
L 500.17053 56.619938 
L 501.047245 45.659681 
L 501.923961 38.346134 
L 502.800676 69.867758 
L 503.677391 54.646011 
L 504.554107 65.436085 
L 505.430822 57.644969 
L 506.307537 66.090464 
L 507.184253 61.455205 
L 508.060968 60.04067 
L 508.937683 69.210364 
L 509.814399 63.039286 
L 510.691114 64.800496 
L 511.567829 63.985075 
L 512.444545 63.872816 
L 513.32126 67.799713 
L 514.197975 67.837533 
L 515.074691 52.604469 
L 515.951406 61.651418 
L 516.828121 51.568554 
L 517.704837 65.015859 
L 518.581552 46.833331 
L 519.458267 59.925986 
L 520.334983 51.208558 
L 521.211698 57.316834 
L 522.088413 56.974346 
L 522.965129 55.42539 
L 523.841844 52.005993 
L 524.718559 44.894905 
L 525.595275 50.36399 
L 526.47199 48.308692 
L 527.348705 55.613606 
L 528.225421 44.419518 
L 529.102136 65.163661 
L 529.978851 51.209327 
L 530.855567 57.630945 
L 531.732282 57.825975 
L 532.608997 41.278555 
L 533.485713 53.460942 
L 534.362428 59.349467 
L 535.239143 63.597314 
L 536.115859 55.110799 
L 536.992574 53.358422 
L 537.869289 55.218217 
L 538.746005 58.939506 
L 539.62272 57.835091 
L 540.499435 49.104116 
L 541.376151 51.103789 
L 542.252866 53.994779 
L 543.129581 52.426048 
L 544.006297 55.437283 
L 544.883012 46.060432 
L 545.759727 76.217673 
L 546.636443 65.655989 
L 547.513158 67.38267 
L 548.389874 72.699301 
L 549.266589 75.86481 
L 550.143304 64.59686 
L 551.02002 78.295649 
L 551.896735 65.083901 
L 552.77345 76.792286 
L 553.650166 48.784692 
L 554.526881 72.845582 
L 555.403596 71.008247 
L 556.280312 62.359254 
L 557.157027 55.269173 
L 558.033742 56.512709 
L 558.910458 70.437685 
L 559.787173 69.737624 
L 560.663888 56.510267 
L 561.540604 68.256432 
L 562.417319 76.080237 
L 563.294034 65.863649 
L 564.17075 68.165208 
L 565.047465 66.965669 
L 565.92418 55.677919 
L 566.800896 60.465247 
L 567.677611 74.686545 
L 568.554326 59.88187 
L 569.431042 60.442982 
L 570.307757 46.770408 
L 571.184472 56.632649 
L 572.061188 53.379446 
L 572.937903 67.583085 
L 573.814618 66.952089 
L 574.691334 51.592881 
L 575.568049 71.297159 
L 576.444764 65.200641 
L 577.32148 57.655806 
L 578.198195 42.968696 
L 579.07491 61.689583 
L 579.951626 57.095149 
L 580.828341 55.760702 
L 581.705056 44.630369 
L 582.581772 51.541987 
L 583.458487 51.443794 
L 584.335202 44.164491 
L 585.211918 54.211707 
L 586.088633 59.18151 
L 586.965348 56.848181 
L 587.842064 51.191188 
L 588.718779 51.042924 
L 589.595494 41.536829 
L 590.47221 50.576564 
L 591.348925 51.986733 
L 592.22564 50.659046 
L 593.102356 55.020206 
L 593.979071 57.968599 
L 594.855786 59.051143 
L 595.732502 52.969931 
L 597.485932 62.04669 
L 599.239363 49.906097 
L 600.116078 63.716367 
L 600.992794 48.411335 
L 601.869509 53.611013 
L 602.746225 51.283528 
L 604.499655 62.660961 
L 605.376371 46.837869 
L 606.253086 47.197922 
L 607.129801 47.08912 
L 608.006517 44.326795 
L 608.883232 50.183659 
L 609.759947 50.942961 
L 610.636663 62.764209 
L 611.513378 63.142052 
L 612.390093 43.829976 
L 613.266809 61.381347 
L 614.143524 51.03381 
L 615.020239 52.548508 
L 615.896955 56.808002 
L 616.77367 63.255609 
L 617.650385 46.160262 
L 618.527101 56.357001 
L 619.403816 46.987434 
L 620.280531 48.62638 
L 621.157247 53.039191 
L 622.033962 48.49524 
L 622.910677 74.888027 
L 623.787393 53.301524 
L 624.664108 35.618125 
L 625.540823 42.072392 
L 626.417539 44.717557 
L 627.294254 50.419594 
L 628.170969 51.160468 
L 629.047685 52.139592 
L 629.9244 53.55889 
L 630.801115 48.010218 
L 631.677831 56.334563 
L 632.554546 51.679292 
L 633.431261 48.758653 
L 634.307977 56.971083 
L 635.184692 48.335377 
L 636.061407 57.987327 
L 636.938123 59.579725 
L 637.814838 59.347653 
L 638.691553 49.856885 
L 639.568269 46.470628 
L 640.444984 47.663421 
L 641.321699 69.957572 
L 642.198415 49.944182 
L 643.07513 38.512271 
L 644.828561 53.309937 
L 645.705276 46.963556 
L 646.581991 45.993215 
L 647.458707 58.102553 
L 648.335422 51.243349 
L 649.212137 50.266077 
L 650.088853 37.509892 
L 650.965568 46.424262 
L 651.842283 38.299941 
L 652.718999 50.479647 
L 653.595714 47.766596 
L 654.472429 49.684898 
L 655.349145 49.982669 
L 656.22586 48.431328 
L 656.22586 48.431328 
" clip-path="url(#p94d2142db0)" style="fill: none; stroke: #1f77b4; stroke-width: 1.5; stroke-linecap: square"/>
   </g>
   <g id="line2d_32">
    <path d="M 74.086875 314.918125 
L 74.086875 22.318125 
" clip-path="url(#p94d2142db0)" style="fill: none; stroke-dasharray: 3.7,1.6; stroke-dashoffset: 0; stroke: #1f77b4"/>
   </g>
   <g id="line2d_33">
    <path d="M 559.787173 314.918125 
L 559.787173 22.318125 
" clip-path="url(#p94d2142db0)" style="fill: none; stroke-dasharray: 3.7,1.6; stroke-dashoffset: 0; stroke: #d62728"/>
   </g>
   <g id="patch_3">
    <path d="M 44.059375 314.918125 
L 44.059375 22.318125 
" style="fill: none; stroke: #000000; stroke-width: 0.8; stroke-linejoin: miter; stroke-linecap: square"/>
   </g>
   <g id="patch_4">
    <path d="M 685.376645 314.918125 
L 685.376645 22.318125 
" style="fill: none; stroke: #000000; stroke-width: 0.8; stroke-linejoin: miter; stroke-linecap: square"/>
   </g>
   <g id="patch_5">
    <path d="M 44.059375 314.918125 
L 685.376645 314.918125 
" style="fill: none; stroke: #000000; stroke-width: 0.8; stroke-linejoin: miter; stroke-linecap: square"/>
   </g>
   <g id="patch_6">
    <path d="M 44.059375 22.318125 
L 685.376645 22.318125 
" style="fill: none; stroke: #000000; stroke-width: 0.8; stroke-linejoin: miter; stroke-linecap: square"/>
   </g>
   <g id="text_18">
    <!-- Uniswap v3 share (daily mean across labels) -->
    <g transform="translate(230.964885 16.318125) scale(0.12 -0.12)">
     <defs>
      <path id="DejaVuSans-55" d="M 556 4666 
L 1191 4666 
L 1191 1831 
Q 1191 1081 1462 751 
Q 1734 422 2344 422 
Q 2950 422 3222 751 
Q 3494 1081 3494 1831 
L 3494 4666 
L 4128 4666 
L 4128 1753 
Q 4128 841 3676 375 
Q 3225 -91 2344 -91 
Q 1459 -91 1007 375 
Q 556 841 556 1753 
L 556 4666 
z
" transform="scale(0.015625)"/>
      <path id="DejaVuSans-69" d="M 603 3500 
L 1178 3500 
L 1178 0 
L 603 0 
L 603 3500 
z
M 603 4863 
L 1178 4863 
L 1178 4134 
L 603 4134 
L 603 4863 
z
" transform="scale(0.015625)"/>
      <path id="DejaVuSans-77" d="M 269 3500 
L 844 3500 
L 1563 769 
L 2278 3500 
L 2956 3500 
L 3675 769 
L 4391 3500 
L 4966 3500 
L 4050 0 
L 3372 0 
L 2619 2869 
L 1863 0 
L 1184 0 
L 269 3500 
z
" transform="scale(0.015625)"/>
      <path id="DejaVuSans-70" d="M 1159 525 
L 1159 -1331 
L 581 -1331 
L 581 3500 
L 1159 3500 
L 1159 2969 
Q 1341 3281 1617 3432 
Q 1894 3584 2278 3584 
Q 2916 3584 3314 3078 
Q 3713 2572 3713 1747 
Q 3713 922 3314 415 
Q 2916 -91 2278 -91 
Q 1894 -91 1617 61 
Q 1341 213 1159 525 
z
M 3116 1747 
Q 3116 2381 2855 2742 
Q 2594 3103 2138 3103 
Q 1681 3103 1420 2742 
Q 1159 2381 1159 1747 
Q 1159 1113 1420 752 
Q 1681 391 2138 391 
Q 2594 391 2855 752 
Q 3116 1113 3116 1747 
z
" transform="scale(0.015625)"/>
      <path id="DejaVuSans-6c" d="M 603 4863 
L 1178 4863 
L 1178 0 
L 603 0 
L 603 4863 
z
" transform="scale(0.015625)"/>
      <path id="DejaVuSans-79" d="M 2059 -325 
Q 1816 -950 1584 -1140 
Q 1353 -1331 966 -1331 
L 506 -1331 
L 506 -850 
L 844 -850 
Q 1081 -850 1212 -737 
Q 1344 -625 1503 -206 
L 1606 56 
L 191 3500 
L 800 3500 
L 1894 763 
L 2988 3500 
L 3597 3500 
L 2059 -325 
z
" transform="scale(0.015625)"/>
      <path id="DejaVuSans-63" d="M 3122 3366 
L 3122 2828 
Q 2878 2963 2633 3030 
Q 2388 3097 2138 3097 
Q 1578 3097 1268 2742 
Q 959 2388 959 1747 
Q 959 1106 1268 751 
Q 1578 397 2138 397 
Q 2388 397 2633 464 
Q 2878 531 3122 666 
L 3122 134 
Q 2881 22 2623 -34 
Q 2366 -91 2075 -91 
Q 1284 -91 818 406 
Q 353 903 353 1747 
Q 353 2603 823 3093 
Q 1294 3584 2113 3584 
Q 2378 3584 2631 3529 
Q 2884 3475 3122 3366 
z
" transform="scale(0.015625)"/>
      <path id="DejaVuSans-6f" d="M 1959 3097 
Q 1497 3097 1228 2736 
Q 959 2375 959 1747 
Q 959 1119 1226 758 
Q 1494 397 1959 397 
Q 2419 397 2687 759 
Q 2956 1122 2956 1747 
Q 2956 2369 2687 2733 
Q 2419 3097 1959 3097 
z
M 1959 3584 
Q 2709 3584 3137 3096 
Q 3566 2609 3566 1747 
Q 3566 888 3137 398 
Q 2709 -91 1959 -91 
Q 1206 -91 779 398 
Q 353 888 353 1747 
Q 353 2609 779 3096 
Q 1206 3584 1959 3584 
z
" transform="scale(0.015625)"/>
      <path id="DejaVuSans-62" d="M 3116 1747 
Q 3116 2381 2855 2742 
Q 2594 3103 2138 3103 
Q 1681 3103 1420 2742 
Q 1159 2381 1159 1747 
Q 1159 1113 1420 752 
Q 1681 391 2138 391 
Q 2594 391 2855 752 
Q 3116 1113 3116 1747 
z
M 1159 2969 
Q 1341 3281 1617 3432 
Q 1894 3584 2278 3584 
Q 2916 3584 3314 3078 
Q 3713 2572 3713 1747 
Q 3713 922 3314 415 
Q 2916 -91 2278 -91 
Q 1894 -91 1617 61 
Q 1341 213 1159 525 
L 1159 0 
L 581 0 
L 581 4863 
L 1159 4863 
L 1159 2969 
z
" transform="scale(0.015625)"/>
     </defs>
     <use xlink:href="#DejaVuSans-55"/>
     <use xlink:href="#DejaVuSans-6e" transform="translate(73.193359 0)"/>
     <use xlink:href="#DejaVuSans-69" transform="translate(136.572266 0)"/>
     <use xlink:href="#DejaVuSans-73" transform="translate(164.355469 0)"/>
     <use xlink:href="#DejaVuSans-77" transform="translate(216.455078 0)"/>
     <use xlink:href="#DejaVuSans-61" transform="translate(298.242188 0)"/>
     <use xlink:href="#DejaVuSans-70" transform="translate(359.521484 0)"/>
     <use xlink:href="#DejaVuSans-20" transform="translate(422.998047 0)"/>
     <use xlink:href="#DejaVuSans-76" transform="translate(454.785156 0)"/>
     <use xlink:href="#DejaVuSans-33" transform="translate(513.964844 0)"/>
     <use xlink:href="#DejaVuSans-20" transform="translate(577.587891 0)"/>
     <use xlink:href="#DejaVuSans-73" transform="translate(609.375 0)"/>
     <use xlink:href="#DejaVuSans-68" transform="translate(661.474609 0)"/>
     <use xlink:href="#DejaVuSans-61" transform="translate(724.853516 0)"/>
     <use xlink:href="#DejaVuSans-72" transform="translate(786.132812 0)"/>
     <use xlink:href="#DejaVuSans-65" transform="translate(824.996094 0)"/>
     <use xlink:href="#DejaVuSans-20" transform="translate(886.519531 0)"/>
     <use xlink:href="#DejaVuSans-28" transform="translate(918.306641 0)"/>
     <use xlink:href="#DejaVuSans-64" transform="translate(957.320312 0)"/>
     <use xlink:href="#DejaVuSans-61" transform="translate(1020.796875 0)"/>
     <use xlink:href="#DejaVuSans-69" transform="translate(1082.076172 0)"/>
     <use xlink:href="#DejaVuSans-6c" transform="translate(1109.859375 0)"/>
     <use xlink:href="#DejaVuSans-79" transform="translate(1137.642578 0)"/>
     <use xlink:href="#DejaVuSans-20" transform="translate(1196.822266 0)"/>
     <use xlink:href="#DejaVuSans-6d" transform="translate(1228.609375 0)"/>
     <use xlink:href="#DejaVuSans-65" transform="translate(1326.021484 0)"/>
     <use xlink:href="#DejaVuSans-61" transform="translate(1387.544922 0)"/>
     <use xlink:href="#DejaVuSans-6e" transform="translate(1448.824219 0)"/>
     <use xlink:href="#DejaVuSans-20" transform="translate(1512.203125 0)"/>
     <use xlink:href="#DejaVuSans-61" transform="translate(1543.990234 0)"/>
     <use xlink:href="#DejaVuSans-63" transform="translate(1605.269531 0)"/>
     <use xlink:href="#DejaVuSans-72" transform="translate(1660.25 0)"/>
     <use xlink:href="#DejaVuSans-6f" transform="translate(1699.113281 0)"/>
     <use xlink:href="#DejaVuSans-73" transform="translate(1760.294922 0)"/>
     <use xlink:href="#DejaVuSans-73" transform="translate(1812.394531 0)"/>
     <use xlink:href="#DejaVuSans-20" transform="translate(1864.494141 0)"/>
     <use xlink:href="#DejaVuSans-6c" transform="translate(1896.28125 0)"/>
     <use xlink:href="#DejaVuSans-61" transform="translate(1924.064453 0)"/>
     <use xlink:href="#DejaVuSans-62" transform="translate(1985.34375 0)"/>
     <use xlink:href="#DejaVuSans-65" transform="translate(2048.820312 0)"/>
     <use xlink:href="#DejaVuSans-6c" transform="translate(2110.34375 0)"/>
     <use xlink:href="#DejaVuSans-73" transform="translate(2138.126953 0)"/>
     <use xlink:href="#DejaVuSans-29" transform="translate(2190.226562 0)"/>
    </g>
   </g>
   <g id="legend_1">
    <g id="line2d_34">
     <path d="M 53.059375 35.416562 
L 63.059375 35.416562 
L 73.059375 35.416562 
" style="fill: none; stroke: #1f77b4; stroke-width: 1.5; stroke-linecap: square"/>
    </g>
    <g id="text_19">
     <!-- v3_share (mean) -->
     <g transform="translate(81.059375 38.916562) scale(0.1 -0.1)">
      <use xlink:href="#DejaVuSans-76"/>
      <use xlink:href="#DejaVuSans-33" transform="translate(59.179688 0)"/>
      <use xlink:href="#DejaVuSans-5f" transform="translate(122.802734 0)"/>
      <use xlink:href="#DejaVuSans-73" transform="translate(172.802734 0)"/>
      <use xlink:href="#DejaVuSans-68" transform="translate(224.902344 0)"/>
      <use xlink:href="#DejaVuSans-61" transform="translate(288.28125 0)"/>
      <use xlink:href="#DejaVuSans-72" transform="translate(349.560547 0)"/>
      <use xlink:href="#DejaVuSans-65" transform="translate(388.423828 0)"/>
      <use xlink:href="#DejaVuSans-20" transform="translate(449.947266 0)"/>
      <use xlink:href="#DejaVuSans-28" transform="translate(481.734375 0)"/>
      <use xlink:href="#DejaVuSans-6d" transform="translate(520.748047 0)"/>
      <use xlink:href="#DejaVuSans-65" transform="translate(618.160156 0)"/>
      <use xlink:href="#DejaVuSans-61" transform="translate(679.683594 0)"/>
      <use xlink:href="#DejaVuSans-6e" transform="translate(740.962891 0)"/>
      <use xlink:href="#DejaVuSans-29" transform="translate(804.341797 0)"/>
     </g>
    </g>
    <g id="line2d_35">
     <path d="M 53.059375 50.372813 
L 63.059375 50.372813 
L 73.059375 50.372813 
" style="fill: none; stroke-dasharray: 3.7,1.6; stroke-dashoffset: 0; stroke: #1f77b4"/>
    </g>
    <g id="text_20">
     <!-- Uniswap v3 launch (2021-05-05) -->
     <g transform="translate(81.059375 53.872813) scale(0.1 -0.1)">
      <defs>
       <path id="DejaVuSans-75" d="M 544 1381 
L 544 3500 
L 1119 3500 
L 1119 1403 
Q 1119 906 1312 657 
Q 1506 409 1894 409 
Q 2359 409 2629 706 
Q 2900 1003 2900 1516 
L 2900 3500 
L 3475 3500 
L 3475 0 
L 2900 0 
L 2900 538 
Q 2691 219 2414 64 
Q 2138 -91 1772 -91 
Q 1169 -91 856 284 
Q 544 659 544 1381 
z
M 1991 3584 
L 1991 3584 
z
" transform="scale(0.015625)"/>
       <path id="DejaVuSans-35" d="M 691 4666 
L 3169 4666 
L 3169 4134 
L 1269 4134 
L 1269 2991 
Q 1406 3038 1543 3061 
Q 1681 3084 1819 3084 
Q 2600 3084 3056 2656 
Q 3513 2228 3513 1497 
Q 3513 744 3044 326 
Q 2575 -91 1722 -91 
Q 1428 -91 1123 -41 
Q 819 9 494 109 
L 494 744 
Q 775 591 1075 516 
Q 1375 441 1709 441 
Q 2250 441 2565 725 
Q 2881 1009 2881 1497 
Q 2881 1984 2565 2268 
Q 2250 2553 1709 2553 
Q 1456 2553 1204 2497 
Q 953 2441 691 2322 
L 691 4666 
z
" transform="scale(0.015625)"/>
      </defs>
      <use xlink:href="#DejaVuSans-55"/>
      <use xlink:href="#DejaVuSans-6e" transform="translate(73.193359 0)"/>
      <use xlink:href="#DejaVuSans-69" transform="translate(136.572266 0)"/>
      <use xlink:href="#DejaVuSans-73" transform="translate(164.355469 0)"/>
      <use xlink:href="#DejaVuSans-77" transform="translate(216.455078 0)"/>
      <use xlink:href="#DejaVuSans-61" transform="translate(298.242188 0)"/>
      <use xlink:href="#DejaVuSans-70" transform="translate(359.521484 0)"/>
      <use xlink:href="#DejaVuSans-20" transform="translate(422.998047 0)"/>
      <use xlink:href="#DejaVuSans-76" transform="translate(454.785156 0)"/>
      <use xlink:href="#DejaVuSans-33" transform="translate(513.964844 0)"/>
      <use xlink:href="#DejaVuSans-20" transform="translate(577.587891 0)"/>
      <use xlink:href="#DejaVuSans-6c" transform="translate(609.375 0)"/>
      <use xlink:href="#DejaVuSans-61" transform="translate(637.158203 0)"/>
      <use xlink:href="#DejaVuSans-75" transform="translate(698.4375 0)"/>
      <use xlink:href="#DejaVuSans-6e" transform="translate(761.816406 0)"/>
      <use xlink:href="#DejaVuSans-63" transform="translate(825.195312 0)"/>
      <use xlink:href="#DejaVuSans-68" transform="translate(880.175781 0)"/>
      <use xlink:href="#DejaVuSans-20" transform="translate(943.554688 0)"/>
      <use xlink:href="#DejaVuSans-28" transform="translate(975.341797 0)"/>
      <use xlink:href="#DejaVuSans-32" transform="translate(1014.355469 0)"/>
      <use xlink:href="#DejaVuSans-30" transform="translate(1077.978516 0)"/>
      <use xlink:href="#DejaVuSans-32" transform="translate(1141.601562 0)"/>
      <use xlink:href="#DejaVuSans-31" transform="translate(1205.224609 0)"/>
      <use xlink:href="#DejaVuSans-2d" transform="translate(1268.847656 0)"/>
      <use xlink:href="#DejaVuSans-30" transform="translate(1304.931641 0)"/>
      <use xlink:href="#DejaVuSans-35" transform="translate(1368.554688 0)"/>
      <use xlink:href="#DejaVuSans-2d" transform="translate(1432.177734 0)"/>
      <use xlink:href="#DejaVuSans-30" transform="translate(1468.261719 0)"/>
      <use xlink:href="#DejaVuSans-35" transform="translate(1531.884766 0)"/>
      <use xlink:href="#DejaVuSans-29" transform="translate(1595.507812 0)"/>
     </g>
    </g>
    <g id="line2d_36">
     <path d="M 53.059375 65.050937 
L 63.059375 65.050937 
L 73.059375 65.050937 
" style="fill: none; stroke-dasharray: 3.7,1.6; stroke-dashoffset: 0; stroke: #d62728"/>
    </g>
    <g id="text_21">
     <!-- FTX collapse (2022-11-10) -->
     <g transform="translate(81.059375 68.550937) scale(0.1 -0.1)">
      <defs>
       <path id="DejaVuSans-46" d="M 628 4666 
L 3309 4666 
L 3309 4134 
L 1259 4134 
L 1259 2759 
L 3109 2759 
L 3109 2228 
L 1259 2228 
L 1259 0 
L 628 0 
L 628 4666 
z
" transform="scale(0.015625)"/>
       <path id="DejaVuSans-54" d="M -19 4666 
L 3928 4666 
L 3928 4134 
L 2272 4134 
L 2272 0 
L 1638 0 
L 1638 4134 
L -19 4134 
L -19 4666 
z
" transform="scale(0.015625)"/>
       <path id="DejaVuSans-58" d="M 403 4666 
L 1081 4666 
L 2241 2931 
L 3406 4666 
L 4084 4666 
L 2584 2425 
L 4184 0 
L 3506 0 
L 2194 1984 
L 872 0 
L 191 0 
L 1856 2491 
L 403 4666 
z
" transform="scale(0.015625)"/>
      </defs>
      <use xlink:href="#DejaVuSans-46"/>
      <use xlink:href="#DejaVuSans-54" transform="translate(55.769531 0)"/>
      <use xlink:href="#DejaVuSans-58" transform="translate(116.853516 0)"/>
      <use xlink:href="#DejaVuSans-20" transform="translate(185.359375 0)"/>
      <use xlink:href="#DejaVuSans-63" transform="translate(217.146484 0)"/>
      <use xlink:href="#DejaVuSans-6f" transform="translate(272.126953 0)"/>
      <use xlink:href="#DejaVuSans-6c" transform="translate(333.308594 0)"/>
      <use xlink:href="#DejaVuSans-6c" transform="translate(361.091797 0)"/>
      <use xlink:href="#DejaVuSans-61" transform="translate(388.875 0)"/>
      <use xlink:href="#DejaVuSans-70" transform="translate(450.154297 0)"/>
      <use xlink:href="#DejaVuSans-73" transform="translate(513.630859 0)"/>
      <use xlink:href="#DejaVuSans-65" transform="translate(565.730469 0)"/>
      <use xlink:href="#DejaVuSans-20" transform="translate(627.253906 0)"/>
      <use xlink:href="#DejaVuSans-28" transform="translate(659.041016 0)"/>
      <use xlink:href="#DejaVuSans-32" transform="translate(698.054688 0)"/>
      <use xlink:href="#DejaVuSans-30" transform="translate(761.677734 0)"/>
      <use xlink:href="#DejaVuSans-32" transform="translate(825.300781 0)"/>
      <use xlink:href="#DejaVuSans-32" transform="translate(888.923828 0)"/>
      <use xlink:href="#DejaVuSans-2d" transform="translate(952.546875 0)"/>
      <use xlink:href="#DejaVuSans-31" transform="translate(988.630859 0)"/>
      <use xlink:href="#DejaVuSans-31" transform="translate(1052.253906 0)"/>
      <use xlink:href="#DejaVuSans-2d" transform="translate(1115.876953 0)"/>
      <use xlink:href="#DejaVuSans-31" transform="translate(1151.960938 0)"/>
      <use xlink:href="#DejaVuSans-30" transform="translate(1215.583984 0)"/>
      <use xlink:href="#DejaVuSans-29" transform="translate(1279.207031 0)"/>
     </g>
    </g>
   </g>
  </g>
 </g>
 <defs>
  <clipPath id="p94d2142db0">
   <rect x="44.059375" y="22.318125" width="641.31727" height="292.6"/>
  </clipPath>
 </defs>
</svg>
