<?xml version="1.0" encoding="utf-8" standalone="no"?>
<!DOCTYPE svg PUBLIC "-//W3C//DTD SVG 1.1//EN"
  "http://www.w3.org/Graphics/SVG/1.1/DTD/svg11.dtd">
<svg xmlns:xlink="http://www.w3.org/1999/xlink" width="711.825203pt" height="352.474375pt" viewBox="0 0 711.825203 352.474375" xmlns="http://www.w3.org/2000/svg" version="1.1">
 <title>03_eth_median_effective_gas_price_daily</title>
 <metadata>
  <rdf:RDF xmlns:dc="http://purl.org/dc/elements/1.1/" xmlns:cc="http://creativecommons.org/ns#" xmlns:rdf="http://www.w3.org/1999/02/22-rdf-syntax-ns#">
   <cc:Work>
    <dc:type rdf:resource="http://purl.org/dc/dcmitype/StillImage"/>
    <dc:title>03_eth_median_effective_gas_price_daily</dc:title>
    <dc:date>2025-09-14T12:22:12.714910</dc:date>
    <dc:format>image/svg+xml</dc:format>
    <dc:creator>
     <cc:Agent>
      <dc:title>Matplotlib v3.10.5, https://matplotlib.org/</dc:title>
     </cc:Agent>
    </dc:creator>
   </cc:Work>
  </rdf:RDF>
 </metadata>
 <defs>
  <style type="text/css">*{stroke-linejoin: round; stroke-linecap: butt}</style>
 </defs>
 <g id="figure_1">
  <g id="patch_1">
   <path d="M 0 352.474375 
L 711.825203 352.474375 
L 711.825203 0 
L 0 0 
z
" style="fill: #ffffff"/>
  </g>
  <g id="axes_1">
   <g id="patch_2">
    <path d="M 46.965625 314.918125 
L 687.287146 314.918125 
L 687.287146 22.318125 
L 46.965625 22.318125 
z
" style="fill: #ffffff"/>
   </g>
   <g id="matplotlib.axis_1">
    <g id="xtick_1">
     <g id="line2d_1">
      <path d="M 100.824818 314.918125 
L 100.824818 22.318125 
" clip-path="url(#pe789e73b15)" style="fill: none; stroke: #b0b0b0; stroke-width: 0.8; stroke-linecap: square"/>
     </g>
     <g id="line2d_2">
      <defs>
       <path id="mc8fc0abcd8" d="M 0 0 
L 0 3.5 
" style="stroke: #000000; stroke-width: 0.8"/>
      </defs>
      <g>
       <use xlink:href="#mc8fc0abcd8" x="100.824818" y="314.918125" style="stroke: #000000; stroke-width: 0.8"/>
      </g>
     </g>
     <g id="text_1">
      <!-- 2021-04 -->
      <g transform="translate(79.933411 329.516563) scale(0.1 -0.1)">
       <defs>
        <path id="DejaVuSans-32" d="M 1228 531 
L 3431 531 
L 3431 0 
L 469 0 
L 469 531 
Q 828 903 1448 1529 
Q 2069 2156 2228 2338 
Q 2531 2678 2651 2914 
Q 2772 3150 2772 3378 
Q 2772 3750 2511 3984 
Q 2250 4219 1831 4219 
Q 1534 4219 1204 4116 
Q 875 4013 500 3803 
L 500 4441 
Q 881 4594 1212 4672 
Q 1544 4750 1819 4750 
Q 2544 4750 2975 4387 
Q 3406 4025 3406 3419 
Q 3406 3131 3298 2873 
Q 3191 2616 2906 2266 
Q 2828 2175 2409 1742 
Q 1991 1309 1228 531 
z
" transform="scale(0.015625)"/>
        <path id="DejaVuSans-30" d="M 2034 4250 
Q 1547 4250 1301 3770 
Q 1056 3291 1056 2328 
Q 1056 1369 1301 889 
Q 1547 409 2034 409 
Q 2525 409 2770 889 
Q 3016 1369 3016 2328 
Q 3016 3291 2770 3770 
Q 2525 4250 2034 4250 
z
M 2034 4750 
Q 2819 4750 3233 4129 
Q 3647 3509 3647 2328 
Q 3647 1150 3233 529 
Q 2819 -91 2034 -91 
Q 1250 -91 836 529 
Q 422 1150 422 2328 
Q 422 3509 836 4129 
Q 1250 4750 2034 4750 
z
" transform="scale(0.015625)"/>
        <path id="DejaVuSans-31" d="M 794 531 
L 1825 531 
L 1825 4091 
L 703 3866 
L 703 4441 
L 1819 4666 
L 2450 4666 
L 2450 531 
L 3481 531 
L 3481 0 
L 794 0 
L 794 531 
z
" transform="scale(0.015625)"/>
        <path id="DejaVuSans-2d" d="M 313 2009 
L 1997 2009 
L 1997 1497 
L 313 1497 
L 313 2009 
z
" transform="scale(0.015625)"/>
        <path id="DejaVuSans-34" d="M 2419 4116 
L 825 1625 
L 2419 1625 
L 2419 4116 
z
M 2253 4666 
L 3047 4666 
L 3047 1625 
L 3713 1625 
L 3713 1100 
L 3047 1100 
L 3047 0 
L 2419 0 
L 2419 1100 
L 313 1100 
L 313 1709 
L 2253 4666 
z
" transform="scale(0.015625)"/>
       </defs>
       <use xlink:href="#DejaVuSans-32"/>
       <use xlink:href="#DejaVuSans-30" transform="translate(63.623047 0)"/>
       <use xlink:href="#DejaVuSans-32" transform="translate(127.246094 0)"/>
       <use xlink:href="#DejaVuSans-31" transform="translate(190.869141 0)"/>
       <use xlink:href="#DejaVuSans-2d" transform="translate(254.492188 0)"/>
       <use xlink:href="#DejaVuSans-30" transform="translate(290.576172 0)"/>
       <use xlink:href="#DejaVuSans-34" transform="translate(354.199219 0)"/>
      </g>
     </g>
    </g>
    <g id="xtick_2">
     <g id="line2d_3">
      <path d="M 173.488814 314.918125 
L 173.488814 22.318125 
" clip-path="url(#pe789e73b15)" style="fill: none; stroke: #b0b0b0; stroke-width: 0.8; stroke-linecap: square"/>
     </g>
     <g id="line2d_4">
      <g>
       <use xlink:href="#mc8fc0abcd8" x="173.488814" y="314.918125" style="stroke: #000000; stroke-width: 0.8"/>
      </g>
     </g>
     <g id="text_2">
      <!-- 2021-07 -->
      <g transform="translate(152.597407 329.516563) scale(0.1 -0.1)">
       <defs>
        <path id="DejaVuSans-37" d="M 525 4666 
L 3525 4666 
L 3525 4397 
L 1831 0 
L 1172 0 
L 2766 4134 
L 525 4134 
L 525 4666 
z
" transform="scale(0.015625)"/>
       </defs>
       <use xlink:href="#DejaVuSans-32"/>
       <use xlink:href="#DejaVuSans-30" transform="translate(63.623047 0)"/>
       <use xlink:href="#DejaVuSans-32" transform="translate(127.246094 0)"/>
       <use xlink:href="#DejaVuSans-31" transform="translate(190.869141 0)"/>
       <use xlink:href="#DejaVuSans-2d" transform="translate(254.492188 0)"/>
       <use xlink:href="#DejaVuSans-30" transform="translate(290.576172 0)"/>
       <use xlink:href="#DejaVuSans-37" transform="translate(354.199219 0)"/>
      </g>
     </g>
    </g>
    <g id="xtick_3">
     <g id="line2d_5">
      <path d="M 246.951315 314.918125 
L 246.951315 22.318125 
" clip-path="url(#pe789e73b15)" style="fill: none; stroke: #b0b0b0; stroke-width: 0.8; stroke-linecap: square"/>
     </g>
     <g id="line2d_6">
      <g>
       <use xlink:href="#mc8fc0abcd8" x="246.951315" y="314.918125" style="stroke: #000000; stroke-width: 0.8"/>
      </g>
     </g>
     <g id="text_3">
      <!-- 2021-10 -->
      <g transform="translate(226.059909 329.516563) scale(0.1 -0.1)">
       <use xlink:href="#DejaVuSans-32"/>
       <use xlink:href="#DejaVuSans-30" transform="translate(63.623047 0)"/>
       <use xlink:href="#DejaVuSans-32" transform="translate(127.246094 0)"/>
       <use xlink:href="#DejaVuSans-31" transform="translate(190.869141 0)"/>
       <use xlink:href="#DejaVuSans-2d" transform="translate(254.492188 0)"/>
       <use xlink:href="#DejaVuSans-31" transform="translate(290.576172 0)"/>
       <use xlink:href="#DejaVuSans-30" transform="translate(354.199219 0)"/>
      </g>
     </g>
    </g>
    <g id="xtick_4">
     <g id="line2d_7">
      <path d="M 320.413817 314.918125 
L 320.413817 22.318125 
" clip-path="url(#pe789e73b15)" style="fill: none; stroke: #b0b0b0; stroke-width: 0.8; stroke-linecap: square"/>
     </g>
     <g id="line2d_8">
      <g>
       <use xlink:href="#mc8fc0abcd8" x="320.413817" y="314.918125" style="stroke: #000000; stroke-width: 0.8"/>
      </g>
     </g>
     <g id="text_4">
      <!-- 2022-01 -->
      <g transform="translate(299.52241 329.516563) scale(0.1 -0.1)">
       <use xlink:href="#DejaVuSans-32"/>
       <use xlink:href="#DejaVuSans-30" transform="translate(63.623047 0)"/>
       <use xlink:href="#DejaVuSans-32" transform="translate(127.246094 0)"/>
       <use xlink:href="#DejaVuSans-32" transform="translate(190.869141 0)"/>
       <use xlink:href="#DejaVuSans-2d" transform="translate(254.492188 0)"/>
       <use xlink:href="#DejaVuSans-30" transform="translate(290.576172 0)"/>
       <use xlink:href="#DejaVuSans-31" transform="translate(354.199219 0)"/>
      </g>
     </g>
    </g>
    <g id="xtick_5">
     <g id="line2d_9">
      <path d="M 392.279307 314.918125 
L 392.279307 22.318125 
" clip-path="url(#pe789e73b15)" style="fill: none; stroke: #b0b0b0; stroke-width: 0.8; stroke-linecap: square"/>
     </g>
     <g id="line2d_10">
      <g>
       <use xlink:href="#mc8fc0abcd8" x="392.279307" y="314.918125" style="stroke: #000000; stroke-width: 0.8"/>
      </g>
     </g>
     <g id="text_5">
      <!-- 2022-04 -->
      <g transform="translate(371.387901 329.516563) scale(0.1 -0.1)">
       <use xlink:href="#DejaVuSans-32"/>
       <use xlink:href="#DejaVuSans-30" transform="translate(63.623047 0)"/>
       <use xlink:href="#DejaVuSans-32" transform="translate(127.246094 0)"/>
       <use xlink:href="#DejaVuSans-32" transform="translate(190.869141 0)"/>
       <use xlink:href="#DejaVuSans-2d" transform="translate(254.492188 0)"/>
       <use xlink:href="#DejaVuSans-30" transform="translate(290.576172 0)"/>
       <use xlink:href="#DejaVuSans-34" transform="translate(354.199219 0)"/>
      </g>
     </g>
    </g>
    <g id="xtick_6">
     <g id="line2d_11">
      <path d="M 464.943303 314.918125 
L 464.943303 22.318125 
" clip-path="url(#pe789e73b15)" style="fill: none; stroke: #b0b0b0; stroke-width: 0.8; stroke-linecap: square"/>
     </g>
     <g id="line2d_12">
      <g>
       <use xlink:href="#mc8fc0abcd8" x="464.943303" y="314.918125" style="stroke: #000000; stroke-width: 0.8"/>
      </g>
     </g>
     <g id="text_6">
      <!-- 2022-07 -->
      <g transform="translate(444.051897 329.516563) scale(0.1 -0.1)">
       <use xlink:href="#DejaVuSans-32"/>
       <use xlink:href="#DejaVuSans-30" transform="translate(63.623047 0)"/>
       <use xlink:href="#DejaVuSans-32" transform="translate(127.246094 0)"/>
       <use xlink:href="#DejaVuSans-32" transform="translate(190.869141 0)"/>
       <use xlink:href="#DejaVuSans-2d" transform="translate(254.492188 0)"/>
       <use xlink:href="#DejaVuSans-30" transform="translate(290.576172 0)"/>
       <use xlink:href="#DejaVuSans-37" transform="translate(354.199219 0)"/>
      </g>
     </g>
    </g>
    <g id="xtick_7">
     <g id="line2d_13">
      <path d="M 538.405805 314.918125 
L 538.405805 22.318125 
" clip-path="url(#pe789e73b15)" style="fill: none; stroke: #b0b0b0; stroke-width: 0.8; stroke-linecap: square"/>
     </g>
     <g id="line2d_14">
      <g>
       <use xlink:href="#mc8fc0abcd8" x="538.405805" y="314.918125" style="stroke: #000000; stroke-width: 0.8"/>
      </g>
     </g>
     <g id="text_7">
      <!-- 2022-10 -->
      <g transform="translate(517.514398 329.516563) scale(0.1 -0.1)">
       <use xlink:href="#DejaVuSans-32"/>
       <use xlink:href="#DejaVuSans-30" transform="translate(63.623047 0)"/>
       <use xlink:href="#DejaVuSans-32" transform="translate(127.246094 0)"/>
       <use xlink:href="#DejaVuSans-32" transform="translate(190.869141 0)"/>
       <use xlink:href="#DejaVuSans-2d" transform="translate(254.492188 0)"/>
       <use xlink:href="#DejaVuSans-31" transform="translate(290.576172 0)"/>
       <use xlink:href="#DejaVuSans-30" transform="translate(354.199219 0)"/>
      </g>
     </g>
    </g>
    <g id="xtick_8">
     <g id="line2d_15">
      <path d="M 611.868306 314.918125 
L 611.868306 22.318125 
" clip-path="url(#pe789e73b15)" style="fill: none; stroke: #b0b0b0; stroke-width: 0.8; stroke-linecap: square"/>
     </g>
     <g id="line2d_16">
      <g>
       <use xlink:href="#mc8fc0abcd8" x="611.868306" y="314.918125" style="stroke: #000000; stroke-width: 0.8"/>
      </g>
     </g>
     <g id="text_8">
      <!-- 2023-01 -->
      <g transform="translate(590.9769 329.516563) scale(0.1 -0.1)">
       <defs>
        <path id="DejaVuSans-33" d="M 2597 2516 
Q 3050 2419 3304 2112 
Q 3559 1806 3559 1356 
Q 3559 666 3084 287 
Q 2609 -91 1734 -91 
Q 1441 -91 1130 -33 
Q 819 25 488 141 
L 488 750 
Q 750 597 1062 519 
Q 1375 441 1716 441 
Q 2309 441 2620 675 
Q 2931 909 2931 1356 
Q 2931 1769 2642 2001 
Q 2353 2234 1838 2234 
L 1294 2234 
L 1294 2753 
L 1863 2753 
Q 2328 2753 2575 2939 
Q 2822 3125 2822 3475 
Q 2822 3834 2567 4026 
Q 2313 4219 1838 4219 
Q 1578 4219 1281 4162 
Q 984 4106 628 3988 
L 628 4550 
Q 988 4650 1302 4700 
Q 1616 4750 1894 4750 
Q 2613 4750 3031 4423 
Q 3450 4097 3450 3541 
Q 3450 3153 3228 2886 
Q 3006 2619 2597 2516 
z
" transform="scale(0.015625)"/>
       </defs>
       <use xlink:href="#DejaVuSans-32"/>
       <use xlink:href="#DejaVuSans-30" transform="translate(63.623047 0)"/>
       <use xlink:href="#DejaVuSans-32" transform="translate(127.246094 0)"/>
       <use xlink:href="#DejaVuSans-33" transform="translate(190.869141 0)"/>
       <use xlink:href="#DejaVuSans-2d" transform="translate(254.492188 0)"/>
       <use xlink:href="#DejaVuSans-30" transform="translate(290.576172 0)"/>
       <use xlink:href="#DejaVuSans-31" transform="translate(354.199219 0)"/>
      </g>
     </g>
    </g>
    <g id="xtick_9">
     <g id="line2d_17">
      <path d="M 683.733797 314.918125 
L 683.733797 22.318125 
" clip-path="url(#pe789e73b15)" style="fill: none; stroke: #b0b0b0; stroke-width: 0.8; stroke-linecap: square"/>
     </g>
     <g id="line2d_18">
      <g>
       <use xlink:href="#mc8fc0abcd8" x="683.733797" y="314.918125" style="stroke: #000000; stroke-width: 0.8"/>
      </g>
     </g>
     <g id="text_9">
      <!-- 2023-04 -->
      <g transform="translate(662.84239 329.516563) scale(0.1 -0.1)">
       <use xlink:href="#DejaVuSans-32"/>
       <use xlink:href="#DejaVuSans-30" transform="translate(63.623047 0)"/>
       <use xlink:href="#DejaVuSans-32" transform="translate(127.246094 0)"/>
       <use xlink:href="#DejaVuSans-33" transform="translate(190.869141 0)"/>
       <use xlink:href="#DejaVuSans-2d" transform="translate(254.492188 0)"/>
       <use xlink:href="#DejaVuSans-30" transform="translate(290.576172 0)"/>
       <use xlink:href="#DejaVuSans-34" transform="translate(354.199219 0)"/>
      </g>
     </g>
    </g>
    <g id="text_10">
     <!-- date -->
     <g transform="translate(355.851385 343.194687) scale(0.1 -0.1)">
      <defs>
       <path id="DejaVuSans-64" d="M 2906 2969 
L 2906 4863 
L 3481 4863 
L 3481 0 
L 2906 0 
L 2906 525 
Q 2725 213 2448 61 
Q 2172 -91 1784 -91 
Q 1150 -91 751 415 
Q 353 922 353 1747 
Q 353 2572 751 3078 
Q 1150 3584 1784 3584 
Q 2172 3584 2448 3432 
Q 2725 3281 2906 2969 
z
M 947 1747 
Q 947 1113 1208 752 
Q 1469 391 1925 391 
Q 2381 391 2643 752 
Q 2906 1113 2906 1747 
Q 2906 2381 2643 2742 
Q 2381 3103 1925 3103 
Q 1469 3103 1208 2742 
Q 947 2381 947 1747 
z
" transform="scale(0.015625)"/>
       <path id="DejaVuSans-61" d="M 2194 1759 
Q 1497 1759 1228 1600 
Q 959 1441 959 1056 
Q 959 750 1161 570 
Q 1363 391 1709 391 
Q 2188 391 2477 730 
Q 2766 1069 2766 1631 
L 2766 1759 
L 2194 1759 
z
M 3341 1997 
L 3341 0 
L 2766 0 
L 2766 531 
Q 2569 213 2275 61 
Q 1981 -91 1556 -91 
Q 1019 -91 701 211 
Q 384 513 384 1019 
Q 384 1609 779 1909 
Q 1175 2209 1959 2209 
L 2766 2209 
L 2766 2266 
Q 2766 2663 2505 2880 
Q 2244 3097 1772 3097 
Q 1472 3097 1187 3025 
Q 903 2953 641 2809 
L 641 3341 
Q 956 3463 1253 3523 
Q 1550 3584 1831 3584 
Q 2591 3584 2966 3190 
Q 3341 2797 3341 1997 
z
" transform="scale(0.015625)"/>
       <path id="DejaVuSans-74" d="M 1172 4494 
L 1172 3500 
L 2356 3500 
L 2356 3053 
L 1172 3053 
L 1172 1153 
Q 1172 725 1289 603 
Q 1406 481 1766 481 
L 2356 481 
L 2356 0 
L 1766 0 
Q 1100 0 847 248 
Q 594 497 594 1153 
L 594 3053 
L 172 3053 
L 172 3500 
L 594 3500 
L 594 4494 
L 1172 4494 
z
" transform="scale(0.015625)"/>
       <path id="DejaVuSans-65" d="M 3597 1894 
L 3597 1613 
L 953 1613 
Q 991 1019 1311 708 
Q 1631 397 2203 397 
Q 2534 397 2845 478 
Q 3156 559 3463 722 
L 3463 178 
Q 3153 47 2828 -22 
Q 2503 -91 2169 -91 
Q 1331 -91 842 396 
Q 353 884 353 1716 
Q 353 2575 817 3079 
Q 1281 3584 2069 3584 
Q 2775 3584 3186 3129 
Q 3597 2675 3597 1894 
z
M 3022 2063 
Q 3016 2534 2758 2815 
Q 2500 3097 2075 3097 
Q 1594 3097 1305 2825 
Q 1016 2553 972 2059 
L 3022 2063 
z
" transform="scale(0.015625)"/>
      </defs>
      <use xlink:href="#DejaVuSans-64"/>
      <use xlink:href="#DejaVuSans-61" transform="translate(63.476562 0)"/>
      <use xlink:href="#DejaVuSans-74" transform="translate(124.755859 0)"/>
      <use xlink:href="#DejaVuSans-65" transform="translate(163.964844 0)"/>
     </g>
    </g>
   </g>
   <g id="matplotlib.axis_2">
    <g id="ytick_1">
     <g id="line2d_19">
      <path d="M 46.965625 306.774418 
L 687.287146 306.774418 
" clip-path="url(#pe789e73b15)" style="fill: none; stroke: #b0b0b0; stroke-width: 0.8; stroke-linecap: square"/>
     </g>
     <g id="line2d_20">
      <defs>
       <path id="m58e46b7fd1" d="M 0 0 
L -3.5 0 
" style="stroke: #000000; stroke-width: 0.8"/>
      </defs>
      <g>
       <use xlink:href="#m58e46b7fd1" x="46.965625" y="306.774418" style="stroke: #000000; stroke-width: 0.8"/>
      </g>
     </g>
     <g id="text_11">
      <!-- 0 -->
      <g transform="translate(33.603125 310.573637) scale(0.1 -0.1)">
       <use xlink:href="#DejaVuSans-30"/>
      </g>
     </g>
    </g>
    <g id="ytick_2">
     <g id="line2d_21">
      <path d="M 46.965625 262.589498 
L 687.287146 262.589498 
" clip-path="url(#pe789e73b15)" style="fill: none; stroke: #b0b0b0; stroke-width: 0.8; stroke-linecap: square"/>
     </g>
     <g id="line2d_22">
      <g>
       <use xlink:href="#m58e46b7fd1" x="46.965625" y="262.589498" style="stroke: #000000; stroke-width: 0.8"/>
      </g>
     </g>
     <g id="text_12">
      <!-- 50 -->
      <g transform="translate(27.240625 266.388716) scale(0.1 -0.1)">
       <defs>
        <path id="DejaVuSans-35" d="M 691 4666 
L 3169 4666 
L 3169 4134 
L 1269 4134 
L 1269 2991 
Q 1406 3038 1543 3061 
Q 1681 3084 1819 3084 
Q 2600 3084 3056 2656 
Q 3513 2228 3513 1497 
Q 3513 744 3044 326 
Q 2575 -91 1722 -91 
Q 1428 -91 1123 -41 
Q 819 9 494 109 
L 494 744 
Q 775 591 1075 516 
Q 1375 441 1709 441 
Q 2250 441 2565 725 
Q 2881 1009 2881 1497 
Q 2881 1984 2565 2268 
Q 2250 2553 1709 2553 
Q 1456 2553 1204 2497 
Q 953 2441 691 2322 
L 691 4666 
z
" transform="scale(0.015625)"/>
       </defs>
       <use xlink:href="#DejaVuSans-35"/>
       <use xlink:href="#DejaVuSans-30" transform="translate(63.623047 0)"/>
      </g>
     </g>
    </g>
    <g id="ytick_3">
     <g id="line2d_23">
      <path d="M 46.965625 218.404577 
L 687.287146 218.404577 
" clip-path="url(#pe789e73b15)" style="fill: none; stroke: #b0b0b0; stroke-width: 0.8; stroke-linecap: square"/>
     </g>
     <g id="line2d_24">
      <g>
       <use xlink:href="#m58e46b7fd1" x="46.965625" y="218.404577" style="stroke: #000000; stroke-width: 0.8"/>
      </g>
     </g>
     <g id="text_13">
      <!-- 100 -->
      <g transform="translate(20.878125 222.203796) scale(0.1 -0.1)">
       <use xlink:href="#DejaVuSans-31"/>
       <use xlink:href="#DejaVuSans-30" transform="translate(63.623047 0)"/>
       <use xlink:href="#DejaVuSans-30" transform="translate(127.246094 0)"/>
      </g>
     </g>
    </g>
    <g id="ytick_4">
     <g id="line2d_25">
      <path d="M 46.965625 174.219657 
L 687.287146 174.219657 
" clip-path="url(#pe789e73b15)" style="fill: none; stroke: #b0b0b0; stroke-width: 0.8; stroke-linecap: square"/>
     </g>
     <g id="line2d_26">
      <g>
       <use xlink:href="#m58e46b7fd1" x="46.965625" y="174.219657" style="stroke: #000000; stroke-width: 0.8"/>
      </g>
     </g>
     <g id="text_14">
      <!-- 150 -->
      <g transform="translate(20.878125 178.018875) scale(0.1 -0.1)">
       <use xlink:href="#DejaVuSans-31"/>
       <use xlink:href="#DejaVuSans-35" transform="translate(63.623047 0)"/>
       <use xlink:href="#DejaVuSans-30" transform="translate(127.246094 0)"/>
      </g>
     </g>
    </g>
    <g id="ytick_5">
     <g id="line2d_27">
      <path d="M 46.965625 130.034736 
L 687.287146 130.034736 
" clip-path="url(#pe789e73b15)" style="fill: none; stroke: #b0b0b0; stroke-width: 0.8; stroke-linecap: square"/>
     </g>
     <g id="line2d_28">
      <g>
       <use xlink:href="#m58e46b7fd1" x="46.965625" y="130.034736" style="stroke: #000000; stroke-width: 0.8"/>
      </g>
     </g>
     <g id="text_15">
      <!-- 200 -->
      <g transform="translate(20.878125 133.833955) scale(0.1 -0.1)">
       <use xlink:href="#DejaVuSans-32"/>
       <use xlink:href="#DejaVuSans-30" transform="translate(63.623047 0)"/>
       <use xlink:href="#DejaVuSans-30" transform="translate(127.246094 0)"/>
      </g>
     </g>
    </g>
    <g id="ytick_6">
     <g id="line2d_29">
      <path d="M 46.965625 85.849816 
L 687.287146 85.849816 
" clip-path="url(#pe789e73b15)" style="fill: none; stroke: #b0b0b0; stroke-width: 0.8; stroke-linecap: square"/>
     </g>
     <g id="line2d_30">
      <g>
       <use xlink:href="#m58e46b7fd1" x="46.965625" y="85.849816" style="stroke: #000000; stroke-width: 0.8"/>
      </g>
     </g>
     <g id="text_16">
      <!-- 250 -->
      <g transform="translate(20.878125 89.649034) scale(0.1 -0.1)">
       <use xlink:href="#DejaVuSans-32"/>
       <use xlink:href="#DejaVuSans-35" transform="translate(63.623047 0)"/>
       <use xlink:href="#DejaVuSans-30" transform="translate(127.246094 0)"/>
      </g>
     </g>
    </g>
    <g id="ytick_7">
     <g id="line2d_31">
      <path d="M 46.965625 41.664895 
L 687.287146 41.664895 
" clip-path="url(#pe789e73b15)" style="fill: none; stroke: #b0b0b0; stroke-width: 0.8; stroke-linecap: square"/>
     </g>
     <g id="line2d_32">
      <g>
       <use xlink:href="#m58e46b7fd1" x="46.965625" y="41.664895" style="stroke: #000000; stroke-width: 0.8"/>
      </g>
     </g>
     <g id="text_17">
      <!-- 300 -->
      <g transform="translate(20.878125 45.464114) scale(0.1 -0.1)">
       <use xlink:href="#DejaVuSans-33"/>
       <use xlink:href="#DejaVuSans-30" transform="translate(63.623047 0)"/>
       <use xlink:href="#DejaVuSans-30" transform="translate(127.246094 0)"/>
      </g>
     </g>
    </g>
    <g id="text_18">
     <!-- gwei -->
     <g transform="translate(14.798438 180.347031) rotate(-90) scale(0.1 -0.1)">
      <defs>
       <path id="DejaVuSans-67" d="M 2906 1791 
Q 2906 2416 2648 2759 
Q 2391 3103 1925 3103 
Q 1463 3103 1205 2759 
Q 947 2416 947 1791 
Q 947 1169 1205 825 
Q 1463 481 1925 481 
Q 2391 481 2648 825 
Q 2906 1169 2906 1791 
z
M 3481 434 
Q 3481 -459 3084 -895 
Q 2688 -1331 1869 -1331 
Q 1566 -1331 1297 -1286 
Q 1028 -1241 775 -1147 
L 775 -588 
Q 1028 -725 1275 -790 
Q 1522 -856 1778 -856 
Q 2344 -856 2625 -561 
Q 2906 -266 2906 331 
L 2906 616 
Q 2728 306 2450 153 
Q 2172 0 1784 0 
Q 1141 0 747 490 
Q 353 981 353 1791 
Q 353 2603 747 3093 
Q 1141 3584 1784 3584 
Q 2172 3584 2450 3431 
Q 2728 3278 2906 2969 
L 2906 3500 
L 3481 3500 
L 3481 434 
z
" transform="scale(0.015625)"/>
       <path id="DejaVuSans-77" d="M 269 3500 
L 844 3500 
L 1563 769 
L 2278 3500 
L 2956 3500 
L 3675 769 
L 4391 3500 
L 4966 3500 
L 4050 0 
L 3372 0 
L 2619 2869 
L 1863 0 
L 1184 0 
L 269 3500 
z
" transform="scale(0.015625)"/>
       <path id="DejaVuSans-69" d="M 603 3500 
L 1178 3500 
L 1178 0 
L 603 0 
L 603 3500 
z
M 603 4863 
L 1178 4863 
L 1178 4134 
L 603 4134 
L 603 4863 
z
" transform="scale(0.015625)"/>
      </defs>
      <use xlink:href="#DejaVuSans-67"/>
      <use xlink:href="#DejaVuSans-77" transform="translate(63.476562 0)"/>
      <use xlink:href="#DejaVuSans-65" transform="translate(145.263672 0)"/>
      <use xlink:href="#DejaVuSans-69" transform="translate(206.787109 0)"/>
     </g>
    </g>
   </g>
   <g id="line2d_33">
    <path d="M 76.071149 213.107416 
L 77.66816 201.219154 
L 78.466665 210.544773 
L 79.26517 192.236327 
L 80.063676 229.794444 
L 80.862181 202.771859 
L 81.660687 193.889845 
L 82.459192 187.463815 
L 83.257698 196.258941 
L 84.056203 202.409296 
L 84.854709 160.738305 
L 85.653214 163.427949 
L 86.45172 179.427638 
L 87.250225 141.83376 
L 88.04873 154.205408 
L 88.847236 141.930897 
L 90.444247 169.023663 
L 91.242752 189.021565 
L 92.041258 194.759742 
L 92.839763 159.966079 
L 93.638269 172.314721 
L 94.436774 157.225768 
L 95.235279 159.158254 
L 96.033785 186.036182 
L 96.83229 207.547567 
L 97.630796 206.057961 
L 98.429301 186.953813 
L 99.227807 172.504576 
L 100.026312 139.920531 
L 100.824818 138.028115 
L 101.623323 153.306713 
L 102.421829 185.728703 
L 103.220334 212.181104 
L 104.018839 188.359602 
L 104.817345 178.331856 
L 105.61585 177.024203 
L 106.414356 203.02157 
L 107.212861 205.258599 
L 108.809872 235.070259 
L 109.608378 216.547562 
L 110.406883 212.452423 
L 111.205388 187.802785 
L 112.003894 226.708984 
L 112.802399 162.400505 
L 113.600905 176.108348 
L 114.39941 177.704957 
L 115.197916 150.9336 
L 115.996421 73.072801 
L 116.794927 159.136461 
L 117.593432 187.730099 
L 118.391938 208.116744 
L 119.190443 250.369603 
L 119.988948 263.501647 
L 120.787454 257.3558 
L 121.585959 253.880895 
L 122.384465 244.216605 
L 123.18297 250.991484 
L 123.981476 264.700756 
L 124.779981 273.06013 
L 125.578487 275.927654 
L 126.376992 262.069384 
L 127.175498 256.158584 
L 127.974003 259.453973 
L 128.772508 253.583632 
L 129.571014 253.681791 
L 130.369519 200.531079 
L 131.168025 205.299242 
L 131.96653 99.150242 
L 132.765036 35.618125 
L 133.563541 73.245247 
L 134.362047 168.333778 
L 135.959057 226.657261 
L 136.757563 247.798976 
L 137.556068 231.730065 
L 138.354574 236.766902 
L 139.153079 143.702828 
L 139.951585 218.064626 
L 140.75009 242.66902 
L 141.548596 263.147804 
L 142.347101 222.798814 
L 143.145607 253.759459 
L 143.944112 264.937181 
L 144.742617 268.42458 
L 145.541123 275.984694 
L 146.339628 273.922907 
L 147.138134 282.944259 
L 147.936639 285.84826 
L 148.735145 284.570278 
L 149.53365 284.941514 
L 150.332156 283.168112 
L 151.130661 281.021375 
L 151.929166 284.466227 
L 152.727672 290.925733 
L 153.526177 294.101674 
L 154.324683 290.169467 
L 155.123188 286.970904 
L 155.921694 289.686088 
L 156.720199 291.014703 
L 157.518705 288.950499 
L 158.31721 293.287519 
L 159.115716 296.209655 
L 159.914221 290.888361 
L 160.712726 290.362496 
L 161.511232 291.330409 
L 162.309737 289.338871 
L 163.108243 290.630724 
L 163.906748 295.033627 
L 164.705254 295.055649 
L 165.503759 270.765657 
L 166.302265 269.592798 
L 167.10077 289.478207 
L 167.899275 291.112347 
L 168.697781 288.924802 
L 169.496286 294.636529 
L 170.294792 296.408254 
L 171.093297 289.805085 
L 171.891803 288.040431 
L 172.690308 289.066475 
L 173.488814 289.02053 
L 174.287319 293.733894 
L 175.085825 296.256356 
L 175.88433 296.583873 
L 176.682835 294.503651 
L 177.481341 259.835466 
L 178.279846 274.039435 
L 179.078352 276.636109 
L 179.876857 284.451337 
L 180.675363 293.685411 
L 181.473868 296.400713 
L 182.272374 284.542007 
L 183.070879 280.659283 
L 183.869384 271.773506 
L 184.66789 272.34557 
L 185.466395 275.86942 
L 186.264901 284.677646 
L 187.063406 287.403425 
L 187.861912 285.095601 
L 188.660417 281.980586 
L 189.458923 288.514371 
L 190.257428 285.475708 
L 191.055934 288.624341 
L 191.854439 292.327537 
L 192.652944 290.434849 
L 193.45145 274.873128 
L 194.249955 282.320494 
L 195.048461 276.887793 
L 195.846966 281.174938 
L 196.645472 274.651866 
L 197.443977 281.260328 
L 198.242483 279.222557 
L 199.040988 275.616185 
L 199.839493 269.976018 
L 200.637999 271.88699 
L 201.436504 262.158986 
L 202.23501 264.990642 
L 203.033515 262.944957 
L 203.832021 270.426683 
L 204.630526 263.493373 
L 205.429032 261.804448 
L 206.227537 256.175602 
L 207.026043 263.891002 
L 207.824548 262.418153 
L 208.623053 266.272411 
L 209.421559 272.241272 
L 210.220064 259.182508 
L 211.01857 264.262962 
L 211.817075 270.322155 
L 212.615581 273.580684 
L 213.414086 271.832785 
L 214.212592 277.035749 
L 215.011097 275.820344 
L 215.809603 253.821001 
L 216.608108 239.982438 
L 217.406613 228.776297 
L 218.205119 233.139649 
L 219.003624 227.863031 
L 219.80213 244.622087 
L 220.600635 241.454156 
L 222.197646 215.005946 
L 222.996152 210.749814 
L 223.794657 215.726984 
L 224.593162 186.437755 
L 225.391668 210.045018 
L 226.190173 219.305381 
L 226.988679 212.996152 
L 227.787184 201.819735 
L 228.58569 199.515655 
L 229.384195 203.363257 
L 230.981206 249.163557 
L 231.779712 256.277336 
L 232.578217 242.878041 
L 233.376722 255.233839 
L 234.175228 250.547651 
L 234.973733 243.665002 
L 235.772239 245.820928 
L 236.570744 260.989313 
L 237.36925 264.162387 
L 238.167755 236.058833 
L 238.966261 234.224973 
L 239.764766 251.070018 
L 240.563271 246.110121 
L 241.361777 246.695176 
L 242.160282 267.086567 
L 243.757293 241.5569 
L 244.555799 235.131276 
L 245.354304 243.839635 
L 246.15281 232.569379 
L 246.951315 234.547309 
L 247.749821 254.256533 
L 248.548326 255.880933 
L 249.346831 228.397328 
L 250.145337 212.313649 
L 250.943842 187.86587 
L 251.742348 188.37235 
L 252.540853 211.143956 
L 253.339359 237.339648 
L 254.137864 242.793334 
L 254.93637 217.573674 
L 255.734875 228.481783 
L 256.53338 221.516902 
L 257.331886 206.175154 
L 258.130391 196.220479 
L 258.928897 232.789509 
L 259.727402 241.833343 
L 260.525908 234.101029 
L 261.324413 244.503608 
L 262.122919 239.43205 
L 262.921424 232.905167 
L 263.71993 236.782081 
L 264.518435 249.741953 
L 265.31694 246.9111 
L 266.913951 204.641 
L 267.712457 166.663143 
L 268.510962 141.842043 
L 269.309468 155.371709 
L 270.906479 176.856122 
L 271.704984 172.469984 
L 272.503489 153.483077 
L 273.301995 164.866982 
L 274.1005 180.114148 
L 274.899006 191.238331 
L 275.697511 214.642836 
L 276.496017 222.762152 
L 277.294522 197.960784 
L 278.093028 159.025208 
L 278.891533 165.167752 
L 279.690039 169.684966 
L 280.488544 176.437462 
L 281.287049 195.076866 
L 282.085555 206.908501 
L 282.88406 180.006888 
L 283.682566 183.513786 
L 284.481071 195.250284 
L 285.279577 183.639912 
L 286.078082 201.536705 
L 286.876588 215.749726 
L 287.675093 217.695449 
L 288.473599 185.092704 
L 289.272104 195.127124 
L 290.070609 195.003945 
L 290.869115 199.834659 
L 291.66762 210.53682 
L 292.466126 216.736981 
L 293.264631 217.407232 
L 294.063137 201.28907 
L 294.861642 196.744576 
L 295.660148 186.903953 
L 296.458653 213.50316 
L 297.257158 214.030496 
L 298.055664 203.658584 
L 298.854169 220.167252 
L 299.652675 215.695451 
L 301.249686 235.988612 
L 302.048191 234.885389 
L 302.846697 241.481099 
L 304.443708 256.648694 
L 305.242213 235.443262 
L 306.040718 237.941386 
L 306.839224 233.571847 
L 307.637729 239.301138 
L 308.436235 238.076383 
L 309.23474 255.188783 
L 310.033246 261.998971 
L 310.831751 253.903408 
L 312.428762 241.723636 
L 313.227267 238.264159 
L 314.025773 247.493111 
L 314.824278 247.490243 
L 315.622784 259.152302 
L 317.219795 225.815759 
L 318.0183 201.563956 
L 319.615311 227.077447 
L 320.413817 242.907469 
L 321.212322 229.359376 
L 322.809333 208.013955 
L 323.607838 190.105705 
L 324.406344 193.882721 
L 325.204849 187.711469 
L 326.003355 213.838268 
L 326.80186 188.809435 
L 327.600366 124.488509 
L 328.398871 156.481479 
L 329.197376 162.036997 
L 329.995882 168.775666 
L 330.794387 163.445327 
L 331.592893 196.663729 
L 332.391398 202.49758 
L 333.189904 195.441401 
L 333.988409 208.192824 
L 334.786915 210.56296 
L 335.58542 203.856188 
L 336.383926 164.416309 
L 337.182431 178.005042 
L 337.980936 206.267146 
L 338.779442 191.457898 
L 339.577947 201.903794 
L 341.174958 186.130184 
L 341.973464 191.409365 
L 342.771969 210.902477 
L 343.570475 220.955989 
L 344.36898 208.47749 
L 345.167485 187.387127 
L 345.965991 197.234803 
L 346.764496 212.546026 
L 347.563002 218.945658 
L 348.361507 241.980105 
L 349.160013 248.097627 
L 349.958518 214.223894 
L 350.757024 232.203221 
L 351.555529 236.020503 
L 352.354035 237.262301 
L 353.951045 256.037081 
L 354.749551 261.450649 
L 355.548056 260.492681 
L 356.346562 255.295668 
L 357.145067 244.961526 
L 357.943573 246.473517 
L 358.742078 227.704681 
L 359.540584 253.328818 
L 360.339089 256.836549 
L 361.137595 232.837366 
L 361.9361 236.100854 
L 362.734605 243.815891 
L 363.533111 243.507615 
L 364.331616 261.7983 
L 365.130122 271.008178 
L 365.928627 273.281828 
L 366.727133 258.598669 
L 367.525638 258.027785 
L 369.122649 267.43284 
L 369.921154 270.140033 
L 370.71966 277.889585 
L 371.518165 279.245218 
L 372.316671 275.755094 
L 373.115176 276.743513 
L 373.913682 274.848548 
L 374.712187 279.589664 
L 375.510693 282.154542 
L 376.309198 287.525884 
L 377.107704 283.797461 
L 377.906209 281.484525 
L 380.301725 269.667141 
L 381.100231 260.702813 
L 381.898736 281.986835 
L 382.697242 285.745472 
L 383.495747 277.551513 
L 384.294253 271.127822 
L 385.092758 275.472583 
L 385.891263 267.547841 
L 386.689769 270.655358 
L 387.488274 280.234549 
L 388.28678 281.653893 
L 389.085285 266.654473 
L 389.883791 268.275744 
L 390.682296 268.162555 
L 391.480802 265.720246 
L 392.279307 254.349417 
L 393.077813 261.581279 
L 393.876318 265.157704 
L 394.674823 253.338022 
L 395.473329 250.256041 
L 396.271834 258.174867 
L 397.07034 259.270397 
L 397.868845 260.821866 
L 398.667351 276.619349 
L 399.465856 278.572313 
L 400.264362 269.539355 
L 401.062867 267.252454 
L 401.861372 265.94158 
L 402.659878 267.494539 
L 403.458383 274.343365 
L 404.256889 282.478534 
L 405.055394 285.326598 
L 405.8539 277.611551 
L 406.652405 272.566162 
L 408.249416 255.717232 
L 409.047922 264.790096 
L 409.846427 279.025826 
L 410.644932 280.72732 
L 411.443438 263.413271 
L 412.241943 267.912407 
L 413.040449 267.713864 
L 413.838954 265.954538 
L 414.63746 267.544124 
L 415.435965 267.440363 
L 416.234471 249.217784 
L 417.032976 250.969355 
L 417.831481 255.145815 
L 418.629987 265.357666 
L 419.428492 260.926374 
L 420.226998 271.333176 
L 421.025503 279.508948 
L 421.824009 284.611645 
L 422.622514 266.143401 
L 423.42102 260.532171 
L 424.219525 206.974485 
L 425.018031 164.200348 
L 425.816536 241.871538 
L 426.615041 276.040353 
L 427.413547 286.602809 
L 428.212052 287.047025 
L 429.010558 281.087149 
L 429.809063 284.306673 
L 430.607569 285.000581 
L 431.406074 283.646204 
L 432.20458 289.809954 
L 433.003085 288.800939 
L 433.80159 285.042423 
L 434.600096 284.558831 
L 435.398601 280.892843 
L 436.197107 267.813956 
L 436.995612 271.354674 
L 437.794118 290.082724 
L 438.592623 290.281073 
L 440.189634 267.570951 
L 440.98814 262.084058 
L 441.786645 255.003698 
L 442.58515 255.389264 
L 443.383656 263.660472 
L 444.182161 267.188202 
L 444.980667 264.5146 
L 445.779172 263.645297 
L 446.577678 248.038852 
L 447.376183 252.836589 
L 448.174689 262.462963 
L 448.973194 278.169991 
L 449.7717 279.728141 
L 450.570205 240.727542 
L 451.36871 265.041318 
L 452.167216 256.870883 
L 452.965721 272.172113 
L 453.764227 276.628643 
L 454.562732 277.071968 
L 455.361238 286.086428 
L 456.159743 285.151813 
L 456.958249 276.885895 
L 457.756754 278.079065 
L 458.555259 272.8157 
L 459.353765 274.874079 
L 460.15227 278.044781 
L 460.950776 277.887333 
L 461.749281 271.532281 
L 462.547787 271.132391 
L 463.346292 268.520669 
L 464.144798 266.962812 
L 464.943303 284.832079 
L 465.741809 294.336583 
L 466.540314 292.539015 
L 468.137325 284.061845 
L 468.93583 282.527555 
L 469.734336 279.780151 
L 470.532841 284.958238 
L 471.331347 293.061246 
L 472.129852 293.177017 
L 472.928358 286.046602 
L 473.726863 288.26174 
L 474.525368 285.708077 
L 475.323874 285.035426 
L 476.122379 284.117976 
L 476.920885 292.903901 
L 477.71939 292.229086 
L 478.517896 284.483596 
L 479.316401 283.344598 
L 480.114907 286.10628 
L 480.913412 292.419693 
L 481.711918 294.399753 
L 482.510423 297.357195 
L 483.308928 298.304148 
L 484.107434 292.781285 
L 484.905939 286.3494 
L 485.704445 294.073177 
L 486.50295 290.585896 
L 487.301456 294.392981 
L 488.099961 299.556919 
L 488.898467 299.784622 
L 489.696972 294.153774 
L 490.495477 296.00645 
L 491.293983 296.061242 
L 492.092488 293.869996 
L 492.890994 295.182482 
L 493.689499 299.146449 
L 494.488005 299.530102 
L 495.28651 293.729473 
L 496.085016 292.341086 
L 496.883521 287.428637 
L 497.682027 287.330366 
L 499.279037 297.701985 
L 500.077543 297.835168 
L 500.876048 291.26141 
L 501.674554 296.220278 
L 502.473059 296.61334 
L 503.271565 296.865493 
L 504.07007 292.181124 
L 504.868576 298.37888 
L 505.667081 300.66389 
L 506.465586 295.199972 
L 507.264092 295.776981 
L 508.062597 296.567697 
L 508.861103 296.54347 
L 509.659608 296.27147 
L 510.458114 299.39862 
L 511.256619 299.862948 
L 512.055125 293.978393 
L 512.85363 291.240532 
L 513.652136 288.904365 
L 514.450641 290.331482 
L 516.047652 299.957919 
L 516.846157 299.125254 
L 517.644663 297.720419 
L 518.443168 294.427 
L 519.241674 290.426229 
L 520.040179 289.500622 
L 520.838685 288.867458 
L 521.63719 297.517124 
L 522.435696 298.621748 
L 523.234201 293.711273 
L 524.831212 295.41317 
L 525.629717 295.246715 
L 526.428223 299.017824 
L 527.226728 301.560288 
L 528.025234 301.221076 
L 528.823739 298.717235 
L 529.622245 298.02267 
L 530.42075 297.831342 
L 531.219255 298.215035 
L 532.017761 299.537273 
L 532.816266 301.449076 
L 533.614772 300.493856 
L 534.413277 298.493575 
L 535.211783 293.940425 
L 536.010288 294.639225 
L 536.808794 295.670296 
L 537.607299 294.313196 
L 538.405805 299.272289 
L 539.20431 301.618125 
L 540.002815 294.670548 
L 540.801321 294.957292 
L 541.599826 296.797882 
L 542.398332 297.315434 
L 543.196837 299.394269 
L 543.995343 298.594921 
L 544.793848 282.284248 
L 545.592354 276.020235 
L 547.189364 290.024446 
L 547.98787 290.066584 
L 548.786375 291.920717 
L 549.584881 292.222963 
L 550.383386 294.143848 
L 551.181892 288.876886 
L 551.980397 287.487648 
L 552.778903 284.997955 
L 553.577408 283.71442 
L 554.375914 283.468336 
L 555.174419 290.718567 
L 555.972924 295.086976 
L 556.77143 293.180787 
L 557.569935 291.976604 
L 558.368441 292.35248 
L 559.166946 293.151517 
L 559.965452 293.694701 
L 560.763957 296.658776 
L 561.562463 299.053462 
L 562.360968 290.286255 
L 563.159473 295.314087 
L 563.957979 294.27776 
L 564.756484 289.681044 
L 565.55499 291.472357 
L 566.353495 295.225526 
L 567.152001 295.839271 
L 567.950506 291.74655 
L 568.749012 285.984139 
L 569.547517 273.430168 
L 571.144528 289.599585 
L 571.943033 293.288101 
L 572.741539 292.83154 
L 573.540044 290.019993 
L 575.137055 291.930806 
L 575.935561 292.854719 
L 576.734066 294.56966 
L 577.532572 295.391387 
L 579.129582 295.560002 
L 579.928088 294.441343 
L 580.726593 294.696434 
L 582.323604 296.296597 
L 583.920615 296.984915 
L 584.719121 294.884275 
L 585.517626 296.04309 
L 586.316132 295.352998 
L 587.114637 295.266699 
L 587.913142 295.312207 
L 588.711648 295.66231 
L 589.510153 295.736026 
L 591.107164 293.694634 
L 591.90567 292.987654 
L 592.704175 293.283515 
L 593.502681 284.821976 
L 594.301186 292.647632 
L 595.099692 293.203634 
L 595.898197 290.774561 
L 596.696702 291.431385 
L 597.495208 292.82931 
L 598.293713 291.68087 
L 599.092219 291.09347 
L 599.890724 293.938225 
L 600.68923 294.031706 
L 601.487735 293.383454 
L 602.286241 293.035256 
L 603.084746 293.774791 
L 603.883251 293.118752 
L 604.681757 294.750001 
L 605.480262 295.952204 
L 606.278768 296.382631 
L 607.077273 295.965522 
L 607.875779 293.216212 
L 610.271295 291.560906 
L 611.069801 291.953084 
L 611.868306 293.409348 
L 612.666811 292.146079 
L 613.465317 289.879824 
L 614.263822 289.738971 
L 615.062328 287.396496 
L 615.860833 289.193333 
L 616.659339 292.514561 
L 617.457844 288.812353 
L 618.25635 287.832018 
L 619.054855 287.661743 
L 619.85336 287.613454 
L 620.651866 288.084926 
L 621.450371 286.418356 
L 622.248877 287.914565 
L 623.047382 290.573896 
L 623.845888 288.245426 
L 624.644393 286.271141 
L 625.442899 287.303392 
L 626.241404 289.688672 
L 627.03991 288.68742 
L 627.838415 291.367167 
L 628.63692 292.402441 
L 629.435426 291.292745 
L 630.233931 288.969286 
L 631.032437 289.39362 
L 631.830942 289.38913 
L 632.629448 290.498967 
L 633.427953 292.940244 
L 634.226459 290.298763 
L 635.024964 290.375747 
L 635.823469 287.155074 
L 636.621975 288.381403 
L 637.42048 282.396651 
L 638.218986 281.155691 
L 639.017491 286.117897 
L 639.815997 289.290033 
L 640.614502 286.738292 
L 641.413008 279.795475 
L 642.211513 277.411739 
L 643.010019 278.111807 
L 643.808524 285.178873 
L 644.607029 290.830812 
L 645.405535 291.636936 
L 646.20404 285.291661 
L 647.002546 285.799521 
L 647.801051 273.330379 
L 648.599557 272.490936 
L 649.398062 279.905869 
L 650.196568 284.178631 
L 650.995073 285.671623 
L 651.793578 281.170601 
L 653.390589 277.591434 
L 654.189095 274.992838 
L 654.9876 280.519595 
L 655.786106 287.472352 
L 656.584611 287.965579 
L 657.383117 286.782933 
L 658.181622 285.99228 
L 658.181622 285.99228 
" clip-path="url(#pe789e73b15)" style="fill: none; stroke: #1f77b4; stroke-width: 1.5; stroke-linecap: square"/>
   </g>
   <g id="line2d_34">
    <path d="M 127.974003 314.918125 
L 127.974003 22.318125 
" clip-path="url(#pe789e73b15)" style="fill: none; stroke-dasharray: 3.7,1.6; stroke-dashoffset: 0; stroke: #1f77b4"/>
   </g>
   <g id="line2d_35">
    <path d="M 570.346023 314.918125 
L 570.346023 22.318125 
" clip-path="url(#pe789e73b15)" style="fill: none; stroke-dasharray: 3.7,1.6; stroke-dashoffset: 0; stroke: #d62728"/>
   </g>
   <g id="patch_3">
    <path d="M 46.965625 314.918125 
L 46.965625 22.318125 
" style="fill: none; stroke: #000000; stroke-width: 0.8; stroke-linejoin: miter; stroke-linecap: square"/>
   </g>
   <g id="patch_4">
    <path d="M 687.287146 314.918125 
L 687.287146 22.318125 
" style="fill: none; stroke: #000000; stroke-width: 0.8; stroke-linejoin: miter; stroke-linecap: square"/>
   </g>
   <g id="patch_5">
    <path d="M 46.965625 314.918125 
L 687.287146 314.918125 
" style="fill: none; stroke: #000000; stroke-width: 0.8; stroke-linejoin: miter; stroke-linecap: square"/>
   </g>
   <g id="patch_6">
    <path d="M 46.965625 22.318125 
L 687.287146 22.318125 
" style="fill: none; stroke: #000000; stroke-width: 0.8; stroke-linejoin: miter; stroke-linecap: square"/>
   </g>
   <g id="text_19">
    <!-- ETH median effective gas price (gwei) — daily mean -->
    <g transform="translate(209.554198 16.318125) scale(0.12 -0.12)">
     <defs>
      <path id="DejaVuSans-45" d="M 628 4666 
L 3578 4666 
L 3578 4134 
L 1259 4134 
L 1259 2753 
L 3481 2753 
L 3481 2222 
L 1259 2222 
L 1259 531 
L 3634 531 
L 3634 0 
L 628 0 
L 628 4666 
z
" transform="scale(0.015625)"/>
      <path id="DejaVuSans-54" d="M -19 4666 
L 3928 4666 
L 3928 4134 
L 2272 4134 
L 2272 0 
L 1638 0 
L 1638 4134 
L -19 4134 
L -19 4666 
z
" transform="scale(0.015625)"/>
      <path id="DejaVuSans-48" d="M 628 4666 
L 1259 4666 
L 1259 2753 
L 3553 2753 
L 3553 4666 
L 4184 4666 
L 4184 0 
L 3553 0 
L 3553 2222 
L 1259 2222 
L 1259 0 
L 628 0 
L 628 4666 
z
" transform="scale(0.015625)"/>
      <path id="DejaVuSans-20" transform="scale(0.015625)"/>
      <path id="DejaVuSans-6d" d="M 3328 2828 
Q 3544 3216 3844 3400 
Q 4144 3584 4550 3584 
Q 5097 3584 5394 3201 
Q 5691 2819 5691 2113 
L 5691 0 
L 5113 0 
L 5113 2094 
Q 5113 2597 4934 2840 
Q 4756 3084 4391 3084 
Q 3944 3084 3684 2787 
Q 3425 2491 3425 1978 
L 3425 0 
L 2847 0 
L 2847 2094 
Q 2847 2600 2669 2842 
Q 2491 3084 2119 3084 
Q 1678 3084 1418 2786 
Q 1159 2488 1159 1978 
L 1159 0 
L 581 0 
L 581 3500 
L 1159 3500 
L 1159 2956 
Q 1356 3278 1631 3431 
Q 1906 3584 2284 3584 
Q 2666 3584 2933 3390 
Q 3200 3197 3328 2828 
z
" transform="scale(0.015625)"/>
      <path id="DejaVuSans-6e" d="M 3513 2113 
L 3513 0 
L 2938 0 
L 2938 2094 
Q 2938 2591 2744 2837 
Q 2550 3084 2163 3084 
Q 1697 3084 1428 2787 
Q 1159 2491 1159 1978 
L 1159 0 
L 581 0 
L 581 3500 
L 1159 3500 
L 1159 2956 
Q 1366 3272 1645 3428 
Q 1925 3584 2291 3584 
Q 2894 3584 3203 3211 
Q 3513 2838 3513 2113 
z
" transform="scale(0.015625)"/>
      <path id="DejaVuSans-66" d="M 2375 4863 
L 2375 4384 
L 1825 4384 
Q 1516 4384 1395 4259 
Q 1275 4134 1275 3809 
L 1275 3500 
L 2222 3500 
L 2222 3053 
L 1275 3053 
L 1275 0 
L 697 0 
L 697 3053 
L 147 3053 
L 147 3500 
L 697 3500 
L 697 3744 
Q 697 4328 969 4595 
Q 1241 4863 1831 4863 
L 2375 4863 
z
" transform="scale(0.015625)"/>
      <path id="DejaVuSans-63" d="M 3122 3366 
L 3122 2828 
Q 2878 2963 2633 3030 
Q 2388 3097 2138 3097 
Q 1578 3097 1268 2742 
Q 959 2388 959 1747 
Q 959 1106 1268 751 
Q 1578 397 2138 397 
Q 2388 397 2633 464 
Q 2878 531 3122 666 
L 3122 134 
Q 2881 22 2623 -34 
Q 2366 -91 2075 -91 
Q 1284 -91 818 406 
Q 353 903 353 1747 
Q 353 2603 823 3093 
Q 1294 3584 2113 3584 
Q 2378 3584 2631 3529 
Q 2884 3475 3122 3366 
z
" transform="scale(0.015625)"/>
      <path id="DejaVuSans-76" d="M 191 3500 
L 800 3500 
L 1894 563 
L 2988 3500 
L 3597 3500 
L 2284 0 
L 1503 0 
L 191 3500 
z
" transform="scale(0.015625)"/>
      <path id="DejaVuSans-73" d="M 2834 3397 
L 2834 2853 
Q 2591 2978 2328 3040 
Q 2066 3103 1784 3103 
Q 1356 3103 1142 2972 
Q 928 2841 928 2578 
Q 928 2378 1081 2264 
Q 1234 2150 1697 2047 
L 1894 2003 
Q 2506 1872 2764 1633 
Q 3022 1394 3022 966 
Q 3022 478 2636 193 
Q 2250 -91 1575 -91 
Q 1294 -91 989 -36 
Q 684 19 347 128 
L 347 722 
Q 666 556 975 473 
Q 1284 391 1588 391 
Q 1994 391 2212 530 
Q 2431 669 2431 922 
Q 2431 1156 2273 1281 
Q 2116 1406 1581 1522 
L 1381 1569 
Q 847 1681 609 1914 
Q 372 2147 372 2553 
Q 372 3047 722 3315 
Q 1072 3584 1716 3584 
Q 2034 3584 2315 3537 
Q 2597 3491 2834 3397 
z
" transform="scale(0.015625)"/>
      <path id="DejaVuSans-70" d="M 1159 525 
L 1159 -1331 
L 581 -1331 
L 581 3500 
L 1159 3500 
L 1159 2969 
Q 1341 3281 1617 3432 
Q 1894 3584 2278 3584 
Q 2916 3584 3314 3078 
Q 3713 2572 3713 1747 
Q 3713 922 3314 415 
Q 2916 -91 2278 -91 
Q 1894 -91 1617 61 
Q 1341 213 1159 525 
z
M 3116 1747 
Q 3116 2381 2855 2742 
Q 2594 3103 2138 3103 
Q 1681 3103 1420 2742 
Q 1159 2381 1159 1747 
Q 1159 1113 1420 752 
Q 1681 391 2138 391 
Q 2594 391 2855 752 
Q 3116 1113 3116 1747 
z
" transform="scale(0.015625)"/>
      <path id="DejaVuSans-72" d="M 2631 2963 
Q 2534 3019 2420 3045 
Q 2306 3072 2169 3072 
Q 1681 3072 1420 2755 
Q 1159 2438 1159 1844 
L 1159 0 
L 581 0 
L 581 3500 
L 1159 3500 
L 1159 2956 
Q 1341 3275 1631 3429 
Q 1922 3584 2338 3584 
Q 2397 3584 2469 3576 
Q 2541 3569 2628 3553 
L 2631 2963 
z
" transform="scale(0.015625)"/>
      <path id="DejaVuSans-28" d="M 1984 4856 
Q 1566 4138 1362 3434 
Q 1159 2731 1159 2009 
Q 1159 1288 1364 580 
Q 1569 -128 1984 -844 
L 1484 -844 
Q 1016 -109 783 600 
Q 550 1309 550 2009 
Q 550 2706 781 3412 
Q 1013 4119 1484 4856 
L 1984 4856 
z
" transform="scale(0.015625)"/>
      <path id="DejaVuSans-29" d="M 513 4856 
L 1013 4856 
Q 1481 4119 1714 3412 
Q 1947 2706 1947 2009 
Q 1947 1309 1714 600 
Q 1481 -109 1013 -844 
L 513 -844 
Q 928 -128 1133 580 
Q 1338 1288 1338 2009 
Q 1338 2731 1133 3434 
Q 928 4138 513 4856 
z
" transform="scale(0.015625)"/>
      <path id="DejaVuSans-2014" d="M 313 1978 
L 6088 1978 
L 6088 1528 
L 313 1528 
L 313 1978 
z
" transform="scale(0.015625)"/>
      <path id="DejaVuSans-6c" d="M 603 4863 
L 1178 4863 
L 1178 0 
L 603 0 
L 603 4863 
z
" transform="scale(0.015625)"/>
      <path id="DejaVuSans-79" d="M 2059 -325 
Q 1816 -950 1584 -1140 
Q 1353 -1331 966 -1331 
L 506 -1331 
L 506 -850 
L 844 -850 
Q 1081 -850 1212 -737 
Q 1344 -625 1503 -206 
L 1606 56 
L 191 3500 
L 800 3500 
L 1894 763 
L 2988 3500 
L 3597 3500 
L 2059 -325 
z
" transform="scale(0.015625)"/>
     </defs>
     <use xlink:href="#DejaVuSans-45"/>
     <use xlink:href="#DejaVuSans-54" transform="translate(63.183594 0)"/>
     <use xlink:href="#DejaVuSans-48" transform="translate(124.267578 0)"/>
     <use xlink:href="#DejaVuSans-20" transform="translate(199.462891 0)"/>
     <use xlink:href="#DejaVuSans-6d" transform="translate(231.25 0)"/>
     <use xlink:href="#DejaVuSans-65" transform="translate(328.662109 0)"/>
     <use xlink:href="#DejaVuSans-64" transform="translate(390.185547 0)"/>
     <use xlink:href="#DejaVuSans-69" transform="translate(453.662109 0)"/>
     <use xlink:href="#DejaVuSans-61" transform="translate(481.445312 0)"/>
     <use xlink:href="#DejaVuSans-6e" transform="translate(542.724609 0)"/>
     <use xlink:href="#DejaVuSans-20" transform="translate(606.103516 0)"/>
     <use xlink:href="#DejaVuSans-65" transform="translate(637.890625 0)"/>
     <use xlink:href="#DejaVuSans-66" transform="translate(699.414062 0)"/>
     <use xlink:href="#DejaVuSans-66" transform="translate(734.619141 0)"/>
     <use xlink:href="#DejaVuSans-65" transform="translate(769.824219 0)"/>
     <use xlink:href="#DejaVuSans-63" transform="translate(831.347656 0)"/>
     <use xlink:href="#DejaVuSans-74" transform="translate(886.328125 0)"/>
     <use xlink:href="#DejaVuSans-69" transform="translate(925.537109 0)"/>
     <use xlink:href="#DejaVuSans-76" transform="translate(953.320312 0)"/>
     <use xlink:href="#DejaVuSans-65" transform="translate(1012.5 0)"/>
     <use xlink:href="#DejaVuSans-20" transform="translate(1074.023438 0)"/>
     <use xlink:href="#DejaVuSans-67" transform="translate(1105.810547 0)"/>
     <use xlink:href="#DejaVuSans-61" transform="translate(1169.287109 0)"/>
     <use xlink:href="#DejaVuSans-73" transform="translate(1230.566406 0)"/>
     <use xlink:href="#DejaVuSans-20" transform="translate(1282.666016 0)"/>
     <use xlink:href="#DejaVuSans-70" transform="translate(1314.453125 0)"/>
     <use xlink:href="#DejaVuSans-72" transform="translate(1377.929688 0)"/>
     <use xlink:href="#DejaVuSans-69" transform="translate(1419.042969 0)"/>
     <use xlink:href="#DejaVuSans-63" transform="translate(1446.826172 0)"/>
     <use xlink:href="#DejaVuSans-65" transform="translate(1501.806641 0)"/>
     <use xlink:href="#DejaVuSans-20" transform="translate(1563.330078 0)"/>
     <use xlink:href="#DejaVuSans-28" transform="translate(1595.117188 0)"/>
     <use xlink:href="#DejaVuSans-67" transform="translate(1634.130859 0)"/>
     <use xlink:href="#DejaVuSans-77" transform="translate(1697.607422 0)"/>
     <use xlink:href="#DejaVuSans-65" transform="translate(1779.394531 0)"/>
     <use xlink:href="#DejaVuSans-69" transform="translate(1840.917969 0)"/>
     <use xlink:href="#DejaVuSans-29" transform="translate(1868.701172 0)"/>
     <use xlink:href="#DejaVuSans-20" transform="translate(1907.714844 0)"/>
     <use xlink:href="#DejaVuSans-2014" transform="translate(1939.501953 0)"/>
     <use xlink:href="#DejaVuSans-20" transform="translate(2039.501953 0)"/>
     <use xlink:href="#DejaVuSans-64" transform="translate(2071.289062 0)"/>
     <use xlink:href="#DejaVuSans-61" transform="translate(2134.765625 0)"/>
     <use xlink:href="#DejaVuSans-69" transform="translate(2196.044922 0)"/>
     <use xlink:href="#DejaVuSans-6c" transform="translate(2223.828125 0)"/>
     <use xlink:href="#DejaVuSans-79" transform="translate(2251.611328 0)"/>
     <use xlink:href="#DejaVuSans-20" transform="translate(2310.791016 0)"/>
     <use xlink:href="#DejaVuSans-6d" transform="translate(2342.578125 0)"/>
     <use xlink:href="#DejaVuSans-65" transform="translate(2439.990234 0)"/>
     <use xlink:href="#DejaVuSans-61" transform="translate(2501.513672 0)"/>
     <use xlink:href="#DejaVuSans-6e" transform="translate(2562.792969 0)"/>
    </g>
   </g>
   <g id="legend_1">
    <g id="line2d_36">
     <path d="M 55.965625 35.416562 
L 65.965625 35.416562 
L 75.965625 35.416562 
" style="fill: none; stroke: #1f77b4; stroke-width: 1.5; stroke-linecap: square"/>
    </g>
    <g id="text_20">
     <!-- ETH median effective gas -->
     <g transform="translate(83.965625 38.916562) scale(0.1 -0.1)">
      <use xlink:href="#DejaVuSans-45"/>
      <use xlink:href="#DejaVuSans-54" transform="translate(63.183594 0)"/>
      <use xlink:href="#DejaVuSans-48" transform="translate(124.267578 0)"/>
      <use xlink:href="#DejaVuSans-20" transform="translate(199.462891 0)"/>
      <use xlink:href="#DejaVuSans-6d" transform="translate(231.25 0)"/>
      <use xlink:href="#DejaVuSans-65" transform="translate(328.662109 0)"/>
      <use xlink:href="#DejaVuSans-64" transform="translate(390.185547 0)"/>
      <use xlink:href="#DejaVuSans-69" transform="translate(453.662109 0)"/>
      <use xlink:href="#DejaVuSans-61" transform="translate(481.445312 0)"/>
      <use xlink:href="#DejaVuSans-6e" transform="translate(542.724609 0)"/>
      <use xlink:href="#DejaVuSans-20" transform="translate(606.103516 0)"/>
      <use xlink:href="#DejaVuSans-65" transform="translate(637.890625 0)"/>
      <use xlink:href="#DejaVuSans-66" transform="translate(699.414062 0)"/>
      <use xlink:href="#DejaVuSans-66" transform="translate(734.619141 0)"/>
      <use xlink:href="#DejaVuSans-65" transform="translate(769.824219 0)"/>
      <use xlink:href="#DejaVuSans-63" transform="translate(831.347656 0)"/>
      <use xlink:href="#DejaVuSans-74" transform="translate(886.328125 0)"/>
      <use xlink:href="#DejaVuSans-69" transform="translate(925.537109 0)"/>
      <use xlink:href="#DejaVuSans-76" transform="translate(953.320312 0)"/>
      <use xlink:href="#DejaVuSans-65" transform="translate(1012.5 0)"/>
      <use xlink:href="#DejaVuSans-20" transform="translate(1074.023438 0)"/>
      <use xlink:href="#DejaVuSans-67" transform="translate(1105.810547 0)"/>
      <use xlink:href="#DejaVuSans-61" transform="translate(1169.287109 0)"/>
      <use xlink:href="#DejaVuSans-73" transform="translate(1230.566406 0)"/>
     </g>
    </g>
    <g id="line2d_37">
     <path d="M 55.965625 50.094687 
L 65.965625 50.094687 
L 75.965625 50.094687 
" style="fill: none; stroke-dasharray: 3.7,1.6; stroke-dashoffset: 0; stroke: #1f77b4"/>
    </g>
    <g id="text_21">
     <!-- Uniswap v3 launch (2021-05-05) -->
     <g transform="translate(83.965625 53.594687) scale(0.1 -0.1)">
      <defs>
       <path id="DejaVuSans-55" d="M 556 4666 
L 1191 4666 
L 1191 1831 
Q 1191 1081 1462 751 
Q 1734 422 2344 422 
Q 2950 422 3222 751 
Q 3494 1081 3494 1831 
L 3494 4666 
L 4128 4666 
L 4128 1753 
Q 4128 841 3676 375 
Q 3225 -91 2344 -91 
Q 1459 -91 1007 375 
Q 556 841 556 1753 
L 556 4666 
z
" transform="scale(0.015625)"/>
       <path id="DejaVuSans-75" d="M 544 1381 
L 544 3500 
L 1119 3500 
L 1119 1403 
Q 1119 906 1312 657 
Q 1506 409 1894 409 
Q 2359 409 2629 706 
Q 2900 1003 2900 1516 
L 2900 3500 
L 3475 3500 
L 3475 0 
L 2900 0 
L 2900 538 
Q 2691 219 2414 64 
Q 2138 -91 1772 -91 
Q 1169 -91 856 284 
Q 544 659 544 1381 
z
M 1991 3584 
L 1991 3584 
z
" transform="scale(0.015625)"/>
       <path id="DejaVuSans-68" d="M 3513 2113 
L 3513 0 
L 2938 0 
L 2938 2094 
Q 2938 2591 2744 2837 
Q 2550 3084 2163 3084 
Q 1697 3084 1428 2787 
Q 1159 2491 1159 1978 
L 1159 0 
L 581 0 
L 581 4863 
L 1159 4863 
L 1159 2956 
Q 1366 3272 1645 3428 
Q 1925 3584 2291 3584 
Q 2894 3584 3203 3211 
Q 3513 2838 3513 2113 
z
" transform="scale(0.015625)"/>
      </defs>
      <use xlink:href="#DejaVuSans-55"/>
      <use xlink:href="#DejaVuSans-6e" transform="translate(73.193359 0)"/>
      <use xlink:href="#DejaVuSans-69" transform="translate(136.572266 0)"/>
      <use xlink:href="#DejaVuSans-73" transform="translate(164.355469 0)"/>
      <use xlink:href="#DejaVuSans-77" transform="translate(216.455078 0)"/>
      <use xlink:href="#DejaVuSans-61" transform="translate(298.242188 0)"/>
      <use xlink:href="#DejaVuSans-70" transform="translate(359.521484 0)"/>
      <use xlink:href="#DejaVuSans-20" transform="translate(422.998047 0)"/>
      <use xlink:href="#DejaVuSans-76" transform="translate(454.785156 0)"/>
      <use xlink:href="#DejaVuSans-33" transform="translate(513.964844 0)"/>
      <use xlink:href="#DejaVuSans-20" transform="translate(577.587891 0)"/>
      <use xlink:href="#DejaVuSans-6c" transform="translate(609.375 0)"/>
      <use xlink:href="#DejaVuSans-61" transform="translate(637.158203 0)"/>
      <use xlink:href="#DejaVuSans-75" transform="translate(698.4375 0)"/>
      <use xlink:href="#DejaVuSans-6e" transform="translate(761.816406 0)"/>
      <use xlink:href="#DejaVuSans-63" transform="translate(825.195312 0)"/>
      <use xlink:href="#DejaVuSans-68" transform="translate(880.175781 0)"/>
      <use xlink:href="#DejaVuSans-20" transform="translate(943.554688 0)"/>
      <use xlink:href="#DejaVuSans-28" transform="translate(975.341797 0)"/>
      <use xlink:href="#DejaVuSans-32" transform="translate(1014.355469 0)"/>
      <use xlink:href="#DejaVuSans-30" transform="translate(1077.978516 0)"/>
      <use xlink:href="#DejaVuSans-32" transform="translate(1141.601562 0)"/>
      <use xlink:href="#DejaVuSans-31" transform="translate(1205.224609 0)"/>
      <use xlink:href="#DejaVuSans-2d" transform="translate(1268.847656 0)"/>
      <use xlink:href="#DejaVuSans-30" transform="translate(1304.931641 0)"/>
      <use xlink:href="#DejaVuSans-35" transform="translate(1368.554688 0)"/>
      <use xlink:href="#DejaVuSans-2d" transform="translate(1432.177734 0)"/>
      <use xlink:href="#DejaVuSans-30" transform="translate(1468.261719 0)"/>
      <use xlink:href="#DejaVuSans-35" transform="translate(1531.884766 0)"/>
      <use xlink:href="#DejaVuSans-29" transform="translate(1595.507812 0)"/>
     </g>
    </g>
    <g id="line2d_38">
     <path d="M 55.965625 64.772812 
L 65.965625 64.772812 
L 75.965625 64.772812 
" style="fill: none; stroke-dasharray: 3.7,1.6; stroke-dashoffset: 0; stroke: #d62728"/>
    </g>
    <g id="text_22">
     <!-- FTX collapse (2022-11-10) -->
     <g transform="translate(83.965625 68.272812) scale(0.1 -0.1)">
      <defs>
       <path id="DejaVuSans-46" d="M 628 4666 
L 3309 4666 
L 3309 4134 
L 1259 4134 
L 1259 2759 
L 3109 2759 
L 3109 2228 
L 1259 2228 
L 1259 0 
L 628 0 
L 628 4666 
z
" transform="scale(0.015625)"/>
       <path id="DejaVuSans-58" d="M 403 4666 
L 1081 4666 
L 2241 2931 
L 3406 4666 
L 4084 4666 
L 2584 2425 
L 4184 0 
L 3506 0 
L 2194 1984 
L 872 0 
L 191 0 
L 1856 2491 
L 403 4666 
z
" transform="scale(0.015625)"/>
       <path id="DejaVuSans-6f" d="M 1959 3097 
Q 1497 3097 1228 2736 
Q 959 2375 959 1747 
Q 959 1119 1226 758 
Q 1494 397 1959 397 
Q 2419 397 2687 759 
Q 2956 1122 2956 1747 
Q 2956 2369 2687 2733 
Q 2419 3097 1959 3097 
z
M 1959 3584 
Q 2709 3584 3137 3096 
Q 3566 2609 3566 1747 
Q 3566 888 3137 398 
Q 2709 -91 1959 -91 
Q 1206 -91 779 398 
Q 353 888 353 1747 
Q 353 2609 779 3096 
Q 1206 3584 1959 3584 
z
" transform="scale(0.015625)"/>
      </defs>
      <use xlink:href="#DejaVuSans-46"/>
      <use xlink:href="#DejaVuSans-54" transform="translate(55.769531 0)"/>
      <use xlink:href="#DejaVuSans-58" transform="translate(116.853516 0)"/>
      <use xlink:href="#DejaVuSans-20" transform="translate(185.359375 0)"/>
      <use xlink:href="#DejaVuSans-63" transform="translate(217.146484 0)"/>
      <use xlink:href="#DejaVuSans-6f" transform="translate(272.126953 0)"/>
      <use xlink:href="#DejaVuSans-6c" transform="translate(333.308594 0)"/>
      <use xlink:href="#DejaVuSans-6c" transform="translate(361.091797 0)"/>
      <use xlink:href="#DejaVuSans-61" transform="translate(388.875 0)"/>
      <use xlink:href="#DejaVuSans-70" transform="translate(450.154297 0)"/>
      <use xlink:href="#DejaVuSans-73" transform="translate(513.630859 0)"/>
      <use xlink:href="#DejaVuSans-65" transform="translate(565.730469 0)"/>
      <use xlink:href="#DejaVuSans-20" transform="translate(627.253906 0)"/>
      <use xlink:href="#DejaVuSans-28" transform="translate(659.041016 0)"/>
      <use xlink:href="#DejaVuSans-32" transform="translate(698.054688 0)"/>
      <use xlink:href="#DejaVuSans-30" transform="translate(761.677734 0)"/>
      <use xlink:href="#DejaVuSans-32" transform="translate(825.300781 0)"/>
      <use xlink:href="#DejaVuSans-32" transform="translate(888.923828 0)"/>
      <use xlink:href="#DejaVuSans-2d" transform="translate(952.546875 0)"/>
      <use xlink:href="#DejaVuSans-31" transform="translate(988.630859 0)"/>
      <use xlink:href="#DejaVuSans-31" transform="translate(1052.253906 0)"/>
      <use xlink:href="#DejaVuSans-2d" transform="translate(1115.876953 0)"/>
      <use xlink:href="#DejaVuSans-31" transform="translate(1151.960938 0)"/>
      <use xlink:href="#DejaVuSans-30" transform="translate(1215.583984 0)"/>
      <use xlink:href="#DejaVuSans-29" transform="translate(1279.207031 0)"/>
     </g>
    </g>
   </g>
  </g>
 </g>
 <defs>
  <clipPath id="pe789e73b15">
   <rect x="46.965625" y="22.318125" width="640.321521" height="292.6"/>
  </clipPath>
 </defs>
</svg>
