<?xml version="1.0" encoding="utf-8" standalone="no"?>
<!DOCTYPE svg PUBLIC "-//W3C//DTD SVG 1.1//EN"
  "http://www.w3.org/Graphics/SVG/1.1/DTD/svg11.dtd">
<svg xmlns:xlink="http://www.w3.org/1999/xlink" width="711.865418pt" height="352.474375pt" viewBox="0 0 711.865418 352.474375" xmlns="http://www.w3.org/2000/svg" version="1.1">
 <title>04_dex_volume_vs_eth_gas_normalized</title>
 <metadata>
  <rdf:RDF xmlns:dc="http://purl.org/dc/elements/1.1/" xmlns:cc="http://creativecommons.org/ns#" xmlns:rdf="http://www.w3.org/1999/02/22-rdf-syntax-ns#">
   <cc:Work>
    <dc:type rdf:resource="http://purl.org/dc/dcmitype/StillImage"/>
    <dc:title>04_dex_volume_vs_eth_gas_normalized</dc:title>
    <dc:date>2025-09-14T12:22:09.053372</dc:date>
    <dc:format>image/svg+xml</dc:format>
    <dc:creator>
     <cc:Agent>
      <dc:title>Matplotlib v3.10.5, https://matplotlib.org/</dc:title>
     </cc:Agent>
    </dc:creator>
   </cc:Work>
  </rdf:RDF>
 </metadata>
 <defs>
  <style type="text/css">*{stroke-linejoin: round; stroke-linecap: butt}</style>
 </defs>
 <g id="figure_1">
  <g id="patch_1">
   <path d="M 0 352.474375 
L 711.865418 352.474375 
L 711.865418 0 
L 0 0 
z
" style="fill: #ffffff"/>
  </g>
  <g id="axes_1">
   <g id="patch_2">
    <path d="M 42.620313 314.918125 
L 687.351833 314.918125 
L 687.351833 22.318125 
L 42.620313 22.318125 
z
" style="fill: #ffffff"/>
   </g>
   <g id="matplotlib.axis_1">
    <g id="xtick_1">
     <g id="line2d_1">
      <path d="M 96.850442 314.918125 
L 96.850442 22.318125 
" clip-path="url(#pb8b19309c2)" style="fill: none; stroke: #b0b0b0; stroke-width: 0.8; stroke-linecap: square"/>
     </g>
     <g id="line2d_2">
      <defs>
       <path id="m2113157e36" d="M 0 0 
L 0 3.5 
" style="stroke: #000000; stroke-width: 0.8"/>
      </defs>
      <g>
       <use xlink:href="#m2113157e36" x="96.850442" y="314.918125" style="stroke: #000000; stroke-width: 0.8"/>
      </g>
     </g>
     <g id="text_1">
      <!-- 2021-04 -->
      <g transform="translate(75.959036 329.516563) scale(0.1 -0.1)">
       <defs>
        <path id="DejaVuSans-32" d="M 1228 531 
L 3431 531 
L 3431 0 
L 469 0 
L 469 531 
Q 828 903 1448 1529 
Q 2069 2156 2228 2338 
Q 2531 2678 2651 2914 
Q 2772 3150 2772 3378 
Q 2772 3750 2511 3984 
Q 2250 4219 1831 4219 
Q 1534 4219 1204 4116 
Q 875 4013 500 3803 
L 500 4441 
Q 881 4594 1212 4672 
Q 1544 4750 1819 4750 
Q 2544 4750 2975 4387 
Q 3406 4025 3406 3419 
Q 3406 3131 3298 2873 
Q 3191 2616 2906 2266 
Q 2828 2175 2409 1742 
Q 1991 1309 1228 531 
z
" transform="scale(0.015625)"/>
        <path id="DejaVuSans-30" d="M 2034 4250 
Q 1547 4250 1301 3770 
Q 1056 3291 1056 2328 
Q 1056 1369 1301 889 
Q 1547 409 2034 409 
Q 2525 409 2770 889 
Q 3016 1369 3016 2328 
Q 3016 3291 2770 3770 
Q 2525 4250 2034 4250 
z
M 2034 4750 
Q 2819 4750 3233 4129 
Q 3647 3509 3647 2328 
Q 3647 1150 3233 529 
Q 2819 -91 2034 -91 
Q 1250 -91 836 529 
Q 422 1150 422 2328 
Q 422 3509 836 4129 
Q 1250 4750 2034 4750 
z
" transform="scale(0.015625)"/>
        <path id="DejaVuSans-31" d="M 794 531 
L 1825 531 
L 1825 4091 
L 703 3866 
L 703 4441 
L 1819 4666 
L 2450 4666 
L 2450 531 
L 3481 531 
L 3481 0 
L 794 0 
L 794 531 
z
" transform="scale(0.015625)"/>
        <path id="DejaVuSans-2d" d="M 313 2009 
L 1997 2009 
L 1997 1497 
L 313 1497 
L 313 2009 
z
" transform="scale(0.015625)"/>
        <path id="DejaVuSans-34" d="M 2419 4116 
L 825 1625 
L 2419 1625 
L 2419 4116 
z
M 2253 4666 
L 3047 4666 
L 3047 1625 
L 3713 1625 
L 3713 1100 
L 3047 1100 
L 3047 0 
L 2419 0 
L 2419 1100 
L 313 1100 
L 313 1709 
L 2253 4666 
z
" transform="scale(0.015625)"/>
       </defs>
       <use xlink:href="#DejaVuSans-32"/>
       <use xlink:href="#DejaVuSans-30" transform="translate(63.623047 0)"/>
       <use xlink:href="#DejaVuSans-32" transform="translate(127.246094 0)"/>
       <use xlink:href="#DejaVuSans-31" transform="translate(190.869141 0)"/>
       <use xlink:href="#DejaVuSans-2d" transform="translate(254.492188 0)"/>
       <use xlink:href="#DejaVuSans-30" transform="translate(290.576172 0)"/>
       <use xlink:href="#DejaVuSans-34" transform="translate(354.199219 0)"/>
      </g>
     </g>
    </g>
    <g id="xtick_2">
     <g id="line2d_3">
      <path d="M 170.014887 314.918125 
L 170.014887 22.318125 
" clip-path="url(#pb8b19309c2)" style="fill: none; stroke: #b0b0b0; stroke-width: 0.8; stroke-linecap: square"/>
     </g>
     <g id="line2d_4">
      <g>
       <use xlink:href="#m2113157e36" x="170.014887" y="314.918125" style="stroke: #000000; stroke-width: 0.8"/>
      </g>
     </g>
     <g id="text_2">
      <!-- 2021-07 -->
      <g transform="translate(149.123481 329.516563) scale(0.1 -0.1)">
       <defs>
        <path id="DejaVuSans-37" d="M 525 4666 
L 3525 4666 
L 3525 4397 
L 1831 0 
L 1172 0 
L 2766 4134 
L 525 4134 
L 525 4666 
z
" transform="scale(0.015625)"/>
       </defs>
       <use xlink:href="#DejaVuSans-32"/>
       <use xlink:href="#DejaVuSans-30" transform="translate(63.623047 0)"/>
       <use xlink:href="#DejaVuSans-32" transform="translate(127.246094 0)"/>
       <use xlink:href="#DejaVuSans-31" transform="translate(190.869141 0)"/>
       <use xlink:href="#DejaVuSans-2d" transform="translate(254.492188 0)"/>
       <use xlink:href="#DejaVuSans-30" transform="translate(290.576172 0)"/>
       <use xlink:href="#DejaVuSans-37" transform="translate(354.199219 0)"/>
      </g>
     </g>
    </g>
    <g id="xtick_3">
     <g id="line2d_5">
      <path d="M 243.983337 314.918125 
L 243.983337 22.318125 
" clip-path="url(#pb8b19309c2)" style="fill: none; stroke: #b0b0b0; stroke-width: 0.8; stroke-linecap: square"/>
     </g>
     <g id="line2d_6">
      <g>
       <use xlink:href="#m2113157e36" x="243.983337" y="314.918125" style="stroke: #000000; stroke-width: 0.8"/>
      </g>
     </g>
     <g id="text_3">
      <!-- 2021-10 -->
      <g transform="translate(223.091931 329.516563) scale(0.1 -0.1)">
       <use xlink:href="#DejaVuSans-32"/>
       <use xlink:href="#DejaVuSans-30" transform="translate(63.623047 0)"/>
       <use xlink:href="#DejaVuSans-32" transform="translate(127.246094 0)"/>
       <use xlink:href="#DejaVuSans-31" transform="translate(190.869141 0)"/>
       <use xlink:href="#DejaVuSans-2d" transform="translate(254.492188 0)"/>
       <use xlink:href="#DejaVuSans-31" transform="translate(290.576172 0)"/>
       <use xlink:href="#DejaVuSans-30" transform="translate(354.199219 0)"/>
      </g>
     </g>
    </g>
    <g id="xtick_4">
     <g id="line2d_7">
      <path d="M 317.951787 314.918125 
L 317.951787 22.318125 
" clip-path="url(#pb8b19309c2)" style="fill: none; stroke: #b0b0b0; stroke-width: 0.8; stroke-linecap: square"/>
     </g>
     <g id="line2d_8">
      <g>
       <use xlink:href="#m2113157e36" x="317.951787" y="314.918125" style="stroke: #000000; stroke-width: 0.8"/>
      </g>
     </g>
     <g id="text_4">
      <!-- 2022-01 -->
      <g transform="translate(297.060381 329.516563) scale(0.1 -0.1)">
       <use xlink:href="#DejaVuSans-32"/>
       <use xlink:href="#DejaVuSans-30" transform="translate(63.623047 0)"/>
       <use xlink:href="#DejaVuSans-32" transform="translate(127.246094 0)"/>
       <use xlink:href="#DejaVuSans-32" transform="translate(190.869141 0)"/>
       <use xlink:href="#DejaVuSans-2d" transform="translate(254.492188 0)"/>
       <use xlink:href="#DejaVuSans-30" transform="translate(290.576172 0)"/>
       <use xlink:href="#DejaVuSans-31" transform="translate(354.199219 0)"/>
      </g>
     </g>
    </g>
    <g id="xtick_5">
     <g id="line2d_9">
      <path d="M 390.312227 314.918125 
L 390.312227 22.318125 
" clip-path="url(#pb8b19309c2)" style="fill: none; stroke: #b0b0b0; stroke-width: 0.8; stroke-linecap: square"/>
     </g>
     <g id="line2d_10">
      <g>
       <use xlink:href="#m2113157e36" x="390.312227" y="314.918125" style="stroke: #000000; stroke-width: 0.8"/>
      </g>
     </g>
     <g id="text_5">
      <!-- 2022-04 -->
      <g transform="translate(369.420821 329.516563) scale(0.1 -0.1)">
       <use xlink:href="#DejaVuSans-32"/>
       <use xlink:href="#DejaVuSans-30" transform="translate(63.623047 0)"/>
       <use xlink:href="#DejaVuSans-32" transform="translate(127.246094 0)"/>
       <use xlink:href="#DejaVuSans-32" transform="translate(190.869141 0)"/>
       <use xlink:href="#DejaVuSans-2d" transform="translate(254.492188 0)"/>
       <use xlink:href="#DejaVuSans-30" transform="translate(290.576172 0)"/>
       <use xlink:href="#DejaVuSans-34" transform="translate(354.199219 0)"/>
      </g>
     </g>
    </g>
    <g id="xtick_6">
     <g id="line2d_11">
      <path d="M 463.476672 314.918125 
L 463.476672 22.318125 
" clip-path="url(#pb8b19309c2)" style="fill: none; stroke: #b0b0b0; stroke-width: 0.8; stroke-linecap: square"/>
     </g>
     <g id="line2d_12">
      <g>
       <use xlink:href="#m2113157e36" x="463.476672" y="314.918125" style="stroke: #000000; stroke-width: 0.8"/>
      </g>
     </g>
     <g id="text_6">
      <!-- 2022-07 -->
      <g transform="translate(442.585266 329.516563) scale(0.1 -0.1)">
       <use xlink:href="#DejaVuSans-32"/>
       <use xlink:href="#DejaVuSans-30" transform="translate(63.623047 0)"/>
       <use xlink:href="#DejaVuSans-32" transform="translate(127.246094 0)"/>
       <use xlink:href="#DejaVuSans-32" transform="translate(190.869141 0)"/>
       <use xlink:href="#DejaVuSans-2d" transform="translate(254.492188 0)"/>
       <use xlink:href="#DejaVuSans-30" transform="translate(290.576172 0)"/>
       <use xlink:href="#DejaVuSans-37" transform="translate(354.199219 0)"/>
      </g>
     </g>
    </g>
    <g id="xtick_7">
     <g id="line2d_13">
      <path d="M 537.445122 314.918125 
L 537.445122 22.318125 
" clip-path="url(#pb8b19309c2)" style="fill: none; stroke: #b0b0b0; stroke-width: 0.8; stroke-linecap: square"/>
     </g>
     <g id="line2d_14">
      <g>
       <use xlink:href="#m2113157e36" x="537.445122" y="314.918125" style="stroke: #000000; stroke-width: 0.8"/>
      </g>
     </g>
     <g id="text_7">
      <!-- 2022-10 -->
      <g transform="translate(516.553715 329.516563) scale(0.1 -0.1)">
       <use xlink:href="#DejaVuSans-32"/>
       <use xlink:href="#DejaVuSans-30" transform="translate(63.623047 0)"/>
       <use xlink:href="#DejaVuSans-32" transform="translate(127.246094 0)"/>
       <use xlink:href="#DejaVuSans-32" transform="translate(190.869141 0)"/>
       <use xlink:href="#DejaVuSans-2d" transform="translate(254.492188 0)"/>
       <use xlink:href="#DejaVuSans-31" transform="translate(290.576172 0)"/>
       <use xlink:href="#DejaVuSans-30" transform="translate(354.199219 0)"/>
      </g>
     </g>
    </g>
    <g id="xtick_8">
     <g id="line2d_15">
      <path d="M 611.413571 314.918125 
L 611.413571 22.318125 
" clip-path="url(#pb8b19309c2)" style="fill: none; stroke: #b0b0b0; stroke-width: 0.8; stroke-linecap: square"/>
     </g>
     <g id="line2d_16">
      <g>
       <use xlink:href="#m2113157e36" x="611.413571" y="314.918125" style="stroke: #000000; stroke-width: 0.8"/>
      </g>
     </g>
     <g id="text_8">
      <!-- 2023-01 -->
      <g transform="translate(590.522165 329.516563) scale(0.1 -0.1)">
       <defs>
        <path id="DejaVuSans-33" d="M 2597 2516 
Q 3050 2419 3304 2112 
Q 3559 1806 3559 1356 
Q 3559 666 3084 287 
Q 2609 -91 1734 -91 
Q 1441 -91 1130 -33 
Q 819 25 488 141 
L 488 750 
Q 750 597 1062 519 
Q 1375 441 1716 441 
Q 2309 441 2620 675 
Q 2931 909 2931 1356 
Q 2931 1769 2642 2001 
Q 2353 2234 1838 2234 
L 1294 2234 
L 1294 2753 
L 1863 2753 
Q 2328 2753 2575 2939 
Q 2822 3125 2822 3475 
Q 2822 3834 2567 4026 
Q 2313 4219 1838 4219 
Q 1578 4219 1281 4162 
Q 984 4106 628 3988 
L 628 4550 
Q 988 4650 1302 4700 
Q 1616 4750 1894 4750 
Q 2613 4750 3031 4423 
Q 3450 4097 3450 3541 
Q 3450 3153 3228 2886 
Q 3006 2619 2597 2516 
z
" transform="scale(0.015625)"/>
       </defs>
       <use xlink:href="#DejaVuSans-32"/>
       <use xlink:href="#DejaVuSans-30" transform="translate(63.623047 0)"/>
       <use xlink:href="#DejaVuSans-32" transform="translate(127.246094 0)"/>
       <use xlink:href="#DejaVuSans-33" transform="translate(190.869141 0)"/>
       <use xlink:href="#DejaVuSans-2d" transform="translate(254.492188 0)"/>
       <use xlink:href="#DejaVuSans-30" transform="translate(290.576172 0)"/>
       <use xlink:href="#DejaVuSans-31" transform="translate(354.199219 0)"/>
      </g>
     </g>
    </g>
    <g id="xtick_9">
     <g id="line2d_17">
      <path d="M 683.774012 314.918125 
L 683.774012 22.318125 
" clip-path="url(#pb8b19309c2)" style="fill: none; stroke: #b0b0b0; stroke-width: 0.8; stroke-linecap: square"/>
     </g>
     <g id="line2d_18">
      <g>
       <use xlink:href="#m2113157e36" x="683.774012" y="314.918125" style="stroke: #000000; stroke-width: 0.8"/>
      </g>
     </g>
     <g id="text_9">
      <!-- 2023-04 -->
      <g transform="translate(662.882605 329.516563) scale(0.1 -0.1)">
       <use xlink:href="#DejaVuSans-32"/>
       <use xlink:href="#DejaVuSans-30" transform="translate(63.623047 0)"/>
       <use xlink:href="#DejaVuSans-32" transform="translate(127.246094 0)"/>
       <use xlink:href="#DejaVuSans-33" transform="translate(190.869141 0)"/>
       <use xlink:href="#DejaVuSans-2d" transform="translate(254.492188 0)"/>
       <use xlink:href="#DejaVuSans-30" transform="translate(290.576172 0)"/>
       <use xlink:href="#DejaVuSans-34" transform="translate(354.199219 0)"/>
      </g>
     </g>
    </g>
    <g id="text_10">
     <!-- date -->
     <g transform="translate(353.711073 343.194687) scale(0.1 -0.1)">
      <defs>
       <path id="DejaVuSans-64" d="M 2906 2969 
L 2906 4863 
L 3481 4863 
L 3481 0 
L 2906 0 
L 2906 525 
Q 2725 213 2448 61 
Q 2172 -91 1784 -91 
Q 1150 -91 751 415 
Q 353 922 353 1747 
Q 353 2572 751 3078 
Q 1150 3584 1784 3584 
Q 2172 3584 2448 3432 
Q 2725 3281 2906 2969 
z
M 947 1747 
Q 947 1113 1208 752 
Q 1469 391 1925 391 
Q 2381 391 2643 752 
Q 2906 1113 2906 1747 
Q 2906 2381 2643 2742 
Q 2381 3103 1925 3103 
Q 1469 3103 1208 2742 
Q 947 2381 947 1747 
z
" transform="scale(0.015625)"/>
       <path id="DejaVuSans-61" d="M 2194 1759 
Q 1497 1759 1228 1600 
Q 959 1441 959 1056 
Q 959 750 1161 570 
Q 1363 391 1709 391 
Q 2188 391 2477 730 
Q 2766 1069 2766 1631 
L 2766 1759 
L 2194 1759 
z
M 3341 1997 
L 3341 0 
L 2766 0 
L 2766 531 
Q 2569 213 2275 61 
Q 1981 -91 1556 -91 
Q 1019 -91 701 211 
Q 384 513 384 1019 
Q 384 1609 779 1909 
Q 1175 2209 1959 2209 
L 2766 2209 
L 2766 2266 
Q 2766 2663 2505 2880 
Q 2244 3097 1772 3097 
Q 1472 3097 1187 3025 
Q 903 2953 641 2809 
L 641 3341 
Q 956 3463 1253 3523 
Q 1550 3584 1831 3584 
Q 2591 3584 2966 3190 
Q 3341 2797 3341 1997 
z
" transform="scale(0.015625)"/>
       <path id="DejaVuSans-74" d="M 1172 4494 
L 1172 3500 
L 2356 3500 
L 2356 3053 
L 1172 3053 
L 1172 1153 
Q 1172 725 1289 603 
Q 1406 481 1766 481 
L 2356 481 
L 2356 0 
L 1766 0 
Q 1100 0 847 248 
Q 594 497 594 1153 
L 594 3053 
L 172 3053 
L 172 3500 
L 594 3500 
L 594 4494 
L 1172 4494 
z
" transform="scale(0.015625)"/>
       <path id="DejaVuSans-65" d="M 3597 1894 
L 3597 1613 
L 953 1613 
Q 991 1019 1311 708 
Q 1631 397 2203 397 
Q 2534 397 2845 478 
Q 3156 559 3463 722 
L 3463 178 
Q 3153 47 2828 -22 
Q 2503 -91 2169 -91 
Q 1331 -91 842 396 
Q 353 884 353 1716 
Q 353 2575 817 3079 
Q 1281 3584 2069 3584 
Q 2775 3584 3186 3129 
Q 3597 2675 3597 1894 
z
M 3022 2063 
Q 3016 2534 2758 2815 
Q 2500 3097 2075 3097 
Q 1594 3097 1305 2825 
Q 1016 2553 972 2059 
L 3022 2063 
z
" transform="scale(0.015625)"/>
      </defs>
      <use xlink:href="#DejaVuSans-64"/>
      <use xlink:href="#DejaVuSans-61" transform="translate(63.476562 0)"/>
      <use xlink:href="#DejaVuSans-74" transform="translate(124.755859 0)"/>
      <use xlink:href="#DejaVuSans-65" transform="translate(163.964844 0)"/>
     </g>
    </g>
   </g>
   <g id="matplotlib.axis_2">
    <g id="ytick_1">
     <g id="line2d_19">
      <path d="M 42.620313 284.246683 
L 687.351833 284.246683 
" clip-path="url(#pb8b19309c2)" style="fill: none; stroke: #b0b0b0; stroke-width: 0.8; stroke-linecap: square"/>
     </g>
     <g id="line2d_20">
      <defs>
       <path id="m27b639b8fa" d="M 0 0 
L -3.5 0 
" style="stroke: #000000; stroke-width: 0.8"/>
      </defs>
      <g>
       <use xlink:href="#m27b639b8fa" x="42.620313" y="284.246683" style="stroke: #000000; stroke-width: 0.8"/>
      </g>
     </g>
     <g id="text_11">
      <!-- −1 -->
      <g transform="translate(20.878125 288.045901) scale(0.1 -0.1)">
       <defs>
        <path id="DejaVuSans-2212" d="M 678 2272 
L 4684 2272 
L 4684 1741 
L 678 1741 
L 678 2272 
z
" transform="scale(0.015625)"/>
       </defs>
       <use xlink:href="#DejaVuSans-2212"/>
       <use xlink:href="#DejaVuSans-31" transform="translate(83.789062 0)"/>
      </g>
     </g>
    </g>
    <g id="ytick_2">
     <g id="line2d_21">
      <path d="M 42.620313 246.773504 
L 687.351833 246.773504 
" clip-path="url(#pb8b19309c2)" style="fill: none; stroke: #b0b0b0; stroke-width: 0.8; stroke-linecap: square"/>
     </g>
     <g id="line2d_22">
      <g>
       <use xlink:href="#m27b639b8fa" x="42.620313" y="246.773504" style="stroke: #000000; stroke-width: 0.8"/>
      </g>
     </g>
     <g id="text_12">
      <!-- 0 -->
      <g transform="translate(29.257813 250.572723) scale(0.1 -0.1)">
       <use xlink:href="#DejaVuSans-30"/>
      </g>
     </g>
    </g>
    <g id="ytick_3">
     <g id="line2d_23">
      <path d="M 42.620313 209.300325 
L 687.351833 209.300325 
" clip-path="url(#pb8b19309c2)" style="fill: none; stroke: #b0b0b0; stroke-width: 0.8; stroke-linecap: square"/>
     </g>
     <g id="line2d_24">
      <g>
       <use xlink:href="#m27b639b8fa" x="42.620313" y="209.300325" style="stroke: #000000; stroke-width: 0.8"/>
      </g>
     </g>
     <g id="text_13">
      <!-- 1 -->
      <g transform="translate(29.257813 213.099544) scale(0.1 -0.1)">
       <use xlink:href="#DejaVuSans-31"/>
      </g>
     </g>
    </g>
    <g id="ytick_4">
     <g id="line2d_25">
      <path d="M 42.620313 171.827146 
L 687.351833 171.827146 
" clip-path="url(#pb8b19309c2)" style="fill: none; stroke: #b0b0b0; stroke-width: 0.8; stroke-linecap: square"/>
     </g>
     <g id="line2d_26">
      <g>
       <use xlink:href="#m27b639b8fa" x="42.620313" y="171.827146" style="stroke: #000000; stroke-width: 0.8"/>
      </g>
     </g>
     <g id="text_14">
      <!-- 2 -->
      <g transform="translate(29.257813 175.626365) scale(0.1 -0.1)">
       <use xlink:href="#DejaVuSans-32"/>
      </g>
     </g>
    </g>
    <g id="ytick_5">
     <g id="line2d_27">
      <path d="M 42.620313 134.353968 
L 687.351833 134.353968 
" clip-path="url(#pb8b19309c2)" style="fill: none; stroke: #b0b0b0; stroke-width: 0.8; stroke-linecap: square"/>
     </g>
     <g id="line2d_28">
      <g>
       <use xlink:href="#m27b639b8fa" x="42.620313" y="134.353968" style="stroke: #000000; stroke-width: 0.8"/>
      </g>
     </g>
     <g id="text_15">
      <!-- 3 -->
      <g transform="translate(29.257813 138.153186) scale(0.1 -0.1)">
       <use xlink:href="#DejaVuSans-33"/>
      </g>
     </g>
    </g>
    <g id="ytick_6">
     <g id="line2d_29">
      <path d="M 42.620313 96.880789 
L 687.351833 96.880789 
" clip-path="url(#pb8b19309c2)" style="fill: none; stroke: #b0b0b0; stroke-width: 0.8; stroke-linecap: square"/>
     </g>
     <g id="line2d_30">
      <g>
       <use xlink:href="#m27b639b8fa" x="42.620313" y="96.880789" style="stroke: #000000; stroke-width: 0.8"/>
      </g>
     </g>
     <g id="text_16">
      <!-- 4 -->
      <g transform="translate(29.257813 100.680008) scale(0.1 -0.1)">
       <use xlink:href="#DejaVuSans-34"/>
      </g>
     </g>
    </g>
    <g id="ytick_7">
     <g id="line2d_31">
      <path d="M 42.620313 59.40761 
L 687.351833 59.40761 
" clip-path="url(#pb8b19309c2)" style="fill: none; stroke: #b0b0b0; stroke-width: 0.8; stroke-linecap: square"/>
     </g>
     <g id="line2d_32">
      <g>
       <use xlink:href="#m27b639b8fa" x="42.620313" y="59.40761" style="stroke: #000000; stroke-width: 0.8"/>
      </g>
     </g>
     <g id="text_17">
      <!-- 5 -->
      <g transform="translate(29.257813 63.206829) scale(0.1 -0.1)">
       <defs>
        <path id="DejaVuSans-35" d="M 691 4666 
L 3169 4666 
L 3169 4134 
L 1269 4134 
L 1269 2991 
Q 1406 3038 1543 3061 
Q 1681 3084 1819 3084 
Q 2600 3084 3056 2656 
Q 3513 2228 3513 1497 
Q 3513 744 3044 326 
Q 2575 -91 1722 -91 
Q 1428 -91 1123 -41 
Q 819 9 494 109 
L 494 744 
Q 775 591 1075 516 
Q 1375 441 1709 441 
Q 2250 441 2565 725 
Q 2881 1009 2881 1497 
Q 2881 1984 2565 2268 
Q 2250 2553 1709 2553 
Q 1456 2553 1204 2497 
Q 953 2441 691 2322 
L 691 4666 
z
" transform="scale(0.015625)"/>
       </defs>
       <use xlink:href="#DejaVuSans-35"/>
      </g>
     </g>
    </g>
    <g id="text_18">
     <!-- z-score -->
     <g transform="translate(14.798438 186.479062) rotate(-90) scale(0.1 -0.1)">
      <defs>
       <path id="DejaVuSans-7a" d="M 353 3500 
L 3084 3500 
L 3084 2975 
L 922 459 
L 3084 459 
L 3084 0 
L 275 0 
L 275 525 
L 2438 3041 
L 353 3041 
L 353 3500 
z
" transform="scale(0.015625)"/>
       <path id="DejaVuSans-73" d="M 2834 3397 
L 2834 2853 
Q 2591 2978 2328 3040 
Q 2066 3103 1784 3103 
Q 1356 3103 1142 2972 
Q 928 2841 928 2578 
Q 928 2378 1081 2264 
Q 1234 2150 1697 2047 
L 1894 2003 
Q 2506 1872 2764 1633 
Q 3022 1394 3022 966 
Q 3022 478 2636 193 
Q 2250 -91 1575 -91 
Q 1294 -91 989 -36 
Q 684 19 347 128 
L 347 722 
Q 666 556 975 473 
Q 1284 391 1588 391 
Q 1994 391 2212 530 
Q 2431 669 2431 922 
Q 2431 1156 2273 1281 
Q 2116 1406 1581 1522 
L 1381 1569 
Q 847 1681 609 1914 
Q 372 2147 372 2553 
Q 372 3047 722 3315 
Q 1072 3584 1716 3584 
Q 2034 3584 2315 3537 
Q 2597 3491 2834 3397 
z
" transform="scale(0.015625)"/>
       <path id="DejaVuSans-63" d="M 3122 3366 
L 3122 2828 
Q 2878 2963 2633 3030 
Q 2388 3097 2138 3097 
Q 1578 3097 1268 2742 
Q 959 2388 959 1747 
Q 959 1106 1268 751 
Q 1578 397 2138 397 
Q 2388 397 2633 464 
Q 2878 531 3122 666 
L 3122 134 
Q 2881 22 2623 -34 
Q 2366 -91 2075 -91 
Q 1284 -91 818 406 
Q 353 903 353 1747 
Q 353 2603 823 3093 
Q 1294 3584 2113 3584 
Q 2378 3584 2631 3529 
Q 2884 3475 3122 3366 
z
" transform="scale(0.015625)"/>
       <path id="DejaVuSans-6f" d="M 1959 3097 
Q 1497 3097 1228 2736 
Q 959 2375 959 1747 
Q 959 1119 1226 758 
Q 1494 397 1959 397 
Q 2419 397 2687 759 
Q 2956 1122 2956 1747 
Q 2956 2369 2687 2733 
Q 2419 3097 1959 3097 
z
M 1959 3584 
Q 2709 3584 3137 3096 
Q 3566 2609 3566 1747 
Q 3566 888 3137 398 
Q 2709 -91 1959 -91 
Q 1206 -91 779 398 
Q 353 888 353 1747 
Q 353 2609 779 3096 
Q 1206 3584 1959 3584 
z
" transform="scale(0.015625)"/>
       <path id="DejaVuSans-72" d="M 2631 2963 
Q 2534 3019 2420 3045 
Q 2306 3072 2169 3072 
Q 1681 3072 1420 2755 
Q 1159 2438 1159 1844 
L 1159 0 
L 581 0 
L 581 3500 
L 1159 3500 
L 1159 2956 
Q 1341 3275 1631 3429 
Q 1922 3584 2338 3584 
Q 2397 3584 2469 3576 
Q 2541 3569 2628 3553 
L 2631 2963 
z
" transform="scale(0.015625)"/>
      </defs>
      <use xlink:href="#DejaVuSans-7a"/>
      <use xlink:href="#DejaVuSans-2d" transform="translate(52.490234 0)"/>
      <use xlink:href="#DejaVuSans-73" transform="translate(88.574219 0)"/>
      <use xlink:href="#DejaVuSans-63" transform="translate(140.673828 0)"/>
      <use xlink:href="#DejaVuSans-6f" transform="translate(195.654297 0)"/>
      <use xlink:href="#DejaVuSans-72" transform="translate(256.835938 0)"/>
      <use xlink:href="#DejaVuSans-65" transform="translate(295.699219 0)"/>
     </g>
    </g>
   </g>
   <g id="line2d_33">
    <path d="M 71.926291 297.460056 
L 72.730296 297.533508 
L 73.5343 298.670274 
L 75.14231 297.130819 
L 75.946315 300.150903 
L 76.75032 297.087288 
L 77.554325 295.20498 
L 78.35833 295.48882 
L 79.162335 298.521879 
L 79.96634 297.68634 
L 80.770344 298.684789 
L 81.574349 297.673288 
L 82.378354 299.742546 
L 83.182359 297.621793 
L 83.986364 299.014672 
L 84.790369 299.262078 
L 85.594374 300.374392 
L 86.398379 299.218283 
L 87.202384 299.940402 
L 88.006389 301.226731 
L 88.810393 295.506338 
L 89.614398 296.095473 
L 90.418403 295.291979 
L 91.222408 296.982743 
L 92.026413 299.923551 
L 92.830418 301.392992 
L 93.634423 301.618125 
L 94.438428 298.224242 
L 95.242433 299.924418 
L 96.046437 298.319818 
L 96.850442 298.416504 
L 97.654447 296.830823 
L 98.458452 296.403535 
L 99.262457 300.550075 
L 100.066462 300.756329 
L 101.674472 296.460253 
L 102.478477 300.152733 
L 103.282481 300.972411 
L 104.086486 299.171784 
L 104.890491 301.166967 
L 105.694496 296.727124 
L 106.498501 296.430793 
L 107.302506 293.200812 
L 108.106511 296.488001 
L 108.910516 295.288364 
L 109.714521 298.419515 
L 110.518525 284.098228 
L 111.32253 296.007679 
L 112.126535 290.333794 
L 112.93054 293.087392 
L 113.734545 284.172999 
L 114.53855 282.633932 
L 115.342555 296.661522 
L 116.14656 296.2905 
L 116.950565 294.749415 
L 117.754569 296.63922 
L 118.558574 295.081515 
L 120.166584 298.874497 
L 120.970589 297.160396 
L 121.774594 297.247643 
L 123.382604 279.568871 
L 124.186609 287.749887 
L 124.990613 287.879634 
L 125.794618 283.067271 
L 126.598623 268.134625 
L 127.402628 274.56371 
L 128.206633 250.743676 
L 129.010638 266.018958 
L 129.814643 228.858259 
L 130.618648 201.954606 
L 131.422653 252.2738 
L 132.226657 253.991389 
L 133.834667 215.258172 
L 134.638672 232.146015 
L 135.442677 113.247712 
L 136.246682 195.001394 
L 137.050687 206.138277 
L 137.854692 233.989216 
L 138.658697 187.12839 
L 139.462701 209.684009 
L 140.266706 218.44259 
L 141.070711 217.187479 
L 141.874716 239.314941 
L 142.678721 224.201115 
L 143.482726 227.49362 
L 144.286731 242.777634 
L 145.090736 246.779709 
L 145.894741 255.101409 
L 146.698745 268.009516 
L 147.50275 260.163522 
L 148.306755 246.640924 
L 149.11076 262.745996 
L 149.914765 281.483265 
L 150.71877 257.970799 
L 151.522775 230.124078 
L 152.32678 236.69726 
L 153.130785 258.390568 
L 154.738794 264.047991 
L 155.542799 262.437886 
L 156.346804 263.843606 
L 157.150809 264.219217 
L 158.758819 268.33729 
L 159.562824 258.094577 
L 160.366829 270.803656 
L 161.170833 258.059236 
L 161.974838 209.724268 
L 162.778843 228.806917 
L 163.582848 254.091669 
L 164.386853 264.0398 
L 165.190858 255.554864 
L 165.994863 257.740677 
L 166.798868 260.578267 
L 167.602873 249.699188 
L 168.406877 256.730663 
L 169.210882 250.322005 
L 170.014887 255.060542 
L 170.818892 268.338267 
L 171.622897 273.671112 
L 172.426902 270.2993 
L 174.034912 251.253818 
L 174.838917 267.291892 
L 175.642921 253.262434 
L 176.446926 263.388169 
L 177.250931 265.566467 
L 178.054936 284.600848 
L 179.662946 265.283983 
L 180.466951 263.169347 
L 181.270956 261.631024 
L 182.074961 274.071914 
L 182.878965 278.432626 
L 183.68297 276.296857 
L 184.486975 276.377617 
L 185.29098 265.386967 
L 186.094985 246.56189 
L 186.89899 257.183954 
L 187.702995 269.835858 
L 188.507 271.297101 
L 189.311005 275.263817 
L 190.115009 198.872251 
L 190.919014 236.735316 
L 191.723019 240.113058 
L 192.527024 270.156278 
L 193.331029 250.7235 
L 194.135034 269.389036 
L 194.939039 251.413057 
L 195.743044 248.441855 
L 196.547049 235.316484 
L 198.155058 214.850415 
L 198.959063 237.517953 
L 199.763068 208.19218 
L 200.567073 223.196148 
L 201.371078 187.867004 
L 202.175083 232.539103 
L 202.979088 248.728562 
L 203.783093 229.288201 
L 204.587097 251.825569 
L 205.391102 267.682398 
L 206.195107 251.564038 
L 206.999112 240.161291 
L 207.803117 205.842462 
L 209.411127 242.256816 
L 210.215132 247.343139 
L 211.019137 264.721426 
L 211.823141 263.330172 
L 212.627146 248.443736 
L 213.431151 240.924321 
L 214.235156 246.588771 
L 215.039161 247.203658 
L 215.843166 255.831031 
L 216.647171 280.356684 
L 217.451176 265.088241 
L 219.059185 222.806949 
L 219.86319 216.589742 
L 220.667195 236.849223 
L 221.4712 238.229491 
L 222.275205 257.532977 
L 223.07921 259.32565 
L 223.883215 256.80945 
L 224.68722 182.104164 
L 225.491225 213.276072 
L 226.295229 249.765575 
L 227.099234 242.061626 
L 227.903239 264.958922 
L 228.707244 267.5504 
L 229.511249 246.044199 
L 230.315254 267.084641 
L 231.119259 267.891271 
L 231.923264 252.516266 
L 232.727269 259.584919 
L 233.531273 273.523961 
L 234.335278 271.327558 
L 235.139283 196.507941 
L 235.943288 198.818287 
L 236.747293 238.413695 
L 237.551298 255.167856 
L 238.355303 230.535813 
L 239.159308 250.030132 
L 239.963313 229.637608 
L 240.767317 248.977085 
L 241.571322 253.124071 
L 242.375327 264.536351 
L 243.179332 252.368822 
L 243.983337 247.558856 
L 244.787342 264.270051 
L 245.591347 264.826677 
L 246.395352 253.671384 
L 247.199357 267.278854 
L 248.003361 240.205923 
L 249.611371 261.97144 
L 250.415376 279.532985 
L 251.219381 257.005009 
L 252.023386 247.21025 
L 252.827391 239.932048 
L 253.631396 247.627247 
L 254.435401 243.047277 
L 255.239405 228.930724 
L 256.04341 244.136919 
L 256.847415 253.745547 
L 257.65142 242.636375 
L 259.25943 229.98231 
L 260.063435 172.185324 
L 260.86744 221.595701 
L 261.671445 243.979449 
L 262.475449 249.512342 
L 263.279454 248.690752 
L 264.083459 222.480701 
L 264.887464 188.921875 
L 265.691469 200.286427 
L 266.495474 228.01655 
L 267.299479 250.821047 
L 268.103484 250.57335 
L 268.907489 246.214398 
L 269.711493 234.214915 
L 270.515498 230.002008 
L 272.123508 256.739817 
L 272.927513 255.845372 
L 273.731518 263.646952 
L 274.535523 233.087836 
L 275.339528 244.337499 
L 276.143533 167.463703 
L 276.947537 226.889986 
L 277.751542 201.093239 
L 278.555547 258.242865 
L 279.359552 246.62744 
L 280.163557 232.554592 
L 280.967562 158.581081 
L 281.771567 203.308331 
L 282.575572 171.200872 
L 283.379577 213.061105 
L 284.183582 242.411551 
L 284.987586 238.549006 
L 285.791591 188.430052 
L 286.595596 202.470454 
L 287.399601 206.620157 
L 288.203606 217.326245 
L 289.007611 141.481023 
L 289.811616 239.432124 
L 290.615621 215.659593 
L 291.419626 219.288289 
L 292.22363 140.200496 
L 293.027635 188.304951 
L 293.83164 184.199497 
L 294.635645 148.718704 
L 295.43965 68.308122 
L 296.243655 160.183715 
L 297.04766 116.514027 
L 297.851665 207.752235 
L 298.65567 207.658105 
L 299.459674 159.393024 
L 300.263679 135.572466 
L 301.067684 193.469844 
L 301.871689 237.535272 
L 302.675694 181.217378 
L 303.479699 207.726689 
L 304.283704 141.172925 
L 305.087709 209.286358 
L 305.891714 171.563899 
L 306.695718 214.473785 
L 307.499723 223.362729 
L 308.303728 194.958323 
L 309.107733 234.055975 
L 309.911738 247.39695 
L 310.715743 227.138406 
L 311.519748 246.479406 
L 312.323753 254.308337 
L 313.127758 257.126156 
L 313.931762 261.162378 
L 314.735767 202.978125 
L 315.539772 246.482935 
L 316.343777 257.022911 
L 317.147782 252.724448 
L 317.951787 268.575226 
L 318.755792 265.138874 
L 319.559797 257.08812 
L 320.363802 237.975773 
L 321.167806 213.509356 
L 321.971811 221.128299 
L 322.775816 195.24779 
L 323.579821 216.83714 
L 324.383826 255.421896 
L 325.187831 202.912428 
L 325.991836 239.278714 
L 326.795841 240.500333 
L 327.599846 221.774504 
L 329.207855 267.587792 
L 330.01186 262.90867 
L 330.815865 237.964593 
L 331.61987 230.29551 
L 332.423875 228.788668 
L 333.22788 225.000353 
L 334.031885 81.186484 
L 334.83589 167.049367 
L 335.639894 183.741562 
L 336.443899 137.088606 
L 337.247904 224.465945 
L 338.051909 167.775288 
L 338.855914 203.148651 
L 340.463924 251.249796 
L 341.267929 258.778899 
L 342.071934 239.92962 
L 342.875938 225.324391 
L 344.483948 235.636807 
L 345.287953 230.024738 
L 346.091958 235.756121 
L 346.895963 255.353832 
L 347.699968 232.734972 
L 348.503973 230.106593 
L 349.307978 238.921796 
L 350.111982 198.718662 
L 350.915987 195.594549 
L 351.719992 237.461946 
L 352.523997 263.673347 
L 353.328002 249.913816 
L 354.132007 232.310574 
L 354.936012 232.075152 
L 355.740017 209.116445 
L 356.544022 229.509036 
L 357.348026 262.906923 
L 358.152031 227.310343 
L 358.956036 182.600274 
L 359.760041 217.115036 
L 360.564046 229.820638 
L 361.368051 122.239639 
L 362.172056 190.739343 
L 362.976061 242.680778 
L 363.780066 201.129671 
L 364.58407 198.339001 
L 365.388075 206.480311 
L 366.19208 203.320996 
L 366.996085 242.993723 
L 367.80009 213.543921 
L 368.604095 267.14673 
L 369.4081 256.698868 
L 370.212105 228.640911 
L 371.01611 224.430327 
L 371.820114 236.906486 
L 372.624119 242.563295 
L 373.428124 242.529606 
L 374.232129 278.052343 
L 375.036134 262.026686 
L 375.840139 251.796901 
L 376.644144 250.424265 
L 377.448149 212.587181 
L 378.252154 246.374274 
L 379.056158 228.750057 
L 379.860163 258.911965 
L 380.664168 251.25781 
L 381.468173 247.901588 
L 382.272178 235.076328 
L 383.076183 246.275315 
L 383.880188 211.886648 
L 384.684193 228.510993 
L 385.488198 270.63463 
L 386.292202 254.619373 
L 387.096207 230.849335 
L 387.900212 224.699823 
L 388.704217 235.462817 
L 389.508222 233.099502 
L 390.312227 227.13415 
L 391.116232 237.319793 
L 391.920237 254.029464 
L 392.724242 237.056257 
L 393.528246 238.79308 
L 394.332251 186.109706 
L 395.136256 229.068633 
L 395.940261 217.907022 
L 396.744266 263.452886 
L 397.548271 267.782247 
L 398.352276 176.128194 
L 399.156281 207.915153 
L 399.960286 235.084059 
L 400.76429 245.14435 
L 401.568295 261.703949 
L 402.3723 286.931114 
L 403.176305 252.755246 
L 403.98031 242.879316 
L 404.784315 254.905801 
L 405.58832 245.163782 
L 406.392325 240.107818 
L 407.19633 254.581545 
L 408.000334 283.697964 
L 408.804339 278.468275 
L 409.608344 238.305494 
L 410.412349 240.477179 
L 411.216354 252.705559 
L 412.020359 239.055829 
L 412.824364 246.001483 
L 413.628369 242.178697 
L 414.432374 241.832989 
L 415.236378 236.253868 
L 416.040383 241.194183 
L 417.648393 214.609334 
L 418.452398 194.482019 
L 419.256403 254.703696 
L 420.060408 202.27785 
L 420.864413 130.497506 
L 421.668418 155.822623 
L 422.472422 56.034648 
L 423.276427 61.575994 
L 424.080432 183.335955 
L 424.884437 232.007963 
L 425.688442 250.782822 
L 426.492447 196.758574 
L 427.296452 242.157259 
L 428.100457 228.977489 
L 428.904462 212.145353 
L 429.708466 232.948592 
L 430.512471 272.302671 
L 431.316476 267.366933 
L 432.120481 236.70958 
L 432.924486 256.103139 
L 433.728491 244.984838 
L 434.532496 181.611438 
L 435.336501 211.142937 
L 436.140506 248.879937 
L 436.94451 276.05695 
L 437.748515 220.073835 
L 438.55252 244.290162 
L 439.356525 233.402622 
L 440.16053 248.364732 
L 440.964535 256.988578 
L 441.76854 274.350382 
L 442.572545 272.831878 
L 443.37655 251.176917 
L 444.180554 219.023403 
L 444.984559 238.889476 
L 445.788564 268.178382 
L 446.592569 228.361987 
L 447.396574 224.52726 
L 448.200579 211.687835 
L 449.004584 86.609437 
L 449.808589 149.661778 
L 450.612594 125.118363 
L 451.416598 210.42618 
L 452.220603 229.133446 
L 453.024608 202.40342 
L 453.828613 205.162295 
L 455.436623 234.404821 
L 456.240628 243.674988 
L 457.044633 243.949111 
L 457.848638 246.166613 
L 458.652642 270.640848 
L 459.456647 268.895325 
L 460.260652 270.423616 
L 461.868662 250.193855 
L 463.476672 233.618568 
L 464.280677 273.108998 
L 465.084682 276.185923 
L 465.888686 257.318947 
L 466.692691 243.898139 
L 467.496696 241.220725 
L 468.300701 255.464739 
L 469.104706 239.845466 
L 469.908711 277.467602 
L 471.516721 263.275033 
L 472.320726 259.658921 
L 473.12473 245.781256 
L 473.928735 252.651696 
L 474.73274 238.467703 
L 475.536745 242.617329 
L 476.34075 244.67146 
L 477.144755 214.291085 
L 477.94876 202.801666 
L 479.55677 235.540271 
L 481.164779 257.777501 
L 481.968784 254.017221 
L 482.772789 235.152577 
L 483.576794 241.826343 
L 484.380799 222.416402 
L 485.184804 211.025263 
L 485.988809 228.81024 
L 486.792814 255.185971 
L 487.596819 264.488382 
L 488.400823 250.368036 
L 489.204828 226.08651 
L 490.008833 255.940063 
L 490.812838 257.202876 
L 491.616843 243.13232 
L 492.420848 277.601978 
L 493.224853 277.248167 
L 494.028858 246.538326 
L 494.832863 244.845153 
L 495.636867 223.768299 
L 496.440872 222.439982 
L 497.244877 256.019455 
L 498.048882 255.568411 
L 498.852887 262.392849 
L 499.656892 231.932275 
L 500.460897 253.228853 
L 501.264902 231.76452 
L 502.068907 262.496851 
L 502.872911 208.402402 
L 503.676916 236.75707 
L 504.480921 249.715788 
L 505.284926 244.468002 
L 506.088931 223.540825 
L 506.892936 253.346674 
L 507.696941 267.116163 
L 508.500946 231.067911 
L 509.304951 256.222217 
L 510.108955 258.832069 
L 510.91296 251.640246 
L 511.716965 236.753626 
L 512.52097 226.379317 
L 513.324975 247.67849 
L 514.12898 243.223388 
L 514.932985 277.081518 
L 515.73699 277.672806 
L 516.540995 265.559813 
L 517.344999 234.58787 
L 518.149004 238.515641 
L 518.953009 256.866235 
L 519.757014 250.694473 
L 520.561019 264.370091 
L 521.365024 271.601933 
L 522.169029 252.838455 
L 522.973034 217.818055 
L 523.777039 248.815446 
L 524.581043 229.223347 
L 525.385048 262.202541 
L 526.189053 284.868764 
L 526.993058 278.148103 
L 527.797063 258.033845 
L 528.601068 264.189299 
L 529.405073 248.146118 
L 530.209078 260.131549 
L 531.013083 258.070641 
L 531.817087 278.472479 
L 532.621092 284.741645 
L 534.229102 256.480302 
L 535.033107 252.153797 
L 535.837112 263.557369 
L 536.641117 254.26595 
L 537.445122 283.862124 
L 538.249127 284.838729 
L 539.053131 271.987318 
L 539.857136 272.12077 
L 540.661141 276.099741 
L 541.465146 257.418223 
L 542.269151 279.889863 
L 543.073156 293.350043 
L 543.877161 293.307531 
L 544.681166 281.598405 
L 545.485171 278.088456 
L 546.289175 291.73298 
L 547.09318 257.689718 
L 547.897185 259.333345 
L 548.70119 286.047766 
L 549.505195 291.197971 
L 550.3092 265.879705 
L 551.113205 269.804397 
L 551.91721 280.923118 
L 552.721215 282.388724 
L 553.525219 271.796241 
L 554.329224 292.041632 
L 555.133229 281.959651 
L 555.937234 269.232062 
L 556.741239 221.935449 
L 557.545244 225.968398 
L 558.349249 242.714486 
L 559.153254 242.569046 
L 559.957259 240.077396 
L 560.761263 261.974926 
L 561.565268 241.375941 
L 562.369273 269.808299 
L 563.173278 224.404206 
L 563.977283 273.56721 
L 564.781288 228.77561 
L 565.585293 277.108954 
L 566.389298 270.599801 
L 567.193303 243.493211 
L 567.997307 85.055832 
L 568.801312 35.618125 
L 569.605317 71.285278 
L 570.409322 178.343454 
L 571.213327 234.804201 
L 572.017332 255.048265 
L 572.821337 221.273451 
L 573.625342 252.221363 
L 574.429347 249.400444 
L 575.233351 267.749885 
L 576.037356 279.719333 
L 576.841361 289.090213 
L 577.645366 263.31471 
L 578.449371 231.638393 
L 579.253376 243.683817 
L 580.057381 258.279006 
L 580.861386 270.587382 
L 581.665391 272.005163 
L 583.2734 287.706551 
L 584.077405 271.611806 
L 584.88141 278.2296 
L 585.685415 243.284475 
L 586.48942 276.462347 
L 587.293425 276.37845 
L 588.09743 286.292024 
L 588.901435 285.954248 
L 589.705439 276.687658 
L 590.509444 273.975305 
L 591.313449 281.980843 
L 592.117454 277.12665 
L 592.921459 278.204801 
L 593.725464 293.447457 
L 594.529469 293.019949 
L 595.333474 281.41825 
L 596.137479 242.754669 
L 596.941483 261.873902 
L 597.745488 272.369394 
L 598.549493 242.077081 
L 599.353498 273.300489 
L 600.157503 291.471869 
L 600.961508 278.387336 
L 601.765513 273.382856 
L 602.569518 286.802439 
L 603.373523 283.120397 
L 604.177527 282.300044 
L 604.981532 300.116919 
L 605.785537 287.696953 
L 606.589542 292.276922 
L 607.393547 283.214632 
L 608.197552 277.798224 
L 609.001557 285.997568 
L 609.805562 292.723124 
L 610.609567 293.012367 
L 611.413571 294.376949 
L 612.217576 288.740624 
L 613.021581 293.515806 
L 613.825586 270.828809 
L 614.629591 286.80486 
L 615.433596 275.834184 
L 616.237601 294.86592 
L 617.041606 285.807147 
L 617.845611 255.994954 
L 618.649615 276.3125 
L 619.45362 270.271515 
L 620.257625 236.360722 
L 621.06163 238.399015 
L 621.865635 220.220521 
L 622.66964 261.158897 
L 623.473645 249.651274 
L 624.27765 258.897451 
L 625.081655 221.623708 
L 625.885659 266.793315 
L 626.689664 260.018986 
L 627.493669 246.379499 
L 628.297674 261.952235 
L 629.101679 260.483867 
L 629.905684 253.251258 
L 630.709689 224.449272 
L 631.513694 257.646526 
L 632.317699 242.257257 
L 633.121703 273.387602 
L 633.925708 263.454004 
L 634.729713 251.334554 
L 635.533718 271.145915 
L 636.337723 255.2222 
L 637.141728 230.419893 
L 637.945733 256.334056 
L 638.749738 276.115948 
L 639.553743 263.835186 
L 640.357747 264.359825 
L 641.161752 249.804803 
L 641.965757 256.506999 
L 642.769762 234.073288 
L 643.573767 246.170609 
L 644.377772 272.27257 
L 645.181777 270.803788 
L 645.985782 236.283669 
L 646.789787 241.519072 
L 647.593791 242.401284 
L 648.397796 212.835979 
L 649.201801 232.339448 
L 650.005806 275.894632 
L 650.809811 263.590768 
L 651.613816 264.633312 
L 652.417821 240.158376 
L 653.221826 243.528611 
L 654.025831 252.838598 
L 654.829835 243.246247 
L 655.63384 274.912143 
L 656.437845 279.754229 
L 657.24185 262.636715 
L 658.045855 265.925584 
L 658.045855 265.925584 
" clip-path="url(#pb8b19309c2)" style="fill: none; stroke: #1f77b4; stroke-width: 1.5; stroke-linecap: square"/>
   </g>
   <g id="line2d_34">
    <path d="M 71.926291 208.387994 
L 73.5343 197.944771 
L 74.338305 206.136844 
L 75.14231 190.053821 
L 75.946315 223.046685 
L 76.75032 199.308742 
L 77.554325 191.506351 
L 78.35833 185.861417 
L 79.162335 193.58748 
L 79.96634 198.990248 
L 80.770344 162.384438 
L 81.574349 164.747151 
L 82.378354 178.80205 
L 83.182359 145.777773 
L 83.986364 156.645626 
L 84.790369 145.863103 
L 86.398379 169.662697 
L 87.202384 187.22982 
L 88.006389 192.270511 
L 88.810393 161.706078 
L 89.614398 172.553721 
L 90.418403 159.298856 
L 91.222408 160.996445 
L 92.026413 184.607315 
L 92.830418 203.503954 
L 93.634423 202.195412 
L 94.438428 185.413406 
L 95.242433 172.720499 
L 96.046437 144.097101 
L 96.850442 142.434711 
L 97.654447 155.856169 
L 98.458452 184.337211 
L 99.262457 207.574277 
L 100.066462 186.64832 
L 100.870467 177.839463 
L 101.674472 176.690757 
L 102.478477 199.528099 
L 103.282481 201.493214 
L 104.890491 227.681216 
L 105.694496 211.409984 
L 106.498501 207.812617 
L 107.302506 186.159184 
L 108.106511 220.336268 
L 108.910516 163.844595 
L 109.714521 175.886226 
L 110.518525 177.288764 
L 111.32253 153.771512 
L 112.126535 85.374826 
L 112.93054 160.977301 
L 113.734545 186.095334 
L 114.53855 204.003946 
L 115.342555 241.120898 
L 116.14656 252.656719 
L 116.950565 247.257911 
L 117.754569 244.205386 
L 118.558574 235.715808 
L 119.362579 241.667188 
L 120.166584 253.710075 
L 120.970589 261.053352 
L 121.774594 263.572324 
L 122.578599 251.398551 
L 123.382604 246.206219 
L 124.186609 249.101047 
L 124.990613 243.944256 
L 125.794618 244.030484 
L 126.598623 197.340333 
L 127.402628 201.528917 
L 128.206633 108.28251 
L 129.010638 52.472831 
L 129.814643 85.526311 
L 130.618648 169.056669 
L 132.226657 220.290832 
L 133.030662 238.862735 
L 133.834667 224.747028 
L 134.638672 229.171629 
L 135.442677 147.419652 
L 136.246682 212.742646 
L 137.050687 234.356334 
L 137.854692 252.345887 
L 138.658697 216.901386 
L 139.462701 244.098711 
L 140.266706 253.917762 
L 141.070711 256.981262 
L 141.874716 263.622431 
L 142.678721 261.811258 
L 143.482726 269.736049 
L 144.286731 272.287063 
L 145.090736 271.164423 
L 145.894741 271.490534 
L 146.698745 269.932692 
L 147.50275 268.046894 
L 148.306755 271.073019 
L 149.11076 276.747361 
L 149.914765 279.537261 
L 150.71877 276.083021 
L 151.522775 273.273248 
L 152.32678 275.658397 
L 153.130785 276.825516 
L 153.934789 275.01222 
L 154.738794 278.822068 
L 155.542799 281.389013 
L 156.346804 276.714531 
L 157.150809 276.252586 
L 157.954814 277.102848 
L 158.758819 275.353384 
L 159.562824 276.488211 
L 160.366829 280.355933 
L 161.170833 280.375279 
L 161.974838 259.037777 
L 162.778843 258.007481 
L 163.582848 275.475785 
L 164.386853 276.911292 
L 165.190858 274.989647 
L 165.994863 280.007104 
L 166.798868 281.563472 
L 167.602873 275.76293 
L 168.406877 274.212772 
L 169.210882 275.114099 
L 170.014887 275.073738 
L 170.818892 279.214185 
L 171.622897 281.430038 
L 172.426902 281.717744 
L 173.230907 279.890377 
L 174.034912 249.436169 
L 174.838917 261.913622 
L 175.642921 264.194665 
L 176.446926 271.059939 
L 177.250931 279.171595 
L 178.054936 281.556848 
L 178.858941 271.139588 
L 179.662946 267.728815 
L 180.466951 259.92312 
L 181.270956 260.425649 
L 182.074961 263.521169 
L 182.878965 271.25874 
L 183.68297 273.653196 
L 184.486975 271.625892 
L 185.29098 268.889512 
L 186.094985 274.629104 
L 186.89899 271.959796 
L 187.702995 274.725707 
L 188.507 277.978774 
L 189.311005 276.316145 
L 190.115009 262.645977 
L 190.919014 269.188103 
L 191.723019 264.415757 
L 192.527024 268.181791 
L 193.331029 262.45161 
L 194.135034 268.256803 
L 194.939039 266.466726 
L 195.743044 263.298714 
L 196.547049 258.34412 
L 197.351053 260.02281 
L 198.155058 251.477261 
L 198.959063 253.964725 
L 199.763068 252.167696 
L 200.567073 258.740006 
L 201.371078 252.649451 
L 202.175083 251.165818 
L 202.979088 246.221168 
L 203.783093 252.998748 
L 204.587097 251.704926 
L 205.391102 255.090693 
L 206.195107 260.334028 
L 206.999112 248.862579 
L 207.803117 253.325496 
L 208.607122 258.648183 
L 209.411127 261.510632 
L 210.215132 259.975193 
L 211.019137 264.545728 
L 211.823141 263.478058 
L 212.627146 244.152773 
L 213.431151 231.996311 
L 214.235156 222.152296 
L 215.039161 225.985275 
L 215.843166 221.350039 
L 216.647171 236.072002 
L 217.451176 233.289139 
L 219.059185 210.055755 
L 219.86319 206.316963 
L 220.667195 210.689149 
L 221.4712 184.960076 
L 222.275205 205.697836 
L 223.07921 213.832586 
L 223.883215 208.290254 
L 224.68722 198.47235 
L 225.491225 196.448335 
L 226.295229 199.828254 
L 227.903239 240.061449 
L 228.707244 246.310536 
L 229.511249 234.539949 
L 230.315254 245.393878 
L 231.119259 241.277304 
L 231.923264 235.231253 
L 232.727269 237.125123 
L 233.531273 250.449764 
L 234.335278 253.237146 
L 235.139283 228.549626 
L 235.943288 226.938676 
L 236.747293 241.736177 
L 237.551298 237.379164 
L 238.355303 237.893104 
L 239.159308 255.805886 
L 240.767317 233.379395 
L 241.571322 227.734816 
L 242.375327 235.384659 
L 243.179332 225.484322 
L 243.983337 227.221831 
L 244.787342 244.535365 
L 245.591347 245.962316 
L 246.395352 221.819391 
L 247.199357 207.69071 
L 248.003361 186.214601 
L 248.807366 186.659518 
L 249.611371 206.663196 
L 250.415376 229.674756 
L 251.219381 234.465538 
L 252.023386 212.311371 
L 252.827391 221.89358 
L 253.631396 215.775292 
L 254.435401 202.29836 
L 255.239405 193.553693 
L 256.04341 225.677695 
L 256.847415 233.622235 
L 257.65142 226.829797 
L 258.455425 235.967925 
L 259.25943 231.512823 
L 260.063435 225.779294 
L 260.86744 229.184963 
L 261.671445 240.56954 
L 262.475449 238.082782 
L 264.083459 200.950686 
L 264.887464 167.589102 
L 265.691469 145.785049 
L 266.495474 157.670162 
L 268.103484 176.543107 
L 268.907489 172.690112 
L 269.711493 156.011096 
L 270.515498 166.011268 
L 271.319503 179.405114 
L 272.123508 189.177134 
L 272.927513 209.736781 
L 273.731518 216.86918 
L 274.535523 195.082461 
L 275.339528 160.879571 
L 276.143533 166.275478 
L 276.947537 170.243617 
L 277.751542 176.175336 
L 278.555547 192.549088 
L 279.359552 202.942568 
L 280.163557 179.310891 
L 280.967562 182.39152 
L 281.771567 192.701427 
L 282.575572 182.502316 
L 283.379577 198.223722 
L 284.183582 210.709126 
L 284.987586 212.418344 
L 285.791591 183.778518 
L 286.595596 192.593237 
L 287.399601 192.485031 
L 288.203606 196.728563 
L 289.007611 206.129858 
L 289.811616 211.576379 
L 290.615621 212.16516 
L 291.419626 198.006188 
L 292.22363 194.014085 
L 293.027635 185.369607 
L 293.83164 208.735635 
L 294.635645 209.198872 
L 295.43965 200.087684 
L 296.243655 214.589695 
L 297.04766 210.661449 
L 298.65567 228.487942 
L 299.459674 227.518817 
L 300.263679 233.312807 
L 301.871689 246.636755 
L 302.675694 228.008879 
L 303.479699 230.203352 
L 304.283704 226.364938 
L 305.087709 231.397824 
L 305.891714 230.321941 
L 306.695718 245.354298 
L 307.499723 251.336696 
L 308.303728 244.225163 
L 309.911738 233.525864 
L 310.715743 230.486892 
L 311.519748 238.594048 
L 312.323753 238.591529 
L 313.127758 248.836045 
L 314.735767 219.551616 
L 315.539772 198.247661 
L 317.147782 220.659944 
L 317.951787 234.5658 
L 318.755792 222.6645 
L 320.363802 203.913652 
L 321.167806 188.18218 
L 321.971811 191.500093 
L 322.775816 186.078968 
L 323.579821 209.03001 
L 324.383826 187.043475 
L 325.187831 130.540867 
L 325.991836 158.645036 
L 326.795841 163.525272 
L 327.599846 169.444844 
L 328.40385 164.762417 
L 329.207855 193.943065 
L 330.01186 199.067801 
L 330.815865 192.869314 
L 331.61987 204.070779 
L 332.423875 206.152821 
L 333.22788 200.261269 
L 334.031885 165.615375 
L 334.83589 177.552374 
L 335.639894 202.37917 
L 336.443899 189.370012 
L 337.247904 198.546191 
L 338.855914 184.689891 
L 339.659919 189.327378 
L 340.463924 206.451069 
L 341.267929 215.282559 
L 342.071934 204.320843 
L 342.875938 185.79405 
L 343.679943 194.444724 
L 344.483948 207.894842 
L 345.287953 213.516588 
L 346.091958 233.751158 
L 346.895963 239.125085 
L 347.699968 209.368762 
L 348.503973 225.162671 
L 349.307978 228.515956 
L 350.111982 229.606811 
L 351.719992 246.099485 
L 352.523997 250.855024 
L 353.328002 250.013499 
L 354.132007 245.448192 
L 354.936012 236.370182 
L 355.740017 237.698388 
L 356.544022 221.210936 
L 357.348026 243.720416 
L 358.152031 246.801776 
L 358.956036 225.719734 
L 359.760041 228.58654 
L 360.564046 235.363801 
L 361.368051 235.092996 
L 362.172056 251.160418 
L 362.976061 259.250819 
L 363.780066 261.248103 
L 364.58407 248.349707 
L 365.388075 247.848215 
L 366.996085 256.110069 
L 367.80009 258.488199 
L 368.604095 265.295779 
L 369.4081 266.486632 
L 370.212105 263.420739 
L 371.01611 264.289014 
L 371.820114 262.624386 
L 372.624119 266.78921 
L 373.428124 269.042324 
L 374.232129 273.76077 
L 375.036134 270.485543 
L 375.840139 268.453748 
L 378.252154 258.072788 
L 379.056158 250.198088 
L 379.860163 268.895001 
L 380.664168 272.19677 
L 381.468173 264.9988 
L 382.272178 259.35592 
L 383.076183 263.172568 
L 383.880188 256.211092 
L 384.684193 258.940884 
L 385.488198 267.355709 
L 386.292202 268.602529 
L 387.096207 255.426315 
L 387.900212 256.850517 
L 388.704217 256.751087 
L 389.508222 254.605644 
L 390.312227 244.616959 
L 391.116232 250.969775 
L 391.920237 254.11148 
L 392.724242 243.728501 
L 393.528246 241.02114 
L 394.332251 247.977419 
L 395.136256 248.939785 
L 395.940261 250.302671 
L 396.744266 264.179942 
L 397.548271 265.895521 
L 398.352276 257.960534 
L 399.156281 255.95161 
L 399.960286 254.800075 
L 400.76429 256.164269 
L 401.568295 262.180608 
L 402.3723 269.326934 
L 403.176305 271.828811 
L 403.98031 265.051541 
L 404.784315 260.619427 
L 406.392325 245.818514 
L 407.19633 253.788556 
L 408.000334 266.293908 
L 408.804339 267.788583 
L 409.608344 252.579086 
L 410.412349 256.531344 
L 411.216354 256.356935 
L 412.020359 254.811458 
L 412.824364 256.207826 
L 413.628369 256.116678 
L 414.432374 240.109085 
L 415.236378 241.64775 
L 416.040383 245.316554 
L 416.844388 254.287136 
L 417.648393 250.394476 
L 418.452398 259.536313 
L 419.256403 266.718306 
L 420.060408 271.200761 
L 420.864413 254.977364 
L 421.668418 250.048189 
L 422.472422 203.000531 
L 423.276427 165.425664 
L 424.080432 233.655787 
L 424.884437 263.671324 
L 425.688442 272.949895 
L 426.492447 273.340117 
L 427.296452 268.104674 
L 428.100457 270.932859 
L 428.904462 271.542422 
L 429.708466 270.352671 
L 430.512471 275.767207 
L 431.316476 274.880839 
L 432.120481 271.579178 
L 432.924486 271.154367 
L 433.728491 267.933986 
L 434.532496 256.44486 
L 435.336501 259.555198 
L 436.140506 276.006821 
L 436.94451 276.181061 
L 438.55252 256.231393 
L 439.356525 251.411441 
L 440.16053 245.191711 
L 440.964535 245.530411 
L 441.76854 252.796239 
L 442.572545 255.895167 
L 443.37655 253.546547 
L 444.180554 252.782909 
L 444.984559 239.073454 
L 445.788564 243.288017 
L 446.592569 251.744289 
L 447.396574 265.542101 
L 448.200579 266.910856 
L 449.004584 232.650847 
L 449.808589 254.009241 
L 450.612594 246.831936 
L 451.416598 260.273276 
L 452.220603 264.188107 
L 453.024608 264.577545 
L 453.828613 272.496282 
L 454.632618 271.675271 
L 455.436623 264.414089 
L 456.240628 265.462227 
L 457.044633 260.838634 
L 457.848638 262.646813 
L 458.652642 265.432111 
L 459.456647 265.293801 
L 460.260652 259.711216 
L 461.064657 259.359933 
L 461.868662 257.065671 
L 462.672667 255.697174 
L 463.476672 271.394401 
L 464.280677 279.743617 
L 465.084682 278.164546 
L 466.692691 270.71779 
L 467.496696 269.369996 
L 468.300701 266.956544 
L 469.104706 271.505225 
L 469.908711 278.623299 
L 470.712716 278.724998 
L 471.516721 272.461297 
L 472.320726 274.407181 
L 473.12473 272.16392 
L 473.928735 271.573031 
L 474.73274 270.767099 
L 475.536745 278.485079 
L 476.34075 277.892289 
L 477.144755 271.088277 
L 477.94876 270.087726 
L 478.752765 272.513721 
L 479.55677 278.059728 
L 480.360775 279.799108 
L 481.164779 282.397068 
L 481.968784 283.228917 
L 482.772789 278.377368 
L 483.576794 272.727289 
L 484.380799 279.512228 
L 485.184804 276.448832 
L 485.988809 279.793159 
L 486.792814 284.329411 
L 487.596819 284.529437 
L 488.400823 279.583028 
L 489.204828 281.210508 
L 490.008833 281.25864 
L 490.812838 279.333744 
L 491.616843 280.486695 
L 492.420848 283.968835 
L 493.224853 284.305854 
L 494.028858 279.210302 
L 494.832863 277.990675 
L 495.636867 273.675343 
L 496.440872 273.589017 
L 498.048882 282.699948 
L 498.852887 282.816942 
L 499.656892 277.042236 
L 500.460897 281.398345 
L 501.264902 281.74363 
L 502.068907 281.965133 
L 502.872911 277.850157 
L 503.676916 283.294565 
L 504.480921 285.301828 
L 505.284926 280.502059 
L 506.088931 281.008932 
L 506.892936 281.703534 
L 507.696941 281.682252 
L 508.500946 281.443315 
L 509.304951 284.190354 
L 510.108955 284.598242 
L 510.91296 279.428965 
L 511.716965 277.023895 
L 512.52097 274.971694 
L 513.324975 276.225342 
L 514.932985 284.681669 
L 515.73699 283.950216 
L 516.540995 282.716142 
L 517.344999 279.823043 
L 518.149004 276.308573 
L 518.953009 275.495474 
L 519.757014 274.939272 
L 520.561019 282.537557 
L 521.365024 283.507913 
L 522.169029 279.194314 
L 523.777039 280.689343 
L 524.581043 280.54312 
L 525.385048 283.855845 
L 526.189053 286.089268 
L 526.993058 285.791288 
L 527.797063 283.591792 
L 528.601068 282.981653 
L 529.405073 282.813582 
L 530.209078 283.150636 
L 531.013083 284.312154 
L 531.817087 285.991573 
L 532.621092 285.152462 
L 533.425097 283.395319 
L 534.229102 279.395612 
L 535.033107 280.009471 
L 535.837112 280.915214 
L 536.641117 279.723072 
L 537.445122 284.079379 
L 538.249127 286.140074 
L 539.053131 280.036987 
L 539.857136 280.288877 
L 540.661141 281.90574 
L 541.465146 282.360383 
L 542.269151 284.186532 
L 543.073156 283.484346 
L 543.877161 269.156264 
L 544.681166 263.653652 
L 546.289175 275.955627 
L 547.09318 275.992643 
L 547.897185 277.621403 
L 548.70119 277.88691 
L 549.505195 279.574309 
L 550.3092 274.947555 
L 551.113205 273.727181 
L 551.91721 271.540115 
L 552.721215 270.412595 
L 553.525219 270.196423 
L 554.329224 276.565377 
L 555.133229 280.402797 
L 555.937234 278.728309 
L 556.741239 277.670497 
L 557.545244 278.000684 
L 558.349249 278.702597 
L 559.153254 279.179756 
L 559.957259 281.783543 
L 560.761263 283.887151 
L 561.565268 276.185613 
L 562.369273 280.602303 
L 563.173278 279.691943 
L 563.977283 275.653966 
L 564.781288 277.227542 
L 565.585293 280.524507 
L 566.389298 281.06365 
L 567.193303 277.468406 
L 567.997307 272.406426 
L 568.801312 261.378412 
L 570.409322 275.582409 
L 571.213327 278.822579 
L 572.017332 278.421514 
L 572.821337 275.951716 
L 574.429347 277.630265 
L 575.233351 278.441875 
L 576.037356 279.948362 
L 576.841361 280.670207 
L 578.449371 280.818326 
L 579.253376 279.835642 
L 580.057381 280.059727 
L 581.665391 281.465387 
L 583.2734 282.070039 
L 584.077405 280.224735 
L 584.88141 281.242694 
L 585.685415 280.636484 
L 586.48942 280.560675 
L 587.293425 280.600651 
L 588.09743 280.908199 
L 588.901435 280.972955 
L 590.509444 279.179697 
L 591.313449 278.558652 
L 592.117454 278.818551 
L 592.921459 271.385527 
L 593.725464 278.25996 
L 594.529469 278.74838 
L 595.333474 276.614565 
L 596.137479 277.19155 
L 596.941483 278.419555 
L 597.745488 277.41071 
L 598.549493 276.894709 
L 599.353498 279.39368 
L 600.157503 279.475798 
L 600.961508 278.906342 
L 601.765513 278.600468 
L 602.569518 279.250111 
L 603.373523 278.673815 
L 604.177527 280.106783 
L 604.981532 281.162856 
L 605.785537 281.540964 
L 606.589542 281.174555 
L 607.393547 278.759428 
L 609.805562 277.305327 
L 610.609567 277.649836 
L 611.413571 278.929088 
L 612.217576 277.819372 
L 613.021581 275.828584 
L 613.825586 275.704852 
L 614.629591 273.647109 
L 615.433596 275.225537 
L 616.237601 278.143064 
L 617.041606 274.890866 
L 617.845611 274.029692 
L 619.45362 273.837695 
L 620.257625 274.251859 
L 621.06163 272.787864 
L 621.865635 274.102206 
L 622.66964 276.43829 
L 623.473645 274.39285 
L 624.27765 272.658543 
L 625.081655 273.565322 
L 625.885659 275.660667 
L 626.689664 274.781119 
L 627.493669 277.135138 
L 628.297674 278.044572 
L 629.101679 277.069762 
L 629.905684 275.028724 
L 630.709689 275.401479 
L 631.513694 275.397534 
L 632.317699 276.372469 
L 633.121703 278.517005 
L 633.925708 276.1966 
L 634.729713 276.264227 
L 635.533718 273.435032 
L 636.337723 274.512299 
L 637.141728 269.255004 
L 637.945733 268.164885 
L 638.749738 272.523926 
L 639.553743 275.310483 
L 640.357747 273.068911 
L 641.161752 266.970005 
L 641.965757 264.876016 
L 642.769762 265.490989 
L 643.573767 271.699042 
L 644.377772 276.663978 
L 645.181777 277.372116 
L 645.985782 271.79812 
L 646.789787 272.244249 
L 647.593791 261.290752 
L 648.397796 260.553346 
L 649.201801 267.066981 
L 650.005806 270.82038 
L 650.809811 272.131897 
L 651.613816 268.177982 
L 653.221826 265.033869 
L 654.025831 262.751137 
L 654.829835 267.606107 
L 655.63384 273.713744 
L 656.437845 274.147019 
L 657.24185 273.108125 
L 658.045855 272.413578 
L 658.045855 272.413578 
" clip-path="url(#pb8b19309c2)" style="fill: none; stroke: #ff7f0e; stroke-width: 1.5; stroke-linecap: square"/>
   </g>
   <g id="line2d_35">
    <path d="M 124.186609 314.918125 
L 124.186609 22.318125 
" clip-path="url(#pb8b19309c2)" style="fill: none; stroke-dasharray: 3.7,1.6; stroke-dashoffset: 0; stroke: #1f77b4"/>
   </g>
   <g id="line2d_36">
    <path d="M 569.605317 314.918125 
L 569.605317 22.318125 
" clip-path="url(#pb8b19309c2)" style="fill: none; stroke-dasharray: 3.7,1.6; stroke-dashoffset: 0; stroke: #d62728"/>
   </g>
   <g id="patch_3">
    <path d="M 42.620313 314.918125 
L 42.620313 22.318125 
" style="fill: none; stroke: #000000; stroke-width: 0.8; stroke-linejoin: miter; stroke-linecap: square"/>
   </g>
   <g id="patch_4">
    <path d="M 687.351833 314.918125 
L 687.351833 22.318125 
" style="fill: none; stroke: #000000; stroke-width: 0.8; stroke-linejoin: miter; stroke-linecap: square"/>
   </g>
   <g id="patch_5">
    <path d="M 42.620312 314.918125 
L 687.351833 314.918125 
" style="fill: none; stroke: #000000; stroke-width: 0.8; stroke-linejoin: miter; stroke-linecap: square"/>
   </g>
   <g id="patch_6">
    <path d="M 42.620312 22.318125 
L 687.351833 22.318125 
" style="fill: none; stroke: #000000; stroke-width: 0.8; stroke-linejoin: miter; stroke-linecap: square"/>
   </g>
   <g id="text_19">
    <!-- DEX volume vs ETH gas (normalized) -->
    <g transform="translate(253.423573 16.318125) scale(0.12 -0.12)">
     <defs>
      <path id="DejaVuSans-44" d="M 1259 4147 
L 1259 519 
L 2022 519 
Q 2988 519 3436 956 
Q 3884 1394 3884 2338 
Q 3884 3275 3436 3711 
Q 2988 4147 2022 4147 
L 1259 4147 
z
M 628 4666 
L 1925 4666 
Q 3281 4666 3915 4102 
Q 4550 3538 4550 2338 
Q 4550 1131 3912 565 
Q 3275 0 1925 0 
L 628 0 
L 628 4666 
z
" transform="scale(0.015625)"/>
      <path id="DejaVuSans-45" d="M 628 4666 
L 3578 4666 
L 3578 4134 
L 1259 4134 
L 1259 2753 
L 3481 2753 
L 3481 2222 
L 1259 2222 
L 1259 531 
L 3634 531 
L 3634 0 
L 628 0 
L 628 4666 
z
" transform="scale(0.015625)"/>
      <path id="DejaVuSans-58" d="M 403 4666 
L 1081 4666 
L 2241 2931 
L 3406 4666 
L 4084 4666 
L 2584 2425 
L 4184 0 
L 3506 0 
L 2194 1984 
L 872 0 
L 191 0 
L 1856 2491 
L 403 4666 
z
" transform="scale(0.015625)"/>
      <path id="DejaVuSans-20" transform="scale(0.015625)"/>
      <path id="DejaVuSans-76" d="M 191 3500 
L 800 3500 
L 1894 563 
L 2988 3500 
L 3597 3500 
L 2284 0 
L 1503 0 
L 191 3500 
z
" transform="scale(0.015625)"/>
      <path id="DejaVuSans-6c" d="M 603 4863 
L 1178 4863 
L 1178 0 
L 603 0 
L 603 4863 
z
" transform="scale(0.015625)"/>
      <path id="DejaVuSans-75" d="M 544 1381 
L 544 3500 
L 1119 3500 
L 1119 1403 
Q 1119 906 1312 657 
Q 1506 409 1894 409 
Q 2359 409 2629 706 
Q 2900 1003 2900 1516 
L 2900 3500 
L 3475 3500 
L 3475 0 
L 2900 0 
L 2900 538 
Q 2691 219 2414 64 
Q 2138 -91 1772 -91 
Q 1169 -91 856 284 
Q 544 659 544 1381 
z
M 1991 3584 
L 1991 3584 
z
" transform="scale(0.015625)"/>
      <path id="DejaVuSans-6d" d="M 3328 2828 
Q 3544 3216 3844 3400 
Q 4144 3584 4550 3584 
Q 5097 3584 5394 3201 
Q 5691 2819 5691 2113 
L 5691 0 
L 5113 0 
L 5113 2094 
Q 5113 2597 4934 2840 
Q 4756 3084 4391 3084 
Q 3944 3084 3684 2787 
Q 3425 2491 3425 1978 
L 3425 0 
L 2847 0 
L 2847 2094 
Q 2847 2600 2669 2842 
Q 2491 3084 2119 3084 
Q 1678 3084 1418 2786 
Q 1159 2488 1159 1978 
L 1159 0 
L 581 0 
L 581 3500 
L 1159 3500 
L 1159 2956 
Q 1356 3278 1631 3431 
Q 1906 3584 2284 3584 
Q 2666 3584 2933 3390 
Q 3200 3197 3328 2828 
z
" transform="scale(0.015625)"/>
      <path id="DejaVuSans-54" d="M -19 4666 
L 3928 4666 
L 3928 4134 
L 2272 4134 
L 2272 0 
L 1638 0 
L 1638 4134 
L -19 4134 
L -19 4666 
z
" transform="scale(0.015625)"/>
      <path id="DejaVuSans-48" d="M 628 4666 
L 1259 4666 
L 1259 2753 
L 3553 2753 
L 3553 4666 
L 4184 4666 
L 4184 0 
L 3553 0 
L 3553 2222 
L 1259 2222 
L 1259 0 
L 628 0 
L 628 4666 
z
" transform="scale(0.015625)"/>
      <path id="DejaVuSans-67" d="M 2906 1791 
Q 2906 2416 2648 2759 
Q 2391 3103 1925 3103 
Q 1463 3103 1205 2759 
Q 947 2416 947 1791 
Q 947 1169 1205 825 
Q 1463 481 1925 481 
Q 2391 481 2648 825 
Q 2906 1169 2906 1791 
z
M 3481 434 
Q 3481 -459 3084 -895 
Q 2688 -1331 1869 -1331 
Q 1566 -1331 1297 -1286 
Q 1028 -1241 775 -1147 
L 775 -588 
Q 1028 -725 1275 -790 
Q 1522 -856 1778 -856 
Q 2344 -856 2625 -561 
Q 2906 -266 2906 331 
L 2906 616 
Q 2728 306 2450 153 
Q 2172 0 1784 0 
Q 1141 0 747 490 
Q 353 981 353 1791 
Q 353 2603 747 3093 
Q 1141 3584 1784 3584 
Q 2172 3584 2450 3431 
Q 2728 3278 2906 2969 
L 2906 3500 
L 3481 3500 
L 3481 434 
z
" transform="scale(0.015625)"/>
      <path id="DejaVuSans-28" d="M 1984 4856 
Q 1566 4138 1362 3434 
Q 1159 2731 1159 2009 
Q 1159 1288 1364 580 
Q 1569 -128 1984 -844 
L 1484 -844 
Q 1016 -109 783 600 
Q 550 1309 550 2009 
Q 550 2706 781 3412 
Q 1013 4119 1484 4856 
L 1984 4856 
z
" transform="scale(0.015625)"/>
      <path id="DejaVuSans-6e" d="M 3513 2113 
L 3513 0 
L 2938 0 
L 2938 2094 
Q 2938 2591 2744 2837 
Q 2550 3084 2163 3084 
Q 1697 3084 1428 2787 
Q 1159 2491 1159 1978 
L 1159 0 
L 581 0 
L 581 3500 
L 1159 3500 
L 1159 2956 
Q 1366 3272 1645 3428 
Q 1925 3584 2291 3584 
Q 2894 3584 3203 3211 
Q 3513 2838 3513 2113 
z
" transform="scale(0.015625)"/>
      <path id="DejaVuSans-69" d="M 603 3500 
L 1178 3500 
L 1178 0 
L 603 0 
L 603 3500 
z
M 603 4863 
L 1178 4863 
L 1178 4134 
L 603 4134 
L 603 4863 
z
" transform="scale(0.015625)"/>
      <path id="DejaVuSans-29" d="M 513 4856 
L 1013 4856 
Q 1481 4119 1714 3412 
Q 1947 2706 1947 2009 
Q 1947 1309 1714 600 
Q 1481 -109 1013 -844 
L 513 -844 
Q 928 -128 1133 580 
Q 1338 1288 1338 2009 
Q 1338 2731 1133 3434 
Q 928 4138 513 4856 
z
" transform="scale(0.015625)"/>
     </defs>
     <use xlink:href="#DejaVuSans-44"/>
     <use xlink:href="#DejaVuSans-45" transform="translate(77.001953 0)"/>
     <use xlink:href="#DejaVuSans-58" transform="translate(140.185547 0)"/>
     <use xlink:href="#DejaVuSans-20" transform="translate(208.691406 0)"/>
     <use xlink:href="#DejaVuSans-76" transform="translate(240.478516 0)"/>
     <use xlink:href="#DejaVuSans-6f" transform="translate(299.658203 0)"/>
     <use xlink:href="#DejaVuSans-6c" transform="translate(360.839844 0)"/>
     <use xlink:href="#DejaVuSans-75" transform="translate(388.623047 0)"/>
     <use xlink:href="#DejaVuSans-6d" transform="translate(452.001953 0)"/>
     <use xlink:href="#DejaVuSans-65" transform="translate(549.414062 0)"/>
     <use xlink:href="#DejaVuSans-20" transform="translate(610.9375 0)"/>
     <use xlink:href="#DejaVuSans-76" transform="translate(642.724609 0)"/>
     <use xlink:href="#DejaVuSans-73" transform="translate(701.904297 0)"/>
     <use xlink:href="#DejaVuSans-20" transform="translate(754.003906 0)"/>
     <use xlink:href="#DejaVuSans-45" transform="translate(785.791016 0)"/>
     <use xlink:href="#DejaVuSans-54" transform="translate(848.974609 0)"/>
     <use xlink:href="#DejaVuSans-48" transform="translate(910.058594 0)"/>
     <use xlink:href="#DejaVuSans-20" transform="translate(985.253906 0)"/>
     <use xlink:href="#DejaVuSans-67" transform="translate(1017.041016 0)"/>
     <use xlink:href="#DejaVuSans-61" transform="translate(1080.517578 0)"/>
     <use xlink:href="#DejaVuSans-73" transform="translate(1141.796875 0)"/>
     <use xlink:href="#DejaVuSans-20" transform="translate(1193.896484 0)"/>
     <use xlink:href="#DejaVuSans-28" transform="translate(1225.683594 0)"/>
     <use xlink:href="#DejaVuSans-6e" transform="translate(1264.697266 0)"/>
     <use xlink:href="#DejaVuSans-6f" transform="translate(1328.076172 0)"/>
     <use xlink:href="#DejaVuSans-72" transform="translate(1389.257812 0)"/>
     <use xlink:href="#DejaVuSans-6d" transform="translate(1428.621094 0)"/>
     <use xlink:href="#DejaVuSans-61" transform="translate(1526.033203 0)"/>
     <use xlink:href="#DejaVuSans-6c" transform="translate(1587.3125 0)"/>
     <use xlink:href="#DejaVuSans-69" transform="translate(1615.095703 0)"/>
     <use xlink:href="#DejaVuSans-7a" transform="translate(1642.878906 0)"/>
     <use xlink:href="#DejaVuSans-65" transform="translate(1695.369141 0)"/>
     <use xlink:href="#DejaVuSans-64" transform="translate(1756.892578 0)"/>
     <use xlink:href="#DejaVuSans-29" transform="translate(1820.369141 0)"/>
    </g>
   </g>
   <g id="legend_1">
    <g id="line2d_37">
     <path d="M 51.620313 35.416562 
L 61.620313 35.416562 
L 71.620313 35.416562 
" style="fill: none; stroke: #1f77b4; stroke-width: 1.5; stroke-linecap: square"/>
    </g>
    <g id="text_20">
     <!-- DEX volume (z) -->
     <g transform="translate(79.620313 38.916562) scale(0.1 -0.1)">
      <use xlink:href="#DejaVuSans-44"/>
      <use xlink:href="#DejaVuSans-45" transform="translate(77.001953 0)"/>
      <use xlink:href="#DejaVuSans-58" transform="translate(140.185547 0)"/>
      <use xlink:href="#DejaVuSans-20" transform="translate(208.691406 0)"/>
      <use xlink:href="#DejaVuSans-76" transform="translate(240.478516 0)"/>
      <use xlink:href="#DejaVuSans-6f" transform="translate(299.658203 0)"/>
      <use xlink:href="#DejaVuSans-6c" transform="translate(360.839844 0)"/>
      <use xlink:href="#DejaVuSans-75" transform="translate(388.623047 0)"/>
      <use xlink:href="#DejaVuSans-6d" transform="translate(452.001953 0)"/>
      <use xlink:href="#DejaVuSans-65" transform="translate(549.414062 0)"/>
      <use xlink:href="#DejaVuSans-20" transform="translate(610.9375 0)"/>
      <use xlink:href="#DejaVuSans-28" transform="translate(642.724609 0)"/>
      <use xlink:href="#DejaVuSans-7a" transform="translate(681.738281 0)"/>
      <use xlink:href="#DejaVuSans-29" transform="translate(734.228516 0)"/>
     </g>
    </g>
    <g id="line2d_38">
     <path d="M 51.620313 50.094688 
L 61.620313 50.094688 
L 71.620313 50.094688 
" style="fill: none; stroke: #ff7f0e; stroke-width: 1.5; stroke-linecap: square"/>
    </g>
    <g id="text_21">
     <!-- ETH gas (z) -->
     <g transform="translate(79.620313 53.594688) scale(0.1 -0.1)">
      <use xlink:href="#DejaVuSans-45"/>
      <use xlink:href="#DejaVuSans-54" transform="translate(63.183594 0)"/>
      <use xlink:href="#DejaVuSans-48" transform="translate(124.267578 0)"/>
      <use xlink:href="#DejaVuSans-20" transform="translate(199.462891 0)"/>
      <use xlink:href="#DejaVuSans-67" transform="translate(231.25 0)"/>
      <use xlink:href="#DejaVuSans-61" transform="translate(294.726562 0)"/>
      <use xlink:href="#DejaVuSans-73" transform="translate(356.005859 0)"/>
      <use xlink:href="#DejaVuSans-20" transform="translate(408.105469 0)"/>
      <use xlink:href="#DejaVuSans-28" transform="translate(439.892578 0)"/>
      <use xlink:href="#DejaVuSans-7a" transform="translate(478.90625 0)"/>
      <use xlink:href="#DejaVuSans-29" transform="translate(531.396484 0)"/>
     </g>
    </g>
    <g id="line2d_39">
     <path d="M 51.620313 64.772812 
L 61.620313 64.772812 
L 71.620313 64.772812 
" style="fill: none; stroke-dasharray: 3.7,1.6; stroke-dashoffset: 0; stroke: #1f77b4"/>
    </g>
    <g id="text_22">
     <!-- Uniswap v3 launch (2021-05-05) -->
     <g transform="translate(79.620313 68.272812) scale(0.1 -0.1)">
      <defs>
       <path id="DejaVuSans-55" d="M 556 4666 
L 1191 4666 
L 1191 1831 
Q 1191 1081 1462 751 
Q 1734 422 2344 422 
Q 2950 422 3222 751 
Q 3494 1081 3494 1831 
L 3494 4666 
L 4128 4666 
L 4128 1753 
Q 4128 841 3676 375 
Q 3225 -91 2344 -91 
Q 1459 -91 1007 375 
Q 556 841 556 1753 
L 556 4666 
z
" transform="scale(0.015625)"/>
       <path id="DejaVuSans-77" d="M 269 3500 
L 844 3500 
L 1563 769 
L 2278 3500 
L 2956 3500 
L 3675 769 
L 4391 3500 
L 4966 3500 
L 4050 0 
L 3372 0 
L 2619 2869 
L 1863 0 
L 1184 0 
L 269 3500 
z
" transform="scale(0.015625)"/>
       <path id="DejaVuSans-70" d="M 1159 525 
L 1159 -1331 
L 581 -1331 
L 581 3500 
L 1159 3500 
L 1159 2969 
Q 1341 3281 1617 3432 
Q 1894 3584 2278 3584 
Q 2916 3584 3314 3078 
Q 3713 2572 3713 1747 
Q 3713 922 3314 415 
Q 2916 -91 2278 -91 
Q 1894 -91 1617 61 
Q 1341 213 1159 525 
z
M 3116 1747 
Q 3116 2381 2855 2742 
Q 2594 3103 2138 3103 
Q 1681 3103 1420 2742 
Q 1159 2381 1159 1747 
Q 1159 1113 1420 752 
Q 1681 391 2138 391 
Q 2594 391 2855 752 
Q 3116 1113 3116 1747 
z
" transform="scale(0.015625)"/>
       <path id="DejaVuSans-68" d="M 3513 2113 
L 3513 0 
L 2938 0 
L 2938 2094 
Q 2938 2591 2744 2837 
Q 2550 3084 2163 3084 
Q 1697 3084 1428 2787 
Q 1159 2491 1159 1978 
L 1159 0 
L 581 0 
L 581 4863 
L 1159 4863 
L 1159 2956 
Q 1366 3272 1645 3428 
Q 1925 3584 2291 3584 
Q 2894 3584 3203 3211 
Q 3513 2838 3513 2113 
z
" transform="scale(0.015625)"/>
      </defs>
      <use xlink:href="#DejaVuSans-55"/>
      <use xlink:href="#DejaVuSans-6e" transform="translate(73.193359 0)"/>
      <use xlink:href="#DejaVuSans-69" transform="translate(136.572266 0)"/>
      <use xlink:href="#DejaVuSans-73" transform="translate(164.355469 0)"/>
      <use xlink:href="#DejaVuSans-77" transform="translate(216.455078 0)"/>
      <use xlink:href="#DejaVuSans-61" transform="translate(298.242188 0)"/>
      <use xlink:href="#DejaVuSans-70" transform="translate(359.521484 0)"/>
      <use xlink:href="#DejaVuSans-20" transform="translate(422.998047 0)"/>
      <use xlink:href="#DejaVuSans-76" transform="translate(454.785156 0)"/>
      <use xlink:href="#DejaVuSans-33" transform="translate(513.964844 0)"/>
      <use xlink:href="#DejaVuSans-20" transform="translate(577.587891 0)"/>
      <use xlink:href="#DejaVuSans-6c" transform="translate(609.375 0)"/>
      <use xlink:href="#DejaVuSans-61" transform="translate(637.158203 0)"/>
      <use xlink:href="#DejaVuSans-75" transform="translate(698.4375 0)"/>
      <use xlink:href="#DejaVuSans-6e" transform="translate(761.816406 0)"/>
      <use xlink:href="#DejaVuSans-63" transform="translate(825.195312 0)"/>
      <use xlink:href="#DejaVuSans-68" transform="translate(880.175781 0)"/>
      <use xlink:href="#DejaVuSans-20" transform="translate(943.554688 0)"/>
      <use xlink:href="#DejaVuSans-28" transform="translate(975.341797 0)"/>
      <use xlink:href="#DejaVuSans-32" transform="translate(1014.355469 0)"/>
      <use xlink:href="#DejaVuSans-30" transform="translate(1077.978516 0)"/>
      <use xlink:href="#DejaVuSans-32" transform="translate(1141.601562 0)"/>
      <use xlink:href="#DejaVuSans-31" transform="translate(1205.224609 0)"/>
      <use xlink:href="#DejaVuSans-2d" transform="translate(1268.847656 0)"/>
      <use xlink:href="#DejaVuSans-30" transform="translate(1304.931641 0)"/>
      <use xlink:href="#DejaVuSans-35" transform="translate(1368.554688 0)"/>
      <use xlink:href="#DejaVuSans-2d" transform="translate(1432.177734 0)"/>
      <use xlink:href="#DejaVuSans-30" transform="translate(1468.261719 0)"/>
      <use xlink:href="#DejaVuSans-35" transform="translate(1531.884766 0)"/>
      <use xlink:href="#DejaVuSans-29" transform="translate(1595.507812 0)"/>
     </g>
    </g>
    <g id="line2d_40">
     <path d="M 51.620313 79.450938 
L 61.620313 79.450938 
L 71.620313 79.450938 
" style="fill: none; stroke-dasharray: 3.7,1.6; stroke-dashoffset: 0; stroke: #d62728"/>
    </g>
    <g id="text_23">
     <!-- FTX collapse (2022-11-10) -->
     <g transform="translate(79.620313 82.950938) scale(0.1 -0.1)">
      <defs>
       <path id="DejaVuSans-46" d="M 628 4666 
L 3309 4666 
L 3309 4134 
L 1259 4134 
L 1259 2759 
L 3109 2759 
L 3109 2228 
L 1259 2228 
L 1259 0 
L 628 0 
L 628 4666 
z
" transform="scale(0.015625)"/>
      </defs>
      <use xlink:href="#DejaVuSans-46"/>
      <use xlink:href="#DejaVuSans-54" transform="translate(55.769531 0)"/>
      <use xlink:href="#DejaVuSans-58" transform="translate(116.853516 0)"/>
      <use xlink:href="#DejaVuSans-20" transform="translate(185.359375 0)"/>
      <use xlink:href="#DejaVuSans-63" transform="translate(217.146484 0)"/>
      <use xlink:href="#DejaVuSans-6f" transform="translate(272.126953 0)"/>
      <use xlink:href="#DejaVuSans-6c" transform="translate(333.308594 0)"/>
      <use xlink:href="#DejaVuSans-6c" transform="translate(361.091797 0)"/>
      <use xlink:href="#DejaVuSans-61" transform="translate(388.875 0)"/>
      <use xlink:href="#DejaVuSans-70" transform="translate(450.154297 0)"/>
      <use xlink:href="#DejaVuSans-73" transform="translate(513.630859 0)"/>
      <use xlink:href="#DejaVuSans-65" transform="translate(565.730469 0)"/>
      <use xlink:href="#DejaVuSans-20" transform="translate(627.253906 0)"/>
      <use xlink:href="#DejaVuSans-28" transform="translate(659.041016 0)"/>
      <use xlink:href="#DejaVuSans-32" transform="translate(698.054688 0)"/>
      <use xlink:href="#DejaVuSans-30" transform="translate(761.677734 0)"/>
      <use xlink:href="#DejaVuSans-32" transform="translate(825.300781 0)"/>
      <use xlink:href="#DejaVuSans-32" transform="translate(888.923828 0)"/>
      <use xlink:href="#DejaVuSans-2d" transform="translate(952.546875 0)"/>
      <use xlink:href="#DejaVuSans-31" transform="translate(988.630859 0)"/>
      <use xlink:href="#DejaVuSans-31" transform="translate(1052.253906 0)"/>
      <use xlink:href="#DejaVuSans-2d" transform="translate(1115.876953 0)"/>
      <use xlink:href="#DejaVuSans-31" transform="translate(1151.960938 0)"/>
      <use xlink:href="#DejaVuSans-30" transform="translate(1215.583984 0)"/>
      <use xlink:href="#DejaVuSans-29" transform="translate(1279.207031 0)"/>
     </g>
    </g>
   </g>
  </g>
 </g>
 <defs>
  <clipPath id="pb8b19309c2">
   <rect x="42.620313" y="22.318125" width="644.731521" height="292.6"/>
  </clipPath>
 </defs>
</svg>
