<?xml version="1.0" encoding="utf-8" standalone="no"?>
<!DOCTYPE svg PUBLIC "-//W3C//DTD SVG 1.1//EN"
  "http://www.w3.org/Graphics/SVG/1.1/DTD/svg11.dtd">
<svg xmlns:xlink="http://www.w3.org/1999/xlink" width="711.865418pt" height="352.474375pt" viewBox="0 0 711.865418 352.474375" xmlns="http://www.w3.org/2000/svg" version="1.1">
 <title>06_cex_proxies_timeseries_z</title>
 <metadata>
  <rdf:RDF xmlns:dc="http://purl.org/dc/elements/1.1/" xmlns:cc="http://creativecommons.org/ns#" xmlns:rdf="http://www.w3.org/1999/02/22-rdf-syntax-ns#">
   <cc:Work>
    <dc:type rdf:resource="http://purl.org/dc/dcmitype/StillImage"/>
    <dc:title>06_cex_proxies_timeseries_z</dc:title>
    <dc:date>2025-09-14T12:22:09.837440</dc:date>
    <dc:format>image/svg+xml</dc:format>
    <dc:creator>
     <cc:Agent>
      <dc:title>Matplotlib v3.10.5, https://matplotlib.org/</dc:title>
     </cc:Agent>
    </dc:creator>
   </cc:Work>
  </rdf:RDF>
 </metadata>
 <defs>
  <style type="text/css">*{stroke-linejoin: round; stroke-linecap: butt}</style>
 </defs>
 <g id="figure_1">
  <g id="patch_1">
   <path d="M 0 352.474375 
L 711.865418 352.474375 
L 711.865418 0 
L 0 0 
z
" style="fill: #ffffff"/>
  </g>
  <g id="axes_1">
   <g id="patch_2">
    <path d="M 42.620313 314.918125 
L 687.351833 314.918125 
L 687.351833 22.318125 
L 42.620313 22.318125 
z
" style="fill: #ffffff"/>
   </g>
   <g id="matplotlib.axis_1">
    <g id="xtick_1">
     <g id="line2d_1">
      <path d="M 96.850442 314.918125 
L 96.850442 22.318125 
" clip-path="url(#p0fdeb41d41)" style="fill: none; stroke: #b0b0b0; stroke-width: 0.8; stroke-linecap: square"/>
     </g>
     <g id="line2d_2">
      <defs>
       <path id="m8f24b57774" d="M 0 0 
L 0 3.5 
" style="stroke: #000000; stroke-width: 0.8"/>
      </defs>
      <g>
       <use xlink:href="#m8f24b57774" x="96.850442" y="314.918125" style="stroke: #000000; stroke-width: 0.8"/>
      </g>
     </g>
     <g id="text_1">
      <!-- 2021-04 -->
      <g transform="translate(75.959036 329.516563) scale(0.1 -0.1)">
       <defs>
        <path id="DejaVuSans-32" d="M 1228 531 
L 3431 531 
L 3431 0 
L 469 0 
L 469 531 
Q 828 903 1448 1529 
Q 2069 2156 2228 2338 
Q 2531 2678 2651 2914 
Q 2772 3150 2772 3378 
Q 2772 3750 2511 3984 
Q 2250 4219 1831 4219 
Q 1534 4219 1204 4116 
Q 875 4013 500 3803 
L 500 4441 
Q 881 4594 1212 4672 
Q 1544 4750 1819 4750 
Q 2544 4750 2975 4387 
Q 3406 4025 3406 3419 
Q 3406 3131 3298 2873 
Q 3191 2616 2906 2266 
Q 2828 2175 2409 1742 
Q 1991 1309 1228 531 
z
" transform="scale(0.015625)"/>
        <path id="DejaVuSans-30" d="M 2034 4250 
Q 1547 4250 1301 3770 
Q 1056 3291 1056 2328 
Q 1056 1369 1301 889 
Q 1547 409 2034 409 
Q 2525 409 2770 889 
Q 3016 1369 3016 2328 
Q 3016 3291 2770 3770 
Q 2525 4250 2034 4250 
z
M 2034 4750 
Q 2819 4750 3233 4129 
Q 3647 3509 3647 2328 
Q 3647 1150 3233 529 
Q 2819 -91 2034 -91 
Q 1250 -91 836 529 
Q 422 1150 422 2328 
Q 422 3509 836 4129 
Q 1250 4750 2034 4750 
z
" transform="scale(0.015625)"/>
        <path id="DejaVuSans-31" d="M 794 531 
L 1825 531 
L 1825 4091 
L 703 3866 
L 703 4441 
L 1819 4666 
L 2450 4666 
L 2450 531 
L 3481 531 
L 3481 0 
L 794 0 
L 794 531 
z
" transform="scale(0.015625)"/>
        <path id="DejaVuSans-2d" d="M 313 2009 
L 1997 2009 
L 1997 1497 
L 313 1497 
L 313 2009 
z
" transform="scale(0.015625)"/>
        <path id="DejaVuSans-34" d="M 2419 4116 
L 825 1625 
L 2419 1625 
L 2419 4116 
z
M 2253 4666 
L 3047 4666 
L 3047 1625 
L 3713 1625 
L 3713 1100 
L 3047 1100 
L 3047 0 
L 2419 0 
L 2419 1100 
L 313 1100 
L 313 1709 
L 2253 4666 
z
" transform="scale(0.015625)"/>
       </defs>
       <use xlink:href="#DejaVuSans-32"/>
       <use xlink:href="#DejaVuSans-30" transform="translate(63.623047 0)"/>
       <use xlink:href="#DejaVuSans-32" transform="translate(127.246094 0)"/>
       <use xlink:href="#DejaVuSans-31" transform="translate(190.869141 0)"/>
       <use xlink:href="#DejaVuSans-2d" transform="translate(254.492188 0)"/>
       <use xlink:href="#DejaVuSans-30" transform="translate(290.576172 0)"/>
       <use xlink:href="#DejaVuSans-34" transform="translate(354.199219 0)"/>
      </g>
     </g>
    </g>
    <g id="xtick_2">
     <g id="line2d_3">
      <path d="M 170.014887 314.918125 
L 170.014887 22.318125 
" clip-path="url(#p0fdeb41d41)" style="fill: none; stroke: #b0b0b0; stroke-width: 0.8; stroke-linecap: square"/>
     </g>
     <g id="line2d_4">
      <g>
       <use xlink:href="#m8f24b57774" x="170.014887" y="314.918125" style="stroke: #000000; stroke-width: 0.8"/>
      </g>
     </g>
     <g id="text_2">
      <!-- 2021-07 -->
      <g transform="translate(149.123481 329.516563) scale(0.1 -0.1)">
       <defs>
        <path id="DejaVuSans-37" d="M 525 4666 
L 3525 4666 
L 3525 4397 
L 1831 0 
L 1172 0 
L 2766 4134 
L 525 4134 
L 525 4666 
z
" transform="scale(0.015625)"/>
       </defs>
       <use xlink:href="#DejaVuSans-32"/>
       <use xlink:href="#DejaVuSans-30" transform="translate(63.623047 0)"/>
       <use xlink:href="#DejaVuSans-32" transform="translate(127.246094 0)"/>
       <use xlink:href="#DejaVuSans-31" transform="translate(190.869141 0)"/>
       <use xlink:href="#DejaVuSans-2d" transform="translate(254.492188 0)"/>
       <use xlink:href="#DejaVuSans-30" transform="translate(290.576172 0)"/>
       <use xlink:href="#DejaVuSans-37" transform="translate(354.199219 0)"/>
      </g>
     </g>
    </g>
    <g id="xtick_3">
     <g id="line2d_5">
      <path d="M 243.983337 314.918125 
L 243.983337 22.318125 
" clip-path="url(#p0fdeb41d41)" style="fill: none; stroke: #b0b0b0; stroke-width: 0.8; stroke-linecap: square"/>
     </g>
     <g id="line2d_6">
      <g>
       <use xlink:href="#m8f24b57774" x="243.983337" y="314.918125" style="stroke: #000000; stroke-width: 0.8"/>
      </g>
     </g>
     <g id="text_3">
      <!-- 2021-10 -->
      <g transform="translate(223.091931 329.516563) scale(0.1 -0.1)">
       <use xlink:href="#DejaVuSans-32"/>
       <use xlink:href="#DejaVuSans-30" transform="translate(63.623047 0)"/>
       <use xlink:href="#DejaVuSans-32" transform="translate(127.246094 0)"/>
       <use xlink:href="#DejaVuSans-31" transform="translate(190.869141 0)"/>
       <use xlink:href="#DejaVuSans-2d" transform="translate(254.492188 0)"/>
       <use xlink:href="#DejaVuSans-31" transform="translate(290.576172 0)"/>
       <use xlink:href="#DejaVuSans-30" transform="translate(354.199219 0)"/>
      </g>
     </g>
    </g>
    <g id="xtick_4">
     <g id="line2d_7">
      <path d="M 317.951787 314.918125 
L 317.951787 22.318125 
" clip-path="url(#p0fdeb41d41)" style="fill: none; stroke: #b0b0b0; stroke-width: 0.8; stroke-linecap: square"/>
     </g>
     <g id="line2d_8">
      <g>
       <use xlink:href="#m8f24b57774" x="317.951787" y="314.918125" style="stroke: #000000; stroke-width: 0.8"/>
      </g>
     </g>
     <g id="text_4">
      <!-- 2022-01 -->
      <g transform="translate(297.060381 329.516563) scale(0.1 -0.1)">
       <use xlink:href="#DejaVuSans-32"/>
       <use xlink:href="#DejaVuSans-30" transform="translate(63.623047 0)"/>
       <use xlink:href="#DejaVuSans-32" transform="translate(127.246094 0)"/>
       <use xlink:href="#DejaVuSans-32" transform="translate(190.869141 0)"/>
       <use xlink:href="#DejaVuSans-2d" transform="translate(254.492188 0)"/>
       <use xlink:href="#DejaVuSans-30" transform="translate(290.576172 0)"/>
       <use xlink:href="#DejaVuSans-31" transform="translate(354.199219 0)"/>
      </g>
     </g>
    </g>
    <g id="xtick_5">
     <g id="line2d_9">
      <path d="M 390.312227 314.918125 
L 390.312227 22.318125 
" clip-path="url(#p0fdeb41d41)" style="fill: none; stroke: #b0b0b0; stroke-width: 0.8; stroke-linecap: square"/>
     </g>
     <g id="line2d_10">
      <g>
       <use xlink:href="#m8f24b57774" x="390.312227" y="314.918125" style="stroke: #000000; stroke-width: 0.8"/>
      </g>
     </g>
     <g id="text_5">
      <!-- 2022-04 -->
      <g transform="translate(369.420821 329.516563) scale(0.1 -0.1)">
       <use xlink:href="#DejaVuSans-32"/>
       <use xlink:href="#DejaVuSans-30" transform="translate(63.623047 0)"/>
       <use xlink:href="#DejaVuSans-32" transform="translate(127.246094 0)"/>
       <use xlink:href="#DejaVuSans-32" transform="translate(190.869141 0)"/>
       <use xlink:href="#DejaVuSans-2d" transform="translate(254.492188 0)"/>
       <use xlink:href="#DejaVuSans-30" transform="translate(290.576172 0)"/>
       <use xlink:href="#DejaVuSans-34" transform="translate(354.199219 0)"/>
      </g>
     </g>
    </g>
    <g id="xtick_6">
     <g id="line2d_11">
      <path d="M 463.476672 314.918125 
L 463.476672 22.318125 
" clip-path="url(#p0fdeb41d41)" style="fill: none; stroke: #b0b0b0; stroke-width: 0.8; stroke-linecap: square"/>
     </g>
     <g id="line2d_12">
      <g>
       <use xlink:href="#m8f24b57774" x="463.476672" y="314.918125" style="stroke: #000000; stroke-width: 0.8"/>
      </g>
     </g>
     <g id="text_6">
      <!-- 2022-07 -->
      <g transform="translate(442.585266 329.516563) scale(0.1 -0.1)">
       <use xlink:href="#DejaVuSans-32"/>
       <use xlink:href="#DejaVuSans-30" transform="translate(63.623047 0)"/>
       <use xlink:href="#DejaVuSans-32" transform="translate(127.246094 0)"/>
       <use xlink:href="#DejaVuSans-32" transform="translate(190.869141 0)"/>
       <use xlink:href="#DejaVuSans-2d" transform="translate(254.492188 0)"/>
       <use xlink:href="#DejaVuSans-30" transform="translate(290.576172 0)"/>
       <use xlink:href="#DejaVuSans-37" transform="translate(354.199219 0)"/>
      </g>
     </g>
    </g>
    <g id="xtick_7">
     <g id="line2d_13">
      <path d="M 537.445122 314.918125 
L 537.445122 22.318125 
" clip-path="url(#p0fdeb41d41)" style="fill: none; stroke: #b0b0b0; stroke-width: 0.8; stroke-linecap: square"/>
     </g>
     <g id="line2d_14">
      <g>
       <use xlink:href="#m8f24b57774" x="537.445122" y="314.918125" style="stroke: #000000; stroke-width: 0.8"/>
      </g>
     </g>
     <g id="text_7">
      <!-- 2022-10 -->
      <g transform="translate(516.553715 329.516563) scale(0.1 -0.1)">
       <use xlink:href="#DejaVuSans-32"/>
       <use xlink:href="#DejaVuSans-30" transform="translate(63.623047 0)"/>
       <use xlink:href="#DejaVuSans-32" transform="translate(127.246094 0)"/>
       <use xlink:href="#DejaVuSans-32" transform="translate(190.869141 0)"/>
       <use xlink:href="#DejaVuSans-2d" transform="translate(254.492188 0)"/>
       <use xlink:href="#DejaVuSans-31" transform="translate(290.576172 0)"/>
       <use xlink:href="#DejaVuSans-30" transform="translate(354.199219 0)"/>
      </g>
     </g>
    </g>
    <g id="xtick_8">
     <g id="line2d_15">
      <path d="M 611.413571 314.918125 
L 611.413571 22.318125 
" clip-path="url(#p0fdeb41d41)" style="fill: none; stroke: #b0b0b0; stroke-width: 0.8; stroke-linecap: square"/>
     </g>
     <g id="line2d_16">
      <g>
       <use xlink:href="#m8f24b57774" x="611.413571" y="314.918125" style="stroke: #000000; stroke-width: 0.8"/>
      </g>
     </g>
     <g id="text_8">
      <!-- 2023-01 -->
      <g transform="translate(590.522165 329.516563) scale(0.1 -0.1)">
       <defs>
        <path id="DejaVuSans-33" d="M 2597 2516 
Q 3050 2419 3304 2112 
Q 3559 1806 3559 1356 
Q 3559 666 3084 287 
Q 2609 -91 1734 -91 
Q 1441 -91 1130 -33 
Q 819 25 488 141 
L 488 750 
Q 750 597 1062 519 
Q 1375 441 1716 441 
Q 2309 441 2620 675 
Q 2931 909 2931 1356 
Q 2931 1769 2642 2001 
Q 2353 2234 1838 2234 
L 1294 2234 
L 1294 2753 
L 1863 2753 
Q 2328 2753 2575 2939 
Q 2822 3125 2822 3475 
Q 2822 3834 2567 4026 
Q 2313 4219 1838 4219 
Q 1578 4219 1281 4162 
Q 984 4106 628 3988 
L 628 4550 
Q 988 4650 1302 4700 
Q 1616 4750 1894 4750 
Q 2613 4750 3031 4423 
Q 3450 4097 3450 3541 
Q 3450 3153 3228 2886 
Q 3006 2619 2597 2516 
z
" transform="scale(0.015625)"/>
       </defs>
       <use xlink:href="#DejaVuSans-32"/>
       <use xlink:href="#DejaVuSans-30" transform="translate(63.623047 0)"/>
       <use xlink:href="#DejaVuSans-32" transform="translate(127.246094 0)"/>
       <use xlink:href="#DejaVuSans-33" transform="translate(190.869141 0)"/>
       <use xlink:href="#DejaVuSans-2d" transform="translate(254.492188 0)"/>
       <use xlink:href="#DejaVuSans-30" transform="translate(290.576172 0)"/>
       <use xlink:href="#DejaVuSans-31" transform="translate(354.199219 0)"/>
      </g>
     </g>
    </g>
    <g id="xtick_9">
     <g id="line2d_17">
      <path d="M 683.774012 314.918125 
L 683.774012 22.318125 
" clip-path="url(#p0fdeb41d41)" style="fill: none; stroke: #b0b0b0; stroke-width: 0.8; stroke-linecap: square"/>
     </g>
     <g id="line2d_18">
      <g>
       <use xlink:href="#m8f24b57774" x="683.774012" y="314.918125" style="stroke: #000000; stroke-width: 0.8"/>
      </g>
     </g>
     <g id="text_9">
      <!-- 2023-04 -->
      <g transform="translate(662.882605 329.516563) scale(0.1 -0.1)">
       <use xlink:href="#DejaVuSans-32"/>
       <use xlink:href="#DejaVuSans-30" transform="translate(63.623047 0)"/>
       <use xlink:href="#DejaVuSans-32" transform="translate(127.246094 0)"/>
       <use xlink:href="#DejaVuSans-33" transform="translate(190.869141 0)"/>
       <use xlink:href="#DejaVuSans-2d" transform="translate(254.492188 0)"/>
       <use xlink:href="#DejaVuSans-30" transform="translate(290.576172 0)"/>
       <use xlink:href="#DejaVuSans-34" transform="translate(354.199219 0)"/>
      </g>
     </g>
    </g>
    <g id="text_10">
     <!-- date -->
     <g transform="translate(353.711073 343.194687) scale(0.1 -0.1)">
      <defs>
       <path id="DejaVuSans-64" d="M 2906 2969 
L 2906 4863 
L 3481 4863 
L 3481 0 
L 2906 0 
L 2906 525 
Q 2725 213 2448 61 
Q 2172 -91 1784 -91 
Q 1150 -91 751 415 
Q 353 922 353 1747 
Q 353 2572 751 3078 
Q 1150 3584 1784 3584 
Q 2172 3584 2448 3432 
Q 2725 3281 2906 2969 
z
M 947 1747 
Q 947 1113 1208 752 
Q 1469 391 1925 391 
Q 2381 391 2643 752 
Q 2906 1113 2906 1747 
Q 2906 2381 2643 2742 
Q 2381 3103 1925 3103 
Q 1469 3103 1208 2742 
Q 947 2381 947 1747 
z
" transform="scale(0.015625)"/>
       <path id="DejaVuSans-61" d="M 2194 1759 
Q 1497 1759 1228 1600 
Q 959 1441 959 1056 
Q 959 750 1161 570 
Q 1363 391 1709 391 
Q 2188 391 2477 730 
Q 2766 1069 2766 1631 
L 2766 1759 
L 2194 1759 
z
M 3341 1997 
L 3341 0 
L 2766 0 
L 2766 531 
Q 2569 213 2275 61 
Q 1981 -91 1556 -91 
Q 1019 -91 701 211 
Q 384 513 384 1019 
Q 384 1609 779 1909 
Q 1175 2209 1959 2209 
L 2766 2209 
L 2766 2266 
Q 2766 2663 2505 2880 
Q 2244 3097 1772 3097 
Q 1472 3097 1187 3025 
Q 903 2953 641 2809 
L 641 3341 
Q 956 3463 1253 3523 
Q 1550 3584 1831 3584 
Q 2591 3584 2966 3190 
Q 3341 2797 3341 1997 
z
" transform="scale(0.015625)"/>
       <path id="DejaVuSans-74" d="M 1172 4494 
L 1172 3500 
L 2356 3500 
L 2356 3053 
L 1172 3053 
L 1172 1153 
Q 1172 725 1289 603 
Q 1406 481 1766 481 
L 2356 481 
L 2356 0 
L 1766 0 
Q 1100 0 847 248 
Q 594 497 594 1153 
L 594 3053 
L 172 3053 
L 172 3500 
L 594 3500 
L 594 4494 
L 1172 4494 
z
" transform="scale(0.015625)"/>
       <path id="DejaVuSans-65" d="M 3597 1894 
L 3597 1613 
L 953 1613 
Q 991 1019 1311 708 
Q 1631 397 2203 397 
Q 2534 397 2845 478 
Q 3156 559 3463 722 
L 3463 178 
Q 3153 47 2828 -22 
Q 2503 -91 2169 -91 
Q 1331 -91 842 396 
Q 353 884 353 1716 
Q 353 2575 817 3079 
Q 1281 3584 2069 3584 
Q 2775 3584 3186 3129 
Q 3597 2675 3597 1894 
z
M 3022 2063 
Q 3016 2534 2758 2815 
Q 2500 3097 2075 3097 
Q 1594 3097 1305 2825 
Q 1016 2553 972 2059 
L 3022 2063 
z
" transform="scale(0.015625)"/>
      </defs>
      <use xlink:href="#DejaVuSans-64"/>
      <use xlink:href="#DejaVuSans-61" transform="translate(63.476562 0)"/>
      <use xlink:href="#DejaVuSans-74" transform="translate(124.755859 0)"/>
      <use xlink:href="#DejaVuSans-65" transform="translate(163.964844 0)"/>
     </g>
    </g>
   </g>
   <g id="matplotlib.axis_2">
    <g id="ytick_1">
     <g id="line2d_19">
      <path d="M 42.620313 302.507987 
L 687.351833 302.507987 
" clip-path="url(#p0fdeb41d41)" style="fill: none; stroke: #b0b0b0; stroke-width: 0.8; stroke-linecap: square"/>
     </g>
     <g id="line2d_20">
      <defs>
       <path id="m4317d5d879" d="M 0 0 
L -3.5 0 
" style="stroke: #000000; stroke-width: 0.8"/>
      </defs>
      <g>
       <use xlink:href="#m4317d5d879" x="42.620313" y="302.507987" style="stroke: #000000; stroke-width: 0.8"/>
      </g>
     </g>
     <g id="text_11">
      <!-- −2 -->
      <g transform="translate(20.878125 306.307205) scale(0.1 -0.1)">
       <defs>
        <path id="DejaVuSans-2212" d="M 678 2272 
L 4684 2272 
L 4684 1741 
L 678 1741 
L 678 2272 
z
" transform="scale(0.015625)"/>
       </defs>
       <use xlink:href="#DejaVuSans-2212"/>
       <use xlink:href="#DejaVuSans-32" transform="translate(83.789062 0)"/>
      </g>
     </g>
    </g>
    <g id="ytick_2">
     <g id="line2d_21">
      <path d="M 42.620313 267.340441 
L 687.351833 267.340441 
" clip-path="url(#p0fdeb41d41)" style="fill: none; stroke: #b0b0b0; stroke-width: 0.8; stroke-linecap: square"/>
     </g>
     <g id="line2d_22">
      <g>
       <use xlink:href="#m4317d5d879" x="42.620313" y="267.340441" style="stroke: #000000; stroke-width: 0.8"/>
      </g>
     </g>
     <g id="text_12">
      <!-- −1 -->
      <g transform="translate(20.878125 271.13966) scale(0.1 -0.1)">
       <use xlink:href="#DejaVuSans-2212"/>
       <use xlink:href="#DejaVuSans-31" transform="translate(83.789062 0)"/>
      </g>
     </g>
    </g>
    <g id="ytick_3">
     <g id="line2d_23">
      <path d="M 42.620313 232.172896 
L 687.351833 232.172896 
" clip-path="url(#p0fdeb41d41)" style="fill: none; stroke: #b0b0b0; stroke-width: 0.8; stroke-linecap: square"/>
     </g>
     <g id="line2d_24">
      <g>
       <use xlink:href="#m4317d5d879" x="42.620313" y="232.172896" style="stroke: #000000; stroke-width: 0.8"/>
      </g>
     </g>
     <g id="text_13">
      <!-- 0 -->
      <g transform="translate(29.257813 235.972114) scale(0.1 -0.1)">
       <use xlink:href="#DejaVuSans-30"/>
      </g>
     </g>
    </g>
    <g id="ytick_4">
     <g id="line2d_25">
      <path d="M 42.620313 197.00535 
L 687.351833 197.00535 
" clip-path="url(#p0fdeb41d41)" style="fill: none; stroke: #b0b0b0; stroke-width: 0.8; stroke-linecap: square"/>
     </g>
     <g id="line2d_26">
      <g>
       <use xlink:href="#m4317d5d879" x="42.620313" y="197.00535" style="stroke: #000000; stroke-width: 0.8"/>
      </g>
     </g>
     <g id="text_14">
      <!-- 1 -->
      <g transform="translate(29.257813 200.804569) scale(0.1 -0.1)">
       <use xlink:href="#DejaVuSans-31"/>
      </g>
     </g>
    </g>
    <g id="ytick_5">
     <g id="line2d_27">
      <path d="M 42.620313 161.837805 
L 687.351833 161.837805 
" clip-path="url(#p0fdeb41d41)" style="fill: none; stroke: #b0b0b0; stroke-width: 0.8; stroke-linecap: square"/>
     </g>
     <g id="line2d_28">
      <g>
       <use xlink:href="#m4317d5d879" x="42.620313" y="161.837805" style="stroke: #000000; stroke-width: 0.8"/>
      </g>
     </g>
     <g id="text_15">
      <!-- 2 -->
      <g transform="translate(29.257813 165.637023) scale(0.1 -0.1)">
       <use xlink:href="#DejaVuSans-32"/>
      </g>
     </g>
    </g>
    <g id="ytick_6">
     <g id="line2d_29">
      <path d="M 42.620313 126.670259 
L 687.351833 126.670259 
" clip-path="url(#p0fdeb41d41)" style="fill: none; stroke: #b0b0b0; stroke-width: 0.8; stroke-linecap: square"/>
     </g>
     <g id="line2d_30">
      <g>
       <use xlink:href="#m4317d5d879" x="42.620313" y="126.670259" style="stroke: #000000; stroke-width: 0.8"/>
      </g>
     </g>
     <g id="text_16">
      <!-- 3 -->
      <g transform="translate(29.257813 130.469478) scale(0.1 -0.1)">
       <use xlink:href="#DejaVuSans-33"/>
      </g>
     </g>
    </g>
    <g id="ytick_7">
     <g id="line2d_31">
      <path d="M 42.620313 91.502714 
L 687.351833 91.502714 
" clip-path="url(#p0fdeb41d41)" style="fill: none; stroke: #b0b0b0; stroke-width: 0.8; stroke-linecap: square"/>
     </g>
     <g id="line2d_32">
      <g>
       <use xlink:href="#m4317d5d879" x="42.620313" y="91.502714" style="stroke: #000000; stroke-width: 0.8"/>
      </g>
     </g>
     <g id="text_17">
      <!-- 4 -->
      <g transform="translate(29.257813 95.301932) scale(0.1 -0.1)">
       <use xlink:href="#DejaVuSans-34"/>
      </g>
     </g>
    </g>
    <g id="ytick_8">
     <g id="line2d_33">
      <path d="M 42.620313 56.335168 
L 687.351833 56.335168 
" clip-path="url(#p0fdeb41d41)" style="fill: none; stroke: #b0b0b0; stroke-width: 0.8; stroke-linecap: square"/>
     </g>
     <g id="line2d_34">
      <g>
       <use xlink:href="#m4317d5d879" x="42.620313" y="56.335168" style="stroke: #000000; stroke-width: 0.8"/>
      </g>
     </g>
     <g id="text_18">
      <!-- 5 -->
      <g transform="translate(29.257813 60.134387) scale(0.1 -0.1)">
       <defs>
        <path id="DejaVuSans-35" d="M 691 4666 
L 3169 4666 
L 3169 4134 
L 1269 4134 
L 1269 2991 
Q 1406 3038 1543 3061 
Q 1681 3084 1819 3084 
Q 2600 3084 3056 2656 
Q 3513 2228 3513 1497 
Q 3513 744 3044 326 
Q 2575 -91 1722 -91 
Q 1428 -91 1123 -41 
Q 819 9 494 109 
L 494 744 
Q 775 591 1075 516 
Q 1375 441 1709 441 
Q 2250 441 2565 725 
Q 2881 1009 2881 1497 
Q 2881 1984 2565 2268 
Q 2250 2553 1709 2553 
Q 1456 2553 1204 2497 
Q 953 2441 691 2322 
L 691 4666 
z
" transform="scale(0.015625)"/>
       </defs>
       <use xlink:href="#DejaVuSans-35"/>
      </g>
     </g>
    </g>
    <g id="text_19">
     <!-- z-score -->
     <g transform="translate(14.798438 186.479062) rotate(-90) scale(0.1 -0.1)">
      <defs>
       <path id="DejaVuSans-7a" d="M 353 3500 
L 3084 3500 
L 3084 2975 
L 922 459 
L 3084 459 
L 3084 0 
L 275 0 
L 275 525 
L 2438 3041 
L 353 3041 
L 353 3500 
z
" transform="scale(0.015625)"/>
       <path id="DejaVuSans-73" d="M 2834 3397 
L 2834 2853 
Q 2591 2978 2328 3040 
Q 2066 3103 1784 3103 
Q 1356 3103 1142 2972 
Q 928 2841 928 2578 
Q 928 2378 1081 2264 
Q 1234 2150 1697 2047 
L 1894 2003 
Q 2506 1872 2764 1633 
Q 3022 1394 3022 966 
Q 3022 478 2636 193 
Q 2250 -91 1575 -91 
Q 1294 -91 989 -36 
Q 684 19 347 128 
L 347 722 
Q 666 556 975 473 
Q 1284 391 1588 391 
Q 1994 391 2212 530 
Q 2431 669 2431 922 
Q 2431 1156 2273 1281 
Q 2116 1406 1581 1522 
L 1381 1569 
Q 847 1681 609 1914 
Q 372 2147 372 2553 
Q 372 3047 722 3315 
Q 1072 3584 1716 3584 
Q 2034 3584 2315 3537 
Q 2597 3491 2834 3397 
z
" transform="scale(0.015625)"/>
       <path id="DejaVuSans-63" d="M 3122 3366 
L 3122 2828 
Q 2878 2963 2633 3030 
Q 2388 3097 2138 3097 
Q 1578 3097 1268 2742 
Q 959 2388 959 1747 
Q 959 1106 1268 751 
Q 1578 397 2138 397 
Q 2388 397 2633 464 
Q 2878 531 3122 666 
L 3122 134 
Q 2881 22 2623 -34 
Q 2366 -91 2075 -91 
Q 1284 -91 818 406 
Q 353 903 353 1747 
Q 353 2603 823 3093 
Q 1294 3584 2113 3584 
Q 2378 3584 2631 3529 
Q 2884 3475 3122 3366 
z
" transform="scale(0.015625)"/>
       <path id="DejaVuSans-6f" d="M 1959 3097 
Q 1497 3097 1228 2736 
Q 959 2375 959 1747 
Q 959 1119 1226 758 
Q 1494 397 1959 397 
Q 2419 397 2687 759 
Q 2956 1122 2956 1747 
Q 2956 2369 2687 2733 
Q 2419 3097 1959 3097 
z
M 1959 3584 
Q 2709 3584 3137 3096 
Q 3566 2609 3566 1747 
Q 3566 888 3137 398 
Q 2709 -91 1959 -91 
Q 1206 -91 779 398 
Q 353 888 353 1747 
Q 353 2609 779 3096 
Q 1206 3584 1959 3584 
z
" transform="scale(0.015625)"/>
       <path id="DejaVuSans-72" d="M 2631 2963 
Q 2534 3019 2420 3045 
Q 2306 3072 2169 3072 
Q 1681 3072 1420 2755 
Q 1159 2438 1159 1844 
L 1159 0 
L 581 0 
L 581 3500 
L 1159 3500 
L 1159 2956 
Q 1341 3275 1631 3429 
Q 1922 3584 2338 3584 
Q 2397 3584 2469 3576 
Q 2541 3569 2628 3553 
L 2631 2963 
z
" transform="scale(0.015625)"/>
      </defs>
      <use xlink:href="#DejaVuSans-7a"/>
      <use xlink:href="#DejaVuSans-2d" transform="translate(52.490234 0)"/>
      <use xlink:href="#DejaVuSans-73" transform="translate(88.574219 0)"/>
      <use xlink:href="#DejaVuSans-63" transform="translate(140.673828 0)"/>
      <use xlink:href="#DejaVuSans-6f" transform="translate(195.654297 0)"/>
      <use xlink:href="#DejaVuSans-72" transform="translate(256.835938 0)"/>
      <use xlink:href="#DejaVuSans-65" transform="translate(295.699219 0)"/>
     </g>
    </g>
   </g>
   <g id="line2d_35">
    <path d="M 71.926291 249.075618 
L 73.5343 201.357772 
L 74.338305 208.449818 
L 75.14231 201.357772 
L 75.946315 199.523975 
L 76.75032 201.357772 
L 77.554325 197.690178 
L 78.35833 189.953636 
L 79.162335 189.953636 
L 79.96634 189.38879 
L 80.770344 175.587915 
L 81.574349 188.077564 
L 82.378354 183.932212 
L 83.986364 183.932212 
L 84.790369 182.771672 
L 85.594374 183.932212 
L 86.398379 188.077564 
L 88.006389 199.920856 
L 88.810393 212.505065 
L 90.418403 212.505065 
L 91.222408 205.031751 
L 92.026413 208.389768 
L 94.438428 208.389768 
L 95.242433 237.213942 
L 96.046437 241.466291 
L 96.850442 247.358265 
L 97.654447 250.080775 
L 98.458452 250.175172 
L 99.262457 255.829209 
L 101.674472 255.829209 
L 102.478477 267.286224 
L 103.282481 267.286224 
L 104.086486 277.028395 
L 104.890491 277.028395 
L 105.694496 279.326496 
L 106.498501 283.570635 
L 107.302506 279.326496 
L 108.106511 277.028395 
L 108.910516 267.511384 
L 109.714521 264.911774 
L 110.518525 252.892827 
L 111.32253 250.082932 
L 112.126535 146.803497 
L 112.93054 127.580614 
L 115.342555 127.580614 
L 116.14656 142.955194 
L 116.950565 228.0365 
L 117.754569 228.309397 
L 118.558574 242.013792 
L 119.362579 242.013792 
L 120.166584 236.816848 
L 120.970589 242.013792 
L 121.774594 242.582828 
L 122.578599 242.582828 
L 124.186609 231.236834 
L 124.990613 231.236834 
L 125.794618 227.336955 
L 126.598623 224.494507 
L 127.402628 136.269349 
L 129.010638 136.269349 
L 129.814643 149.28632 
L 130.618648 136.771809 
L 131.422653 146.143154 
L 132.226657 147.431143 
L 133.030662 147.431143 
L 133.834667 146.143154 
L 134.638672 136.771809 
L 135.442677 136.771809 
L 136.246682 146.143154 
L 137.050687 147.431143 
L 137.854692 168.469672 
L 138.658697 177.187258 
L 139.462701 179.182876 
L 140.266706 180.30674 
L 141.070711 180.30674 
L 141.874716 179.182876 
L 142.678721 182.684248 
L 143.482726 190.866946 
L 144.286731 208.7104 
L 147.50275 208.7104 
L 148.306755 204.656141 
L 152.32678 204.656141 
L 153.130785 204.088011 
L 153.934789 207.933198 
L 154.738794 195.872954 
L 155.542799 175.272621 
L 156.346804 175.272621 
L 157.150809 164.579511 
L 157.954814 175.272621 
L 158.758819 190.882439 
L 159.562824 190.882439 
L 160.366829 213.38348 
L 161.974838 213.38348 
L 162.778843 218.64043 
L 163.582848 221.019989 
L 164.386853 225.042237 
L 165.190858 221.019989 
L 165.994863 211.061912 
L 166.798868 211.061912 
L 167.602873 203.217886 
L 168.406877 198.987295 
L 169.210882 198.987295 
L 170.014887 198.183407 
L 170.818892 198.183407 
L 171.622897 198.987295 
L 173.230907 210.948583 
L 174.034912 211.631044 
L 174.838917 211.631044 
L 175.642921 212.966618 
L 176.446926 215.201756 
L 177.250931 263.979886 
L 178.054936 263.979886 
L 178.858941 264.255173 
L 179.662946 264.784149 
L 180.466951 266.033109 
L 181.270956 266.225503 
L 182.074961 275.370111 
L 182.878965 288.684644 
L 183.68297 291.44224 
L 184.486975 288.684644 
L 186.094985 288.684644 
L 187.702995 267.195444 
L 188.507 261.823018 
L 189.311005 261.56137 
L 190.919014 261.56137 
L 191.723019 260.88257 
L 194.135034 260.88257 
L 194.939039 246.092339 
L 195.743044 246.092339 
L 196.547049 243.711061 
L 197.351053 230.029786 
L 198.155058 226.706471 
L 198.959063 226.706471 
L 199.763068 210.58273 
L 200.567073 202.001299 
L 202.175083 201.966193 
L 202.979088 195.922404 
L 203.783093 195.922404 
L 204.587097 201.966193 
L 205.391102 204.445965 
L 206.195107 221.57591 
L 208.607122 221.57591 
L 209.411127 196.724594 
L 211.823141 196.724594 
L 212.627146 198.630836 
L 213.431151 199.557057 
L 214.235156 200.189637 
L 215.039161 205.058828 
L 215.843166 205.058828 
L 217.451176 257.576807 
L 218.255181 258.02569 
L 219.059185 262.803446 
L 220.667195 262.803446 
L 221.4712 258.02569 
L 222.275205 249.779903 
L 224.68722 249.779903 
L 225.491225 255.878861 
L 226.295229 259.148292 
L 227.099234 264.619101 
L 227.903239 268.166566 
L 229.511249 277.735492 
L 231.119259 277.735492 
L 231.923264 264.619101 
L 232.727269 218.782709 
L 233.531273 207.528742 
L 234.335278 189.742199 
L 235.139283 185.291461 
L 237.551298 185.291461 
L 238.355303 220.641209 
L 239.159308 220.641209 
L 239.963313 222.960778 
L 241.571322 222.960778 
L 242.375327 218.236589 
L 243.179332 217.919291 
L 243.983337 217.391407 
L 244.787342 211.949212 
L 245.591347 191.063019 
L 246.395352 189.93118 
L 247.199357 189.93118 
L 248.003361 188.784829 
L 248.807366 188.784829 
L 249.611371 179.366055 
L 250.415376 174.839748 
L 252.827391 174.839748 
L 253.631396 189.243296 
L 254.435401 190.824849 
L 255.239405 201.788666 
L 256.04341 211.154461 
L 258.455425 211.154461 
L 259.25943 212.615444 
L 260.063435 217.496204 
L 261.671445 217.496204 
L 262.475449 236.573634 
L 263.279454 265.118196 
L 264.083459 266.485052 
L 265.691469 271.479374 
L 268.103484 271.479374 
L 268.907489 254.261147 
L 269.711493 251.66308 
L 270.515498 231.578994 
L 271.319503 230.89195 
L 272.123508 230.89195 
L 273.731518 228.365102 
L 274.535523 226.072996 
L 275.339528 225.941068 
L 276.143533 225.941068 
L 276.947537 222.127905 
L 277.751542 222.127905 
L 278.555547 220.215959 
L 280.163557 220.215959 
L 280.967562 213.948393 
L 282.575572 225.900249 
L 284.183582 225.900249 
L 284.987586 239.933374 
L 285.791591 268.233041 
L 286.595596 268.233041 
L 287.399601 250.239521 
L 288.203606 250.239521 
L 289.007611 248.930497 
L 289.811616 248.930497 
L 290.615621 247.505982 
L 291.419626 239.3624 
L 295.43965 239.3624 
L 296.243655 243.260052 
L 297.04766 248.83845 
L 297.851665 248.83845 
L 298.65567 252.537132 
L 299.459674 254.466806 
L 300.263679 252.537132 
L 301.067684 252.537132 
L 301.871689 246.444094 
L 302.675694 246.444094 
L 303.479699 248.364091 
L 304.283704 248.364091 
L 305.087709 242.199823 
L 307.499723 242.199823 
L 308.303728 234.317942 
L 309.911738 234.317942 
L 310.715743 219.862446 
L 313.127758 219.862446 
L 313.931762 243.898591 
L 315.539772 237.936089 
L 316.343777 237.936089 
L 317.147782 233.837034 
L 317.951787 236.581874 
L 319.559797 236.581874 
L 320.363802 235.263042 
L 321.167806 235.263042 
L 321.971811 236.581874 
L 322.775816 248.664614 
L 324.383826 248.664614 
L 325.187831 243.473414 
L 325.991836 243.473414 
L 326.795841 234.836052 
L 327.599846 230.194994 
L 328.40385 229.768794 
L 329.207855 227.466712 
L 330.815865 227.466712 
L 331.61987 228.684489 
L 332.423875 230.194994 
L 333.22788 228.684489 
L 334.83589 228.684489 
L 335.639894 169.982286 
L 336.443899 165.644543 
L 337.247904 159.575849 
L 338.855914 159.575849 
L 339.659919 169.982286 
L 340.463924 174.152141 
L 341.267929 174.152141 
L 342.071934 192.985095 
L 342.875938 192.985095 
L 343.679943 185.9388 
L 344.483948 183.878058 
L 345.287953 177.874875 
L 346.091958 183.878058 
L 347.699968 183.878058 
L 348.503973 177.874875 
L 349.307978 177.613268 
L 350.111982 177.613268 
L 350.915987 185.17991 
L 351.719992 185.17991 
L 352.523997 187.136294 
L 353.328002 191.943407 
L 354.936012 191.943407 
L 355.740017 190.366522 
L 356.544022 191.943407 
L 357.348026 202.593754 
L 358.152031 202.593754 
L 359.760041 207.587058 
L 360.564046 209.546054 
L 361.368051 216.167584 
L 362.172056 234.967139 
L 362.976061 247.290571 
L 363.780066 247.290571 
L 364.58407 248.176887 
L 365.388075 256.421029 
L 366.19208 256.811695 
L 366.996085 257.730925 
L 367.80009 256.811695 
L 368.604095 254.751755 
L 370.212105 254.751755 
L 371.01611 244.805766 
L 372.624119 244.805766 
L 373.428124 251.659729 
L 374.232129 251.659729 
L 375.036134 252.187703 
L 375.840139 271.377723 
L 376.644144 272.973186 
L 379.056158 272.973186 
L 379.860163 269.049116 
L 380.664168 266.413091 
L 381.468173 254.692517 
L 382.272178 245.628904 
L 383.076183 233.45228 
L 383.880188 233.45228 
L 384.684193 228.030476 
L 385.488198 225.341853 
L 386.292202 228.030476 
L 387.096207 228.030476 
L 387.900212 231.989479 
L 390.312227 232.072338 
L 391.116232 236.087581 
L 391.920237 262.790988 
L 392.724242 265.345502 
L 393.528246 275.377331 
L 395.136256 275.377331 
L 395.940261 266.211044 
L 396.744266 265.345502 
L 397.548271 265.345502 
L 398.352276 264.920944 
L 399.156281 260.184012 
L 399.960286 264.920944 
L 400.76429 264.920944 
L 401.568295 260.024338 
L 403.176305 260.024338 
L 403.98031 262.106855 
L 405.58832 268.988407 
L 406.392325 273.221003 
L 407.19633 275.73781 
L 409.608344 275.73781 
L 410.412349 282.566961 
L 411.216354 283.697408 
L 412.020359 283.697408 
L 412.824364 282.566961 
L 413.628369 282.566961 
L 414.432374 263.286099 
L 415.236378 252.523218 
L 416.040383 251.969467 
L 416.844388 249.247637 
L 418.452398 249.247637 
L 419.256403 251.969467 
L 420.060408 258.638665 
L 420.864413 263.92255 
L 423.276427 263.92255 
L 424.080432 228.021492 
L 424.884437 207.19166 
L 425.688442 203.911328 
L 426.492447 203.911328 
L 427.296452 207.19166 
L 428.100457 207.19166 
L 428.904462 203.911328 
L 429.708466 192.771781 
L 430.512471 159.368538 
L 431.316476 132.19539 
L 432.120481 118.349087 
L 432.924486 116.422426 
L 433.728491 113.169702 
L 434.532496 113.169702 
L 435.336501 116.422426 
L 436.140506 116.422426 
L 436.94451 156.702862 
L 438.55252 156.702862 
L 439.356525 158.644612 
L 440.16053 162.812852 
L 440.964535 229.044741 
L 441.76854 238.45161 
L 442.572545 241.078664 
L 443.37655 253.228333 
L 444.180554 279.206192 
L 446.592569 279.206192 
L 447.396574 270.667127 
L 448.200579 259.195037 
L 449.004584 235.693016 
L 449.808589 208.112784 
L 451.416598 208.112784 
L 452.220603 201.27277 
L 453.024608 201.27277 
L 454.632618 215.437661 
L 455.436623 215.437661 
L 456.240628 209.482981 
L 457.044633 208.002507 
L 457.848638 208.002507 
L 458.652642 207.21975 
L 459.456647 205.8902 
L 461.868662 201.443485 
L 462.672667 201.443485 
L 463.476672 202.574906 
L 465.084682 202.574906 
L 465.888686 214.282202 
L 466.692691 217.515796 
L 467.496696 217.591167 
L 468.300701 224.065541 
L 471.516721 224.065541 
L 472.320726 218.424533 
L 473.928735 218.424533 
L 474.73274 224.196103 
L 476.34075 224.11021 
L 477.144755 224.11021 
L 477.94876 226.180505 
L 478.752765 232.610022 
L 479.55677 233.467934 
L 480.360775 236.951697 
L 481.164779 237.193106 
L 481.968784 240.294001 
L 486.792814 240.379965 
L 487.596819 242.20286 
L 488.400823 240.379965 
L 489.204828 236.60202 
L 490.008833 236.60202 
L 490.812838 234.878489 
L 491.616843 236.60202 
L 492.420848 237.262532 
L 493.224853 236.60202 
L 494.028858 237.262532 
L 494.832863 238.148473 
L 495.636867 248.097513 
L 496.440872 254.745689 
L 497.244877 265.57159 
L 498.852887 269.665965 
L 499.656892 267.635457 
L 501.264902 267.635457 
L 502.068907 262.850953 
L 502.872911 253.423687 
L 503.676916 251.30298 
L 506.892936 251.387727 
L 507.696941 255.199402 
L 510.91296 255.199402 
L 511.716965 254.903326 
L 513.324975 254.903326 
L 514.12898 255.228103 
L 514.932985 257.213955 
L 515.73699 262.962109 
L 520.561019 262.962109 
L 521.365024 264.879726 
L 524.581043 264.879726 
L 525.385048 262.237814 
L 526.993058 232.853956 
L 527.797063 232.853956 
L 528.601068 232.365228 
L 529.405073 232.365228 
L 530.209078 232.853956 
L 531.013083 235.228915 
L 532.621092 235.228915 
L 533.425097 234.492603 
L 534.229102 236.261371 
L 535.033107 238.569478 
L 535.837112 243.047966 
L 536.641117 255.259244 
L 537.445122 256.963743 
L 538.249127 260.867485 
L 539.053131 262.474637 
L 539.857136 267.966371 
L 540.661141 267.966371 
L 541.465146 268.24091 
L 542.269151 268.24091 
L 543.073156 267.966371 
L 543.877161 269.352386 
L 544.681166 269.627772 
L 545.485171 277.654178 
L 546.289175 279.622388 
L 547.09318 279.622388 
L 547.897185 283.861737 
L 548.70119 284.148832 
L 550.3092 284.148832 
L 551.113205 283.861737 
L 551.91721 284.148832 
L 552.721215 282.753925 
L 555.937234 282.753925 
L 556.741239 281.485642 
L 557.545244 277.34638 
L 558.349249 267.828903 
L 559.153254 260.268424 
L 559.957259 251.09907 
L 560.761263 240.236661 
L 561.565268 240.236661 
L 562.369273 238.256795 
L 563.173278 234.877589 
L 563.977283 230.403421 
L 564.781288 230.151244 
L 565.585293 230.403421 
L 566.389298 234.877589 
L 567.193303 238.256795 
L 567.997307 230.403421 
L 568.801312 230.403421 
L 569.605317 225.387675 
L 570.409322 241.647174 
L 571.213327 230.69263 
L 572.821337 230.69263 
L 573.625342 236.985067 
L 575.233351 236.985067 
L 576.037356 235.701639 
L 576.841361 236.985067 
L 577.645366 235.701639 
L 578.449371 233.431857 
L 579.253376 232.975398 
L 580.057381 231.253372 
L 580.861386 232.975398 
L 581.665391 231.253372 
L 582.469395 219.99143 
L 584.077405 219.99143 
L 584.88141 230.478641 
L 586.48942 230.478641 
L 587.293425 236.361804 
L 588.09743 237.14616 
L 588.901435 237.14616 
L 589.705439 242.948236 
L 590.509444 259.778635 
L 592.921459 259.778635 
L 593.725464 224.121607 
L 594.529469 224.121607 
L 595.333474 222.180686 
L 596.137479 222.180686 
L 596.941483 224.121607 
L 597.745488 227.650075 
L 598.549493 228.257775 
L 599.353498 229.09162 
L 600.157503 228.257775 
L 600.961508 229.09162 
L 601.765513 237.47569 
L 602.569518 240.563739 
L 604.177527 244.760517 
L 604.981532 244.885816 
L 608.197552 244.885816 
L 609.001557 257.773332 
L 609.805562 257.773332 
L 610.609567 258.307167 
L 611.413571 258.671584 
L 612.217576 261.177838 
L 613.021581 261.177838 
L 613.825586 263.205839 
L 614.629591 263.205839 
L 615.433596 261.177838 
L 616.237601 258.196446 
L 617.845611 258.196446 
L 618.649615 271.603873 
L 619.45362 262.514047 
L 621.865635 262.514047 
L 622.66964 251.76422 
L 623.473645 251.76422 
L 624.27765 245.36244 
L 625.081655 244.798711 
L 625.885659 243.301233 
L 626.689664 244.798711 
L 627.493669 245.36244 
L 628.297674 249.36522 
L 629.101679 249.36522 
L 629.905684 250.662625 
L 630.709689 254.414242 
L 632.317699 261.027445 
L 634.729713 261.027445 
L 635.533718 251.968526 
L 639.553743 252.022797 
L 640.357747 257.361734 
L 641.161752 261.246578 
L 642.769762 261.246578 
L 643.573767 263.533179 
L 644.377772 264.022137 
L 645.181777 267.625608 
L 645.985782 268.667624 
L 646.789787 268.667624 
L 647.593791 269.257885 
L 648.397796 274.446363 
L 649.201801 275.506972 
L 650.005806 275.506972 
L 650.809811 280.754342 
L 651.613816 291.256016 
L 652.417821 293.423789 
L 653.221826 298.057837 
L 654.025831 296.474171 
L 654.829835 298.057837 
L 655.63384 300.758212 
L 657.24185 300.758212 
L 658.045855 301.618125 
L 658.045855 301.618125 
" clip-path="url(#p0fdeb41d41)" style="fill: none; stroke: #1f77b4; stroke-width: 1.5; stroke-linecap: square"/>
   </g>
   <g id="line2d_36">
    <path d="M 71.926291 164.935693 
L 73.5343 177.087055 
L 74.338305 175.024723 
L 75.14231 177.087055 
L 76.75032 180.268389 
L 77.554325 196.816328 
L 78.35833 196.816328 
L 79.162335 197.829292 
L 79.96634 199.890556 
L 80.770344 204.505003 
L 81.574349 197.829292 
L 82.378354 197.829292 
L 83.182359 204.107312 
L 86.398379 204.107312 
L 87.202384 207.277033 
L 88.006389 226.243583 
L 89.614398 226.243583 
L 90.418403 210.784568 
L 94.438428 210.784568 
L 95.242433 206.104143 
L 96.850442 206.104143 
L 97.654447 205.229915 
L 98.458452 202.131732 
L 100.870467 202.131732 
L 101.674472 196.386742 
L 102.478477 198.890326 
L 103.282481 222.002848 
L 104.086486 228.171618 
L 104.890491 231.446049 
L 105.694496 245.075464 
L 108.106511 245.075464 
L 108.910516 235.886348 
L 109.714521 224.633341 
L 110.518525 217.610274 
L 111.32253 195.079321 
L 112.126535 189.460681 
L 112.93054 167.005585 
L 113.734545 164.396814 
L 114.53855 139.792623 
L 115.342555 139.792623 
L 116.14656 164.396814 
L 116.950565 164.466692 
L 117.754569 167.005585 
L 118.558574 178.853075 
L 120.166584 194.924054 
L 120.970589 210.792738 
L 124.186609 210.792738 
L 124.990613 178.373973 
L 125.794618 178.373973 
L 126.598623 150.187063 
L 127.402628 148.126856 
L 128.206633 135.3804 
L 129.010638 135.3804 
L 129.814643 135.087419 
L 130.618648 128.274257 
L 133.030662 128.274257 
L 133.834667 149.234498 
L 134.638672 163.045923 
L 137.854692 163.045923 
L 139.462701 47.115926 
L 140.266706 47.115926 
L 141.070711 104.319714 
L 141.874716 126.914828 
L 142.678721 135.545499 
L 143.482726 135.545499 
L 144.286731 153.440321 
L 145.090736 160.895112 
L 145.894741 173.635236 
L 146.698745 175.972022 
L 147.50275 183.316922 
L 148.306755 194.437715 
L 149.11076 209.794584 
L 149.914765 213.93407 
L 153.130785 213.93407 
L 153.934789 217.150356 
L 154.738794 217.150356 
L 155.542799 213.289804 
L 156.346804 213.289804 
L 157.150809 217.150356 
L 157.954814 213.289804 
L 159.562824 213.289804 
L 160.366829 225.566144 
L 161.170833 235.696095 
L 161.974838 235.696095 
L 162.778843 225.566144 
L 163.582848 225.566144 
L 164.386853 165.881171 
L 166.798868 165.881171 
L 167.602873 204.240625 
L 168.406877 219.212001 
L 170.014887 224.112681 
L 170.818892 233.198968 
L 171.622897 233.198968 
L 172.426902 236.248259 
L 173.230907 238.562348 
L 175.642921 238.562348 
L 176.446926 234.71596 
L 178.858941 234.71596 
L 179.662946 245.477989 
L 180.466951 248.323874 
L 183.68297 248.323874 
L 184.486975 252.553756 
L 185.29098 252.553756 
L 186.094985 245.412919 
L 186.89899 239.870008 
L 187.702995 243.561445 
L 188.507 240.641378 
L 189.311005 240.641378 
L 190.115009 239.870008 
L 190.919014 216.649192 
L 191.723019 238.54231 
L 192.527024 240.641378 
L 193.331029 238.54231 
L 194.135034 226.764466 
L 194.939039 223.484925 
L 195.743044 223.484925 
L 196.547049 226.764466 
L 198.155058 220.316816 
L 198.959063 215.872401 
L 199.763068 213.243021 
L 200.567073 213.243021 
L 201.371078 215.872401 
L 202.175083 205.906391 
L 202.979088 205.906391 
L 203.783093 218.199058 
L 204.587097 228.046028 
L 205.391102 228.046028 
L 206.195107 229.078082 
L 206.999112 228.046028 
L 208.607122 228.046028 
L 209.411127 229.078082 
L 210.215132 232.242846 
L 211.019137 232.687999 
L 211.823141 232.687999 
L 212.627146 245.706096 
L 214.235156 245.706096 
L 215.039161 234.391856 
L 218.255181 234.391856 
L 219.059185 246.676654 
L 221.4712 246.676654 
L 222.275205 240.224651 
L 223.883215 240.224651 
L 224.68722 220.175973 
L 225.491225 220.175973 
L 226.295229 219.573464 
L 227.099234 207.455944 
L 229.511249 207.455944 
L 230.315254 210.7289 
L 231.119259 223.690025 
L 232.727269 242.303749 
L 235.943288 242.303749 
L 236.747293 236.170448 
L 237.551298 236.170448 
L 238.355303 230.155426 
L 239.159308 220.901335 
L 239.963313 216.39501 
L 241.571322 216.39501 
L 242.375327 217.010204 
L 243.179332 220.901335 
L 243.983337 232.986873 
L 244.787342 236.181722 
L 245.591347 242.927413 
L 246.395352 247.485968 
L 247.199357 242.927413 
L 248.003361 242.79465 
L 248.807366 242.79465 
L 249.611371 242.927413 
L 250.415376 252.640604 
L 251.219381 252.640604 
L 252.023386 242.79465 
L 252.827391 230.29487 
L 253.631396 245.039996 
L 254.435401 245.039996 
L 255.239405 235.647605 
L 256.04341 235.647605 
L 256.847415 234.392242 
L 257.65142 235.647605 
L 258.455425 245.039996 
L 259.25943 241.687945 
L 261.671445 241.687945 
L 262.475449 246.276846 
L 263.279454 246.276846 
L 264.083459 241.687945 
L 267.299479 241.6559 
L 268.103484 241.6559 
L 268.907489 236.700754 
L 269.711493 219.218526 
L 270.515498 226.113496 
L 271.319503 236.700754 
L 272.123508 245.217924 
L 272.927513 245.217924 
L 274.535523 266.297692 
L 276.947537 266.297692 
L 277.751542 250.333123 
L 278.555547 246.935626 
L 280.163557 246.935626 
L 280.967562 235.371365 
L 282.575572 235.371365 
L 283.379577 209.355613 
L 284.183582 209.050629 
L 285.791591 209.050629 
L 286.595596 209.355613 
L 287.399601 219.147982 
L 288.203606 222.281356 
L 289.811616 222.281356 
L 290.615621 219.89642 
L 291.419626 219.147982 
L 292.22363 217.370306 
L 293.027635 207.490792 
L 293.83164 207.490792 
L 294.635645 217.370306 
L 295.43965 217.370306 
L 296.243655 207.490792 
L 297.04766 200.958002 
L 297.851665 184.066891 
L 300.263679 184.066891 
L 301.067684 207.204685 
L 301.871689 226.276971 
L 304.283704 226.276971 
L 305.087709 232.919561 
L 305.891714 232.919561 
L 306.695718 228.778839 
L 307.499723 228.778839 
L 308.303728 232.919561 
L 309.107733 240.193977 
L 309.911738 245.852929 
L 311.519748 245.852929 
L 312.323753 246.176551 
L 313.127758 246.626877 
L 313.931762 259.876861 
L 314.735767 259.876861 
L 315.539772 241.578496 
L 316.343777 253.562282 
L 321.167806 253.562282 
L 321.971811 252.229508 
L 322.775816 252.229508 
L 323.579821 208.594852 
L 325.991836 208.594852 
L 326.795841 233.238193 
L 327.599846 236.24967 
L 329.207855 253.956446 
L 330.01186 254.695471 
L 331.61987 254.695471 
L 332.423875 253.956446 
L 333.22788 252.051946 
L 334.031885 243.928549 
L 335.639894 232.736083 
L 336.443899 229.889135 
L 337.247904 209.944157 
L 338.051909 207.755677 
L 339.659919 207.755677 
L 340.463924 209.944157 
L 341.267929 224.290588 
L 343.679943 224.290588 
L 344.483948 227.531221 
L 345.287953 220.59549 
L 346.895963 220.59549 
L 347.699968 222.538468 
L 348.503973 222.538468 
L 349.307978 227.530745 
L 350.111982 227.530745 
L 350.915987 239.368103 
L 351.719992 241.263409 
L 352.523997 241.263409 
L 353.328002 255.192035 
L 354.132007 256.795273 
L 354.936012 259.211954 
L 358.152031 259.211954 
L 358.956036 256.795273 
L 359.760041 242.173382 
L 360.564046 235.730034 
L 361.368051 235.730034 
L 362.172056 219.701577 
L 363.780066 219.701577 
L 364.58407 218.321928 
L 365.388075 225.449922 
L 366.19208 225.449922 
L 366.996085 248.795995 
L 367.80009 249.067297 
L 368.604095 249.067297 
L 369.4081 250.711536 
L 370.212105 253.224629 
L 371.01611 261.68345 
L 372.624119 261.68345 
L 373.428124 253.224629 
L 375.036134 253.224629 
L 375.840139 257.989666 
L 376.644144 250.303913 
L 377.448149 238.445639 
L 381.468173 238.445639 
L 382.272178 242.253557 
L 383.076183 251.698964 
L 383.880188 255.751641 
L 384.684193 255.846856 
L 385.488198 260.711997 
L 387.900212 260.711997 
L 388.704217 263.016937 
L 389.508222 263.016937 
L 390.312227 253.827537 
L 391.116232 253.449539 
L 391.920237 253.449539 
L 392.724242 253.827537 
L 393.528246 255.526756 
L 394.332251 253.449539 
L 395.136256 253.284365 
L 395.940261 255.526756 
L 396.744266 259.130384 
L 398.352276 259.130384 
L 399.156281 253.284365 
L 399.960286 260.447703 
L 400.76429 261.503033 
L 401.568295 270.436992 
L 405.58832 270.436992 
L 406.392325 268.742371 
L 407.19633 249.762396 
L 408.804339 249.762396 
L 409.608344 254.180239 
L 410.412349 254.180239 
L 411.216354 229.205215 
L 412.020359 254.180239 
L 412.824364 254.180239 
L 413.628369 242.955585 
L 414.432374 222.919858 
L 415.236378 222.919858 
L 416.040383 242.955585 
L 416.844388 242.955585 
L 417.648393 234.709922 
L 418.452398 209.326255 
L 419.256403 234.709922 
L 420.060408 248.163491 
L 420.864413 234.709922 
L 421.668418 199.063844 
L 422.472422 183.867616 
L 423.276427 150.526694 
L 424.080432 124.861221 
L 426.492447 124.861221 
L 427.296452 182.37763 
L 428.100457 192.294087 
L 428.904462 206.639421 
L 429.708466 207.357304 
L 430.512471 212.192285 
L 431.316476 213.844227 
L 432.120481 221.068723 
L 432.924486 234.002483 
L 433.728491 236.473085 
L 434.532496 238.277863 
L 435.336501 238.277863 
L 436.140506 242.527494 
L 438.55252 242.527494 
L 439.356525 239.657578 
L 440.16053 230.433602 
L 440.964535 239.657578 
L 442.572545 239.657578 
L 443.37655 246.972245 
L 444.984559 246.972245 
L 445.788564 250.764321 
L 446.592569 257.969488 
L 447.396574 246.972245 
L 448.200579 233.831784 
L 449.004584 223.697572 
L 449.808589 215.92432 
L 450.612594 197.325655 
L 451.416598 137.243509 
L 454.632618 137.243509 
L 455.436623 152.401664 
L 456.240628 179.003601 
L 457.044633 193.426042 
L 457.848638 193.426042 
L 458.652642 196.316659 
L 459.456647 198.309757 
L 460.260652 205.400019 
L 461.064657 205.400019 
L 461.868662 206.138025 
L 462.672667 209.02569 
L 463.476672 206.138025 
L 464.280677 214.750035 
L 466.692691 214.750035 
L 467.496696 217.962851 
L 468.300701 219.636671 
L 469.104706 222.448426 
L 469.908711 226.108064 
L 471.516721 226.108064 
L 472.320726 239.079986 
L 474.73274 239.079986 
L 475.536745 226.730341 
L 476.34075 216.26685 
L 477.144755 203.471808 
L 477.94876 198.981704 
L 478.752765 174.807341 
L 480.360775 174.807341 
L 481.164779 198.981704 
L 481.968784 210.42407 
L 482.772789 242.189249 
L 483.576794 243.158994 
L 485.184804 243.158994 
L 485.988809 242.189249 
L 486.792814 236.296763 
L 487.596819 236.296763 
L 488.400823 234.156183 
L 489.204828 226.888804 
L 490.008833 234.156183 
L 490.812838 236.296763 
L 491.616843 241.028445 
L 492.420848 251.385275 
L 493.224853 251.385275 
L 494.028858 254.141226 
L 495.636867 254.141226 
L 496.440872 251.385275 
L 497.244877 239.878934 
L 499.656892 239.878934 
L 500.460897 252.313207 
L 501.264902 254.676647 
L 502.872911 254.676647 
L 503.676916 252.313207 
L 504.480921 252.313207 
L 505.284926 261.382318 
L 506.088931 261.382318 
L 506.892936 267.750212 
L 507.696941 268.50206 
L 508.500946 268.50206 
L 509.304951 269.795341 
L 511.716965 269.795341 
L 512.52097 268.50206 
L 513.324975 269.795341 
L 514.12898 274.437082 
L 514.932985 277.043405 
L 515.73699 277.043405 
L 516.540995 274.437082 
L 518.149004 274.437082 
L 518.953009 267.423337 
L 520.561019 241.40389 
L 523.777039 241.40389 
L 524.581043 234.785812 
L 525.385048 223.787158 
L 527.797063 223.787158 
L 528.601068 230.761979 
L 530.209078 230.761979 
L 531.013083 237.769231 
L 532.621092 237.769231 
L 533.425097 248.788383 
L 534.229102 257.206579 
L 535.837112 257.206579 
L 536.641117 266.133668 
L 537.445122 269.791146 
L 539.053131 269.791146 
L 539.857136 273.606764 
L 540.661141 287.082372 
L 542.269151 287.082372 
L 543.073156 289.209891 
L 543.877161 289.209891 
L 544.681166 292.244498 
L 545.485171 289.209891 
L 547.897185 289.209891 
L 548.70119 281.311612 
L 550.3092 281.311612 
L 551.113205 285.5361 
L 551.91721 281.413535 
L 552.721215 285.5361 
L 554.329224 285.5361 
L 555.133229 285.882625 
L 555.937234 285.882625 
L 556.741239 284.417728 
L 557.545244 284.417728 
L 558.349249 271.356037 
L 559.153254 272.609016 
L 559.957259 245.989602 
L 560.761263 237.670192 
L 561.565268 237.670192 
L 562.369273 245.989602 
L 563.173278 247.460593 
L 563.977283 247.460593 
L 564.781288 245.989602 
L 565.585293 232.752458 
L 566.389298 245.756756 
L 567.193303 245.756756 
L 567.997307 232.752458 
L 568.801312 217.215743 
L 569.605317 209.27418 
L 570.409322 176.101931 
L 572.821337 176.101931 
L 573.625342 210.196337 
L 574.429347 215.035245 
L 575.233351 222.591346 
L 576.037356 235.482441 
L 576.841361 263.828216 
L 579.253376 263.828216 
L 580.057381 255.39351 
L 582.469395 255.39351 
L 583.2734 262.911631 
L 584.077405 272.617029 
L 588.09743 272.617029 
L 588.901435 258.33556 
L 589.705439 258.33556 
L 590.509444 260.984007 
L 591.313449 269.271819 
L 593.725464 269.271819 
L 594.529469 271.922741 
L 595.333474 273.836647 
L 596.941483 273.836647 
L 597.745488 276.811419 
L 598.549493 276.811419 
L 599.353498 267.113453 
L 601.765513 267.113453 
L 602.569518 276.811419 
L 603.373523 279.450954 
L 604.177527 283.219612 
L 604.981532 284.84172 
L 605.785537 284.84172 
L 606.589542 289.585469 
L 607.393547 295.583836 
L 612.217576 295.583836 
L 613.021581 295.991968 
L 615.433596 295.991968 
L 616.237601 287.16027 
L 617.041606 287.16027 
L 617.845611 286.947533 
L 618.649615 278.908197 
L 619.45362 275.877238 
L 621.06163 267.409222 
L 621.865635 265.756214 
L 622.66964 243.98999 
L 624.27765 243.98999 
L 625.081655 239.646556 
L 625.885659 232.345699 
L 626.689664 227.996428 
L 627.493669 227.996428 
L 628.297674 232.345699 
L 629.101679 232.345699 
L 629.905684 230.557841 
L 630.709689 230.557841 
L 631.513694 229.963197 
L 632.317699 230.557841 
L 633.121703 250.1592 
L 633.925708 250.1592 
L 634.729713 230.557841 
L 635.533718 240.459718 
L 636.337723 254.051985 
L 639.553743 254.051985 
L 640.357747 258.972224 
L 641.965757 262.847913 
L 642.769762 262.847913 
L 643.573767 260.947773 
L 644.377772 260.947773 
L 645.985782 264.709835 
L 646.789787 262.847913 
L 647.593791 247.476298 
L 650.809811 247.476298 
L 651.613816 242.310503 
L 652.417821 242.310503 
L 653.221826 252.58566 
L 654.025831 254.699596 
L 657.24185 254.699596 
L 658.045855 267.347912 
L 658.045855 267.347912 
" clip-path="url(#p0fdeb41d41)" style="fill: none; stroke: #ff7f0e; stroke-width: 1.5; stroke-linecap: square"/>
   </g>
   <g id="line2d_37">
    <path d="M 71.926291 251.642957 
L 112.93054 251.650319 
L 114.53855 251.650317 
L 115.342555 251.096474 
L 116.14656 250.072828 
L 119.362579 250.183808 
L 120.166584 248.902059 
L 120.970589 250.183808 
L 121.774594 250.183808 
L 122.578599 248.902059 
L 123.382604 248.902059 
L 124.186609 249.392538 
L 124.990613 249.392538 
L 125.794618 250.195463 
L 126.598623 251.646222 
L 148.306755 251.650284 
L 256.847415 251.649365 
L 298.65567 251.651364 
L 330.815865 251.647309 
L 331.61987 250.095335 
L 332.423875 249.777987 
L 333.22788 247.849639 
L 334.031885 247.849639 
L 334.83589 247.162242 
L 335.639894 247.162242 
L 336.443899 247.849639 
L 338.051909 248.505635 
L 338.855914 248.505635 
L 339.659919 248.178927 
L 340.463924 248.178927 
L 341.267929 246.857604 
L 342.071934 244.69584 
L 342.875938 244.69584 
L 343.679943 239.285994 
L 344.483948 239.285994 
L 345.287953 239.029282 
L 346.091958 239.285994 
L 346.895963 241.2601 
L 347.699968 245.125471 
L 348.503973 241.2601 
L 349.307978 241.2601 
L 350.111982 244.606632 
L 351.719992 244.606632 
L 352.523997 242.532194 
L 353.328002 242.532194 
L 354.132007 244.606632 
L 354.936012 248.839701 
L 356.544022 248.839701 
L 357.348026 245.544494 
L 358.152031 245.544494 
L 358.956036 242.687224 
L 359.760041 242.687224 
L 360.564046 236.580635 
L 361.368051 242.687224 
L 362.976061 242.687224 
L 363.780066 235.854783 
L 364.58407 243.293067 
L 365.388075 243.293067 
L 366.19208 246.731489 
L 366.996085 243.293067 
L 367.80009 246.731489 
L 371.01611 246.731489 
L 371.820114 243.861827 
L 373.428124 243.861827 
L 374.232129 246.666133 
L 375.036134 246.666133 
L 375.840139 242.097502 
L 376.644144 240.937808 
L 377.448149 240.937808 
L 378.252154 244.443796 
L 379.860163 244.443796 
L 380.664168 245.787185 
L 381.468173 246.503164 
L 382.272178 249.506209 
L 383.076183 249.506209 
L 384.684193 247.208353 
L 385.488198 248.38083 
L 386.292202 247.340306 
L 387.096207 247.340306 
L 387.900212 247.208353 
L 388.704217 247.340306 
L 391.116232 247.340306 
L 391.920237 247.69416 
L 393.528246 247.69416 
L 394.332251 244.758476 
L 396.744266 244.758476 
L 397.548271 241.892413 
L 398.352276 241.892413 
L 399.156281 244.758476 
L 399.960286 248.786342 
L 400.76429 244.872926 
L 402.3723 244.872926 
L 403.176305 245.301335 
L 403.98031 248.134623 
L 404.784315 248.134623 
L 405.58832 246.355033 
L 406.392325 248.134623 
L 407.19633 248.134623 
L 408.000334 249.407827 
L 408.804339 250.068052 
L 409.608344 249.407827 
L 410.412349 247.959624 
L 411.216354 248.167725 
L 412.020359 247.959624 
L 412.824364 247.959624 
L 413.628369 243.636651 
L 415.236378 243.636651 
L 416.844388 239.671145 
L 417.648393 236.208001 
L 420.060408 236.208001 
L 420.864413 233.582045 
L 422.472422 238.577716 
L 423.276427 240.502708 
L 424.080432 238.577716 
L 424.884437 240.502708 
L 425.688442 240.502708 
L 426.492447 247.482014 
L 428.904462 247.482014 
L 429.708466 248.979144 
L 430.512471 247.482014 
L 431.316476 249.073111 
L 432.120481 249.073111 
L 432.924486 246.959879 
L 433.728491 246.959879 
L 434.532496 237.787522 
L 435.336501 237.787522 
L 436.140506 244.704409 
L 436.94451 241.555898 
L 438.55252 241.555898 
L 439.356525 244.42842 
L 440.16053 244.42842 
L 440.964535 241.59116 
L 443.37655 241.59116 
L 445.788564 241.59116 
L 446.592569 242.107205 
L 448.200579 244.342891 
L 450.612594 244.342891 
L 451.416598 246.114951 
L 452.220603 246.114951 
L 453.024608 246.40793 
L 453.828613 249.110641 
L 456.240628 249.110641 
L 457.044633 248.832987 
L 457.848638 248.280136 
L 458.652642 243.685803 
L 459.456647 243.313444 
L 461.064657 243.313444 
L 461.868662 239.992675 
L 462.672667 230.007298 
L 463.476672 230.007298 
L 464.280677 235.82023 
L 465.084682 235.82023 
L 465.888686 234.634661 
L 466.692691 234.634661 
L 467.496696 235.82023 
L 468.300701 238.90897 
L 469.104706 235.82023 
L 469.908711 234.634661 
L 470.712716 238.90897 
L 471.516721 238.90897 
L 472.320726 228.971617 
L 473.12473 228.971617 
L 473.928735 226.34979 
L 474.73274 222.985112 
L 475.536745 222.985112 
L 476.34075 213.71549 
L 477.144755 211.742259 
L 478.752765 211.742259 
L 479.55677 213.204862 
L 480.360775 213.204862 
L 481.164779 227.880682 
L 481.968784 228.865699 
L 482.772789 230.324936 
L 483.576794 230.525252 
L 484.380799 230.525252 
L 485.184804 240.896693 
L 485.988809 240.896693 
L 486.792814 241.164098 
L 487.596819 241.164098 
L 488.400823 228.877337 
L 489.204828 227.431405 
L 490.812838 227.431405 
L 491.616843 231.977457 
L 494.028858 231.977457 
L 494.832863 238.430115 
L 495.636867 238.430115 
L 496.440872 225.573084 
L 498.048882 225.573084 
L 498.852887 234.1863 
L 499.656892 234.593686 
L 500.460897 234.1863 
L 502.068907 234.1863 
L 502.872911 233.735223 
L 503.676916 220.004792 
L 504.480921 220.004792 
L 505.284926 219.688064 
L 506.088931 220.004792 
L 506.892936 233.03281 
L 508.500946 233.03281 
L 509.304951 240.690797 
L 510.91296 240.789619 
L 511.716965 241.130962 
L 512.52097 240.789619 
L 514.12898 240.789619 
L 514.932985 241.130962 
L 515.73699 238.801491 
L 516.540995 238.801491 
L 517.344999 238.328021 
L 518.149004 238.801491 
L 518.953009 238.801491 
L 519.757014 243.142596 
L 521.365024 243.142596 
L 522.169029 231.589419 
L 522.973034 244.660632 
L 523.777039 231.589419 
L 524.581043 231.589419 
L 525.385048 230.186884 
L 526.189053 230.186884 
L 526.993058 222.759543 
L 527.797063 230.186884 
L 529.405073 230.186884 
L 531.013083 244.793908 
L 531.817087 237.104925 
L 532.621092 244.793908 
L 533.425097 244.793908 
L 534.229102 237.08196 
L 535.033107 241.163608 
L 535.837112 237.08196 
L 536.641117 235.943547 
L 537.445122 235.943547 
L 538.249127 213.424625 
L 540.661141 213.424625 
L 541.465146 194.316445 
L 542.269151 195.904079 
L 543.073156 195.904079 
L 543.877161 211.561481 
L 544.681166 195.904079 
L 545.485171 195.904079 
L 546.289175 167.795031 
L 547.09318 195.904079 
L 547.897185 118.652259 
L 548.70119 91.925266 
L 549.505195 87.87827 
L 550.3092 91.925266 
L 551.113205 96.562608 
L 553.525219 96.562608 
L 554.329224 145.347567 
L 559.153254 145.347567 
L 559.957259 147.704977 
L 560.761263 158.449113 
L 561.565268 158.449113 
L 562.369273 205.474847 
L 563.977283 205.474847 
L 564.781288 203.010513 
L 565.585293 203.010513 
L 566.389298 198.748534 
L 567.193303 203.010513 
L 567.997307 203.010513 
L 568.801312 207.286716 
L 569.605317 209.162823 
L 571.213327 209.162823 
L 572.017332 221.719058 
L 572.821337 209.162823 
L 573.625342 193.997644 
L 574.429347 184.581371 
L 575.233351 181.563539 
L 576.037356 184.581371 
L 576.841361 193.997644 
L 578.449371 193.997644 
L 579.253376 198.405905 
L 580.057381 207.905512 
L 580.861386 214.437553 
L 581.665391 214.437553 
L 582.469395 207.905512 
L 584.077405 207.905512 
L 584.88141 202.006925 
L 585.685415 202.006925 
L 586.48942 180.009792 
L 587.293425 168.58139 
L 588.901435 168.58139 
L 589.705439 237.500154 
L 590.509444 237.500154 
L 591.313449 221.570188 
L 592.117454 221.570188 
L 592.921459 241.274442 
L 593.725464 221.570188 
L 594.529469 219.057828 
L 595.333474 213.327468 
L 596.941483 213.327468 
L 597.745488 192.852218 
L 598.549493 185.976223 
L 599.353498 185.976223 
L 600.157503 184.254588 
L 600.961508 166.159308 
L 601.765513 166.159308 
L 602.569518 148.363015 
L 603.373523 143.092595 
L 604.177527 122.845779 
L 604.981532 75.466542 
L 605.785537 122.845779 
L 606.589542 143.092595 
L 607.393547 122.845779 
L 609.001557 35.618125 
L 609.805562 35.618125 
L 610.609567 79.896098 
L 612.217576 79.896098 
L 613.021581 127.302533 
L 614.629591 127.302533 
L 615.433596 204.459979 
L 616.237601 204.459979 
L 617.041606 92.528298 
L 618.649615 92.528298 
L 619.45362 205.620025 
L 620.257625 212.747882 
L 621.06163 205.620025 
L 621.865635 209.023014 
L 622.66964 209.023014 
L 623.473645 212.747882 
L 625.081655 212.747882 
L 625.885659 209.023014 
L 626.689664 209.023014 
L 628.297674 226.965132 
L 629.101679 228.612164 
L 632.317699 228.612164 
L 633.121703 188.159967 
L 633.925708 188.159967 
L 634.729713 170.405632 
L 635.533718 183.465721 
L 636.337723 175.986086 
L 637.141728 181.405289 
L 638.749738 181.405289 
L 639.553743 175.986086 
L 640.357747 181.405289 
L 641.161752 175.986086 
L 641.965757 181.405289 
L 642.769762 171.268709 
L 643.573767 168.795296 
L 644.377772 171.268709 
L 645.181777 171.268709 
L 645.985782 168.795296 
L 646.789787 171.268709 
L 647.593791 171.268709 
L 648.397796 117.158447 
L 649.201801 181.265587 
L 650.005806 154.87398 
L 650.809811 180.009178 
L 651.613816 183.101877 
L 652.417821 180.009178 
L 653.221826 180.009178 
L 654.025831 209.716758 
L 654.829835 180.009178 
L 655.63384 180.935799 
L 656.437845 220.9363 
L 657.24185 180.935799 
L 658.045855 180.935799 
L 658.045855 180.935799 
" clip-path="url(#p0fdeb41d41)" style="fill: none; stroke: #2ca02c; stroke-width: 1.5; stroke-linecap: square"/>
   </g>
   <g id="line2d_38">
    <path d="M 71.926291 232.726692 
L 72.730296 237.140641 
L 75.14231 223.285867 
L 75.946315 220.239437 
L 76.75032 223.285867 
L 78.35833 223.285867 
L 79.162335 227.745301 
L 80.770344 231.729302 
L 81.574349 237.322395 
L 82.378354 238.567309 
L 83.986364 238.567309 
L 84.790369 237.322395 
L 85.594374 231.715569 
L 86.398379 218.217663 
L 87.202384 216.618332 
L 88.006389 211.956284 
L 88.810393 216.618332 
L 89.614398 218.217663 
L 90.418403 218.217663 
L 91.222408 234.190476 
L 92.026413 256.371168 
L 93.634423 256.371168 
L 94.438428 261.743173 
L 95.242433 257.266043 
L 96.046437 257.266043 
L 96.850442 249.96683 
L 99.262457 249.96683 
L 100.066462 249.669192 
L 100.870467 249.669192 
L 101.674472 244.381963 
L 102.478477 241.870734 
L 103.282481 241.870734 
L 104.086486 239.014937 
L 104.890491 239.014937 
L 105.694496 237.425836 
L 106.498501 214.135259 
L 107.302506 210.212288 
L 108.106511 201.852989 
L 108.910516 200.775129 
L 109.714521 201.852989 
L 111.32253 201.852989 
L 112.126535 222.617161 
L 113.734545 238.484678 
L 114.53855 242.796523 
L 115.342555 255.070122 
L 116.14656 258.02271 
L 116.950565 255.070122 
L 117.754569 260.834656 
L 118.558574 260.834656 
L 119.362579 255.070122 
L 120.166584 250.837112 
L 121.774594 250.837112 
L 122.578599 269.121028 
L 123.382604 250.837112 
L 124.186609 246.704429 
L 124.990613 245.622568 
L 125.794618 236.872912 
L 126.598623 192.165754 
L 127.402628 187.057285 
L 128.206633 175.315974 
L 129.010638 173.012065 
L 129.814643 172.892832 
L 130.618648 164.988087 
L 132.226657 164.988087 
L 133.030662 167.345618 
L 133.834667 164.988087 
L 134.638672 159.875393 
L 135.442677 159.875393 
L 136.246682 159.034362 
L 137.050687 155.718645 
L 137.854692 131.819848 
L 139.462701 67.29723 
L 140.266706 62.50742 
L 141.070711 60.28165 
L 141.874716 60.250241 
L 142.678721 59.717799 
L 143.482726 59.717799 
L 144.286731 60.250241 
L 145.090736 60.28165 
L 145.894741 68.851839 
L 146.698745 82.449211 
L 147.50275 89.750133 
L 149.11076 101.164507 
L 149.914765 109.13744 
L 151.522775 109.950464 
L 152.32678 110.90751 
L 153.130785 113.567342 
L 153.934789 116.852178 
L 154.738794 172.349065 
L 155.542799 176.996818 
L 156.346804 195.680227 
L 157.150809 198.443994 
L 157.954814 221.539711 
L 158.758819 239.027253 
L 159.562824 239.839522 
L 162.778843 239.776337 
L 163.582848 223.218985 
L 164.386853 218.22443 
L 165.190858 212.28271 
L 165.994863 191.789719 
L 167.602873 191.789719 
L 168.406877 195.719011 
L 169.210882 218.22443 
L 170.014887 233.759 
L 170.818892 238.329487 
L 171.622897 246.299864 
L 172.426902 250.190154 
L 174.838917 250.190154 
L 175.642921 230.459184 
L 176.446926 225.738347 
L 178.054936 225.638699 
L 179.662946 225.738347 
L 180.466951 228.721272 
L 181.270956 228.721272 
L 182.074961 237.404949 
L 182.878965 237.404949 
L 183.68297 236.043419 
L 184.486975 233.291368 
L 186.89899 233.291368 
L 187.702995 229.030206 
L 188.507 229.030206 
L 189.311005 233.291368 
L 190.115009 240.661717 
L 190.919014 240.661717 
L 191.723019 248.052415 
L 192.527024 276.855794 
L 193.331029 278.727303 
L 194.135034 279.115871 
L 194.939039 279.115871 
L 195.743044 278.727303 
L 196.547049 278.727303 
L 197.351053 276.855794 
L 198.959063 262.481818 
L 199.763068 248.973031 
L 200.567073 247.23262 
L 201.371078 247.23262 
L 202.175083 246.065625 
L 202.979088 245.420822 
L 203.783093 241.442298 
L 204.587097 233.56532 
L 205.391102 241.442298 
L 206.999112 241.442298 
L 207.803117 246.764864 
L 208.607122 254.697921 
L 209.411127 255.974869 
L 211.019137 255.974869 
L 211.823141 254.854653 
L 213.431151 254.854653 
L 214.235156 241.681078 
L 215.039161 230.606398 
L 215.843166 230.606398 
L 216.647171 224.71663 
L 217.451176 209.694952 
L 219.86319 209.694952 
L 220.667195 216.820989 
L 221.4712 218.041431 
L 222.275205 239.720024 
L 223.07921 242.718753 
L 223.883215 242.718753 
L 224.68722 242.907732 
L 225.491225 244.567682 
L 226.295229 244.567682 
L 227.099234 246.644358 
L 227.903239 246.644358 
L 228.707244 241.553864 
L 229.511249 241.553864 
L 230.315254 235.252652 
L 231.119259 235.252652 
L 231.923264 241.553864 
L 232.727269 241.553864 
L 233.531273 261.691962 
L 234.335278 267.455224 
L 235.139283 284.548494 
L 237.551298 284.548494 
L 238.355303 278.659646 
L 239.159308 267.455224 
L 239.963313 252.701143 
L 240.767317 249.175987 
L 241.571322 249.175987 
L 242.375327 252.701143 
L 243.179332 252.701143 
L 243.983337 249.175987 
L 244.787342 250.359762 
L 248.807366 250.359762 
L 249.611371 254.015039 
L 250.415376 254.200681 
L 251.219381 255.250754 
L 252.023386 255.250754 
L 252.827391 255.961076 
L 253.631396 255.250754 
L 254.435401 254.200681 
L 255.239405 254.200681 
L 256.04341 252.233665 
L 256.847415 251.542445 
L 257.65142 251.542445 
L 258.455425 246.328329 
L 259.25943 242.85735 
L 260.86744 242.85735 
L 261.671445 241.354549 
L 262.475449 236.671991 
L 263.279454 234.435177 
L 264.083459 231.397732 
L 264.887464 231.397732 
L 265.691469 231.054637 
L 266.495474 226.876712 
L 267.299479 225.627869 
L 268.103484 221.46503 
L 268.907489 218.785837 
L 269.711493 221.46503 
L 270.515498 218.785837 
L 271.319503 221.46503 
L 272.123508 218.785837 
L 272.927513 218.632826 
L 273.731518 214.833252 
L 274.535523 214.833252 
L 275.339528 214.307418 
L 276.143533 214.833252 
L 276.947537 214.833252 
L 277.751542 216.937684 
L 278.555547 224.116725 
L 279.359552 224.85796 
L 280.163557 228.320846 
L 280.967562 238.272958 
L 281.771567 238.272958 
L 282.575572 248.98549 
L 284.183582 248.98549 
L 284.987586 230.817598 
L 285.791591 224.439407 
L 286.595596 224.049812 
L 288.203606 209.050366 
L 289.007611 201.233816 
L 289.811616 201.233816 
L 290.615621 196.057544 
L 291.419626 189.990524 
L 292.22363 181.297243 
L 293.83164 181.297243 
L 294.635645 187.265898 
L 295.43965 187.265898 
L 296.243655 188.606391 
L 297.04766 188.606391 
L 297.851665 198.501248 
L 298.65567 202.930643 
L 299.459674 202.930643 
L 300.263679 204.422289 
L 301.871689 204.422289 
L 302.675694 205.197606 
L 303.479699 205.197606 
L 304.283704 212.670883 
L 305.087709 212.670883 
L 305.891714 205.197606 
L 306.695718 212.670883 
L 308.303728 244.571021 
L 309.107733 250.454241 
L 309.911738 250.454241 
L 310.715743 249.277218 
L 311.519748 249.277218 
L 312.323753 244.571021 
L 313.127758 240.621063 
L 313.931762 240.215453 
L 314.735767 231.407674 
L 316.343777 231.407674 
L 317.147782 237.66484 
L 317.951787 238.581564 
L 318.755792 238.581564 
L 319.559797 250.313877 
L 320.363802 264.006703 
L 321.971811 264.006703 
L 322.775816 266.993661 
L 323.579821 271.125632 
L 325.187831 271.125632 
L 325.991836 251.825572 
L 326.795841 245.853524 
L 327.599846 250.353927 
L 330.01186 250.353927 
L 330.815865 265.841945 
L 331.61987 265.841945 
L 332.423875 267.477136 
L 333.22788 270.122214 
L 334.031885 270.122214 
L 334.83589 267.477136 
L 335.639894 265.794757 
L 336.443899 257.240854 
L 337.247904 243.55892 
L 338.051909 243.55892 
L 338.855914 242.851004 
L 340.463924 242.851004 
L 341.267929 248.800479 
L 342.875938 248.800479 
L 343.679943 245.377871 
L 344.483948 245.377871 
L 345.287953 234.982239 
L 346.091958 233.704776 
L 346.895963 227.010921 
L 347.699968 226.067711 
L 348.503973 226.067711 
L 349.307978 220.946708 
L 350.915987 220.946708 
L 351.719992 226.067711 
L 352.523997 224.960716 
L 353.328002 226.185254 
L 354.132007 226.185254 
L 354.936012 240.260095 
L 355.740017 244.367107 
L 356.544022 246.321663 
L 358.956036 246.321663 
L 359.760041 246.935724 
L 360.564046 246.935724 
L 361.368051 250.856065 
L 363.780066 250.856065 
L 364.58407 250.077647 
L 365.388075 245.562184 
L 366.19208 245.506463 
L 366.996085 245.181635 
L 367.80009 245.181635 
L 368.604095 245.506463 
L 369.4081 245.562184 
L 370.212105 252.499541 
L 371.01611 252.933153 
L 372.624119 252.933153 
L 373.428124 252.499541 
L 374.232129 249.63411 
L 375.036134 240.39497 
L 376.644144 234.393718 
L 377.448149 234.393718 
L 378.252154 237.523421 
L 379.056158 237.523421 
L 379.860163 247.262239 
L 380.664168 250.106473 
L 381.468173 251.320403 
L 382.272178 251.53415 
L 383.076183 253.870444 
L 383.880188 260.510592 
L 384.684193 263.666922 
L 385.488198 265.308948 
L 388.704217 265.308948 
L 389.508222 258.221772 
L 390.312227 258.027764 
L 391.116232 257.450052 
L 391.920237 253.877246 
L 392.724242 248.501633 
L 395.136256 248.501633 
L 395.940261 248.346503 
L 396.744266 248.346503 
L 397.548271 241.494177 
L 398.352276 240.181173 
L 399.156281 231.432344 
L 399.960286 230.254744 
L 401.568295 230.254744 
L 402.3723 231.432344 
L 403.176305 240.110794 
L 408.000334 240.110794 
L 408.804339 249.479608 
L 409.608344 252.596353 
L 411.216354 252.596353 
L 412.020359 249.479608 
L 412.824364 227.538663 
L 413.628369 227.538663 
L 414.432374 226.366651 
L 416.844388 226.366651 
L 417.648393 225.012329 
L 419.256403 221.391112 
L 420.060408 213.787634 
L 420.864413 213.787634 
L 421.668418 208.109617 
L 422.472422 203.748185 
L 423.276427 203.620727 
L 424.080432 188.213874 
L 424.884437 187.297699 
L 425.688442 187.297699 
L 426.492447 186.711333 
L 429.708466 186.711333 
L 430.512471 183.720534 
L 432.120481 183.720534 
L 432.924486 180.232185 
L 433.728491 183.720534 
L 434.532496 184.914507 
L 436.140506 186.794666 
L 436.94451 186.976252 
L 437.748515 186.794666 
L 438.55252 186.976252 
L 439.356525 189.135882 
L 442.572545 189.135882 
L 443.37655 195.115206 
L 444.180554 195.115206 
L 444.984559 199.250838 
L 445.788564 206.525891 
L 446.592569 211.930706 
L 447.396574 236.95111 
L 448.200579 237.357692 
L 449.004584 237.357692 
L 449.808589 241.529867 
L 450.612594 249.055266 
L 451.416598 252.033882 
L 452.220603 254.136109 
L 453.024608 258.570635 
L 455.436623 258.570635 
L 456.240628 255.017617 
L 457.044633 241.880324 
L 461.064657 241.880324 
L 461.868662 238.74619 
L 462.672667 234.341727 
L 463.476672 225.400224 
L 464.280677 223.111896 
L 465.084682 222.610863 
L 465.888686 211.29383 
L 466.692691 196.155116 
L 469.908711 196.145659 
L 470.712716 203.708471 
L 471.516721 204.772975 
L 472.320726 229.459528 
L 473.12473 240.788563 
L 474.73274 240.788563 
L 475.536745 234.272726 
L 477.144755 234.272726 
L 477.94876 237.177246 
L 481.164779 237.177246 
L 481.968784 233.391425 
L 482.772789 231.633879 
L 483.576794 231.298203 
L 484.380799 230.711717 
L 485.184804 226.562613 
L 485.988809 226.562613 
L 486.792814 219.239985 
L 487.596819 219.239985 
L 488.400823 194.414252 
L 490.008833 194.414252 
L 490.812838 209.346335 
L 493.224853 209.346335 
L 494.028858 212.063701 
L 494.832863 212.063701 
L 495.636867 209.346335 
L 496.440872 215.278386 
L 497.244877 219.346114 
L 498.048882 219.749548 
L 498.852887 221.142526 
L 500.460897 221.142526 
L 501.264902 223.941432 
L 502.068907 237.20751 
L 503.676916 237.20751 
L 504.480921 236.602427 
L 506.088931 236.602427 
L 506.892936 237.20751 
L 507.696941 238.53192 
L 509.304951 238.53192 
L 510.108955 238.645241 
L 510.91296 238.53192 
L 511.716965 237.946241 
L 512.52097 236.754454 
L 513.324975 234.207293 
L 514.12898 232.601789 
L 514.932985 227.395404 
L 515.73699 226.869829 
L 516.540995 224.506014 
L 519.757014 224.506014 
L 520.561019 224.801861 
L 521.365024 230.526522 
L 522.169029 241.539341 
L 524.581043 241.539341 
L 525.385048 230.890984 
L 526.189053 228.556677 
L 526.993058 224.539564 
L 527.797063 215.077243 
L 530.209078 215.077243 
L 531.013083 222.361076 
L 532.621092 222.361076 
L 533.425097 223.572361 
L 535.033107 223.572361 
L 535.837112 225.253757 
L 536.641117 223.572361 
L 537.445122 228.124098 
L 538.249127 228.124098 
L 539.053131 228.38109 
L 539.857136 229.325391 
L 540.661141 229.325391 
L 541.465146 249.32964 
L 542.269151 255.78721 
L 543.073156 260.239998 
L 543.877161 263.364632 
L 544.681166 263.364632 
L 545.485171 268.962308 
L 546.289175 270.140302 
L 547.09318 273.548567 
L 547.897185 274.669739 
L 548.70119 273.548567 
L 549.505195 268.962308 
L 550.3092 268.962308 
L 551.113205 274.669739 
L 551.91721 270.046848 
L 553.525219 267.425404 
L 555.133229 267.425404 
L 555.937234 270.046848 
L 556.741239 267.425404 
L 557.545244 267.425404 
L 558.349249 278.145327 
L 559.153254 278.145327 
L 559.957259 274.652154 
L 560.761263 274.652154 
L 561.565268 271.208811 
L 562.369273 273.423168 
L 565.585293 273.423168 
L 566.389298 275.558983 
L 567.997307 275.558983 
L 568.801312 269.970221 
L 569.605317 265.633907 
L 570.409322 264.621934 
L 571.213327 263.870063 
L 572.017332 253.741675 
L 574.429347 253.741675 
L 575.233351 250.594593 
L 576.037356 238.85444 
L 576.841361 232.755323 
L 577.645366 232.755323 
L 578.449371 229.990409 
L 580.057381 235.686889 
L 580.861386 235.686889 
L 581.665391 236.201369 
L 582.469395 237.132724 
L 583.2734 237.132724 
L 584.077405 239.622602 
L 585.685415 239.622602 
L 587.293425 246.329821 
L 588.09743 257.790697 
L 588.901435 258.602779 
L 589.705439 258.602779 
L 590.509444 258.885278 
L 591.313449 262.40634 
L 592.117454 264.1166 
L 594.529469 264.1166 
L 595.333474 262.40634 
L 596.137479 260.127413 
L 596.941483 249.385179 
L 597.745488 240.66195 
L 600.961508 240.687371 
L 601.765513 242.461816 
L 602.569518 249.953369 
L 603.373523 259.083999 
L 604.177527 259.083999 
L 604.981532 262.461028 
L 605.785537 269.528436 
L 606.589542 269.974749 
L 607.393547 270.108387 
L 608.197552 272.706601 
L 609.001557 272.8782 
L 610.609567 272.8782 
L 611.413571 277.9279 
L 612.217576 277.9279 
L 613.021581 278.09299 
L 613.825586 279.299909 
L 616.237601 279.299909 
L 617.041606 261.53719 
L 619.45362 261.53719 
L 620.257625 276.889142 
L 622.66964 276.889142 
L 623.473645 282.222124 
L 624.27765 282.222124 
L 625.885659 268.174662 
L 626.689664 266.932759 
L 627.493669 261.338172 
L 629.101679 261.338172 
L 629.905684 257.151674 
L 630.709689 257.151674 
L 631.513694 261.300205 
L 632.317699 262.689741 
L 633.121703 265.949466 
L 633.925708 265.949466 
L 634.729713 261.300205 
L 635.533718 261.300205 
L 636.337723 257.113008 
L 637.141728 231.220447 
L 637.945733 227.934111 
L 638.749738 227.934111 
L 639.553743 226.036881 
L 640.357747 225.554772 
L 641.161752 225.554772 
L 641.965757 223.150016 
L 642.769762 221.197151 
L 643.573767 223.150016 
L 644.377772 223.150016 
L 645.181777 224.190977 
L 645.985782 225.82098 
L 647.593791 225.82098 
L 648.397796 226.724584 
L 649.201801 225.82098 
L 650.809811 225.82098 
L 651.613816 225.573 
L 653.221826 209.907506 
L 654.025831 209.907506 
L 654.829835 209.571832 
L 655.63384 209.571832 
L 656.437845 209.907506 
L 657.24185 210.039485 
L 658.045855 216.777442 
L 658.045855 216.777442 
" clip-path="url(#p0fdeb41d41)" style="fill: none; stroke: #d62728; stroke-width: 1.5; stroke-linecap: square"/>
   </g>
   <g id="line2d_39">
    <path d="M 124.186609 314.918125 
L 124.186609 22.318125 
" clip-path="url(#p0fdeb41d41)" style="fill: none; stroke-dasharray: 3.7,1.6; stroke-dashoffset: 0; stroke: #1f77b4"/>
   </g>
   <g id="line2d_40">
    <path d="M 569.605317 314.918125 
L 569.605317 22.318125 
" clip-path="url(#p0fdeb41d41)" style="fill: none; stroke-dasharray: 3.7,1.6; stroke-dashoffset: 0; stroke: #d62728"/>
   </g>
   <g id="patch_3">
    <path d="M 42.620313 314.918125 
L 42.620313 22.318125 
" style="fill: none; stroke: #000000; stroke-width: 0.8; stroke-linejoin: miter; stroke-linecap: square"/>
   </g>
   <g id="patch_4">
    <path d="M 687.351833 314.918125 
L 687.351833 22.318125 
" style="fill: none; stroke: #000000; stroke-width: 0.8; stroke-linejoin: miter; stroke-linecap: square"/>
   </g>
   <g id="patch_5">
    <path d="M 42.620312 314.918125 
L 687.351833 314.918125 
" style="fill: none; stroke: #000000; stroke-width: 0.8; stroke-linejoin: miter; stroke-linecap: square"/>
   </g>
   <g id="patch_6">
    <path d="M 42.620312 22.318125 
L 687.351833 22.318125 
" style="fill: none; stroke: #000000; stroke-width: 0.8; stroke-linejoin: miter; stroke-linecap: square"/>
   </g>
   <g id="text_20">
    <!-- CEX liquidity proxies (daily median, z-score, 7D MA) -->
    <g transform="translate(209.385448 16.318125) scale(0.12 -0.12)">
     <defs>
      <path id="DejaVuSans-43" d="M 4122 4306 
L 4122 3641 
Q 3803 3938 3442 4084 
Q 3081 4231 2675 4231 
Q 1875 4231 1450 3742 
Q 1025 3253 1025 2328 
Q 1025 1406 1450 917 
Q 1875 428 2675 428 
Q 3081 428 3442 575 
Q 3803 722 4122 1019 
L 4122 359 
Q 3791 134 3420 21 
Q 3050 -91 2638 -91 
Q 1578 -91 968 557 
Q 359 1206 359 2328 
Q 359 3453 968 4101 
Q 1578 4750 2638 4750 
Q 3056 4750 3426 4639 
Q 3797 4528 4122 4306 
z
" transform="scale(0.015625)"/>
      <path id="DejaVuSans-45" d="M 628 4666 
L 3578 4666 
L 3578 4134 
L 1259 4134 
L 1259 2753 
L 3481 2753 
L 3481 2222 
L 1259 2222 
L 1259 531 
L 3634 531 
L 3634 0 
L 628 0 
L 628 4666 
z
" transform="scale(0.015625)"/>
      <path id="DejaVuSans-58" d="M 403 4666 
L 1081 4666 
L 2241 2931 
L 3406 4666 
L 4084 4666 
L 2584 2425 
L 4184 0 
L 3506 0 
L 2194 1984 
L 872 0 
L 191 0 
L 1856 2491 
L 403 4666 
z
" transform="scale(0.015625)"/>
      <path id="DejaVuSans-20" transform="scale(0.015625)"/>
      <path id="DejaVuSans-6c" d="M 603 4863 
L 1178 4863 
L 1178 0 
L 603 0 
L 603 4863 
z
" transform="scale(0.015625)"/>
      <path id="DejaVuSans-69" d="M 603 3500 
L 1178 3500 
L 1178 0 
L 603 0 
L 603 3500 
z
M 603 4863 
L 1178 4863 
L 1178 4134 
L 603 4134 
L 603 4863 
z
" transform="scale(0.015625)"/>
      <path id="DejaVuSans-71" d="M 947 1747 
Q 947 1113 1208 752 
Q 1469 391 1925 391 
Q 2381 391 2643 752 
Q 2906 1113 2906 1747 
Q 2906 2381 2643 2742 
Q 2381 3103 1925 3103 
Q 1469 3103 1208 2742 
Q 947 2381 947 1747 
z
M 2906 525 
Q 2725 213 2448 61 
Q 2172 -91 1784 -91 
Q 1150 -91 751 415 
Q 353 922 353 1747 
Q 353 2572 751 3078 
Q 1150 3584 1784 3584 
Q 2172 3584 2448 3432 
Q 2725 3281 2906 2969 
L 2906 3500 
L 3481 3500 
L 3481 -1331 
L 2906 -1331 
L 2906 525 
z
" transform="scale(0.015625)"/>
      <path id="DejaVuSans-75" d="M 544 1381 
L 544 3500 
L 1119 3500 
L 1119 1403 
Q 1119 906 1312 657 
Q 1506 409 1894 409 
Q 2359 409 2629 706 
Q 2900 1003 2900 1516 
L 2900 3500 
L 3475 3500 
L 3475 0 
L 2900 0 
L 2900 538 
Q 2691 219 2414 64 
Q 2138 -91 1772 -91 
Q 1169 -91 856 284 
Q 544 659 544 1381 
z
M 1991 3584 
L 1991 3584 
z
" transform="scale(0.015625)"/>
      <path id="DejaVuSans-79" d="M 2059 -325 
Q 1816 -950 1584 -1140 
Q 1353 -1331 966 -1331 
L 506 -1331 
L 506 -850 
L 844 -850 
Q 1081 -850 1212 -737 
Q 1344 -625 1503 -206 
L 1606 56 
L 191 3500 
L 800 3500 
L 1894 763 
L 2988 3500 
L 3597 3500 
L 2059 -325 
z
" transform="scale(0.015625)"/>
      <path id="DejaVuSans-70" d="M 1159 525 
L 1159 -1331 
L 581 -1331 
L 581 3500 
L 1159 3500 
L 1159 2969 
Q 1341 3281 1617 3432 
Q 1894 3584 2278 3584 
Q 2916 3584 3314 3078 
Q 3713 2572 3713 1747 
Q 3713 922 3314 415 
Q 2916 -91 2278 -91 
Q 1894 -91 1617 61 
Q 1341 213 1159 525 
z
M 3116 1747 
Q 3116 2381 2855 2742 
Q 2594 3103 2138 3103 
Q 1681 3103 1420 2742 
Q 1159 2381 1159 1747 
Q 1159 1113 1420 752 
Q 1681 391 2138 391 
Q 2594 391 2855 752 
Q 3116 1113 3116 1747 
z
" transform="scale(0.015625)"/>
      <path id="DejaVuSans-78" d="M 3513 3500 
L 2247 1797 
L 3578 0 
L 2900 0 
L 1881 1375 
L 863 0 
L 184 0 
L 1544 1831 
L 300 3500 
L 978 3500 
L 1906 2253 
L 2834 3500 
L 3513 3500 
z
" transform="scale(0.015625)"/>
      <path id="DejaVuSans-28" d="M 1984 4856 
Q 1566 4138 1362 3434 
Q 1159 2731 1159 2009 
Q 1159 1288 1364 580 
Q 1569 -128 1984 -844 
L 1484 -844 
Q 1016 -109 783 600 
Q 550 1309 550 2009 
Q 550 2706 781 3412 
Q 1013 4119 1484 4856 
L 1984 4856 
z
" transform="scale(0.015625)"/>
      <path id="DejaVuSans-6d" d="M 3328 2828 
Q 3544 3216 3844 3400 
Q 4144 3584 4550 3584 
Q 5097 3584 5394 3201 
Q 5691 2819 5691 2113 
L 5691 0 
L 5113 0 
L 5113 2094 
Q 5113 2597 4934 2840 
Q 4756 3084 4391 3084 
Q 3944 3084 3684 2787 
Q 3425 2491 3425 1978 
L 3425 0 
L 2847 0 
L 2847 2094 
Q 2847 2600 2669 2842 
Q 2491 3084 2119 3084 
Q 1678 3084 1418 2786 
Q 1159 2488 1159 1978 
L 1159 0 
L 581 0 
L 581 3500 
L 1159 3500 
L 1159 2956 
Q 1356 3278 1631 3431 
Q 1906 3584 2284 3584 
Q 2666 3584 2933 3390 
Q 3200 3197 3328 2828 
z
" transform="scale(0.015625)"/>
      <path id="DejaVuSans-6e" d="M 3513 2113 
L 3513 0 
L 2938 0 
L 2938 2094 
Q 2938 2591 2744 2837 
Q 2550 3084 2163 3084 
Q 1697 3084 1428 2787 
Q 1159 2491 1159 1978 
L 1159 0 
L 581 0 
L 581 3500 
L 1159 3500 
L 1159 2956 
Q 1366 3272 1645 3428 
Q 1925 3584 2291 3584 
Q 2894 3584 3203 3211 
Q 3513 2838 3513 2113 
z
" transform="scale(0.015625)"/>
      <path id="DejaVuSans-2c" d="M 750 794 
L 1409 794 
L 1409 256 
L 897 -744 
L 494 -744 
L 750 256 
L 750 794 
z
" transform="scale(0.015625)"/>
      <path id="DejaVuSans-44" d="M 1259 4147 
L 1259 519 
L 2022 519 
Q 2988 519 3436 956 
Q 3884 1394 3884 2338 
Q 3884 3275 3436 3711 
Q 2988 4147 2022 4147 
L 1259 4147 
z
M 628 4666 
L 1925 4666 
Q 3281 4666 3915 4102 
Q 4550 3538 4550 2338 
Q 4550 1131 3912 565 
Q 3275 0 1925 0 
L 628 0 
L 628 4666 
z
" transform="scale(0.015625)"/>
      <path id="DejaVuSans-4d" d="M 628 4666 
L 1569 4666 
L 2759 1491 
L 3956 4666 
L 4897 4666 
L 4897 0 
L 4281 0 
L 4281 4097 
L 3078 897 
L 2444 897 
L 1241 4097 
L 1241 0 
L 628 0 
L 628 4666 
z
" transform="scale(0.015625)"/>
      <path id="DejaVuSans-41" d="M 2188 4044 
L 1331 1722 
L 3047 1722 
L 2188 4044 
z
M 1831 4666 
L 2547 4666 
L 4325 0 
L 3669 0 
L 3244 1197 
L 1141 1197 
L 716 0 
L 50 0 
L 1831 4666 
z
" transform="scale(0.015625)"/>
      <path id="DejaVuSans-29" d="M 513 4856 
L 1013 4856 
Q 1481 4119 1714 3412 
Q 1947 2706 1947 2009 
Q 1947 1309 1714 600 
Q 1481 -109 1013 -844 
L 513 -844 
Q 928 -128 1133 580 
Q 1338 1288 1338 2009 
Q 1338 2731 1133 3434 
Q 928 4138 513 4856 
z
" transform="scale(0.015625)"/>
     </defs>
     <use xlink:href="#DejaVuSans-43"/>
     <use xlink:href="#DejaVuSans-45" transform="translate(69.824219 0)"/>
     <use xlink:href="#DejaVuSans-58" transform="translate(133.007812 0)"/>
     <use xlink:href="#DejaVuSans-20" transform="translate(201.513672 0)"/>
     <use xlink:href="#DejaVuSans-6c" transform="translate(233.300781 0)"/>
     <use xlink:href="#DejaVuSans-69" transform="translate(261.083984 0)"/>
     <use xlink:href="#DejaVuSans-71" transform="translate(288.867188 0)"/>
     <use xlink:href="#DejaVuSans-75" transform="translate(352.34375 0)"/>
     <use xlink:href="#DejaVuSans-69" transform="translate(415.722656 0)"/>
     <use xlink:href="#DejaVuSans-64" transform="translate(443.505859 0)"/>
     <use xlink:href="#DejaVuSans-69" transform="translate(506.982422 0)"/>
     <use xlink:href="#DejaVuSans-74" transform="translate(534.765625 0)"/>
     <use xlink:href="#DejaVuSans-79" transform="translate(573.974609 0)"/>
     <use xlink:href="#DejaVuSans-20" transform="translate(633.154297 0)"/>
     <use xlink:href="#DejaVuSans-70" transform="translate(664.941406 0)"/>
     <use xlink:href="#DejaVuSans-72" transform="translate(728.417969 0)"/>
     <use xlink:href="#DejaVuSans-6f" transform="translate(767.28125 0)"/>
     <use xlink:href="#DejaVuSans-78" transform="translate(825.337891 0)"/>
     <use xlink:href="#DejaVuSans-69" transform="translate(884.517578 0)"/>
     <use xlink:href="#DejaVuSans-65" transform="translate(912.300781 0)"/>
     <use xlink:href="#DejaVuSans-73" transform="translate(973.824219 0)"/>
     <use xlink:href="#DejaVuSans-20" transform="translate(1025.923828 0)"/>
     <use xlink:href="#DejaVuSans-28" transform="translate(1057.710938 0)"/>
     <use xlink:href="#DejaVuSans-64" transform="translate(1096.724609 0)"/>
     <use xlink:href="#DejaVuSans-61" transform="translate(1160.201172 0)"/>
     <use xlink:href="#DejaVuSans-69" transform="translate(1221.480469 0)"/>
     <use xlink:href="#DejaVuSans-6c" transform="translate(1249.263672 0)"/>
     <use xlink:href="#DejaVuSans-79" transform="translate(1277.046875 0)"/>
     <use xlink:href="#DejaVuSans-20" transform="translate(1336.226562 0)"/>
     <use xlink:href="#DejaVuSans-6d" transform="translate(1368.013672 0)"/>
     <use xlink:href="#DejaVuSans-65" transform="translate(1465.425781 0)"/>
     <use xlink:href="#DejaVuSans-64" transform="translate(1526.949219 0)"/>
     <use xlink:href="#DejaVuSans-69" transform="translate(1590.425781 0)"/>
     <use xlink:href="#DejaVuSans-61" transform="translate(1618.208984 0)"/>
     <use xlink:href="#DejaVuSans-6e" transform="translate(1679.488281 0)"/>
     <use xlink:href="#DejaVuSans-2c" transform="translate(1742.867188 0)"/>
     <use xlink:href="#DejaVuSans-20" transform="translate(1774.654297 0)"/>
     <use xlink:href="#DejaVuSans-7a" transform="translate(1806.441406 0)"/>
     <use xlink:href="#DejaVuSans-2d" transform="translate(1858.931641 0)"/>
     <use xlink:href="#DejaVuSans-73" transform="translate(1895.015625 0)"/>
     <use xlink:href="#DejaVuSans-63" transform="translate(1947.115234 0)"/>
     <use xlink:href="#DejaVuSans-6f" transform="translate(2002.095703 0)"/>
     <use xlink:href="#DejaVuSans-72" transform="translate(2063.277344 0)"/>
     <use xlink:href="#DejaVuSans-65" transform="translate(2102.140625 0)"/>
     <use xlink:href="#DejaVuSans-2c" transform="translate(2163.664062 0)"/>
     <use xlink:href="#DejaVuSans-20" transform="translate(2195.451172 0)"/>
     <use xlink:href="#DejaVuSans-37" transform="translate(2227.238281 0)"/>
     <use xlink:href="#DejaVuSans-44" transform="translate(2290.861328 0)"/>
     <use xlink:href="#DejaVuSans-20" transform="translate(2367.863281 0)"/>
     <use xlink:href="#DejaVuSans-4d" transform="translate(2399.650391 0)"/>
     <use xlink:href="#DejaVuSans-41" transform="translate(2485.929688 0)"/>
     <use xlink:href="#DejaVuSans-29" transform="translate(2554.337891 0)"/>
    </g>
   </g>
   <g id="legend_1">
    <g id="line2d_41">
     <path d="M 51.620313 35.416562 
L 61.620313 35.416562 
L 71.620313 35.416562 
" style="fill: none; stroke: #1f77b4; stroke-width: 1.5; stroke-linecap: square"/>
    </g>
    <g id="text_21">
     <!-- CHL -->
     <g transform="translate(79.620313 38.916562) scale(0.1 -0.1)">
      <defs>
       <path id="DejaVuSans-48" d="M 628 4666 
L 1259 4666 
L 1259 2753 
L 3553 2753 
L 3553 4666 
L 4184 4666 
L 4184 0 
L 3553 0 
L 3553 2222 
L 1259 2222 
L 1259 0 
L 628 0 
L 628 4666 
z
" transform="scale(0.015625)"/>
       <path id="DejaVuSans-4c" d="M 628 4666 
L 1259 4666 
L 1259 531 
L 3531 531 
L 3531 0 
L 628 0 
L 628 4666 
z
" transform="scale(0.015625)"/>
      </defs>
      <use xlink:href="#DejaVuSans-43"/>
      <use xlink:href="#DejaVuSans-48" transform="translate(69.824219 0)"/>
      <use xlink:href="#DejaVuSans-4c" transform="translate(145.019531 0)"/>
     </g>
    </g>
    <g id="line2d_42">
     <path d="M 51.620313 50.094687 
L 61.620313 50.094687 
L 71.620313 50.094687 
" style="fill: none; stroke: #ff7f0e; stroke-width: 1.5; stroke-linecap: square"/>
    </g>
    <g id="text_22">
     <!-- CS -->
     <g transform="translate(79.620313 53.594687) scale(0.1 -0.1)">
      <defs>
       <path id="DejaVuSans-53" d="M 3425 4513 
L 3425 3897 
Q 3066 4069 2747 4153 
Q 2428 4238 2131 4238 
Q 1616 4238 1336 4038 
Q 1056 3838 1056 3469 
Q 1056 3159 1242 3001 
Q 1428 2844 1947 2747 
L 2328 2669 
Q 3034 2534 3370 2195 
Q 3706 1856 3706 1288 
Q 3706 609 3251 259 
Q 2797 -91 1919 -91 
Q 1588 -91 1214 -16 
Q 841 59 441 206 
L 441 856 
Q 825 641 1194 531 
Q 1563 422 1919 422 
Q 2459 422 2753 634 
Q 3047 847 3047 1241 
Q 3047 1584 2836 1778 
Q 2625 1972 2144 2069 
L 1759 2144 
Q 1053 2284 737 2584 
Q 422 2884 422 3419 
Q 422 4038 858 4394 
Q 1294 4750 2059 4750 
Q 2388 4750 2728 4690 
Q 3069 4631 3425 4513 
z
" transform="scale(0.015625)"/>
      </defs>
      <use xlink:href="#DejaVuSans-43"/>
      <use xlink:href="#DejaVuSans-53" transform="translate(69.824219 0)"/>
     </g>
    </g>
    <g id="line2d_43">
     <path d="M 51.620313 64.772812 
L 61.620313 64.772812 
L 71.620313 64.772812 
" style="fill: none; stroke: #2ca02c; stroke-width: 1.5; stroke-linecap: square"/>
    </g>
    <g id="text_23">
     <!-- AMIHUD -->
     <g transform="translate(79.620313 68.272812) scale(0.1 -0.1)">
      <defs>
       <path id="DejaVuSans-49" d="M 628 4666 
L 1259 4666 
L 1259 0 
L 628 0 
L 628 4666 
z
" transform="scale(0.015625)"/>
       <path id="DejaVuSans-55" d="M 556 4666 
L 1191 4666 
L 1191 1831 
Q 1191 1081 1462 751 
Q 1734 422 2344 422 
Q 2950 422 3222 751 
Q 3494 1081 3494 1831 
L 3494 4666 
L 4128 4666 
L 4128 1753 
Q 4128 841 3676 375 
Q 3225 -91 2344 -91 
Q 1459 -91 1007 375 
Q 556 841 556 1753 
L 556 4666 
z
" transform="scale(0.015625)"/>
      </defs>
      <use xlink:href="#DejaVuSans-41"/>
      <use xlink:href="#DejaVuSans-4d" transform="translate(68.408203 0)"/>
      <use xlink:href="#DejaVuSans-49" transform="translate(154.6875 0)"/>
      <use xlink:href="#DejaVuSans-48" transform="translate(184.179688 0)"/>
      <use xlink:href="#DejaVuSans-55" transform="translate(259.375 0)"/>
      <use xlink:href="#DejaVuSans-44" transform="translate(332.568359 0)"/>
     </g>
    </g>
    <g id="line2d_44">
     <path d="M 140.578125 35.416562 
L 150.578125 35.416562 
L 160.578125 35.416562 
" style="fill: none; stroke: #d62728; stroke-width: 1.5; stroke-linecap: square"/>
    </g>
    <g id="text_24">
     <!-- ROLL -->
     <g transform="translate(168.578125 38.916562) scale(0.1 -0.1)">
      <defs>
       <path id="DejaVuSans-52" d="M 2841 2188 
Q 3044 2119 3236 1894 
Q 3428 1669 3622 1275 
L 4263 0 
L 3584 0 
L 2988 1197 
Q 2756 1666 2539 1819 
Q 2322 1972 1947 1972 
L 1259 1972 
L 1259 0 
L 628 0 
L 628 4666 
L 2053 4666 
Q 2853 4666 3247 4331 
Q 3641 3997 3641 3322 
Q 3641 2881 3436 2590 
Q 3231 2300 2841 2188 
z
M 1259 4147 
L 1259 2491 
L 2053 2491 
Q 2509 2491 2742 2702 
Q 2975 2913 2975 3322 
Q 2975 3731 2742 3939 
Q 2509 4147 2053 4147 
L 1259 4147 
z
" transform="scale(0.015625)"/>
       <path id="DejaVuSans-4f" d="M 2522 4238 
Q 1834 4238 1429 3725 
Q 1025 3213 1025 2328 
Q 1025 1447 1429 934 
Q 1834 422 2522 422 
Q 3209 422 3611 934 
Q 4013 1447 4013 2328 
Q 4013 3213 3611 3725 
Q 3209 4238 2522 4238 
z
M 2522 4750 
Q 3503 4750 4090 4092 
Q 4678 3434 4678 2328 
Q 4678 1225 4090 567 
Q 3503 -91 2522 -91 
Q 1538 -91 948 565 
Q 359 1222 359 2328 
Q 359 3434 948 4092 
Q 1538 4750 2522 4750 
z
" transform="scale(0.015625)"/>
      </defs>
      <use xlink:href="#DejaVuSans-52"/>
      <use xlink:href="#DejaVuSans-4f" transform="translate(69.482422 0)"/>
      <use xlink:href="#DejaVuSans-4c" transform="translate(148.193359 0)"/>
      <use xlink:href="#DejaVuSans-4c" transform="translate(203.90625 0)"/>
     </g>
    </g>
    <g id="line2d_45">
     <path d="M 140.578125 50.094687 
L 150.578125 50.094687 
L 160.578125 50.094687 
" style="fill: none; stroke-dasharray: 3.7,1.6; stroke-dashoffset: 0; stroke: #1f77b4"/>
    </g>
    <g id="text_25">
     <!-- Uniswap v3 launch (2021-05-05) -->
     <g transform="translate(168.578125 53.594687) scale(0.1 -0.1)">
      <defs>
       <path id="DejaVuSans-77" d="M 269 3500 
L 844 3500 
L 1563 769 
L 2278 3500 
L 2956 3500 
L 3675 769 
L 4391 3500 
L 4966 3500 
L 4050 0 
L 3372 0 
L 2619 2869 
L 1863 0 
L 1184 0 
L 269 3500 
z
" transform="scale(0.015625)"/>
       <path id="DejaVuSans-76" d="M 191 3500 
L 800 3500 
L 1894 563 
L 2988 3500 
L 3597 3500 
L 2284 0 
L 1503 0 
L 191 3500 
z
" transform="scale(0.015625)"/>
       <path id="DejaVuSans-68" d="M 3513 2113 
L 3513 0 
L 2938 0 
L 2938 2094 
Q 2938 2591 2744 2837 
Q 2550 3084 2163 3084 
Q 1697 3084 1428 2787 
Q 1159 2491 1159 1978 
L 1159 0 
L 581 0 
L 581 4863 
L 1159 4863 
L 1159 2956 
Q 1366 3272 1645 3428 
Q 1925 3584 2291 3584 
Q 2894 3584 3203 3211 
Q 3513 2838 3513 2113 
z
" transform="scale(0.015625)"/>
      </defs>
      <use xlink:href="#DejaVuSans-55"/>
      <use xlink:href="#DejaVuSans-6e" transform="translate(73.193359 0)"/>
      <use xlink:href="#DejaVuSans-69" transform="translate(136.572266 0)"/>
      <use xlink:href="#DejaVuSans-73" transform="translate(164.355469 0)"/>
      <use xlink:href="#DejaVuSans-77" transform="translate(216.455078 0)"/>
      <use xlink:href="#DejaVuSans-61" transform="translate(298.242188 0)"/>
      <use xlink:href="#DejaVuSans-70" transform="translate(359.521484 0)"/>
      <use xlink:href="#DejaVuSans-20" transform="translate(422.998047 0)"/>
      <use xlink:href="#DejaVuSans-76" transform="translate(454.785156 0)"/>
      <use xlink:href="#DejaVuSans-33" transform="translate(513.964844 0)"/>
      <use xlink:href="#DejaVuSans-20" transform="translate(577.587891 0)"/>
      <use xlink:href="#DejaVuSans-6c" transform="translate(609.375 0)"/>
      <use xlink:href="#DejaVuSans-61" transform="translate(637.158203 0)"/>
      <use xlink:href="#DejaVuSans-75" transform="translate(698.4375 0)"/>
      <use xlink:href="#DejaVuSans-6e" transform="translate(761.816406 0)"/>
      <use xlink:href="#DejaVuSans-63" transform="translate(825.195312 0)"/>
      <use xlink:href="#DejaVuSans-68" transform="translate(880.175781 0)"/>
      <use xlink:href="#DejaVuSans-20" transform="translate(943.554688 0)"/>
      <use xlink:href="#DejaVuSans-28" transform="translate(975.341797 0)"/>
      <use xlink:href="#DejaVuSans-32" transform="translate(1014.355469 0)"/>
      <use xlink:href="#DejaVuSans-30" transform="translate(1077.978516 0)"/>
      <use xlink:href="#DejaVuSans-32" transform="translate(1141.601562 0)"/>
      <use xlink:href="#DejaVuSans-31" transform="translate(1205.224609 0)"/>
      <use xlink:href="#DejaVuSans-2d" transform="translate(1268.847656 0)"/>
      <use xlink:href="#DejaVuSans-30" transform="translate(1304.931641 0)"/>
      <use xlink:href="#DejaVuSans-35" transform="translate(1368.554688 0)"/>
      <use xlink:href="#DejaVuSans-2d" transform="translate(1432.177734 0)"/>
      <use xlink:href="#DejaVuSans-30" transform="translate(1468.261719 0)"/>
      <use xlink:href="#DejaVuSans-35" transform="translate(1531.884766 0)"/>
      <use xlink:href="#DejaVuSans-29" transform="translate(1595.507812 0)"/>
     </g>
    </g>
    <g id="line2d_46">
     <path d="M 140.578125 64.772812 
L 150.578125 64.772812 
L 160.578125 64.772812 
" style="fill: none; stroke-dasharray: 3.7,1.6; stroke-dashoffset: 0; stroke: #d62728"/>
    </g>
    <g id="text_26">
     <!-- FTX collapse (2022-11-10) -->
     <g transform="translate(168.578125 68.272812) scale(0.1 -0.1)">
      <defs>
       <path id="DejaVuSans-46" d="M 628 4666 
L 3309 4666 
L 3309 4134 
L 1259 4134 
L 1259 2759 
L 3109 2759 
L 3109 2228 
L 1259 2228 
L 1259 0 
L 628 0 
L 628 4666 
z
" transform="scale(0.015625)"/>
       <path id="DejaVuSans-54" d="M -19 4666 
L 3928 4666 
L 3928 4134 
L 2272 4134 
L 2272 0 
L 1638 0 
L 1638 4134 
L -19 4134 
L -19 4666 
z
" transform="scale(0.015625)"/>
      </defs>
      <use xlink:href="#DejaVuSans-46"/>
      <use xlink:href="#DejaVuSans-54" transform="translate(55.769531 0)"/>
      <use xlink:href="#DejaVuSans-58" transform="translate(116.853516 0)"/>
      <use xlink:href="#DejaVuSans-20" transform="translate(185.359375 0)"/>
      <use xlink:href="#DejaVuSans-63" transform="translate(217.146484 0)"/>
      <use xlink:href="#DejaVuSans-6f" transform="translate(272.126953 0)"/>
      <use xlink:href="#DejaVuSans-6c" transform="translate(333.308594 0)"/>
      <use xlink:href="#DejaVuSans-6c" transform="translate(361.091797 0)"/>
      <use xlink:href="#DejaVuSans-61" transform="translate(388.875 0)"/>
      <use xlink:href="#DejaVuSans-70" transform="translate(450.154297 0)"/>
      <use xlink:href="#DejaVuSans-73" transform="translate(513.630859 0)"/>
      <use xlink:href="#DejaVuSans-65" transform="translate(565.730469 0)"/>
      <use xlink:href="#DejaVuSans-20" transform="translate(627.253906 0)"/>
      <use xlink:href="#DejaVuSans-28" transform="translate(659.041016 0)"/>
      <use xlink:href="#DejaVuSans-32" transform="translate(698.054688 0)"/>
      <use xlink:href="#DejaVuSans-30" transform="translate(761.677734 0)"/>
      <use xlink:href="#DejaVuSans-32" transform="translate(825.300781 0)"/>
      <use xlink:href="#DejaVuSans-32" transform="translate(888.923828 0)"/>
      <use xlink:href="#DejaVuSans-2d" transform="translate(952.546875 0)"/>
      <use xlink:href="#DejaVuSans-31" transform="translate(988.630859 0)"/>
      <use xlink:href="#DejaVuSans-31" transform="translate(1052.253906 0)"/>
      <use xlink:href="#DejaVuSans-2d" transform="translate(1115.876953 0)"/>
      <use xlink:href="#DejaVuSans-31" transform="translate(1151.960938 0)"/>
      <use xlink:href="#DejaVuSans-30" transform="translate(1215.583984 0)"/>
      <use xlink:href="#DejaVuSans-29" transform="translate(1279.207031 0)"/>
     </g>
    </g>
   </g>
  </g>
 </g>
 <defs>
  <clipPath id="p0fdeb41d41">
   <rect x="42.620313" y="22.318125" width="644.731521" height="292.6"/>
  </clipPath>
 </defs>
</svg>
